<?xml version="1.0" standalone="no"?>
<!DOCTYPE svg PUBLIC "-//W3C//DTD SVG 20010904//EN"
 "http://www.w3.org/TR/2001/REC-SVG-20010904/DTD/svg10.dtd">
<svg version="1.0" xmlns="http://www.w3.org/2000/svg"
 width="571.000000pt" height="600.000000pt" viewBox="0 0 571.000000 600.000000"
 preserveAspectRatio="xMidYMid meet">

<g transform="translate(0.000000,600.000000) scale(0.100000,-0.100000)"
fill="#000000" stroke="none">
<path d="M2665 5994 c-199 -20 -371 -51 -498 -88 -114 -34 -217 -80 -217 -97
0 -5 -13 -15 -30 -24 -18 -9 -30 -23 -30 -35 0 -13 -11 -25 -27 -32 -16 -7
-44 -24 -63 -39 -19 -15 -62 -41 -95 -60 -33 -18 -114 -62 -180 -98 -159 -87
-249 -153 -384 -279 -41 -40 -48 -41 -22 -3 40 55 21 45 -54 -29 -40 -40 -72
-77 -69 -82 3 -4 -1 -8 -8 -8 -8 0 -32 -18 -53 -40 -38 -39 -65 -51 -65 -29 0
6 -12 -4 -27 -22 -15 -17 -45 -45 -67 -61 -62 -44 -220 -220 -315 -350 -85
-115 -149 -223 -183 -305 -10 -24 -28 -60 -41 -80 -13 -21 -30 -56 -37 -78 -7
-22 -18 -53 -26 -70 -29 -65 -54 -137 -54 -154 0 -10 -7 -32 -15 -48 -22 -43
-53 -171 -60 -245 -3 -35 -14 -115 -23 -178 -25 -172 -23 -561 5 -780 12 -91
30 -210 41 -265 13 -65 19 -132 18 -190 -1 -49 2 -106 6 -125 5 -19 16 -63 23
-97 8 -34 31 -104 51 -155 20 -51 47 -124 61 -163 38 -106 223 -454 253 -475
3 -3 25 -32 47 -66 23 -33 58 -75 79 -93 20 -18 55 -56 77 -85 76 -96 269
-274 483 -446 104 -83 242 -170 354 -222 438 -204 510 -230 765 -274 155 -26
355 -32 415 -11 26 9 36 18 38 38 3 22 -4 28 -45 46 -26 12 -69 29 -95 38 -27
9 -48 19 -48 22 0 3 7 3 15 -1 8 -3 15 -1 15 5 0 6 -13 7 -33 4 -27 -5 -40 -2
-64 19 -17 15 -44 26 -59 26 -16 0 -36 5 -44 10 -12 8 -9 9 10 6 14 -3 60 -8
103 -11 60 -4 78 -2 75 7 -3 7 -15 15 -29 19 -20 6 -21 7 -4 9 15 1 16 3 5 7
-16 6 -30 23 -30 37 0 5 19 5 43 1 23 -3 92 -9 152 -11 154 -6 197 -10 217
-19 27 -11 11 -25 -27 -25 -19 0 -37 -4 -40 -10 -10 -15 -91 -12 -105 4 -6 8
-18 12 -26 9 -8 -3 -14 1 -14 8 -1 9 -6 6 -13 -6 -12 -19 -67 -30 -67 -13 0 4
5 8 10 8 6 0 10 5 10 11 0 5 -13 2 -30 -8 -16 -9 -30 -21 -30 -25 0 -4 63 -8
140 -8 87 0 140 -4 140 -10 0 -5 14 -10 30 -10 17 0 30 5 30 11 0 8 5 8 15 -1
19 -16 81 -5 89 16 5 14 8 14 22 0 8 -9 30 -16 47 -16 29 1 30 2 12 12 -19 11
-19 11 0 19 30 11 87 11 80 -1 -3 -5 -17 -10 -30 -10 -17 0 -23 -5 -22 -18 1
-16 6 -18 34 -12 17 4 34 5 37 2 4 -3 6 -1 6 4 0 5 19 8 43 7 32 -2 37 -1 22
6 -18 9 -17 10 7 8 15 -1 24 -5 21 -10 -8 -13 146 4 222 25 39 10 113 30 165
44 52 14 108 31 125 39 78 35 109 45 118 36 11 -11 72 9 183 61 44 21 85 38
91 38 17 0 138 66 228 124 44 29 98 64 120 78 37 23 107 84 235 203 96 90 215
228 228 266 10 27 21 41 38 45 13 3 35 20 48 37 l25 31 -21 18 c-26 22 -34 23
-42 3 -3 -8 -10 -15 -16 -15 -6 0 -4 10 5 24 8 13 13 30 10 38 -4 10 1 17 14
21 17 4 19 0 15 -27 l-4 -31 25 30 c29 35 31 45 9 45 -8 0 -12 5 -9 10 4 6 14
9 23 6 21 -6 60 48 86 119 11 28 36 77 56 110 21 33 43 82 50 108 9 32 16 44
21 35 6 -9 8 -7 8 7 -1 11 11 51 25 88 27 71 33 102 16 92 -5 -3 -10 -16 -10
-28 0 -12 -7 -31 -15 -41 -8 -10 -12 -22 -10 -26 3 -4 -2 -14 -11 -21 -13 -11
-15 -9 -12 16 2 21 -2 30 -14 33 -20 4 -71 -88 -62 -111 3 -8 -2 -20 -11 -27
-13 -11 -15 -6 -15 40 0 30 3 50 6 47 9 -8 44 57 44 81 0 10 6 24 13 31 10 11
9 13 -5 8 -17 -6 -16 9 1 38 3 6 13 33 22 60 10 28 17 42 18 33 2 -29 21 -20
27 11 4 17 15 38 25 47 18 16 19 16 19 -3 0 -10 -7 -28 -15 -39 -8 -10 -15
-23 -15 -28 0 -6 6 -2 13 8 12 16 13 16 15 -6 2 -13 4 -38 4 -55 2 -42 9 -42
27 -1 8 18 19 39 25 47 6 8 12 24 13 35 2 12 5 39 7 61 3 22 3 31 0 20 -4 -11
-12 -27 -19 -35 -7 -8 -16 -25 -20 -38 -4 -13 -12 -21 -18 -19 -13 5 -11 48 2
57 7 4 14 35 23 98 1 6 4 12 8 12 4 0 7 13 7 30 0 16 7 38 16 48 10 10 17 23
17 28 0 5 -5 2 -10 -6 -7 -11 -9 -7 -5 15 45 268 67 435 47 351 -4 -17 -11
-28 -16 -25 -10 5 -31 -62 -41 -131 -4 -32 -13 -50 -32 -64 l-25 -19 6 24 c6
21 6 22 -7 7 -15 -19 -30 -13 -41 17 -7 18 -9 18 -24 -10 l-16 -30 -6 25 c-3
14 -3 27 2 28 4 2 8 8 8 13 0 6 -4 7 -10 4 -6 -3 -10 -2 -10 4 0 5 7 14 16 19
15 8 15 10 0 15 -11 5 -17 -1 -22 -21 -3 -15 -7 -32 -9 -39 -2 -7 1 -15 7 -19
10 -6 6 -52 -7 -86 -4 -11 -3 -18 4 -18 6 0 11 6 11 14 0 8 5 18 11 21 13 9 3
-58 -16 -100 -8 -16 -19 -51 -26 -77 -15 -60 -33 -63 -25 -5 3 23 5 43 5 44 1
1 8 9 17 17 11 11 12 21 6 32 -8 14 -13 9 -31 -31 -11 -26 -21 -53 -21 -60 0
-6 -7 -26 -16 -43 -8 -18 -13 -36 -9 -42 3 -5 2 -10 -3 -10 -5 0 -12 -10 -15
-22 -5 -18 -8 -19 -21 -9 -14 12 -14 16 1 45 9 17 20 57 24 90 4 32 13 62 21
67 7 5 9 9 4 9 -5 0 -2 8 7 18 11 12 15 29 12 53 -6 41 3 91 15 84 10 -6 24
29 25 63 1 12 -3 22 -9 22 -5 0 -2 8 7 18 19 20 23 52 7 52 -5 0 -9 15 -7 34
1 22 6 32 15 29 8 -4 12 6 12 31 0 20 -4 36 -9 36 -6 0 -11 21 -13 47 -3 45
-4 46 -21 29 -14 -14 -15 -21 -6 -32 7 -9 9 -28 5 -52 -4 -20 -9 -61 -11 -90
-4 -61 -10 -72 -35 -72 -14 0 -17 5 -13 21 5 16 2 20 -8 17 -8 -3 -13 -10 -12
-16 2 -6 -1 -22 -6 -36 -8 -21 -7 -23 10 -19 10 3 19 9 19 14 0 5 7 9 15 9 19
0 20 -49 1 -110 -14 -44 -15 -45 -17 -12 -1 17 -3 37 -4 42 -1 6 -3 15 -4 20
-2 17 -18 11 -24 -9 -6 -26 3 -72 14 -65 5 3 9 1 9 -5 0 -5 3 -17 7 -27 3 -10
2 -15 -3 -12 -5 4 -9 -17 -10 -47 0 -29 -5 -59 -11 -67 -6 -7 -14 -35 -18 -63
-8 -52 -30 -105 -43 -105 -5 0 -13 5 -20 12 -9 9 -12 4 -12 -22 0 -32 1 -33
16 -14 15 18 15 18 11 -9 -3 -21 0 -27 14 -27 11 0 21 -9 24 -23 8 -32 1 -82
-13 -82 -5 0 -14 -3 -18 -8 -4 -4 -1 -7 6 -7 9 0 7 -5 -6 -16 -13 -11 -15 -17
-6 -20 18 -8 15 -27 -4 -20 -12 4 -15 2 -10 -9 3 -9 0 -15 -9 -15 -8 0 -15 -4
-15 -10 0 -5 5 -10 10 -10 6 0 10 -4 10 -10 0 -5 -7 -10 -15 -10 -8 0 -16 -6
-16 -12 -3 -34 -14 -71 -31 -106 -14 -27 -54 -32 -43 -4 3 9 9 31 12 47 3 17
18 53 33 80 15 28 40 82 55 120 15 39 32 76 38 83 7 9 4 12 -12 12 -14 0 -25
-10 -33 -28 -6 -15 -17 -40 -24 -57 -7 -16 -14 -37 -16 -45 -2 -8 -8 -20 -15
-27 -6 -7 -13 -18 -16 -25 -2 -7 -8 -10 -11 -6 -7 6 4 36 37 105 6 13 8 26 5
29 -4 3 -9 -4 -13 -15 -3 -12 -10 -21 -14 -21 -16 0 -43 -88 -33 -106 10 -17
-21 -105 -39 -112 -5 -2 -9 -12 -9 -23 0 -11 -7 -22 -15 -25 -8 -4 -15 -15
-15 -25 0 -11 -7 -22 -15 -25 -8 -4 -12 -11 -9 -18 3 -6 -1 -2 -10 8 -14 17
-14 20 1 31 16 12 16 14 0 29 -21 21 -21 22 -2 30 8 3 14 2 12 -2 -1 -4 2 -9
8 -12 5 -3 14 8 19 23 10 27 4 39 -27 49 -11 4 77 173 90 173 6 0 15 3 19 7 4
5 1 8 -6 8 -11 0 -11 3 -2 12 7 7 12 22 12 35 0 13 5 23 11 23 5 0 8 4 4 9 -3
5 2 29 10 53 39 110 54 158 69 227 9 41 22 83 28 94 9 17 8 19 -6 14 -9 -4
-16 -2 -16 3 0 6 6 10 14 10 13 0 26 20 26 41 0 5 -7 9 -15 9 -8 0 -14 -3 -13
-7 0 -5 -6 -24 -15 -44 -9 -20 -14 -46 -12 -58 5 -27 -4 -53 -16 -45 -5 3 -6
16 -3 30 4 14 2 24 -5 24 -6 0 -11 -4 -11 -9 0 -21 -73 -160 -81 -155 -10 6
-23 -41 -16 -59 3 -9 -3 -13 -17 -13 -15 1 -22 -6 -24 -24 -2 -20 -1 -22 7
-10 9 12 11 11 11 -6 0 -12 -5 -35 -11 -53 -6 -18 -9 -35 -5 -38 8 -8 37 17
31 27 -2 4 4 15 15 25 11 10 20 24 20 32 0 7 9 13 20 13 11 0 20 -4 20 -10 0
-5 -7 -10 -15 -10 -9 0 -15 -9 -15 -25 0 -14 -5 -25 -11 -25 -5 0 -7 -4 -4
-10 3 -5 0 -7 -8 -4 -10 3 -24 -16 -46 -61 -20 -43 -35 -64 -43 -59 -7 5 -9 2
-5 -9 7 -18 -58 -114 -67 -99 -3 6 -1 14 5 17 5 4 8 14 5 22 -3 8 -2 12 2 10
8 -6 33 19 26 26 -3 2 11 23 31 47 34 40 46 80 25 80 -10 0 -14 -14 -11 -39 2
-7 -3 -10 -9 -6 -6 3 -9 1 -8 -6 2 -7 -6 -15 -17 -17 -11 -2 -35 -17 -54 -33
-43 -35 -56 -29 -30 16 12 20 19 46 17 62 l-4 28 -11 -27 c-7 -14 -17 -29 -22
-33 -6 -3 -11 -14 -11 -24 0 -10 -9 -30 -21 -45 -11 -14 -16 -26 -9 -26 7 0 5
-11 -5 -30 -8 -16 -15 -36 -15 -44 0 -8 -6 -17 -12 -19 -10 -4 -10 -6 -1 -6 7
-1 23 15 35 34 24 36 45 48 34 19 -6 -15 -4 -15 11 -3 10 8 21 19 25 24 14 18
9 -9 -7 -39 -16 -31 -11 -51 6 -26 9 12 10 12 5 -3 -3 -10 -6 -23 -6 -27 0 -5
-9 -14 -19 -19 -14 -8 -20 -7 -25 5 -3 8 -2 12 4 9 6 -3 10 1 10 10 0 12 -5
15 -16 11 -14 -5 -15 -4 -4 9 10 12 10 15 -1 15 -8 0 -22 -12 -31 -27 -10 -16
-18 -22 -18 -15 0 7 -5 10 -11 6 -22 -13 -29 20 -8 39 30 28 19 42 -21 27 -3
-1 -9 -2 -14 -1 -5 1 -6 -5 -2 -14 3 -9 2 -13 -4 -10 -15 10 -23 -21 -11 -43
9 -17 8 -19 -9 -15 -16 4 -20 0 -22 -23 -1 -16 -2 -37 -3 -46 -1 -19 -15 -37
-15 -20 0 7 -7 12 -15 12 -8 0 -15 -5 -15 -10 0 -13 -43 -56 -52 -53 -5 2 -8
-5 -8 -14 0 -9 -10 -27 -22 -40 -12 -13 -16 -23 -10 -23 20 0 13 -13 -29 -58
-45 -46 -61 -50 -33 -8 9 15 14 29 11 32 -9 9 -27 -6 -27 -22 0 -8 -10 -14
-22 -15 -13 0 -17 -3 -10 -6 6 -2 12 -11 12 -19 0 -8 6 -14 13 -14 16 -1 -9
-15 -43 -25 -24 -7 -24 -7 -5 9 12 9 15 15 7 16 -7 0 -11 4 -7 9 3 5 2 12 -3
15 -15 9 -33 -11 -37 -42 -4 -31 -36 -72 -56 -72 -6 0 -9 -9 -6 -20 5 -19 -16
-46 -65 -82 -12 -10 -36 -29 -53 -43 -28 -24 -49 -36 -118 -64 -34 -14 -37
-14 -37 -1 0 6 9 10 19 10 23 0 40 22 22 28 -8 3 -7 8 5 16 12 9 14 15 6 20
-7 4 -12 2 -12 -3 0 -6 -5 -11 -11 -11 -5 0 -7 5 -3 12 4 6 3 8 -4 4 -6 -3 -9
-15 -7 -25 3 -14 -1 -18 -16 -14 -14 4 -19 0 -19 -15 0 -24 -29 -38 -44 -21
-8 9 -7 10 7 6 9 -4 17 -2 17 3 0 6 -10 10 -22 11 -13 0 -17 3 -11 6 10 4 10
9 -2 26 -11 16 -12 24 -2 35 10 13 8 14 -13 7 -34 -10 -49 -25 -26 -25 12 0
16 -5 12 -16 -3 -9 -6 -18 -6 -20 0 -3 -4 -2 -10 1 -5 3 -10 1 -10 -5 0 -6 -4
-8 -10 -5 -5 3 -10 -1 -10 -9 0 -9 5 -16 11 -16 6 0 8 -9 4 -20 -4 -11 -2 -20
4 -20 6 0 11 7 11 16 0 8 5 12 10 9 6 -3 10 -14 10 -24 0 -14 -12 -22 -47 -30
-26 -7 -58 -20 -72 -30 -26 -19 -71 -14 -71 8 0 5 -22 2 -50 -7 -50 -17 -65
-32 -32 -32 14 0 15 -2 2 -10 -20 -13 -33 -13 -25 0 3 6 -1 10 -9 10 -9 0 -16
4 -16 8 0 11 66 42 90 42 10 0 22 5 26 11 5 8 -1 10 -20 7 -20 -4 -26 -2 -22
8 7 19 -11 18 -22 -2 -8 -14 -10 -14 -26 1 -9 10 -20 14 -24 10 -4 -4 -1 -10
6 -12 22 -8 13 -33 -13 -33 -15 0 -25 6 -25 14 0 8 -6 17 -12 19 -10 4 -10 6
0 6 6 1 12 7 12 15 0 20 21 25 50 13 33 -13 79 -15 77 -2 -1 5 13 16 31 24 17
8 32 18 32 23 0 5 -10 4 -21 -3 -21 -11 -21 -11 -3 15 11 14 27 26 38 26 12 0
16 5 13 14 -3 8 -1 17 6 20 8 3 8 5 -2 5 -7 1 -53 -19 -102 -44 -49 -24 -95
-43 -102 -41 -6 1 -9 1 -4 -1 18 -11 -8 -23 -46 -22 l-42 2 35 7 35 8 -35 -1
c-30 -2 -35 -5 -32 -24 2 -12 -3 -25 -10 -30 -9 -5 -2 -10 22 -13 l35 -5 0
-54 c0 -39 -4 -56 -15 -59 -13 -5 -13 -3 -1 11 12 15 11 17 -5 17 -16 0 -16 2
-4 10 18 11 13 16 -24 26 -21 5 -27 4 -22 -5 4 -6 2 -11 -3 -11 -21 0 -11 21
14 30 32 12 31 18 -1 30 -14 6 -22 14 -19 20 3 5 0 10 -7 10 -10 0 -9 3 2 11
16 12 7 9 -60 -18 l-35 -14 33 4 c17 2 32 0 32 -4 0 -8 -31 -23 -44 -20 -4 1
-14 -4 -22 -10 -11 -9 -18 -8 -29 1 -9 7 -19 10 -22 6 -4 -4 -1 -11 7 -16 11
-7 9 -11 -13 -19 -18 -7 -25 -15 -21 -26 4 -10 0 -15 -10 -15 -13 0 -15 -4 -6
-19 13 -25 13 -34 0 -26 -5 3 -10 2 -10 -3 0 -6 -10 -8 -22 -4 -14 3 -19 2
-14 -6 4 -7 5 -12 2 -12 -3 0 -10 10 -17 22 -9 18 -9 20 4 15 18 -7 42 17 33
32 -4 6 -17 4 -34 -5 -21 -10 -28 -20 -27 -41 1 -27 -10 -43 -29 -43 -4 0 -5
8 -1 18 5 14 4 15 -6 5 -8 -8 -43 -14 -88 -14 -42 -1 -65 -4 -52 -6 19 -4 21
-7 10 -14 -13 -9 13 -6 62 7 11 3 19 -3 22 -16 4 -15 2 -19 -6 -13 -7 5 -30 6
-52 3 -39 -5 -39 -6 -12 -13 15 -4 33 -4 39 -1 7 5 9 2 5 -9 -5 -13 1 -18 21
-23 46 -10 48 -12 15 -13 -18 -1 -33 -6 -33 -11 0 -6 16 -8 37 -6 23 3 40 0
45 -7 6 -9 8 -9 8 1 0 6 10 12 23 12 12 0 29 5 37 10 12 7 8 10 -15 11 -26 0
-27 2 -10 9 11 5 39 9 62 9 23 1 54 6 68 11 16 6 33 7 42 1 13 -7 10 -10 -15
-16 -31 -6 -42 -27 -22 -40 12 -7 4 -25 -11 -25 -6 0 -7 5 -4 10 3 6 -3 10
-14 10 -12 0 -21 4 -21 9 0 5 -9 7 -20 4 -11 -3 -18 -9 -15 -13 9 -15 -16 -22
-31 -9 -10 8 -18 9 -22 2 -4 -5 -20 -13 -36 -17 -23 -6 -27 -9 -15 -17 12 -7
11 -9 -3 -9 -10 0 -18 5 -18 10 0 6 -8 10 -19 10 -13 0 -18 -7 -18 -25 0 -31
30 -42 62 -21 15 10 26 12 30 6 4 -7 13 -7 24 0 12 6 30 6 51 0 18 -5 40 -6
49 -1 9 5 21 6 28 4 6 -2 14 1 18 6 3 6 17 11 31 11 14 0 34 5 45 10 13 7 25
8 37 1 20 -11 10 -17 -48 -24 -19 -3 -44 -7 -55 -10 -11 -2 -39 -8 -62 -12
-30 -5 -40 -10 -36 -21 3 -8 -1 -14 -8 -14 -10 0 -10 -3 -1 -12 17 -17 15 -31
-3 -24 -9 3 -15 0 -15 -10 0 -15 2 -15 24 -1 23 15 24 15 24 -11 0 -15 -5 -30
-10 -33 -17 -11 10 -59 34 -59 19 0 20 2 8 10 -13 8 -13 10 2 10 26 0 48 -11
48 -25 0 -12 -60 -26 -131 -29 -20 0 -44 -8 -54 -16 -9 -8 -27 -14 -38 -15
-11 0 -22 -6 -25 -13 -3 -9 5 -11 28 -7 20 4 29 2 25 -5 -3 -5 -16 -10 -28
-10 -15 0 -18 -3 -9 -8 8 -6 0 -15 -27 -30 -38 -22 -83 -32 -51 -12 8 5 12 12
9 15 -9 9 -40 -6 -33 -16 3 -5 -3 -9 -13 -10 -16 0 -16 -1 2 -10 13 -6 -15 -7
-80 -4 -122 7 -148 10 -162 18 -6 4 -19 4 -28 1 -9 -4 -37 5 -65 20 -26 14
-55 23 -64 20 -10 -4 -18 1 -23 12 -7 20 -22 34 -37 34 -4 0 -5 -7 -2 -16 4
-12 1 -14 -14 -9 -15 5 -18 3 -14 -9 4 -11 13 -14 31 -10 14 4 28 2 32 -3 3
-5 26 -14 51 -21 l45 -11 -50 5 c-109 10 -139 15 -150 24 -7 6 -15 7 -18 3 -4
-3 -7 -1 -7 5 0 5 4 12 9 14 4 2 -1 12 -12 23 -11 11 -17 15 -13 8 4 -8 -6
-10 -36 -8 -24 2 -49 -2 -57 -8 -12 -10 -13 -9 -8 6 4 10 7 20 7 22 0 2 10 1
23 -2 12 -3 19 -3 16 1 -3 3 -23 8 -45 10 -21 2 -57 7 -79 11 l-40 6 28 -18
c32 -21 35 -33 6 -33 -12 0 -17 4 -13 11 4 7 0 9 -14 5 -17 -6 -21 -3 -19 14
1 11 9 23 19 26 10 3 16 10 13 15 -9 14 15 11 71 -10 39 -15 59 -18 90 -11 22
5 40 5 42 0 2 -5 17 -4 34 1 17 4 73 6 125 4 73 -4 94 -2 90 8 -2 7 -22 12
-48 13 -70 1 -74 2 -74 28 0 18 3 22 12 15 6 -6 27 -7 46 -4 29 6 37 3 46 -14
15 -28 26 -26 27 4 2 25 -9 31 -46 27 -30 -4 -100 10 -100 19 0 5 23 9 51 9
43 0 50 3 45 16 -3 9 -6 18 -6 20 0 2 -9 4 -21 4 -11 0 -17 -5 -14 -10 3 -6
-3 -10 -13 -10 -23 0 -38 30 -22 40 7 4 -1 12 -19 20 -17 7 -28 16 -26 21 3 4
-8 4 -24 -1 -32 -9 -71 -3 -71 11 0 5 -10 9 -22 9 -37 -1 -88 12 -95 23 -4 6
6 7 30 3 48 -9 57 10 12 28 -39 16 -43 27 -20 50 14 13 13 16 -4 26 -11 5 -31
10 -45 10 -14 0 -28 5 -32 11 -5 8 4 10 30 7 20 -2 36 0 36 4 0 4 -7 8 -16 8
-8 0 -13 4 -10 9 3 5 -9 11 -27 14 -17 3 -41 9 -51 13 -16 6 -18 4 -14 -14 5
-18 1 -23 -25 -30 -44 -12 -81 0 -85 25 -3 20 -32 54 -32 38 0 -4 -14 5 -31
19 -17 14 -35 24 -40 20 -5 -3 -12 2 -15 10 -3 9 -10 13 -15 10 -13 -7 8 -44
25 -44 18 0 65 -39 47 -40 -7 0 -11 -6 -7 -15 3 -8 1 -15 -4 -15 -5 0 -12 9
-15 20 -7 21 -53 50 -81 50 -10 0 5 -21 42 -56 45 -43 53 -55 34 -49 -14 4
-26 11 -28 16 -2 4 -9 6 -17 3 -7 -3 -35 4 -62 17 -26 12 -52 21 -56 20 -5 -1
-11 7 -14 17 -5 22 -46 44 -66 36 -7 -2 -23 6 -36 20 -13 13 -29 22 -37 19
-22 -8 -17 -20 11 -27 15 -4 23 -11 19 -17 -4 -8 -10 -7 -17 0 -16 16 -42 15
-29 -1 6 -7 11 -17 11 -23 0 -5 9 -11 20 -13 11 -2 23 -11 26 -22 6 -18 33
-31 73 -34 33 -3 27 8 -26 43 -26 17 -40 31 -32 31 8 0 26 -9 40 -20 14 -11
31 -20 38 -20 7 0 15 -6 18 -14 3 -8 14 -12 27 -8 l22 5 -23 -25 c-22 -25 -16
-48 8 -33 6 3 10 -1 10 -10 0 -9 4 -14 9 -11 5 4 11 3 13 -2 8 -19 69 -52 96
-52 17 0 34 -5 37 -10 5 -7 -11 -9 -47 -5 -44 4 -49 4 -28 -5 24 -11 24 -12 6
-26 -11 -8 -14 -14 -8 -14 7 0 12 -5 12 -10 0 -7 -7 -7 -20 0 -11 6 -18 15
-15 20 3 5 -5 16 -17 25 -20 13 -24 13 -33 1 -9 -12 -13 -12 -30 0 -10 8 -27
14 -38 14 -13 0 -17 5 -14 15 4 8 2 17 -3 20 -4 3 -10 -1 -13 -7 -4 -10 -7
-11 -18 -1 -10 10 -10 13 0 13 7 0 9 5 6 10 -10 16 -25 12 -25 -6 0 -13 -3
-14 -14 -5 -16 14 -17 52 -2 63 6 4 7 10 3 14 -3 4 -16 -4 -27 -17 -18 -22
-21 -23 -33 -7 -8 10 -21 15 -34 12 -15 -4 -22 0 -26 17 -4 14 -1 27 6 31 8 5
4 8 -10 8 -13 0 -23 -4 -23 -10 0 -18 -21 -10 -48 18 -15 16 -54 45 -87 65
-33 19 -76 49 -95 66 -19 16 -50 42 -68 57 l-34 27 4 -24 c2 -16 11 -25 25
-27 13 -2 30 -17 40 -33 10 -16 20 -29 24 -29 3 0 17 -10 30 -23 13 -13 65
-54 116 -91 55 -41 93 -76 95 -88 4 -25 69 -63 79 -46 4 6 14 8 24 5 9 -4 13
-12 9 -19 -5 -8 -2 -9 10 -5 11 4 46 -7 92 -29 59 -28 74 -39 69 -53 -7 -24
38 -46 55 -26 6 8 18 11 27 8 11 -4 12 -8 2 -13 -7 -5 -9 -15 -4 -26 5 -11 8
-22 7 -25 -1 -3 16 -6 36 -5 26 1 37 -3 37 -14 0 -8 15 -22 34 -31 l34 -16
-23 -16 -23 -16 29 -11 c16 -6 35 -13 42 -15 6 -2 12 0 12 5 0 6 -5 10 -12 10
-6 0 -9 2 -6 5 8 8 39 -6 33 -15 -3 -5 3 -14 12 -20 16 -10 16 -11 -2 -4 -11
3 -44 9 -74 12 -41 3 -52 2 -46 -7 4 -7 -12 -3 -35 9 -23 12 -40 24 -37 26 3
3 14 0 26 -7 11 -7 24 -9 28 -5 4 5 2 11 -4 13 -23 8 -14 25 10 18 17 -5 19
-4 7 4 -13 10 -13 11 0 11 14 1 -39 29 -94 50 -15 5 -26 16 -26 25 0 8 -21 24
-48 36 -26 12 -56 26 -67 32 -18 9 -19 9 -6 -6 7 -10 25 -23 40 -30 14 -7 27
-18 27 -25 1 -6 2 -16 3 -22 0 -5 8 -10 16 -10 8 0 15 -4 15 -10 0 -12 -119
38 -141 59 -39 39 -70 61 -84 61 -8 0 -15 4 -15 10 0 5 -17 14 -37 20 -41 11
-86 40 -63 40 9 0 5 9 -11 26 l-24 26 39 -21 c22 -11 42 -18 45 -16 5 6 8 4
-52 44 -35 24 -52 30 -59 23 -8 -8 -7 -16 2 -27 8 -10 10 -19 4 -25 -6 -6 -31
5 -67 29 -31 20 -54 41 -50 45 4 4 1 5 -7 2 -21 -8 -54 20 -47 38 4 10 -2 20
-16 27 -12 7 -41 29 -64 50 -24 22 -48 39 -55 39 -23 0 -158 143 -158 167 0 8
-4 12 -9 9 -5 -3 -17 6 -26 20 -9 15 -45 59 -80 99 -60 68 -101 132 -97 148 1
4 -2 7 -6 7 -5 0 -21 22 -36 50 -15 27 -23 50 -18 50 5 0 20 -21 33 -46 23
-45 43 -63 56 -50 3 3 -2 15 -12 26 -10 11 -14 20 -9 20 5 0 21 -15 36 -34 26
-33 26 -34 5 -29 -20 4 -21 3 -4 -10 9 -8 17 -19 17 -25 0 -10 29 -26 43 -23
5 1 6 -3 2 -9 -4 -6 0 -22 9 -35 9 -13 16 -29 16 -35 0 -23 81 -120 100 -120
25 0 25 11 2 41 -43 56 -29 60 26 6 32 -32 61 -54 65 -50 10 9 47 11 41 2 -2
-4 1 -11 7 -15 7 -4 9 -3 5 4 -3 6 -2 13 4 17 6 4 8 11 5 16 -4 5 2 6 12 2 17
-6 17 -5 -1 15 -19 21 -43 31 -32 13 3 -5 -1 -11 -9 -15 -8 -3 -15 -1 -15 4 0
6 -7 10 -15 10 -8 0 -19 10 -26 21 -6 12 -23 32 -38 45 -14 13 -21 24 -14 24
6 0 27 -18 46 -40 40 -47 53 -52 29 -10 -9 16 -20 30 -24 30 -4 0 -21 15 -39
33 -17 17 -28 27 -25 20 3 -6 2 -14 -3 -17 -11 -7 -110 93 -111 112 0 6 -5 12
-11 12 -6 0 -8 9 -4 20 4 11 -1 32 -12 50 -17 30 -33 39 -33 20 0 -5 5 -10 10
-10 6 0 10 -7 10 -16 0 -9 -5 -12 -12 -8 -8 5 -9 2 -5 -10 6 -14 2 -17 -16
-14 -19 3 -22 8 -19 38 2 31 0 35 -22 35 -16 0 -21 -4 -15 -10 5 -5 9 -15 9
-23 0 -7 -16 2 -37 21 -42 40 -40 63 6 65 24 0 31 -4 31 -19 0 -10 7 -19 15
-19 17 0 21 35 5 45 -12 8 -13 52 -1 59 5 3 18 -10 29 -28 17 -29 18 -34 5
-29 -11 4 -14 2 -9 -5 4 -7 14 -12 22 -12 8 0 14 -3 14 -7 0 -5 14 -24 30 -43
17 -19 27 -27 24 -17 -8 21 14 23 22 2 8 -21 21 -19 27 5 3 12 -1 24 -11 30
-16 9 -16 9 -1 10 9 0 20 -7 23 -16 3 -9 13 -14 21 -11 9 4 12 1 8 -8 -3 -8
-9 -12 -14 -9 -5 3 -9 -4 -9 -16 0 -12 4 -19 8 -16 5 3 16 -13 26 -34 16 -36
26 -45 48 -41 4 0 12 -14 17 -32 5 -17 10 -26 10 -19 1 9 7 8 26 -4 13 -8 29
-13 35 -9 7 4 10 0 8 -10 -4 -24 18 -30 24 -7 3 12 -2 23 -13 31 -11 6 -19 18
-19 26 0 8 -4 15 -10 15 -19 0 -5 25 20 37 21 9 22 12 9 18 -11 4 -15 13 -12
26 5 16 8 18 15 7 5 -8 7 -3 4 16 -3 16 -13 37 -22 47 -43 48 -94 99 -94 96 0
-14 31 -62 40 -62 5 0 10 -3 10 -7 0 -29 -3 -31 -19 -10 -23 27 -31 28 -31 5
0 -15 -4 -13 -20 7 -13 18 -15 27 -7 33 9 5 7 11 -5 21 -19 14 -78 121 -78
140 1 6 6 1 13 -12 7 -12 22 -29 34 -37 18 -13 22 -13 27 0 4 10 -1 15 -14 15
-13 0 -22 9 -26 28 -4 15 -10 32 -14 37 -11 15 -50 124 -50 138 0 7 9 1 20
-13 l20 -25 0 28 c0 31 12 34 37 9 10 -9 29 -26 42 -37 24 -20 24 -20 14 0
-36 72 -61 135 -59 146 0 3 -4 12 -11 20 -14 18 -44 102 -38 108 3 2 6 2 8 0
39 -56 57 -87 57 -97 0 -7 4 -12 10 -12 5 0 16 -12 24 -27 20 -36 20 -16 1 30
-8 21 -12 48 -9 65 3 17 2 38 -4 47 -13 24 -3 58 14 51 19 -7 19 -5 -26 150
-56 191 -56 191 -81 354 -32 206 -33 520 -2 665 12 55 24 123 28 150 3 28 13
69 21 93 16 50 18 65 5 57 -34 -21 4 102 45 146 27 28 32 59 9 59 -8 0 -15 5
-15 10 0 6 5 10 10 10 6 0 10 8 10 19 0 10 7 24 15 31 11 9 15 9 15 1 0 -7 5
-9 11 -5 8 5 8 1 0 -14 -15 -29 -14 -37 4 -22 8 7 15 21 15 31 0 11 -7 19 -15
19 -8 0 -15 4 -15 10 0 5 -7 7 -15 4 -16 -7 -21 11 -6 20 14 9 42 -5 34 -17
-3 -6 -1 -7 6 -3 6 4 9 11 6 16 -3 4 9 20 25 34 31 25 31 25 14 58 -16 31 -17
31 -25 11 -4 -12 -9 -30 -11 -40 -4 -21 -22 -43 -37 -43 -16 0 -13 26 5 45 9
8 13 22 10 30 -3 9 0 15 9 15 9 0 24 14 35 32 12 20 28 32 45 34 15 2 25 0 22
-2 -3 -3 4 -15 15 -26 l21 -21 31 39 c17 21 46 54 64 72 18 17 31 32 29 32 -6
0 32 45 91 108 23 25 42 50 42 54 0 4 5 8 11 8 18 0 41 30 35 45 -9 25 -30 17
-86 -32 -105 -94 -130 -124 -124 -151 4 -13 -4 -30 -25 -51 -17 -18 -29 -36
-27 -40 7 -11 -22 -51 -37 -51 -8 0 -8 3 1 12 14 14 16 38 2 38 -5 0 -7 -7 -4
-15 4 -8 1 -15 -4 -15 -19 0 -22 17 -7 30 8 7 15 24 15 39 0 29 13 54 26 51 5
-1 10 4 12 12 2 9 0 8 -7 -2 -9 -13 -11 -13 -16 1 -3 8 -14 15 -24 16 -14 1
-17 -3 -14 -18 4 -16 0 -19 -25 -19 -25 0 -37 -8 -62 -44 -32 -48 -36 -62 -19
-68 15 -5 0 -38 -18 -38 -9 0 -11 5 -7 13 5 8 2 7 -10 -2 -13 -11 -20 -11 -29
-2 -14 14 -9 23 81 146 34 47 62 89 62 94 0 4 8 15 18 24 10 9 24 32 32 52 8
19 20 35 27 35 8 0 12 4 8 9 -6 11 42 87 74 115 11 10 25 15 32 10 8 -5 11 -2
7 7 -3 9 10 25 36 43 26 19 36 22 26 10 -14 -18 -14 -18 2 -5 13 9 15 18 8 31
-9 17 2 33 55 70 20 15 20 15 0 -8 l-19 -23 24 3 c30 4 150 75 150 89 0 5 9 9
19 9 11 0 26 7 35 15 8 8 19 15 25 15 6 0 11 4 11 9 0 6 20 9 44 8 24 -1 44 1
43 4 -1 4 9 16 23 28 l25 22 -25 -7 c-14 -4 -31 -9 -39 -12 -10 -4 -13 -1 -8
10 4 12 1 14 -13 11 -10 -3 -20 -14 -23 -25 -4 -13 -12 -18 -24 -16 -10 2 -27
-4 -37 -14 -18 -17 -20 -17 -32 0 -19 25 -17 34 6 27 24 -8 74 20 64 36 -3 5
0 16 6 24 10 12 9 16 -4 21 -13 5 -14 9 -5 20 6 8 19 14 27 14 13 0 12 -3 -3
-14 -18 -13 -18 -14 5 -21 15 -5 25 -4 28 4 2 6 8 8 13 5 6 -3 17 0 26 8 15
12 15 11 5 -9 -18 -33 -15 -48 5 -32 15 12 16 12 10 -3 -8 -23 9 -23 54 -2 46
23 60 35 53 45 -3 5 -18 0 -34 -11 -35 -25 -79 -13 -52 14 4 4 7 13 7 19 0 7
7 12 15 12 8 0 14 -6 13 -12 -3 -15 58 7 122 44 43 25 39 29 -14 13 -19 -5
-37 -8 -39 -5 -10 9 21 35 42 35 12 0 27 5 34 12 6 6 23 12 37 14 23 2 25 -1
23 -29 -1 -18 -7 -35 -13 -39 -16 -12 17 -9 35 2 10 6 11 10 3 10 -20 0 -15
20 5 20 15 1 15 2 -3 16 -18 14 -18 14 10 9 17 -4 47 1 70 9 l40 16 -67 -6
c-38 -3 -68 -3 -68 0 0 8 62 34 100 41 59 11 71 16 64 28 -4 7 -1 7 7 -1 12
-11 11 -15 -3 -23 -20 -11 -24 -34 -6 -45 6 -4 8 -3 5 3 -4 6 14 13 45 16 36
5 55 3 60 -6 5 -8 8 -8 8 -1 0 18 34 29 118 38 18 2 39 9 45 15 9 9 8 11 -5 6
-10 -4 -18 -3 -18 3 0 15 57 32 127 39 34 3 60 10 57 14 -3 5 2 9 10 9 19 0
21 -26 4 -33 -7 -3 10 -5 37 -4 28 2 55 6 62 10 7 4 21 2 32 -5 15 -9 22 -9
34 0 10 9 38 11 83 8 38 -3 59 -3 47 0 -35 8 -27 24 12 24 28 0 33 -3 28 -17
-3 -10 -3 -15 1 -12 4 4 23 3 42 -1 27 -6 36 -4 43 9 9 15 10 15 16 -1 4 -10
11 -18 17 -18 5 0 6 5 3 10 -3 6 -1 10 5 10 7 0 10 -6 7 -14 -9 -23 12 -35 47
-25 20 6 32 5 34 -1 2 -5 10 -10 18 -10 8 0 14 -9 14 -20 0 -13 7 -20 19 -20
23 0 36 -16 21 -25 -5 -3 -10 -1 -10 4 0 6 -12 11 -27 11 -22 0 -25 -2 -13
-10 12 -8 11 -10 -7 -10 -42 0 -23 -15 50 -40 83 -28 121 -55 97 -70 -12 -8
-9 -10 10 -10 45 1 95 -12 119 -31 13 -10 27 -16 32 -13 5 3 9 0 9 -5 0 -6 -5
-11 -12 -11 -6 0 -8 -3 -5 -7 4 -4 -7 -13 -25 -20 -22 -9 -34 -10 -38 -3 -5 7
-11 6 -20 -5 -15 -18 -20 -18 -44 0 -15 12 -17 17 -7 29 18 21 -22 43 -79 45
-24 0 -49 6 -54 11 -6 6 -23 10 -38 10 -15 0 -28 5 -28 10 0 6 -12 10 -26 10
-41 0 -12 -27 37 -35 24 -4 37 -11 32 -17 -3 -7 -1 -8 5 -4 17 10 62 -4 62
-20 0 -10 -7 -13 -24 -8 -13 3 -26 2 -29 -3 -4 -5 30 -15 73 -22 44 -8 78 -17
75 -21 -3 -4 18 -14 47 -20 29 -7 57 -17 63 -21 5 -5 75 -52 155 -105 80 -53
158 -108 174 -121 17 -14 40 -29 53 -34 13 -5 23 -13 23 -18 0 -6 -7 -8 -15
-5 -8 4 -15 4 -15 1 0 -3 17 -11 37 -18 21 -6 57 -30 80 -52 23 -22 53 -47 65
-55 13 -9 39 -31 58 -49 19 -18 46 -41 60 -52 14 -11 22 -22 19 -25 -3 -4 -17
3 -31 13 -22 18 -28 19 -44 6 -18 -13 -18 -15 -1 -32 14 -14 21 -15 37 -6 10
7 22 9 25 4 3 -5 13 -7 23 -5 18 4 59 -42 47 -54 -3 -3 -11 0 -16 8 -9 13 -10
13 -6 0 2 -8 14 -20 27 -27 24 -12 90 -78 90 -91 1 -4 26 -38 56 -77 30 -38
69 -91 85 -117 17 -27 37 -48 45 -48 8 0 19 -10 24 -22 8 -20 9 -20 9 -4 1 11
-13 41 -30 68 -17 26 -29 54 -26 62 6 14 -14 61 -45 105 -20 28 -14 58 8 40
18 -15 20 11 2 29 -8 8 -9 15 -1 23 16 16 92 -62 125 -130 20 -43 58 -51 58
-13 0 13 -9 35 -20 49 -11 14 -20 30 -20 35 0 21 23 -8 76 -97 31 -52 61 -95
66 -95 5 0 6 5 3 10 -12 19 12 10 31 -12 15 -17 16 -20 3 -16 -30 11 -39 -6
-17 -32 17 -21 19 -22 14 -5 -6 20 -6 20 9 1 8 -11 15 -23 15 -26 0 -10 -52
-32 -58 -25 -3 3 -1 5 5 5 15 0 9 40 -8 50 -8 5 -15 14 -15 20 -1 5 -2 15 -3
20 0 6 -8 10 -16 10 -14 0 -19 12 -16 33 0 4 -7 7 -16 7 -15 0 -16 2 -3 10 8
5 10 10 4 10 -5 0 -15 -5 -22 -12 -9 -9 -12 -8 -13 8 0 10 -3 14 -6 7 -7 -17
47 -85 63 -79 7 3 16 1 19 -4 4 -6 1 -10 -5 -10 -8 0 -9 -7 -5 -17 3 -10 8
-40 11 -67 2 -28 7 -52 12 -55 4 -3 12 -15 18 -26 6 -11 15 -19 20 -17 12 5
34 -65 27 -84 -3 -9 0 -20 7 -24 16 -10 42 -78 42 -110 0 -19 2 -21 9 -8 6 10
-1 45 -21 104 -31 91 -37 124 -21 124 5 0 7 -8 5 -17 -3 -12 3 -22 18 -28 23
-10 38 -55 19 -55 -6 0 -11 -4 -11 -10 0 -5 9 -10 20 -10 12 0 20 -7 20 -17 1
-22 47 -80 56 -71 9 10 -28 108 -41 108 -15 0 -35 44 -34 73 0 21 1 21 10 2 7
-15 8 -10 3 18 -3 26 -2 37 5 32 6 -3 11 -2 11 4 0 5 -5 13 -11 17 -6 3 -22
30 -35 58 -24 52 -31 92 -15 82 5 -4 11 0 14 6 2 7 4 1 4 -14 0 -14 9 -46 20
-70 11 -24 26 -58 33 -76 12 -32 13 -32 27 -12 8 11 11 25 8 30 -3 6 -1 10 4
10 6 0 11 -8 11 -19 0 -10 6 -24 14 -30 13 -11 13 -5 0 41 -7 29 -14 55 -14
58 0 2 14 -11 30 -29 21 -23 28 -37 21 -45 -6 -7 -6 -18 -1 -25 4 -8 6 -20 3
-27 -2 -6 9 -28 26 -47 32 -36 40 -59 19 -56 -28 3 -36 -2 -31 -21 3 -11 9
-17 14 -14 5 3 6 -2 3 -10 -3 -9 -1 -16 5 -16 6 0 8 -6 5 -13 -2 -7 2 -27 11
-43 8 -16 15 -37 15 -46 0 -19 38 -63 47 -55 2 3 0 14 -6 25 -6 12 -11 29 -10
39 0 14 3 12 11 -7 9 -21 33 -105 42 -147 1 -7 5 -16 9 -19 13 -13 7 -33 -8
-28 -8 4 -15 16 -15 28 0 11 -5 28 -11 36 -8 11 -9 3 -4 -29 3 -27 13 -50 24
-58 25 -17 34 -58 19 -86 -15 -27 -17 -52 -6 -69 5 -9 8 -5 8 11 0 20 2 21 15
11 13 -10 15 -9 15 9 0 13 5 21 13 19 16 -4 20 3 13 22 -12 37 -37 203 -32
216 3 7 1 16 -3 19 -5 2 -12 22 -16 42 -4 21 -11 41 -17 44 -7 5 -7 13 1 25 6
11 11 15 11 9 4 -31 10 -47 29 -71 13 -17 21 -41 21 -65 0 -56 21 -189 30
-189 21 0 17 164 -4 199 -3 5 -8 29 -11 52 -3 24 -13 55 -22 68 -9 14 -17 43
-19 66 -3 47 -21 118 -40 161 -7 16 -16 50 -20 75 -4 24 -11 49 -16 56 -5 7
-7 16 -4 22 3 5 2 11 -4 13 -6 2 -12 12 -14 23 -2 11 -7 29 -11 40 -6 17 -3
16 13 -5 17 -20 23 -22 35 -11 13 10 19 8 34 -15 14 -22 18 -49 19 -116 0 -48
4 -91 8 -95 5 -5 5 7 1 26 -6 27 -4 32 6 25 18 -11 31 -12 51 -2 9 4 19 4 21
-2 3 -6 4 -5 3 2 -2 7 -10 12 -20 10 -11 -2 -16 4 -16 18 0 12 -8 38 -18 58
-10 20 -19 53 -20 72 -1 19 -6 37 -10 40 -4 3 -11 12 -17 21 -5 9 -17 27 -26
40 -10 13 -20 35 -23 49 -7 24 -6 24 8 6 9 -11 16 -15 16 -10 0 16 -30 54 -43
54 -7 0 -25 25 -40 54 -26 54 -26 55 -6 61 12 4 26 2 32 -4 6 -6 8 -11 4 -11
-4 0 3 -10 15 -22 13 -13 31 -21 41 -20 12 2 22 -8 33 -35 8 -21 19 -47 23
-58 5 -11 17 -42 26 -70 10 -27 28 -66 40 -85 13 -19 26 -53 30 -75 7 -42 29
-91 50 -112 7 -6 16 -34 20 -60 4 -26 10 -52 14 -58 13 -17 30 -121 24 -145
-4 -16 -3 -21 5 -16 7 4 12 2 12 -3 0 -23 19 -10 24 17 4 18 -3 55 -23 109
-16 45 -27 84 -24 86 2 3 0 13 -6 24 -18 32 -60 185 -54 199 3 8 1 14 -5 14
-5 0 -12 8 -15 18 -2 9 -8 25 -12 35 -5 12 -2 17 8 17 17 0 12 36 -6 47 -6 4
-8 -2 -5 -15 4 -12 2 -22 -3 -22 -5 0 -9 6 -9 14 0 8 -33 79 -72 158 -40 79
-74 146 -76 151 -2 4 3 4 12 1 8 -3 18 -15 22 -26 3 -11 8 -17 11 -15 4 4 -33
79 -62 126 -61 99 -111 167 -100 140 4 -10 2 -20 -3 -23 -14 -8 -53 60 -46 79
4 9 -7 30 -25 50 -17 20 -31 31 -31 25 0 -18 -13 -9 -56 39 -22 25 -31 42 -21
38 32 -12 18 18 -33 74 -28 30 -53 65 -57 79 -3 14 -15 36 -27 50 -13 14 -31
39 -41 55 -45 73 -210 222 -345 311 -23 15 -37 30 -31 33 5 3 11 17 12 30 3
20 -11 36 -91 96 -75 57 -336 215 -355 215 -2 0 -32 13 -67 29 -367 167 -607
221 -1013 226 -121 2 -238 1 -260 -1z m-112 -531 c-7 -2 -19 -2 -25 0 -7 3 -2
5 12 5 14 0 19 -2 13 -5z m-56 -9 c-3 -3 -12 -4 -19 -1 -8 3 -5 6 6 6 11 1 17
-2 13 -5z m3 -35 c0 -11 -4 -17 -10 -14 -5 3 -10 13 -10 21 0 8 5 14 10 14 6
0 10 -9 10 -21z m207 12 c17 -10 16 -11 -2 -12 -13 -1 -10 -4 10 -8 29 -7 29
-7 -12 -12 -23 -2 -40 -1 -37 2 5 8 -61 17 -114 15 -24 -1 -42 2 -42 8 0 15
175 20 197 7z m1703 -21 c8 -5 11 -10 5 -10 -5 0 -21 10 -35 21 -24 20 -5 13
30 -11z m-1610 0 c0 -5 -10 -10 -22 -9 -22 0 -22 1 -3 9 11 5 21 9 23 9 1 1 2
-3 2 -9z m-205 -20 c-3 -5 -10 -10 -16 -10 -5 0 -9 5 -9 10 0 6 7 10 16 10 8
0 12 -4 9 -10z m-57 -7 c-10 -2 -26 -2 -35 0 -10 3 -2 5 17 5 19 0 27 -2 18
-5z m-93 -33 c-3 -5 -10 -10 -16 -10 -5 0 -9 5 -9 10 0 6 7 10 16 10 8 0 12
-4 9 -10z m317 -12 c-5 -5 -18 -8 -28 -5 -15 4 -14 5 4 6 15 1 21 5 16 13 -5
7 -3 8 5 3 8 -5 9 -11 3 -17z m124 7 c-8 -8 -17 -15 -20 -15 -3 0 -6 7 -6 15
0 9 9 15 21 15 18 0 19 -2 5 -15z m137 0 c26 -4 46 -9 44 -12 -8 -7 -147 9
-147 17 0 7 16 7 103 -5z m-693 -14 c0 -6 -4 -13 -10 -16 -5 -3 -10 1 -10 9 0
9 5 16 10 16 6 0 10 -4 10 -9z m684 -20 c4 -5 -3 -7 -14 -4 -23 6 -26 13 -6
13 8 0 17 -4 20 -9z m-409 -11 c-3 -5 -12 -10 -18 -10 -7 0 -6 4 3 10 19 12
23 12 15 0z m-250 -10 c3 -5 -3 -10 -14 -10 -30 0 -27 1 -72 -16 -23 -8 -44
-12 -46 -10 -4 3 101 43 119 45 4 1 10 -3 13 -9z m193 -45 c-2 -1 -19 -5 -38
-8 -34 -6 -34 -6 -11 7 14 8 31 12 38 9 8 -3 13 -7 11 -8z m864 -37 c3 -15 1
-28 -4 -28 -4 0 -8 6 -8 14 0 8 -7 16 -15 20 -22 8 -19 25 4 23 13 -1 21 -10
23 -29z m-994 15 c-10 -2 -28 -2 -40 0 -13 2 -5 4 17 4 22 1 32 -1 23 -4z
m-263 -13 c-3 -5 -12 -10 -18 -10 -7 0 -6 4 3 10 19 12 23 12 15 0z m-45 -22
c0 -4 -8 -8 -18 -8 -10 0 -22 -4 -27 -9 -15 -13 -68 -24 -61 -12 4 5 20 12 36
16 16 4 32 10 34 14 7 10 36 10 36 -1z m-1043 -13 c0 -8 -7 -17 -15 -20 -24
-9 -29 5 -8 21 24 17 23 17 23 -1z m-27 -63 c0 -13 -71 -92 -82 -92 -6 0 -4 8
5 18 10 10 17 22 17 26 0 7 49 56 56 56 2 0 4 -4 4 -8z m875 -2 c-3 -5 -14
-10 -23 -10 -15 0 -15 2 -2 10 20 13 33 13 25 0z m53 -20 c-14 -22 -43 -27
-54 -8 -5 7 -2 9 7 6 8 -3 23 0 34 8 25 19 27 18 13 -6z m-303 -80 c-14 -23 8
-29 36 -10 21 16 29 18 29 8 0 -8 -20 -24 -45 -35 -30 -14 -42 -16 -34 -7 22
27 4 23 -55 -12 -32 -19 -61 -33 -64 -30 -2 3 7 11 22 17 14 7 26 16 26 20 0
7 78 59 88 59 2 0 0 -4 -3 -10z m1794 -19 c11 -7 9 -10 -8 -16 -22 -7 -41 0
-41 16 0 11 30 12 49 0z m136 -63 c7 -7 2 -8 -15 -3 -14 5 -30 8 -37 8 -7 0
-10 4 -7 9 6 10 44 1 59 -14z m-2103 -44 c-15 -17 -29 -30 -31 -28 -2 2 -35
-19 -74 -47 -77 -54 -97 -57 -48 -7 30 31 39 52 24 61 -5 2 -2 2 6 0 7 -2 20
2 28 9 23 19 86 46 105 45 13 -1 11 -7 -10 -33z m-387 -15 c-4 -5 -13 -9 -22
-9 -13 0 -13 3 -3 15 13 15 35 11 25 -6z m565 12 c0 -11 -39 -21 -45 -11 -2 4
-2 10 2 14 10 9 43 7 43 -3z m-145 -11 c-3 -5 -12 -10 -18 -10 -7 0 -6 4 3 10
19 12 23 12 15 0z m62 -32 c-27 -27 -57 -42 -57 -29 0 9 72 62 78 57 2 -2 -8
-15 -21 -28z m-521 -3 c-7 -18 5 -19 24 -2 8 6 6 1 -5 -13 -22 -28 -43 -43
-64 -46 -8 -2 -18 -8 -22 -16 -4 -7 -11 -9 -15 -5 -4 4 1 16 12 26 10 11 30
31 43 45 26 29 36 33 27 11z m3789 -109 c13 -14 26 -22 29 -19 3 4 6 1 6 -5 0
-24 -17 -19 -43 14 -32 39 -26 46 8 10z m-3885 -40 c0 -3 -4 -8 -10 -11 -5 -3
-10 -1 -10 4 0 6 5 11 10 11 6 0 10 -2 10 -4z m3901 -33 c13 -16 12 -17 -3 -4
-10 7 -18 15 -18 17 0 8 8 3 21 -13z m121 -78 c8 -16 8 -18 -2 -8 -14 13 -43
6 -34 -8 3 -6 0 -18 -8 -27 -11 -15 -11 -15 2 -5 10 8 21 9 30 3 8 -6 11 -10
6 -10 -5 0 -2 -7 5 -16 14 -17 21 -84 9 -84 -4 0 -14 14 -23 31 -8 17 -17 26
-21 21 -3 -6 -2 -13 3 -17 13 -7 42 -65 33 -65 -4 1 -20 19 -35 41 -27 39 -27
41 -9 57 10 9 13 14 6 9 -7 -4 -18 3 -29 19 -19 29 -14 64 13 93 16 17 18 17
30 2 8 -9 18 -25 24 -36z m-4082 41 c0 -2 -8 -10 -17 -17 -16 -13 -17 -12 -4
4 13 16 21 21 21 13z m214 -31 c-4 -8 -8 -15 -10 -15 -2 0 -4 7 -4 15 0 8 4
15 10 15 5 0 7 -7 4 -15z m3787 -72 c13 -16 12 -17 -3 -4 -17 13 -22 21 -14
21 2 0 10 -8 17 -17z m154 -45 c22 -34 40 -67 41 -72 0 -6 8 -27 18 -46 17
-33 17 -34 0 -18 -16 16 -18 16 -32 0 -11 -14 -13 -14 -9 -2 3 9 -1 24 -9 35
-13 18 -14 18 -14 -6 0 -17 -3 -20 -9 -10 -6 9 -11 10 -15 2 -12 -19 -24 -3
-18 24 3 17 9 24 18 21 8 -3 21 -3 29 0 18 7 7 32 -36 82 -31 35 -36 52 -16
52 6 -1 30 -29 52 -62z m184 -49 c14 -41 7 -36 -19 13 -14 28 -17 38 -7 29 9
-7 20 -25 26 -42z m-459 -146 c-1 -10 -39 39 -40 51 0 5 9 -3 20 -17 11 -14
20 -29 20 -34z m349 -16 c0 -4 7 -15 16 -23 8 -9 15 -22 15 -30 0 -10 -11 -3
-27 17 -16 18 -27 37 -25 42 1 5 -2 15 -8 21 -5 7 -7 16 -3 20 7 6 30 -29 32
-47z m-50 -1 c22 -34 29 -68 12 -50 -12 11 -43 84 -37 84 2 0 14 -15 25 -34z
m-238 -79 c-6 -8 -4 -19 5 -31 16 -23 19 -40 4 -31 -5 3 -18 26 -29 50 -11 25
-25 45 -31 45 -7 0 -6 5 2 14 11 11 17 10 36 -11 15 -17 20 -29 13 -36z
m-3671 25 c0 -5 -7 -9 -15 -9 -8 0 -12 4 -9 9 3 4 9 8 15 8 5 0 9 -4 9 -8z
m3621 -45 c-1 -12 -15 -9 -19 4 -3 6 1 10 8 8 6 -3 11 -8 11 -12z m397 -5 c2
-7 -3 -12 -12 -12 -9 0 -16 7 -16 16 0 17 22 14 28 -4z m-235 -61 c-6 -22 -7
-23 -19 -6 -10 13 -10 20 -1 30 16 18 28 5 20 -24z m253 24 c-3 -8 0 -14 6
-12 7 1 14 -7 16 -18 4 -17 0 -16 -22 8 -30 33 -32 37 -10 37 10 0 14 -6 10
-15z m-323 -29 c-7 -12 -10 -12 -23 2 -13 14 -12 15 3 9 12 -4 17 -1 18 11 0
10 3 12 5 5 3 -7 2 -19 -3 -27z m-60 6 c-3 -7 -9 -10 -12 -5 -3 4 -10 11 -15
15 -4 4 1 6 12 5 12 -1 18 -6 15 -15z m164 -18 c-3 -3 -12 -4 -19 -1 -8 3 -5
6 6 6 11 1 17 -2 13 -5z m-14 -51 c-6 -14 -8 -14 -14 3 -12 30 -10 37 5 24 8
-6 12 -19 9 -27z m267 6 c0 -6 -4 -7 -10 -4 -5 3 -10 11 -10 16 0 6 5 7 10 4
6 -3 10 -11 10 -16z m-4220 -33 c0 -23 -11 -46 -20 -41 -10 6 0 55 11 55 5 0
9 -6 9 -14z m-46 -102 c-9 -13 -20 -24 -25 -24 -13 0 -11 8 9 35 22 30 37 21
16 -11z m4076 -26 c0 -6 -6 -5 -15 2 -8 7 -15 14 -15 16 0 2 7 1 15 -2 8 -4
15 -11 15 -16z m-144 -45 c-3 -8 -6 -20 -6 -26 0 -7 -4 -6 -9 3 -6 8 -7 18 -5
22 3 4 0 8 -5 8 -6 0 -11 4 -11 9 0 5 9 7 21 4 12 -4 18 -11 15 -20z m-3976
-99 c0 -8 -4 -12 -10 -9 -5 3 -10 10 -10 16 0 5 5 9 10 9 6 0 10 -7 10 -16z
m4480 -1281 c0 -14 -19 -38 -25 -32 -8 8 5 39 16 39 5 0 9 -3 9 -7z m-25 -83
c-5 -32 -3 -41 9 -46 9 -3 16 -17 16 -30 0 -27 -15 -32 -24 -9 -12 32 -29 15
-23 -22 5 -26 3 -33 -3 -23 -8 12 -10 11 -10 -7 0 -13 5 -23 10 -23 19 0 10
-17 -15 -28 -14 -7 -25 -20 -25 -31 0 -11 -10 -26 -22 -32 -22 -12 -22 -11 -5
8 9 11 17 32 17 47 0 15 10 48 21 74 30 64 39 100 28 104 -11 4 12 58 24 58 5
0 6 -18 2 -40z m22 -2 c-3 -8 -6 -5 -6 6 -1 11 2 17 5 13 3 -3 4 -12 1 -19z
m15 -122 c6 4 8 -5 6 -22 -4 -35 -20 -40 -34 -11 -7 16 -7 26 0 34 6 6 13 7
14 2 2 -5 8 -6 14 -3z m-382 -16 c-6 -11 -8 -20 -4 -20 4 0 5 -3 1 -6 -3 -4
-13 0 -21 8 -16 17 -4 38 21 38 11 0 11 -5 3 -20z m-92 -95 c-3 -3 -9 2 -12
12 -6 14 -5 15 5 6 7 -7 10 -15 7 -18z m413 -38 c-8 -8 -11 -2 -11 19 0 40 14
54 18 19 2 -15 -1 -32 -7 -38z m-115 36 c-2 -10 -7 -32 -11 -50 -3 -17 -13
-38 -22 -45 -15 -12 -15 -11 -4 10 7 13 10 30 7 38 -6 17 13 64 26 64 5 0 7
-8 4 -17z m-403 -213 c-3 -11 -9 -20 -14 -20 -10 0 -12 24 -2 33 13 13 21 7
16 -13z m-4367 -70 c8 0 12 -4 9 -10 -3 -5 -9 -10 -13 -10 -11 0 -42 55 -41
72 0 7 7 -2 15 -19 8 -18 21 -33 30 -33z m4648 -26 c-22 -32 -25 -30 -13 6 6
16 15 27 20 24 5 -3 2 -16 -7 -30z m-4627 -10 c-3 -3 -12 -4 -19 -1 -8 3 -5 6
6 6 11 1 17 -2 13 -5z m4829 -78 c-7 -21 -19 -45 -27 -55 -8 -9 -15 -25 -17
-36 -2 -11 -22 -56 -44 -101 -35 -69 -44 -80 -63 -76 -21 4 -21 5 -6 38 8 19
19 34 23 34 4 0 8 6 8 14 0 8 7 16 15 20 8 3 14 9 13 13 -5 18 99 197 109 189
1 -1 -4 -19 -11 -40z m-696 -20 c0 -3 -4 -8 -10 -11 -5 -3 -10 -1 -10 4 0 6 5
11 10 11 6 0 10 -2 10 -4z m354 -23 c4 -9 1 -20 -6 -25 -10 -6 -10 -8 0 -8 8
0 12 -6 9 -12 -2 -7 -10 -12 -16 -10 -6 1 -10 -1 -10 -5 4 -23 -3 -33 -22 -33
-12 0 -28 -8 -35 -17 -7 -10 -15 -15 -18 -12 -7 6 75 137 85 138 4 1 10 -7 13
-16z m-4376 -39 c-4 -3 -12 5 -18 18 -12 22 -12 22 6 6 10 -10 15 -20 12 -24z
m4002 26 c0 -5 -5 -10 -11 -10 -5 0 -7 5 -4 10 3 6 8 10 11 10 2 0 4 -4 4 -10z
m-3938 -52 c-9 -9 -12 -8 -12 8 0 11 -4 25 -10 32 -5 7 0 3 12 -8 17 -15 20
-22 10 -32z m4182 37 c-4 -8 -8 -15 -10 -15 -2 0 -4 7 -4 15 0 8 4 15 10 15 5
0 7 -7 4 -15z m190 -12 c-2 -43 -3 -43 -26 -43 -23 1 -23 1 2 15 14 8 19 14
12 15 -10 0 -10 5 -2 20 14 26 16 25 14 -7z m-344 -3 c0 -5 -5 -10 -11 -10 -5
0 -7 5 -4 10 3 6 8 10 11 10 2 0 4 -4 4 -10z m-135 -52 c-1 -11 -9 -24 -18
-30 -13 -7 -15 -5 -11 7 10 25 -3 17 -41 -22 -19 -21 -35 -32 -35 -25 0 20 80
101 95 96 6 -3 11 -14 10 -26z m645 22 c0 -5 -5 -10 -11 -10 -5 0 -7 5 -4 10
3 6 8 10 11 10 2 0 4 -4 4 -10z m-4555 -30 c9 -16 13 -30 11 -30 -3 0 -12 14
-21 30 -9 17 -13 30 -11 30 3 0 12 -13 21 -30z m4112 6 c-22 -33 -77 -92 -77
-82 0 9 79 106 87 106 3 0 -2 -11 -10 -24z m26 -16 c-3 -12 -8 -19 -11 -16 -5
6 5 36 12 36 2 0 2 -9 -1 -20z m49 -2 c-7 -7 -12 -8 -12 -2 0 14 12 26 19 19
2 -3 -1 -11 -7 -17z m81 -27 c-18 -31 -43 -42 -43 -18 0 18 34 49 43 40 4 -3
7 0 7 7 0 7 2 11 5 8 3 -3 -2 -19 -12 -37z m238 -14 c-13 -13 -15 1 -4 30 7
17 8 17 11 -1 2 -10 -1 -23 -7 -29z m-4061 -27 c0 -11 -6 -20 -14 -20 -7 0
-16 9 -19 20 -4 15 0 20 14 20 12 0 19 -7 19 -20z m3718 -2 c-6 -18 -25 -21
-25 -3 0 8 7 15 15 15 7 0 12 -5 10 -12z m-3783 -18 c3 -5 1 -10 -4 -10 -6 0
-11 5 -11 10 0 6 2 10 4 10 3 0 8 -4 11 -10z m3821 -14 c1 -17 -2 -23 -12 -19
-8 3 -14 -1 -14 -11 0 -8 -9 -20 -20 -26 -23 -12 -26 -7 -7 12 7 7 20 25 30
41 21 33 22 33 23 3z m-3776 -17 c0 -5 -4 -9 -10 -9 -5 0 -10 7 -10 16 0 8 5
12 10 9 6 -3 10 -10 10 -16z m4079 -50 c-19 -12 -24 -2 -8 17 9 11 14 13 17 4
3 -7 -2 -16 -9 -21z m-565 -14 c-4 -8 -11 -12 -16 -9 -6 4 -5 10 3 15 19 12
19 11 13 -6z m-348 -83 c-17 -16 -18 -16 -5 5 7 12 15 20 18 17 3 -2 -3 -12
-13 -22z m750 -9 c-10 -10 -19 5 -10 18 6 11 8 11 12 0 2 -7 1 -15 -2 -18z
m-4072 -4 c-3 -5 -10 -7 -15 -3 -5 3 -7 10 -3 15 3 5 10 7 15 3 5 -3 7 -10 3
-15z m4116 -69 c0 -5 -4 -10 -10 -10 -5 0 -10 5 -10 10 0 6 5 10 10 10 6 0 10
-4 10 -10z m-747 -72 c-13 -6 -23 -17 -23 -25 0 -7 -8 -13 -17 -13 -14 1 -12
6 10 25 15 14 33 25 40 24 7 0 2 -5 -10 -11z m-116 -20 c-3 -8 -6 -5 -6 6 -1
11 2 17 5 13 3 -3 4 -12 1 -19z m-309 -73 c-3 -3 -9 2 -12 12 -6 14 -5 15 5 6
7 -7 10 -15 7 -18z m34 3 c-7 -7 -12 -8 -12 -2 0 14 12 26 19 19 2 -3 -1 -11
-7 -17z m-657 -108 c3 -5 2 -10 -4 -10 -5 0 -13 5 -16 10 -3 6 -2 10 4 10 5 0
13 -4 16 -10z m150 0 c3 -5 1 -10 -4 -10 -6 0 -11 5 -11 10 0 6 2 10 4 10 3 0
8 -4 11 -10z m445 -15 c0 -8 -2 -15 -4 -15 -2 0 -6 7 -10 15 -3 8 -1 15 4 15
6 0 10 -7 10 -15z m-573 -17 c-3 -8 -6 -5 -6 6 -1 11 2 17 5 13 3 -3 4 -12 1
-19z m417 1 c-3 -5 2 -9 10 -9 9 0 16 -4 16 -10 0 -5 -7 -6 -17 -3 -11 4 -14
3 -9 -5 4 -7 3 -12 -3 -12 -5 0 -13 5 -16 11 -4 6 -19 7 -36 4 -32 -7 -36 -3
-16 17 15 14 80 20 71 7z m-444 -7 c0 -4 -9 -8 -19 -8 -11 0 -17 4 -15 8 3 4
12 8 20 8 8 0 14 -4 14 -8z m122 -10 c-27 -13 -34 -13 -45 -2 -8 8 -8 11 0 6
6 -3 22 -2 35 3 38 16 46 11 10 -7z m477 -9 c-6 -7 -15 -13 -20 -13 -5 0 -6 6
-3 13 3 8 11 14 19 14 11 0 12 -4 4 -14z m-565 -16 c-17 -10 -17 -11 1 -18 17
-7 18 -8 3 -8 -10 -1 -18 -4 -18 -9 0 -4 -33 -8 -72 -9 -50 -2 -68 1 -58 7 8
5 36 10 62 10 40 0 46 3 43 18 -2 15 3 19 27 19 25 0 27 -2 12 -10z m61 -16
c3 -5 1 -12 -5 -16 -5 -3 -10 1 -10 9 0 18 6 21 15 7z m70 -11 c3 -6 18 -8 33
-5 l27 6 -28 -16 c-16 -9 -35 -14 -43 -11 -8 3 -14 1 -14 -4 0 -6 -7 -10 -16
-10 -14 0 -14 2 0 15 8 8 21 15 28 16 7 0 4 4 -7 9 -16 7 -17 9 -3 9 9 1 20
-4 23 -9z m305 6 c0 -3 -4 -8 -10 -11 -5 -3 -10 -1 -10 4 0 6 5 11 10 11 6 0
10 -2 10 -4z m94 -37 c-8 -14 -21 -11 -21 5 0 8 6 12 14 9 7 -3 10 -9 7 -14z
m-746 -1 c-6 -18 -28 -21 -28 -4 0 9 7 16 16 16 9 0 14 -5 12 -12z m-906 -14
c-5 -10 -23 -7 -37 7 -6 6 -1 8 15 6 14 -2 23 -8 22 -13z m-275 -7 c3 -4 -2
-7 -13 -7 -16 0 -17 -2 -4 -10 20 -13 10 -12 -28 1 -18 6 -30 14 -28 17 5 9
64 7 73 -1z m1510 -30 c7 -5 24 -7 38 -5 13 3 22 2 20 -2 -6 -9 -55 -20 -114
-26 -24 -2 -47 -7 -52 -10 -5 -3 -9 -3 -9 1 0 3 10 10 23 15 17 7 18 9 4 9
-15 1 -16 3 -5 15 15 16 76 18 95 3z m-1377 -22 c14 -8 20 -14 14 -15 -6 0
-10 -11 -9 -25 2 -14 -1 -25 -7 -25 -5 0 -6 9 -3 21 6 19 4 21 -14 16 -11 -3
-21 -1 -21 4 0 5 -8 10 -17 10 -17 1 -17 2 0 6 9 2 17 9 17 14 0 12 10 11 40
-6z m130 -5 c8 -5 11 -10 5 -10 -5 0 -17 5 -25 10 -8 5 -10 10 -5 10 6 0 17
-5 25 -10z m-40 -31 c13 -7 13 -8 0 -8 -8 0 -26 6 -40 15 l-25 15 25 -7 c14
-3 32 -10 40 -15z m1366 -6 c-8 -8 -36 5 -36 17 0 7 6 7 21 0 11 -7 18 -14 15
-17z m-1413 -18 c-3 -9 -8 -14 -10 -11 -3 3 -2 9 2 15 9 16 15 13 8 -4z m94 9
c-3 -3 -12 -4 -19 -1 -8 3 -5 6 6 6 11 1 17 -2 13 -5z m48 -22 c-3 -3 -11 0
-18 7 -9 10 -8 11 6 5 10 -3 15 -9 12 -12z m-38 2 c-3 -3 -12 -4 -19 -1 -8 3
-5 6 6 6 11 1 17 -2 13 -5z m-143 -11 c3 -4 20 -8 35 -9 16 -1 41 -10 56 -20
14 -9 39 -17 55 -16 16 0 32 -4 35 -9 4 -5 1 -9 -4 -9 -6 0 -10 -5 -8 -11 1
-6 -4 -14 -10 -16 -7 -3 -13 2 -13 10 0 22 -30 30 -31 9 0 -11 -2 -12 -6 -4
-4 10 -8 10 -20 1 -12 -10 -16 -10 -23 1 -5 8 -6 18 -4 22 3 4 -11 8 -31 8
-24 0 -34 -4 -29 -11 4 -7 1 -10 -7 -7 -8 3 -14 13 -14 24 -1 10 -4 25 -8 32
-9 13 14 17 27 5z m-47 -48 c0 -8 -6 -15 -14 -15 -17 0 -17 17 0 23 6 3 12 6
13 6 0 1 1 -6 1 -14z m466 4 c29 1 37 -13 12 -23 -8 -3 -15 -1 -15 4 0 5 -6 7
-14 4 -8 -3 -17 -1 -20 5 -4 6 -14 7 -23 4 -11 -4 -14 -3 -9 6 5 7 15 9 25 5
9 -4 28 -6 44 -5z m-143 -44 c45 -4 51 -6 44 -16 -4 -7 -21 -9 -40 -6 -24 4
-34 2 -34 -7 0 -17 82 -38 113 -31 15 4 28 1 36 -9 11 -14 11 -16 -6 -16 -10
0 -23 -4 -28 -9 -13 -13 -85 10 -85 26 0 7 -11 13 -24 13 -28 0 -40 22 -23 40
9 10 9 11 0 6 -7 -4 -13 -3 -13 3 0 12 22 20 35 13 5 -4 17 -7 25 -7z m-367
-12 c-5 -12 -3 -14 8 -8 11 6 12 5 2 -5 -7 -8 -16 -11 -19 -7 -7 6 2 37 10 37
3 0 2 -7 -1 -17z m297 7 c0 -5 -5 -10 -11 -10 -5 0 -7 5 -4 10 3 6 8 10 11 10
2 0 4 -4 4 -10z m207 -20 c25 0 31 -4 30 -19 -1 -16 -5 -17 -32 -9 -16 6 -40
12 -52 15 -13 3 -23 10 -23 15 0 6 10 8 23 4 12 -3 36 -6 54 -6z m926 -61
c-14 -14 -55 -15 -60 -2 -3 7 3 9 16 6 12 -3 21 -1 21 6 0 5 7 8 16 4 8 -3 12
-9 7 -14z m-1424 -15 c18 -10 21 -14 9 -14 -9 0 -20 5 -23 10 -4 6 -13 7 -23
1 -20 -11 -56 5 -47 20 7 10 46 2 84 -17z m550 23 c-2 -1 -11 -8 -20 -15 -13
-9 -16 -9 -16 3 0 8 9 15 20 15 11 0 18 -1 16 -3z m-594 -69 c6 -4 2 -8 -7 -8
-10 0 -18 7 -18 17 0 9 3 12 8 7 4 -5 12 -12 17 -16z m1301 -37 c-4 -5 0 -12
6 -14 7 -3 -2 -6 -21 -6 -29 -1 -32 1 -21 14 13 16 45 21 36 6z m-939 -36 c43
-14 85 -25 95 -25 11 0 15 -6 11 -20 -5 -18 -8 -19 -22 -7 -17 16 -83 29 -75
15 9 -14 -14 -9 -29 7 -8 8 -17 12 -20 9 -3 -3 -15 3 -26 13 -12 10 -31 21
-44 25 -20 5 -20 6 5 7 15 1 62 -10 105 -24z m889 -20 c-4 -34 -16 -44 -16
-13 0 21 7 38 16 38 1 0 1 -11 0 -25z m-29 9 c-3 -3 -12 -4 -19 -1 -8 3 -5 6
6 6 11 1 17 -2 13 -5z m-17 -28 c0 -8 -51 -13 -56 -5 -3 5 9 9 25 9 17 0 31
-2 31 -4z m-660 -16 c0 -5 -10 -10 -22 -10 -19 0 -20 2 -8 10 19 13 30 13 30
0z"/>
<path d="M4946 1623 c-6 -14 -5 -15 5 -6 7 7 10 15 7 18 -3 3 -9 -2 -12 -12z"/>
<path d="M1795 5720 c-3 -5 1 -10 9 -10 9 0 16 5 16 10 0 6 -4 10 -9 10 -6 0
-13 -4 -16 -10z"/>
<path d="M2700 5265 c0 -8 2 -15 4 -15 2 0 6 7 10 15 3 8 1 15 -4 15 -6 0 -10
-7 -10 -15z"/>
<path d="M3040 5255 c0 -18 11 -24 32 -16 15 5 13 8 -7 18 -20 9 -25 8 -25 -2z"/>
<path d="M2888 5233 c7 -3 16 -2 19 1 4 3 -2 6 -13 5 -11 0 -14 -3 -6 -6z"/>
<path d="M2854 5218 c-4 -5 -19 -7 -35 -4 -15 3 -31 1 -34 -4 -4 -6 -11 -8
-16 -5 -5 3 -6 -1 -3 -9 3 -9 1 -16 -5 -16 -6 0 -11 -5 -11 -11 0 -6 8 -8 19
-4 11 3 22 1 26 -5 3 -6 12 -7 18 -3 7 5 34 9 60 9 47 1 74 13 49 21 -6 3 -10
8 -7 13 3 4 -8 13 -25 18 -20 8 -32 8 -36 0z m-7 -24 c-3 -3 -12 -4 -19 -1 -8
3 -5 6 6 6 11 1 17 -2 13 -5z"/>
<path d="M2610 5198 c0 -23 19 -33 33 -18 9 10 9 11 0 6 -7 -4 -13 -2 -13 3 0
6 9 11 20 11 11 0 20 -4 20 -10 0 -5 17 -9 38 -9 20 1 28 4 18 6 -14 4 -16 7
-6 13 8 5 -12 9 -48 12 -53 2 -62 1 -62 -14z"/>
<path d="M2948 5204 c-20 -20 -4 -26 51 -20 33 4 72 4 87 0 l28 -7 -25 -10
c-21 -9 -16 -12 41 -17 84 -8 109 1 45 16 -34 8 -42 13 -25 14 19 2 15 4 -15
11 -64 13 -179 22 -187 13z"/>
<path d="M2490 5182 c0 -5 14 -7 30 -4 17 2 30 6 30 8 0 2 -13 4 -30 4 -16 0
-30 -4 -30 -8z"/>
<path d="M2341 5166 c-19 -23 0 -24 74 -6 39 10 61 18 50 19 -11 0 -37 -3 -57
-8 -22 -5 -38 -5 -38 0 0 14 -16 11 -29 -5z"/>
<path d="M3200 5176 c0 -2 14 -6 30 -8 17 -3 30 -1 30 4 0 4 -13 8 -30 8 -16
0 -30 -2 -30 -4z"/>
<path d="M2690 5161 c0 -4 11 -6 25 -3 14 2 25 6 25 8 0 2 -11 4 -25 4 -14 0
-25 -4 -25 -9z"/>
<path d="M2960 5160 c20 -13 40 -13 40 0 0 6 -12 10 -27 10 -22 0 -25 -2 -13
-10z"/>
<path d="M2406 5144 c-98 -16 -107 -20 -100 -38 5 -12 11 -13 24 -6 27 14 58
12 62 -4 2 -10 9 -11 28 -4 15 6 20 12 13 15 -32 12 1 29 69 36 9 1 14 5 12 9
-6 9 -6 9 -108 -8z"/>
<path d="M2560 5149 c-11 -7 -4 -8 25 -3 50 8 58 14 19 14 -16 0 -36 -5 -44
-11z"/>
<path d="M2590 5131 c-8 -6 -19 -7 -25 -4 -6 3 -5 1 1 -6 9 -10 21 -10 53 -1
22 6 41 13 41 15 0 9 -55 5 -70 -4z"/>
<path d="M2773 5133 c9 -2 25 -2 35 0 9 3 1 5 -18 5 -19 0 -27 -2 -17 -5z"/>
<path d="M3088 5133 c6 -2 18 -2 25 0 6 3 1 5 -13 5 -14 0 -19 -2 -12 -5z"/>
<path d="M916 5113 c-6 -14 -5 -15 5 -6 7 7 10 15 7 18 -3 3 -9 -2 -12 -12z"/>
<path d="M2205 5120 c-3 -5 1 -10 9 -10 8 0 18 5 21 10 3 6 -1 10 -9 10 -8 0
-18 -4 -21 -10z"/>
<path d="M3180 5120 c0 -6 7 -10 15 -10 8 0 15 2 15 4 0 2 -7 6 -15 10 -8 3
-15 1 -15 -4z"/>
<path d="M2796 5111 c-6 -10 26 -21 62 -21 12 0 22 4 22 9 0 17 -74 28 -84 12z"/>
<path d="M3240 5110 c0 -5 5 -10 11 -10 5 0 7 5 4 10 -3 6 -8 10 -11 10 -2 0
-4 -4 -4 -10z"/>
<path d="M2613 5094 c-16 -12 -16 -13 7 -9 13 3 39 6 58 7 51 3 49 17 -2 16
-25 0 -54 -7 -63 -14z"/>
<path d="M2895 5100 c3 -5 11 -10 16 -10 6 0 7 5 4 10 -3 6 -11 10 -16 10 -6
0 -7 -4 -4 -10z"/>
<path d="M3395 5100 c3 -5 0 -10 -8 -10 -8 0 -17 -6 -20 -12 -3 -9 9 -13 39
-14 l43 -1 -22 23 c-22 24 -44 33 -32 14z"/>
<path d="M2225 5091 c-16 -3 -31 -13 -33 -22 -4 -21 92 -19 133 4 34 18 27 20
-28 8 -31 -8 -37 -7 -33 5 3 8 2 13 -2 13 -4 -1 -20 -4 -37 -8z"/>
<path d="M3180 5078 c0 -9 5 -20 11 -23 17 -11 18 -2 3 19 -12 17 -14 17 -14
4z"/>
<path d="M2640 5070 c0 -5 7 -7 15 -4 8 4 15 8 15 10 0 2 -7 4 -15 4 -8 0 -15
-4 -15 -10z"/>
<path d="M2415 5050 c-13 -6 -15 -9 -5 -9 8 0 22 4 30 9 18 12 2 12 -25 0z"/>
<path d="M2485 5039 c-4 -6 -13 -8 -21 -5 -7 3 -16 1 -19 -4 -7 -11 9 -13 43
-4 12 4 22 10 22 15 0 12 -17 11 -25 -2z"/>
<path d="M2075 5030 c-3 -5 -1 -10 4 -10 6 0 11 5 11 10 0 6 -2 10 -4 10 -3 0
-8 -4 -11 -10z"/>
<path d="M2140 5030 c-13 -8 -13 -10 2 -10 9 0 20 5 23 10 8 13 -5 13 -25 0z"/>
<path d="M2300 5032 c0 -4 14 -9 30 -10 17 -1 30 2 30 8 0 5 -13 10 -30 10
-16 0 -30 -4 -30 -8z"/>
<path d="M2240 5019 c0 -5 5 -7 10 -4 6 3 10 8 10 11 0 2 -4 4 -10 4 -5 0 -10
-5 -10 -11z"/>
<path d="M2648 5018 c5 -5 16 -8 23 -6 8 3 3 7 -10 11 -17 4 -21 3 -13 -5z"/>
<path d="M2090 5010 c-13 -8 -13 -10 2 -10 9 0 20 5 23 10 8 13 -5 13 -25 0z"/>
<path d="M2258 5005 c-3 -3 -16 -8 -28 -10 -30 -6 -38 -15 -14 -15 18 0 69 29
53 30 -3 0 -8 -2 -11 -5z"/>
<path d="M1798 4983 c7 -3 16 -2 19 1 4 3 -2 6 -13 5 -11 0 -14 -3 -6 -6z"/>
<path d="M2505 4980 c3 -5 13 -10 21 -10 8 0 12 5 9 10 -3 6 -13 10 -21 10 -8
0 -12 -4 -9 -10z"/>
<path d="M2728 4953 c7 -3 16 -2 19 1 4 3 -2 6 -13 5 -11 0 -14 -3 -6 -6z"/>
<path d="M2064 4941 c3 -5 -1 -11 -9 -15 -8 -3 -15 -11 -15 -17 0 -8 6 -7 18
3 9 9 24 13 32 10 11 -4 11 -2 -2 11 -18 18 -33 23 -24 8z"/>
<path d="M1992 4926 c-18 -6 -30 -15 -26 -19 12 -11 27 -8 54 13 28 22 20 24
-28 6z"/>
<path d="M2370 4930 c-13 -9 -13 -10 0 -10 8 0 22 5 30 10 13 9 13 10 0 10 -8
0 -22 -5 -30 -10z"/>
<path d="M1900 4911 c-14 -4 -20 -10 -14 -14 6 -3 20 0 30 8 21 16 20 16 -16
6z"/>
<path d="M1937 4903 c-4 -3 -7 -11 -7 -17 0 -6 5 -5 12 2 6 6 9 14 7 17 -3 3
-9 2 -12 -2z"/>
<path d="M1845 4878 c-4 -10 -15 -18 -25 -18 -10 0 -23 -7 -30 -15 -7 -8 -17
-15 -23 -15 -5 0 -25 -11 -43 -25 -18 -14 -38 -25 -44 -25 -6 0 -9 -4 -6 -8 6
-10 -20 -33 -57 -49 -15 -7 -31 -22 -35 -32 -4 -11 -11 -21 -17 -21 -5 -1 -9
-7 -7 -12 2 -6 -4 -8 -13 -5 -9 4 -15 1 -15 -8 0 -24 14 -18 72 30 30 25 59
45 65 45 5 0 18 10 29 21 25 28 82 64 114 72 14 4 36 17 50 30 14 13 32 27 40
31 8 3 3 4 -12 1 -16 -3 -28 0 -31 8 -3 8 -7 6 -12 -5z"/>
<path d="M1710 4840 c-9 -6 -10 -10 -3 -10 6 0 15 5 18 10 8 12 4 12 -15 0z"/>
<path d="M1994 4824 c-18 -14 -18 -15 4 -4 12 6 22 13 22 15 0 8 -5 6 -26 -11z"/>
<path d="M1650 4805 c-11 -13 -9 -15 11 -12 12 2 25 9 27 15 5 17 -23 15 -38
-3z"/>
<path d="M3128 4803 c6 -2 18 -2 25 0 6 3 1 5 -13 5 -14 0 -19 -2 -12 -5z"/>
<path d="M3488 4803 c7 -3 16 -2 19 1 4 3 -2 6 -13 5 -11 0 -14 -3 -6 -6z"/>
<path d="M1852 4759 c-33 -31 -38 -39 -20 -34 13 4 30 14 39 21 8 8 19 14 23
14 9 0 36 26 36 34 0 18 -41 0 -78 -35z"/>
<path d="M3276 4781 c-4 -5 8 -14 26 -19 46 -14 98 -23 98 -16 0 15 -116 48
-124 35z"/>
<path d="M2310 4750 c-8 -5 -10 -10 -5 -10 6 0 17 5 25 10 8 5 11 10 5 10 -5
0 -17 -5 -25 -10z"/>
<path d="M1470 4739 c0 -5 5 -7 10 -4 6 3 10 8 10 11 0 2 -4 4 -10 4 -5 0 -10
-5 -10 -11z"/>
<path d="M3210 4740 c8 -5 22 -9 30 -9 10 0 8 3 -5 9 -27 12 -43 12 -25 0z"/>
<path d="M1475 4710 c4 -6 11 -8 16 -5 14 9 11 15 -7 15 -8 0 -12 -5 -9 -10z"/>
<path d="M1730 4679 c-49 -32 -61 -49 -35 -49 14 0 15 -3 5 -15 -15 -18 -1
-19 23 -1 19 15 23 31 5 20 -10 -6 -10 -5 -1 8 7 8 11 17 8 20 -3 2 6 11 20
18 14 7 25 17 25 22 0 10 3 12 -50 -23z"/>
<path d="M1860 4701 c0 -6 4 -13 10 -16 6 -3 7 1 4 9 -7 18 -14 21 -14 7z"/>
<path d="M2134 4684 c-18 -14 -18 -14 6 -3 31 14 36 19 24 19 -6 0 -19 -7 -30
-16z"/>
<path d="M1614 4670 c-5 -8 -26 -28 -46 -43 -36 -26 -54 -58 -24 -40 33 19 87
75 83 86 -2 8 -6 7 -13 -3z"/>
<path d="M1415 4660 c3 -5 8 -10 11 -10 2 0 4 5 4 10 0 6 -5 10 -11 10 -5 0
-7 -4 -4 -10z"/>
<path d="M1400 4605 c-12 -15 -6 -35 11 -35 6 0 7 5 4 10 -3 6 1 10 9 10 9 0
16 -4 16 -9 0 -14 33 -7 59 11 27 19 23 35 -6 23 -10 -5 -20 -9 -23 -9 -3 -1
-11 -5 -18 -9 -7 -5 -14 -2 -18 7 -8 20 -18 20 -34 1z"/>
<path d="M1623 4597 c-3 -6 -1 -7 5 -3 7 4 12 2 12 -3 0 -6 -4 -11 -10 -11 -5
0 -10 -7 -10 -15 0 -21 23 -19 43 3 10 10 17 21 17 24 0 11 -51 15 -57 5z"/>
<path d="M3944 4591 c4 -6 16 -16 28 -22 15 -8 18 -8 14 0 -4 6 -16 16 -28 22
-15 8 -18 8 -14 0z"/>
<path d="M1577 4570 c-9 -11 -12 -20 -6 -20 6 0 3 -7 -5 -16 -9 -8 -16 -19
-16 -23 0 -15 30 -7 47 12 10 11 12 17 6 13 -15 -8 -18 10 -3 19 12 7 14 35 2
35 -4 0 -15 -9 -25 -20z"/>
<path d="M1342 4534 c-18 -20 -32 -40 -32 -45 0 -5 -9 -18 -21 -30 -11 -11
-18 -23 -15 -27 9 -8 66 61 61 74 -2 8 4 10 18 6 12 -3 16 -7 9 -10 -6 -2 -12
-9 -12 -16 0 -7 -20 -34 -44 -62 -24 -27 -42 -51 -40 -54 3 -2 21 14 40 35 22
25 42 39 54 37 14 -2 21 4 26 22 3 14 12 26 20 26 12 0 19 19 15 43 0 4 4 7 9
7 6 0 10 5 10 10 0 16 -21 12 -43 -7 -19 -17 -19 -17 -13 5 11 32 -6 27 -42
-14z"/>
<path d="M3760 4560 c20 -13 33 -13 25 0 -3 6 -14 10 -23 10 -15 0 -15 -2 -2
-10z"/>
<path d="M1320 4395 c-11 -13 -10 -14 4 -9 9 3 16 10 16 15 0 13 -6 11 -20 -6z"/>
<path d="M5330 4368 c0 -9 5 -20 10 -23 13 -8 13 5 0 25 -8 13 -10 13 -10 -2z"/>
<path d="M1287 4353 c-12 -12 -7 -22 8 -17 8 4 15 10 15 15 0 11 -14 12 -23 2z"/>
<path d="M4092 4339 c2 -7 10 -15 17 -17 8 -3 12 1 9 9 -2 7 -10 15 -17 17 -8
3 -12 -1 -9 -9z"/>
<path d="M5350 4322 c0 -11 69 -119 70 -108 0 10 -60 116 -66 116 -2 0 -4 -4
-4 -8z"/>
<path d="M4270 4317 c0 -8 111 -120 115 -115 2 2 -15 24 -38 48 -44 47 -77 76
-77 67z"/>
<path d="M5331 4293 c-1 -12 4 -25 9 -28 12 -7 12 2 0 30 -8 19 -9 19 -9 -2z"/>
<path d="M4150 4284 c0 -3 17 -23 38 -44 20 -22 47 -53 60 -70 24 -30 42 -39
42 -20 0 11 -125 140 -135 140 -3 0 -5 -3 -5 -6z"/>
<path d="M5360 4228 c0 -19 54 -122 58 -110 3 11 -44 122 -52 122 -4 0 -6 -6
-6 -12z"/>
<path d="M1425 4210 c-10 -11 -16 -22 -13 -25 3 -3 13 4 23 15 10 11 16 22 13
25 -3 3 -13 -4 -23 -15z"/>
<path d="M4145 4190 c3 -5 11 -10 16 -10 6 0 7 5 4 10 -3 6 -11 10 -16 10 -6
0 -7 -4 -4 -10z"/>
<path d="M5430 4158 c0 -7 12 -26 25 -43 l26 -30 -21 43 c-21 43 -30 52 -30
30z"/>
<path d="M1368 4136 c-7 -14 -30 -50 -51 -80 -20 -30 -40 -70 -43 -88 -5 -30
-4 -29 21 17 16 28 45 76 66 108 42 63 44 67 30 67 -6 0 -16 -11 -23 -24z"/>
<path d="M4410 4155 c0 -11 55 -75 64 -75 5 0 3 7 -4 15 -7 8 -10 21 -6 30 3
8 2 14 -2 13 -4 -1 -17 3 -29 10 -13 7 -23 10 -23 7z"/>
<path d="M4594 4148 c-5 -8 -2 -9 9 -5 11 4 21 -1 28 -14 6 -11 13 -19 16 -16
7 8 -21 47 -34 47 -6 0 -15 -5 -19 -12z"/>
<path d="M1145 4140 c-3 -5 -1 -10 4 -10 6 0 11 5 11 10 0 6 -2 10 -4 10 -3 0
-8 -4 -11 -10z"/>
<path d="M1170 4129 c0 -5 5 -7 10 -4 6 3 10 8 10 11 0 2 -4 4 -10 4 -5 0 -10
-5 -10 -11z"/>
<path d="M4664 4074 c4 -10 9 -25 10 -33 2 -8 14 -21 27 -29 21 -12 22 -12 7
0 -9 8 -20 26 -23 41 -4 15 -12 30 -18 34 -7 4 -8 0 -3 -13z"/>
<path d="M4030 4060 c0 -5 5 -10 11 -10 5 0 7 5 4 10 -3 6 -8 10 -11 10 -2 0
-4 -4 -4 -10z"/>
<path d="M4380 4031 c0 -6 4 -13 10 -16 6 -3 7 1 4 9 -7 18 -14 21 -14 7z"/>
<path d="M5460 4016 c0 -12 29 -76 35 -76 3 0 -2 17 -10 37 -16 38 -25 52 -25
39z"/>
<path d="M4552 3950 c24 -41 38 -51 38 -25 0 17 -39 65 -52 65 -5 0 2 -18 14
-40z"/>
<path d="M4230 3950 c6 -11 13 -20 16 -20 2 0 0 9 -6 20 -6 11 -13 20 -16 20
-2 0 0 -9 6 -20z"/>
<path d="M5251 3954 c0 -11 3 -14 6 -6 3 7 2 16 -1 19 -3 4 -6 -2 -5 -13z"/>
<path d="M4300 3953 c0 -5 12 -20 26 -34 24 -21 26 -22 16 -3 -13 25 -42 50
-42 37z"/>
<path d="M4795 3950 c3 -5 8 -10 11 -10 2 0 4 5 4 10 0 6 -5 10 -11 10 -5 0
-7 -4 -4 -10z"/>
<path d="M1227 3881 c-15 -27 -27 -55 -27 -62 1 -8 15 12 31 45 37 71 33 86
-4 17z"/>
<path d="M4730 3920 c0 -5 5 -10 11 -10 5 0 7 5 4 10 -3 6 -8 10 -11 10 -2 0
-4 -4 -4 -10z"/>
<path d="M5260 3896 c0 -8 4 -17 9 -20 5 -4 7 3 4 14 -6 23 -13 26 -13 6z"/>
<path d="M5280 3900 c0 -5 5 -10 10 -10 6 0 10 5 10 10 0 6 -4 10 -10 10 -5 0
-10 -4 -10 -10z"/>
<path d="M4260 3896 c0 -2 7 -9 15 -16 13 -11 14 -10 9 4 -5 14 -24 23 -24 12z"/>
<path d="M4810 3885 c0 -8 5 -15 10 -15 6 0 10 7 10 15 0 8 -4 15 -10 15 -5 0
-10 -7 -10 -15z"/>
<path d="M5506 3880 c3 -14 11 -32 16 -40 6 -10 7 -7 2 10 -3 14 -11 32 -16
40 -6 10 -7 7 -2 -10z"/>
<path d="M4760 3877 c0 -20 28 -73 45 -87 22 -18 19 1 -7 55 -22 44 -38 58
-38 32z"/>
<path d="M4663 3868 c4 -7 16 -39 29 -70 16 -40 29 -58 41 -58 14 0 16 5 11
27 -10 40 -57 112 -73 113 -7 0 -11 -6 -8 -12z"/>
<path d="M4370 3851 c0 -5 6 -16 14 -23 7 -8 21 -30 31 -48 20 -40 55 -87 55
-75 0 12 -50 96 -77 128 -12 16 -23 24 -23 18z"/>
<path d="M4342 3789 c2 -7 12 -13 21 -15 23 -3 21 3 -4 17 -17 8 -20 8 -17 -2z"/>
<path d="M5052 3782 c4 -12 2 -20 -3 -16 -5 3 -9 1 -9 -5 0 -13 32 -30 47 -24
7 2 19 -11 28 -29 10 -22 13 -25 9 -8 -12 46 -26 75 -31 63 -7 -20 -23 -15
-23 6 0 11 -5 23 -12 27 -8 5 -9 0 -6 -14z"/>
<path d="M1181 3772 c-18 -34 -43 -114 -37 -119 3 -3 9 3 12 13 4 10 16 41 26
68 19 49 18 74 -1 38z"/>
<path d="M1006 3765 c-3 -9 -6 -22 -5 -28 0 -7 5 -1 10 12 5 13 8 26 5 28 -2
2 -6 -3 -10 -12z"/>
<path d="M5366 3765 c12 -31 14 -164 3 -171 -11 -6 -3 -24 11 -24 5 0 6 8 3
18 -6 15 -5 16 12 2 17 -14 18 -14 7 7 -8 14 -9 24 -2 28 18 11 10 69 -16 115
-14 25 -22 36 -18 25z"/>
<path d="M4817 3738 c8 -30 23 -49 34 -42 9 5 13 -16 10 -53 -1 -14 4 -23 13
-23 15 0 29 -27 21 -40 -3 -5 0 -30 6 -55 8 -32 14 -42 20 -33 9 14 12 0 10
-57 0 -16 2 -24 5 -17 3 6 10 10 15 6 14 -8 11 14 -12 96 -32 115 -62 190 -77
190 -7 0 -17 11 -22 25 -12 31 -30 33 -23 3z"/>
<path d="M5072 3699 c1 -12 9 -24 16 -27 9 -3 13 3 10 19 -1 12 -9 24 -16 27
-9 3 -13 -3 -10 -19z"/>
<path d="M4757 3678 c3 -18 13 -49 22 -68 8 -19 15 -37 16 -40 0 -3 6 -15 13
-27 6 -12 17 -53 24 -92 7 -39 15 -71 19 -71 7 0 -17 147 -29 175 -14 31 -32
90 -32 104 0 7 5 9 12 5 7 -4 8 -3 4 5 -4 6 -12 9 -17 5 -6 -3 -13 3 -16 15
-9 34 -23 24 -16 -11z"/>
<path d="M5430 3675 c0 -5 5 -17 10 -25 5 -8 10 -10 10 -5 0 6 -5 17 -10 25
-5 8 -10 11 -10 5z"/>
<path d="M4596 3651 c-4 -7 -5 -15 -2 -18 9 -9 19 4 14 18 -4 11 -6 11 -12 0z"/>
<path d="M5350 3655 c0 -5 5 -17 10 -25 5 -8 10 -10 10 -5 0 6 -5 17 -10 25
-5 8 -10 11 -10 5z"/>
<path d="M1127 3616 c-4 -10 -7 -25 -6 -34 0 -11 4 -9 10 7 5 13 8 29 6 35 -2
5 -6 2 -10 -8z"/>
<path d="M5100 3612 c1 -20 27 -58 35 -50 3 3 3 17 0 31 -8 30 -35 45 -35 19z"/>
<path d="M4721 3604 c0 -11 3 -14 6 -6 3 7 2 16 -1 19 -3 4 -6 -2 -5 -13z"/>
<path d="M5451 3604 c0 -11 3 -14 6 -6 3 7 2 16 -1 19 -3 4 -6 -2 -5 -13z"/>
<path d="M4626 3546 c3 -8 13 -17 22 -21 13 -5 13 -2 -3 15 -21 24 -26 25 -19
6z"/>
<path d="M5050 3551 c0 -5 5 -13 10 -16 6 -3 10 -2 10 4 0 5 -4 13 -10 16 -5
3 -10 2 -10 -4z"/>
<path d="M1107 3526 c-5 -15 -6 -31 -3 -34 8 -8 18 25 14 45 -3 13 -6 10 -11
-11z"/>
<path d="M4741 3534 c0 -11 3 -14 6 -6 3 7 2 16 -1 19 -3 4 -6 -2 -5 -13z"/>
<path d="M5132 3520 c0 -14 2 -19 5 -12 2 6 2 18 0 25 -3 6 -5 1 -5 -13z"/>
<path d="M5471 3525 c0 -11 6 -33 14 -50 17 -39 18 -11 0 35 -9 23 -14 28 -14
15z"/>
<path d="M1187 3501 c-4 -17 -3 -21 5 -13 5 5 8 16 6 23 -3 8 -7 3 -11 -10z"/>
<path d="M5070 3480 c0 -5 5 -10 11 -10 5 0 7 5 4 10 -3 6 -8 10 -11 10 -2 0
-4 -4 -4 -10z"/>
<path d="M5141 3474 c0 -11 3 -14 6 -6 3 7 2 16 -1 19 -3 4 -6 -2 -5 -13z"/>
<path d="M5110 3469 c0 -31 22 -79 37 -79 12 0 13 3 5 13 -7 7 -18 29 -26 48
-9 19 -15 27 -16 18z"/>
<path d="M5428 3474 c-3 -5 -6 -40 -7 -79 -1 -50 2 -66 9 -55 5 8 10 23 10 33
0 10 5 15 10 12 16 -10 12 15 -6 32 -11 12 -12 18 -4 23 9 5 9 13 3 25 -6 10
-12 14 -15 9z"/>
<path d="M5030 3420 c0 -5 5 -10 11 -10 5 0 7 5 4 10 -3 6 -8 10 -11 10 -2 0
-4 -4 -4 -10z"/>
<path d="M1161 3384 c0 -11 3 -14 6 -6 3 7 2 16 -1 19 -3 4 -6 -2 -5 -13z"/>
<path d="M4850 3355 c0 -11 5 -27 10 -35 8 -12 10 -12 10 5 0 11 -5 27 -10 35
-8 12 -10 12 -10 -5z"/>
<path d="M5160 3337 c0 -20 4 -37 10 -37 5 0 7 14 3 33 -8 45 -13 47 -13 4z"/>
<path d="M1078 3354 c-5 -4 -8 -16 -8 -28 0 -14 3 -17 11 -9 6 6 9 19 7 28 -1
9 -6 13 -10 9z"/>
<path d="M4680 3341 c0 -5 5 -13 10 -16 6 -3 10 -2 10 4 0 5 -4 13 -10 16 -5
3 -10 2 -10 -4z"/>
<path d="M5011 3313 c-1 -17 3 -34 8 -38 17 -10 19 9 6 40 l-13 30 -1 -32z"/>
<path d="M5634 3317 c3 -10 0 -26 -6 -37 -13 -21 -6 -36 11 -25 14 8 14 46 0
65 -9 13 -10 12 -5 -3z"/>
<path d="M4742 3300 c0 -14 2 -19 5 -12 2 6 2 18 0 25 -3 6 -5 1 -5 -13z"/>
<path d="M1063 3271 c1 -16 5 -27 10 -24 10 6 9 53 -3 53 -5 0 -8 -13 -7 -29z"/>
<path d="M5472 3280 c0 -14 2 -19 5 -12 2 6 2 18 0 25 -3 6 -5 1 -5 -13z"/>
<path d="M4811 3274 c0 -11 3 -14 6 -6 3 7 2 16 -1 19 -3 4 -6 -2 -5 -13z"/>
<path d="M5152 3270 c0 -14 2 -19 5 -12 2 6 2 18 0 25 -3 6 -5 1 -5 -13z"/>
<path d="M4866 3265 c4 -8 8 -15 10 -15 2 0 4 7 4 15 0 8 -4 15 -10 15 -5 0
-7 -7 -4 -15z"/>
<path d="M4960 3241 c0 -13 8 -30 18 -37 16 -13 16 -14 0 -8 -22 8 -24 -12 -3
-20 26 -9 29 21 6 56 -19 31 -21 32 -21 9z"/>
<path d="M5265 3240 c3 -5 8 -10 11 -10 2 0 4 5 4 10 0 6 -5 10 -11 10 -5 0
-7 -4 -4 -10z"/>
<path d="M1062 3205 c0 -16 2 -22 5 -12 2 9 2 23 0 30 -3 6 -5 -1 -5 -18z"/>
<path d="M5072 3210 c0 -14 2 -19 5 -12 2 6 2 18 0 25 -3 6 -5 1 -5 -13z"/>
<path d="M5181 3184 c0 -11 3 -14 6 -6 3 7 2 16 -1 19 -3 4 -6 -2 -5 -13z"/>
<path d="M5528 3159 c-3 -8 -2 -23 2 -33 5 -15 8 -16 12 -5 3 8 2 23 -2 33 -5
15 -8 16 -12 5z"/>
<path d="M5690 3081 c0 -53 4 -90 9 -87 9 6 6 165 -4 174 -3 3 -5 -36 -5 -87z"/>
<path d="M5197 3153 c-4 -3 -7 -15 -7 -26 0 -25 9 -17 15 12 4 22 2 25 -8 14z"/>
<path d="M5307 3103 c-6 -30 1 -53 14 -53 5 0 8 18 7 40 -2 46 -13 53 -21 13z"/>
<path d="M5381 3101 c-1 -24 2 -32 9 -25 7 7 7 19 1 35 -9 23 -10 22 -10 -10z"/>
<path d="M1050 3076 c0 -14 5 -26 10 -26 6 0 10 9 10 19 0 11 -4 23 -10 26 -6
4 -10 -5 -10 -19z"/>
<path d="M5177 3083 c-10 -9 -9 -43 1 -43 5 0 7 -17 6 -37 -5 -83 -6 -129 -2
-148 1 -11 -3 -20 -9 -21 -7 -1 -16 -2 -20 -3 -5 0 -8 -12 -8 -25 0 -18 3 -22
13 -14 9 8 12 5 12 -11 0 -11 5 -21 10 -21 6 0 10 6 10 13 0 6 7 25 15 40 8
15 10 25 6 22 -5 -2 -11 9 -13 25 -3 17 -1 30 3 30 5 0 7 29 5 63 -1 35 1 72
5 83 5 13 8 14 8 4 1 -13 3 -13 10 -1 10 16 4 41 -11 41 -5 0 -6 -4 -3 -10 3
-5 1 -10 -4 -10 -6 0 -11 7 -11 15 0 16 -12 20 -23 8z"/>
<path d="M5641 3064 c0 -11 3 -14 6 -6 3 7 2 16 -1 19 -3 4 -6 -2 -5 -13z"/>
<path d="M5380 3008 c0 -32 4 -58 10 -58 6 0 10 17 10 37 0 44 10 37 20 -14 7
-35 8 -33 9 22 1 45 -2 56 -11 47 -9 -9 -14 -7 -24 6 -12 15 -13 9 -14 -40z"/>
<path d="M5290 2997 c0 -24 3 -28 10 -17 8 13 10 12 10 -2 0 -33 16 -18 17 15
1 25 -3 33 -18 34 -15 1 -19 -5 -19 -30z"/>
<path d="M4721 3004 c0 -11 3 -14 6 -6 3 7 2 16 -1 19 -3 4 -6 -2 -5 -13z"/>
<path d="M5220 2980 c0 -22 5 -40 10 -40 6 0 10 18 10 40 0 22 -4 40 -10 40
-5 0 -10 -18 -10 -40z"/>
<path d="M5691 2954 c0 -11 3 -14 6 -6 3 7 2 16 -1 19 -3 4 -6 -2 -5 -13z"/>
<path d="M4938 2928 c-1 -21 -2 -45 -2 -55 -1 -9 4 -18 11 -20 7 -3 9 3 6 17
-3 12 -1 25 6 29 9 6 8 15 -4 37 l-15 29 -2 -37z"/>
<path d="M5313 2884 c1 -52 5 -70 14 -67 7 3 10 9 7 14 -3 6 -6 29 -6 53 0 23
-4 49 -9 57 -5 9 -8 -13 -6 -57z"/>
<path d="M5538 2919 c-3 -19 0 -25 15 -26 13 -1 16 2 9 10 -5 7 -11 19 -14 27
-3 10 -6 6 -10 -11z"/>
<path d="M5220 2914 c0 -8 5 -12 10 -9 6 4 8 11 5 16 -9 14 -15 11 -15 -7z"/>
<path d="M5688 2902 c-3 -9 -1 -26 3 -37 6 -15 8 -11 8 18 1 40 -4 48 -11 19z"/>
<path d="M1061 2870 c-1 -34 30 -190 38 -190 7 0 -13 124 -29 185 -7 28 -8 28
-9 5z"/>
<path d="M5412 2860 c0 -14 2 -19 5 -12 2 6 2 18 0 25 -3 6 -5 1 -5 -13z"/>
<path d="M5242 2845 c0 -16 2 -22 5 -12 2 9 2 23 0 30 -3 6 -5 -1 -5 -18z"/>
<path d="M4876 2825 c-3 -8 -1 -15 4 -15 6 0 10 7 10 15 0 8 -2 15 -4 15 -2 0
-6 -7 -10 -15z"/>
<path d="M5681 2810 c0 -33 1 -34 11 -12 8 17 8 26 0 34 -9 9 -12 4 -11 -22z"/>
<path d="M4932 2800 c0 -14 2 -19 5 -12 2 6 2 18 0 25 -3 6 -5 1 -5 -13z"/>
<path d="M5578 2800 c-12 -38 -10 -66 3 -53 6 6 9 26 7 44 -3 32 -3 33 -10 9z"/>
<path d="M5406 2802 c-2 -4 -1 -14 5 -22 7 -12 9 -10 9 8 0 23 -5 28 -14 14z"/>
<path d="M5080 2708 c0 -49 5 -47 13 5 3 20 2 37 -4 37 -5 0 -9 -19 -9 -42z"/>
<path d="M5207 2708 c1 -18 2 -40 2 -49 1 -9 8 -20 17 -23 14 -5 15 -4 4 9
-10 12 -10 15 4 15 9 0 16 5 16 10 0 6 -4 10 -9 10 -5 0 -12 14 -16 30 -9 40
-20 38 -18 -2z"/>
<path d="M5337 2727 c-3 -8 -1 -20 4 -28 6 -10 9 -7 9 14 0 29 -5 35 -13 14z"/>
<path d="M5380 2725 c0 -8 -5 -15 -11 -15 -6 0 -8 -9 -4 -20 5 -16 2 -20 -14
-20 -12 0 -21 -7 -21 -15 0 -8 5 -15 10 -15 6 0 10 -11 10 -24 0 -13 7 -27 16
-30 12 -5 15 -14 10 -37 -5 -27 -3 -30 16 -27 12 2 23 10 25 18 4 13 3 13 -7
0 -9 -12 -10 -4 -6 34 3 28 11 53 17 57 8 5 8 8 -1 11 -10 3 -10 7 1 18 14 15
24 60 13 60 -3 0 -16 -12 -29 -26 l-24 -26 6 36 c3 20 3 36 -1 36 -3 0 -6 -7
-6 -15z m8 -95 c-1 -21 -6 -30 -17 -30 -14 0 -14 2 -1 10 10 7 11 10 2 10 -10
0 -10 4 0 20 16 26 17 26 16 -10z"/>
<path d="M4850 2645 c0 -14 2 -25 4 -25 2 0 6 11 8 25 3 14 1 25 -3 25 -5 0
-9 -11 -9 -25z"/>
<path d="M5122 2657 c-6 -7 -8 -23 -5 -36 l6 -23 13 23 c23 41 12 68 -14 36z"/>
<path d="M5055 2619 c-4 -6 -5 -12 -2 -15 2 -3 7 2 10 11 7 17 1 20 -8 4z"/>
<path d="M5156 2593 c-4 -24 -12 -45 -16 -48 -11 -7 -2 -35 11 -35 11 0 22 59
17 96 -3 26 -4 25 -12 -13z"/>
<path d="M5439 2598 c-5 -17 -4 -48 3 -48 4 0 8 11 8 25 0 20 -7 34 -11 23z"/>
<path d="M5666 2582 c-2 -4 -7 -25 -11 -47 -4 -22 -13 -62 -22 -88 -8 -26 -12
-55 -9 -64 4 -8 0 -21 -9 -27 -10 -8 -18 -42 -24 -111 -5 -55 -13 -110 -16
-122 -4 -13 -3 -23 3 -23 5 0 12 12 15 28 3 15 21 88 40 162 41 157 61 338 33
292z"/>
<path d="M4851 2524 c0 -11 3 -14 6 -6 3 7 2 16 -1 19 -3 4 -6 -2 -5 -13z"/>
<path d="M5084 2481 c0 -25 2 -38 4 -28 2 9 8 17 13 17 14 0 11 47 -3 53 -9 3
-13 -9 -14 -42z"/>
<path d="M1137 2495 c3 -16 9 -37 14 -45 15 -27 10 11 -6 45 l-14 30 6 -30z"/>
<path d="M4820 2499 c-6 -11 -10 -28 -8 -37 2 -10 8 -1 15 21 12 41 10 48 -7
16z"/>
<path d="M5057 2513 c-4 -3 -7 -16 -6 -27 0 -19 1 -19 10 3 10 24 8 36 -4 24z"/>
<path d="M4956 2485 c-3 -8 -1 -15 4 -15 13 0 22 18 11 24 -5 3 -11 -1 -15 -9z"/>
<path d="M5560 2490 c0 -5 7 -10 16 -10 8 0 12 5 9 10 -3 6 -10 10 -16 10 -5
0 -9 -4 -9 -10z"/>
<path d="M5307 2463 c-4 -3 -7 -11 -7 -17 0 -6 5 -5 12 2 6 6 9 14 7 17 -3 3
-9 2 -12 -2z"/>
<path d="M5014 2448 c-4 -7 -3 -13 3 -15 6 -2 8 -14 6 -26 -7 -28 12 -11 21
19 7 24 -18 42 -30 22z"/>
<path d="M5550 2431 c0 -16 -3 -38 -7 -48 -3 -10 -3 -15 2 -11 11 11 24 88 14
88 -5 0 -9 -13 -9 -29z"/>
<path d="M5581 2404 c0 -11 3 -14 6 -6 3 7 2 16 -1 19 -3 4 -6 -2 -5 -13z"/>
<path d="M4794 2376 c-15 -16 -25 -46 -15 -46 8 0 34 50 29 55 -2 2 -8 -2 -14
-9z"/>
<path d="M5560 2355 c0 -8 2 -15 4 -15 2 0 6 7 10 15 3 8 1 15 -4 15 -6 0 -10
-7 -10 -15z"/>
<path d="M4900 2295 c0 -8 2 -15 4 -15 2 0 6 7 10 15 3 8 1 15 -4 15 -6 0 -10
-7 -10 -15z"/>
<path d="M4740 2260 c0 -5 5 -10 11 -10 5 0 7 5 4 10 -3 6 -8 10 -11 10 -2 0
-4 -4 -4 -10z"/>
<path d="M5524 2245 c-3 -8 -4 -20 -2 -27 3 -7 7 -1 10 15 6 29 1 36 -8 12z"/>
<path d="M4881 2233 c3 -22 -49 -133 -62 -133 -6 0 -6 -6 0 -18 6 -11 6 -25 0
-37 -10 -20 -10 -20 5 -1 9 11 16 28 16 38 0 10 5 18 10 18 6 0 10 9 10 19 0
28 11 52 21 45 5 -3 9 7 9 21 0 18 4 24 13 19 9 -5 9 -4 0 6 -6 7 -9 19 -6 26
3 8 0 14 -7 14 -6 0 -10 -8 -9 -17z"/>
<path d="M4705 2190 c-4 -6 -4 -14 -1 -19 8 -13 -4 -42 -15 -35 -5 3 -9 1 -9
-5 0 -5 -6 -16 -14 -23 -15 -16 -31 -58 -21 -58 10 0 30 24 31 38 2 27 5 32
17 32 6 0 20 16 29 34 14 29 14 35 3 40 -8 3 -17 1 -20 -4z"/>
<path d="M5530 2090 c0 -11 4 -20 9 -20 11 0 22 26 14 34 -12 12 -23 5 -23
-14z"/>
<path d="M4634 2024 c4 -10 4 -15 0 -12 -11 12 -45 -28 -38 -45 7 -20 -25 -77
-44 -77 -7 0 -10 6 -7 13 4 6 -1 3 -9 -7 -9 -11 -16 -27 -16 -37 0 -21 37 -32
44 -14 3 8 -3 16 -12 18 -14 4 -14 5 2 6 11 0 28 9 38 18 17 15 20 15 28 3 7
-11 9 -10 7 7 0 12 -5 19 -9 17 -4 -3 -8 -1 -8 4 0 5 10 14 23 21 12 6 14 9 5
7 -22 -7 -23 -2 -2 18 9 9 17 24 19 34 1 9 8 16 15 14 6 -1 10 3 8 10 -3 7
-15 15 -28 16 -18 3 -22 0 -16 -14z"/>
<path d="M4775 2029 c-4 -6 -5 -12 -2 -15 2 -3 7 2 10 11 7 17 1 20 -8 4z"/>
<path d="M4846 2001 c-7 -11 3 -41 14 -41 4 0 5 11 2 25 -5 27 -8 30 -16 16z"/>
<path d="M5340 1986 c-15 -39 -12 -46 6 -13 9 16 13 31 10 34 -3 3 -10 -6 -16
-21z"/>
<path d="M5381 1962 c-13 -26 -25 -58 -27 -72 -2 -14 -1 -20 2 -13 3 7 13 9
22 6 14 -4 14 -3 3 5 -16 11 -9 33 23 77 9 11 12 26 8 32 -5 9 -16 -3 -31 -35z"/>
<path d="M1050 1985 c0 -6 7 -19 15 -29 8 -10 12 -23 9 -27 -3 -5 0 -9 6 -9 7
0 9 8 5 23 -8 24 -35 58 -35 42z"/>
<path d="M1023 1973 c2 -5 11 -25 21 -45 14 -32 36 -59 36 -45 0 8 -52 97 -56
97 -3 0 -3 -3 -1 -7z"/>
<path d="M4815 1969 c-11 -17 1 -21 15 -4 8 9 8 15 2 15 -6 0 -14 -5 -17 -11z"/>
<path d="M5454 1854 c-4 -14 -2 -30 3 -35 6 -6 10 -5 10 3 0 7 3 23 7 36 4 13
3 22 -3 22 -6 0 -14 -12 -17 -26z"/>
<path d="M1130 1842 c0 -4 11 -23 25 -42 17 -23 21 -36 14 -41 -8 -4 -4 -11
10 -18 17 -10 21 -9 21 4 0 22 -28 75 -40 75 -6 0 -10 7 -10 15 0 8 -4 15 -10
15 -5 0 -10 -4 -10 -8z"/>
<path d="M4215 1795 c-26 -31 -44 -59 -40 -63 6 -7 31 20 83 88 40 52 7 33
-43 -25z"/>
<path d="M4970 1834 c0 -8 5 -12 10 -9 6 4 8 11 5 16 -9 14 -15 11 -15 -7z"/>
<path d="M4490 1809 c0 -5 5 -7 10 -4 6 3 10 8 10 11 0 2 -4 4 -10 4 -5 0 -10
-5 -10 -11z"/>
<path d="M990 1801 c0 -5 5 -13 10 -16 6 -3 10 -2 10 4 0 5 -4 13 -10 16 -5 3
-10 2 -10 -4z"/>
<path d="M4444 1765 c-14 -17 -19 -35 -16 -55 l4 -29 37 37 c20 20 32 40 27
43 -5 4 -5 12 -2 18 14 23 -31 10 -50 -14z"/>
<path d="M4945 1780 c3 -5 8 -10 11 -10 2 0 4 5 4 10 0 6 -5 10 -11 10 -5 0
-7 -4 -4 -10z"/>
<path d="M4349 1720 c-1 -3 -3 -22 -4 -44 -2 -37 -20 -60 -39 -49 -5 3 -1 12
9 20 11 7 14 13 8 13 -6 0 -16 -6 -22 -13 -8 -11 -6 -18 9 -32 17 -15 22 -16
37 -4 11 9 14 10 9 2 -13 -23 4 -33 24 -15 24 20 26 32 5 32 -8 0 -15 5 -15
10 0 6 11 8 25 4 16 -4 25 -2 25 6 0 7 -7 10 -15 6 -17 -6 -21 9 -5 19 6 3 10
10 10 16 0 14 -28 11 -33 -3 -2 -7 -8 -10 -12 -6 -5 5 0 17 9 27 17 19 17 20
-3 18 -12 -1 -22 -4 -22 -7z"/>
<path d="M4481 1695 c-36 -41 -39 -50 -11 -35 11 6 20 14 20 18 0 5 9 18 20
30 12 12 17 22 11 22 -5 0 -23 -16 -40 -35z"/>
<path d="M4145 1710 c-3 -5 -1 -10 4 -10 6 0 11 5 11 10 0 6 -2 10 -4 10 -3 0
-8 -4 -11 -10z"/>
<path d="M1210 1705 c0 -3 13 -17 29 -32 17 -17 28 -38 27 -53 -1 -17 5 -26
19 -28 11 -2 25 -8 30 -14 6 -6 4 -7 -6 -3 -21 8 -34 -10 -17 -24 61 -50 79
-62 88 -56 6 4 19 1 28 -7 16 -12 16 -11 2 7 -8 11 -53 64 -99 118 -74 85
-101 110 -101 92z"/>
<path d="M1105 1660 c20 -23 29 -21 19 4 -3 9 -13 16 -22 16 -13 0 -12 -3 3
-20z"/>
<path d="M4085 1660 c-27 -30 -11 -35 21 -6 21 18 24 25 13 26 -9 0 -24 -9
-34 -20z"/>
<path d="M5363 1665 c-8 -23 0 -25 21 -4 18 17 18 19 2 19 -9 0 -19 -7 -23
-15z"/>
<path d="M1170 1653 c0 -6 7 -16 15 -23 8 -7 15 -19 15 -26 0 -8 5 -14 10 -14
18 0 10 26 -15 50 -14 13 -25 19 -25 13z"/>
<path d="M4250 1615 c-6 -8 -9 -24 -5 -35 8 -25 -20 -61 -41 -53 -9 3 -14 -2
-14 -17 0 -16 -4 -20 -15 -16 -10 3 -15 -1 -15 -12 0 -13 -2 -14 -9 -4 -7 11
-10 10 -15 -3 -3 -9 -12 -15 -18 -13 -20 7 -80 -54 -75 -74 3 -11 0 -18 -10
-18 -8 0 -12 4 -9 9 3 5 -1 12 -10 15 -21 8 -24 8 -24 -5 0 -5 5 -7 12 -3 7 4
8 3 4 -5 -4 -7 -17 -9 -29 -6 -15 4 -18 3 -9 -3 10 -7 2 -16 -32 -36 -39 -23
-60 -46 -41 -46 8 0 57 32 73 47 15 14 32 17 32 6 0 -5 -23 -21 -51 -36 -47
-26 -53 -27 -68 -13 -16 14 -20 14 -51 -9 -19 -14 -40 -25 -48 -25 -8 0 -25
-9 -39 -20 -20 -15 -22 -20 -9 -21 31 -3 35 -4 48 -18 11 -11 9 -12 -12 -6
-19 5 -21 4 -10 -4 13 -9 12 -11 -4 -11 -18 0 -18 -1 -2 -19 16 -18 15 -20
-30 -50 -26 -17 -51 -28 -55 -25 -5 3 -9 1 -9 -5 0 -6 -7 -8 -16 -4 -14 5 -15
3 -7 -12 10 -18 53 -29 53 -14 0 4 15 10 34 13 33 6 72 36 47 36 -6 0 -11 -4
-11 -8 0 -5 -13 -9 -30 -9 l-30 0 30 19 c17 10 35 18 41 18 7 0 9 10 5 25 -5
21 -1 27 33 45 22 11 42 24 45 29 4 5 19 12 34 16 16 3 42 19 60 34 17 16 33
27 36 24 8 -9 56 29 50 41 -3 6 2 2 10 -8 10 -12 12 -22 6 -26 -6 -4 -5 -13 3
-24 13 -18 15 -18 42 0 16 10 33 19 39 20 32 3 36 5 36 12 0 4 -9 8 -19 8 -11
0 -17 -4 -15 -8 3 -4 -2 -5 -10 -2 -9 3 -13 11 -10 18 3 6 -3 1 -13 -12 -15
-18 -21 -20 -31 -10 -10 10 -3 21 34 55 25 24 56 49 68 55 20 10 20 10 4 -9
-17 -18 -16 -20 2 -33 11 -8 18 -23 16 -34 -2 -12 -1 -15 1 -8 4 10 8 10 18 2
11 -9 13 -6 11 14 -2 13 0 30 5 37 10 16 -8 52 -22 43 -16 -9 13 38 35 58 14
13 15 18 5 18 -10 1 -8 6 6 18 24 21 48 62 37 62 -4 0 -13 -5 -20 -12 -8 -8
-12 -8 -12 -1 0 6 7 13 15 17 8 3 15 12 15 20 0 20 -26 27 -40 11z m-373 -351
c-3 -3 -12 -4 -19 -1 -8 3 -5 6 6 6 11 1 17 -2 13 -5z m-37 -32 c0 -15 -2 -15
-10 -2 -9 13 -10 13 -10 0 0 -9 -9 -16 -20 -17 -27 -2 -25 21 3 34 26 12 37 8
37 -15z"/>
<path d="M4391 1592 c-25 -21 -40 -41 -35 -44 5 -4 29 14 54 38 54 54 41 58
-19 6z"/>
<path d="M1030 1580 c0 -5 5 -10 10 -10 6 0 10 5 10 10 0 6 -4 10 -10 10 -5 0
-10 -4 -10 -10z"/>
<path d="M1420 1571 c0 -5 14 -19 30 -31 17 -12 30 -17 30 -11 0 5 -13 19 -30
31 -16 12 -30 17 -30 11z"/>
<path d="M3980 1565 c-18 -21 -3 -32 16 -13 10 9 12 18 6 22 -5 3 -15 -1 -22
-9z"/>
<path d="M4215 1569 c-11 -17 1 -21 15 -4 8 9 8 15 2 15 -6 0 -14 -5 -17 -11z"/>
<path d="M4450 1569 c0 -5 5 -7 10 -4 6 3 10 8 10 11 0 2 -4 4 -10 4 -5 0 -10
-5 -10 -11z"/>
<path d="M5322 1555 c-7 -14 -12 -29 -12 -33 1 -10 40 38 40 49 0 18 -17 8
-28 -16z"/>
<path d="M4134 1555 c-16 -12 -16 -14 -3 -15 9 0 22 7 29 15 16 19 0 19 -26 0z"/>
<path d="M4070 1510 c-8 -5 -11 -12 -7 -16 4 -4 15 0 24 9 18 18 8 23 -17 7z"/>
<path d="M4282 1493 c-15 -16 -21 -31 -17 -44 8 -25 20 -24 46 2 l22 22 -29
-7 c-27 -6 -28 -5 -10 9 10 8 23 12 28 8 6 -3 5 4 -1 16 -7 11 -13 21 -14 20
-1 -1 -12 -12 -25 -26z"/>
<path d="M1296 1491 c-15 -16 -15 -22 -4 -40 15 -24 17 -24 38 -11 13 8 12 10
-3 10 -23 0 -33 26 -17 45 18 22 6 18 -14 -4z"/>
<path d="M3875 1490 c-8 -13 5 -13 25 0 13 8 13 10 -2 10 -9 0 -20 -4 -23 -10z"/>
<path d="M1195 1463 c4 -10 8 -24 9 -32 2 -19 54 -71 71 -71 8 0 25 -16 39
-36 15 -22 26 -31 28 -22 3 7 -7 27 -22 45 -15 17 -30 37 -34 45 -5 10 -7 10
-12 1 -7 -15 -34 8 -34 29 0 10 -3 9 -11 -2 -8 -12 -10 -12 -8 5 3 25 -10 55
-23 55 -6 0 -7 -8 -3 -17z"/>
<path d="M1557 1449 c7 -7 15 -10 18 -7 3 3 -2 9 -12 12 -14 6 -15 5 -6 -5z"/>
<path d="M1310 1416 c0 -2 7 -9 15 -16 12 -10 15 -10 15 4 0 9 -7 16 -15 16
-8 0 -15 -2 -15 -4z"/>
<path d="M1490 1412 c0 -6 11 -17 25 -26 14 -9 25 -13 25 -9 -1 12 -50 46 -50
35z"/>
<path d="M980 1400 c0 -5 7 -10 15 -10 8 0 15 5 15 10 0 6 -7 10 -15 10 -8 0
-15 -4 -15 -10z"/>
<path d="M1178 1401 c8 -4 13 -11 13 -15 -3 -20 1 -24 20 -19 21 6 21 6 -2 24
-13 10 -28 19 -34 19 -5 0 -4 -4 3 -9z"/>
<path d="M1980 1375 c7 -8 20 -15 29 -15 13 1 13 3 -3 15 -26 19 -42 19 -26 0z"/>
<path d="M1395 1360 c3 -5 11 -10 16 -10 6 0 7 5 4 10 -3 6 -11 10 -16 10 -6
0 -7 -4 -4 -10z"/>
<path d="M1210 1350 c0 -5 7 -10 15 -10 8 0 15 -7 15 -15 0 -19 16 -20 23 -1
3 8 -5 18 -19 25 -31 14 -34 14 -34 1z"/>
<path d="M1460 1340 c0 -5 4 -10 9 -10 5 0 18 -3 28 -7 16 -6 16 -5 4 10 -15
19 -41 23 -41 7z"/>
<path d="M4137 1329 c8 -8 16 -8 30 0 16 9 14 10 -11 11 -22 0 -27 -3 -19 -11z"/>
<path d="M1210 1320 c0 -5 11 -20 25 -34 14 -14 25 -22 25 -19 0 4 13 -6 30
-22 16 -15 27 -32 24 -37 -3 -5 -1 -7 4 -6 5 2 27 -13 48 -32 22 -19 51 -41
67 -49 15 -8 27 -20 27 -28 0 -7 8 -13 18 -13 10 0 23 -5 30 -12 9 -9 12 -9
12 -1 0 7 -25 28 -55 48 -53 35 -70 53 -41 42 11 -4 11 -1 2 19 -6 13 -19 27
-28 30 -10 3 -26 16 -37 30 -21 26 -37 31 -43 12 -3 -9 -6 -9 -12 0 -4 7 -2
12 5 12 7 0 5 8 -6 20 -10 11 -29 20 -42 20 -13 0 -26 7 -29 15 -7 17 -24 21
-24 5z"/>
<path d="M1592 1311 c7 -11 22 -22 34 -25 12 -3 35 -16 51 -29 15 -13 37 -27
48 -31 35 -13 -24 43 -80 75 -59 34 -69 36 -53 10z"/>
<path d="M1360 1304 c0 -11 13 -31 30 -46 16 -14 27 -28 24 -31 -6 -6 50 -47
65 -47 16 0 14 15 -4 30 -12 10 -15 10 -15 0 0 -10 -3 -10 -15 0 -8 7 -13 15
-11 19 3 4 -13 26 -35 51 -30 34 -39 39 -39 24z"/>
<path d="M1481 1301 c-11 -7 -9 -12 10 -22 21 -11 22 -10 12 3 -7 8 -10 18 -6
21 9 10 1 8 -16 -2z"/>
<path d="M3550 1300 c-13 -8 -12 -10 3 -10 9 0 17 5 17 10 0 12 -1 12 -20 0z"/>
<path d="M1173 1288 c-4 -7 -8 -16 -9 -20 -1 -5 -2 -11 -3 -15 -1 -5 -6 -1
-12 7 -8 12 -10 12 -7 1 2 -8 12 -15 21 -17 9 -1 14 2 11 8 -4 6 1 8 12 6 10
-2 21 -16 26 -36 6 -20 15 -32 26 -32 27 0 71 -42 77 -75 5 -20 4 -26 -3 -16
-6 9 -12 10 -16 3 -4 -6 3 -16 14 -22 11 -6 20 -20 20 -30 0 -13 7 -20 20 -20
23 0 26 10 8 28 -17 17 -19 42 -2 35 8 -3 14 -1 14 5 0 6 -6 13 -12 15 -8 4
-7 6 3 6 23 1 44 -25 27 -32 -8 -4 -9 -6 -1 -6 6 -1 9 -10 6 -21 -3 -12 0 -20
6 -20 7 0 9 -5 5 -12 -5 -7 -1 -9 13 -6 23 6 48 -10 48 -32 0 -8 12 -19 27
-24 30 -10 51 0 29 13 -17 11 3 25 22 16 6 -4 1 3 -12 14 -13 12 -28 21 -35
21 -6 0 -2 -7 8 -15 31 -23 -2 -18 -35 6 -16 11 -33 17 -39 14 -5 -3 -10 -2
-10 4 0 5 -3 17 -7 26 -5 15 -3 16 15 6 39 -21 22 3 -33 47 -29 24 -62 45 -73
47 -22 4 -62 35 -62 48 0 4 5 5 10 2 6 -3 10 -2 10 4 0 5 -4 13 -10 16 -5 3
-10 1 -10 -4 0 -6 -4 -11 -10 -11 -5 0 -10 6 -10 13 0 6 -13 25 -29 40 -22 20
-32 24 -38 15z"/>
<path d="M3390 1290 c-8 -5 -10 -10 -5 -10 6 0 17 5 25 10 8 5 11 10 5 10 -5
0 -17 -5 -25 -10z"/>
<path d="M4008 1276 c-15 -11 -16 -15 -3 -32 13 -18 14 -18 8 5 -4 15 -2 22 4
18 5 -3 10 0 10 8 0 8 -1 15 -1 15 -1 0 -9 -7 -18 -14z"/>
<path d="M3505 1260 c-3 -5 -2 -10 4 -10 5 0 13 5 16 10 3 6 2 10 -4 10 -5 0
-13 -4 -16 -10z"/>
<path d="M4100 1250 c0 -5 5 -10 10 -10 6 0 10 5 10 10 0 6 -4 10 -10 10 -5 0
-10 -4 -10 -10z"/>
<path d="M3970 1237 c0 -10 -4 -15 -10 -12 -6 3 -7 -1 -4 -9 3 -9 10 -16 14
-16 16 0 21 20 11 37 -10 17 -10 17 -11 0z"/>
<path d="M4066 1219 c-11 -11 -15 -19 -9 -19 12 0 38 28 32 34 -2 2 -13 -5
-23 -15z"/>
<path d="M3595 1220 c-3 -6 1 -7 9 -4 18 7 21 14 7 14 -6 0 -13 -4 -16 -10z"/>
<path d="M3896 1222 c-2 -4 4 -9 15 -9 11 -1 17 2 14 8 -7 11 -22 12 -29 1z"/>
<path d="M1604 1191 c20 -22 36 -27 36 -13 0 5 -12 14 -27 21 -28 13 -28 13
-9 -8z"/>
<path d="M1551 1197 c2 -2 22 -15 44 -31 l40 -28 -33 31 c-18 17 -37 31 -44
31 -6 0 -9 -1 -7 -3z"/>
<path d="M3270 1181 c41 -8 35 -11 -85 -36 -137 -29 -135 -47 3 -25 35 6 80
19 100 30 20 11 42 20 49 20 6 0 14 3 16 8 3 4 -23 8 -56 8 -47 1 -53 0 -27
-5z"/>
<path d="M3910 1180 c0 -5 4 -10 9 -10 6 0 13 5 16 10 3 6 -1 10 -9 10 -9 0
-16 -4 -16 -10z"/>
<path d="M3150 1170 c-24 -8 -23 -8 8 -9 17 -1 32 4 32 9 0 11 -5 11 -40 0z"/>
<path d="M3886 1171 c-5 -7 -3 -18 3 -24 14 -14 20 -6 11 17 -5 15 -9 16 -14
7z"/>
<path d="M1460 1166 c0 -2 7 -7 16 -10 8 -3 12 -2 9 4 -6 10 -25 14 -25 6z"/>
<path d="M1861 1154 c4 -21 189 -122 224 -122 15 -1 11 4 -12 15 -18 9 -33 20
-33 25 0 4 -4 8 -10 8 -5 0 -26 11 -46 25 -20 14 -43 25 -51 25 -8 0 -28 10
-45 21 -28 21 -30 21 -27 3z"/>
<path d="M1230 1149 c0 -6 -6 -9 -13 -6 -10 4 -14 -5 -15 -28 -1 -27 5 -38 33
-60 19 -14 35 -22 35 -18 0 4 4 2 9 -6 9 -14 31 -7 31 9 0 6 -17 17 -37 25
-29 12 -34 18 -23 25 12 7 12 11 -1 26 -11 14 -11 16 -1 10 11 -7 12 -4 3 13
-13 23 -21 27 -21 10z"/>
<path d="M1030 1141 c0 -5 7 -11 15 -15 8 -3 15 -1 15 3 0 5 -7 11 -15 15 -8
3 -15 1 -15 -3z"/>
<path d="M1680 1140 c0 -5 9 -14 20 -20 11 -6 20 -7 20 -3 0 5 -9 14 -20 21
-11 7 -20 8 -20 2z"/>
<path d="M2988 1143 c7 -3 16 -2 19 1 4 3 -2 6 -13 5 -11 0 -14 -3 -6 -6z"/>
<path d="M1160 1129 c0 -5 5 -7 10 -4 6 3 10 8 10 11 0 2 -4 4 -10 4 -5 0 -10
-5 -10 -11z"/>
<path d="M1580 1119 c0 -5 5 -7 11 -4 5 4 19 -1 29 -10 12 -11 20 -13 25 -6 3
6 -5 15 -20 21 -34 13 -45 13 -45 -1z"/>
<path d="M1522 1101 c7 -21 110 -81 124 -73 11 6 5 16 -26 41 -22 17 -40 27
-40 20 0 -7 -9 -6 -25 5 -27 18 -38 20 -33 7z"/>
<path d="M1700 1091 c0 -5 7 -11 14 -14 10 -4 13 -1 9 9 -6 15 -23 19 -23 5z"/>
<path d="M1890 1076 c0 -3 14 -13 30 -21 17 -9 28 -21 24 -26 -4 -7 1 -9 13
-5 12 4 28 -1 43 -14 27 -23 40 -25 40 -6 0 7 -24 25 -52 39 -59 28 -98 41
-98 33z"/>
<path d="M1475 1050 c-3 -5 -2 -10 4 -10 5 0 13 5 16 10 3 6 2 10 -4 10 -5 0
-13 -4 -16 -10z"/>
<path d="M3752 1049 c2 -6 8 -10 13 -10 5 0 11 4 13 10 2 6 -4 11 -13 11 -9 0
-15 -5 -13 -11z"/>
<path d="M3702 1031 c-11 -6 -10 -10 4 -15 20 -8 32 0 18 14 -5 5 -15 5 -22 1z"/>
<path d="M1163 1023 c4 -3 1 -13 -5 -21 -10 -12 -6 -19 22 -43 19 -16 52 -43
73 -60 20 -17 37 -27 37 -23 0 11 -40 49 -92 88 -21 16 -35 33 -32 38 4 6 10
6 17 -1 20 -20 31 -11 12 9 -10 11 -23 20 -28 20 -6 0 -7 -3 -4 -7z"/>
<path d="M2120 1021 c0 -5 10 -11 23 -15 36 -9 42 -7 21 9 -21 16 -44 19 -44
6z"/>
<path d="M3186 1015 c-10 -27 -7 -33 13 -28 10 3 18 12 17 21 -4 22 -22 26
-30 7z"/>
<path d="M1317 1006 c-6 -15 61 -69 75 -60 12 8 -9 42 -32 49 -11 3 -20 11
-20 16 0 14 -17 11 -23 -5z"/>
<path d="M3050 1000 c-24 -8 -23 -8 8 -9 20 -1 31 3 27 9 -3 6 -7 10 -8 9 -1
-1 -13 -5 -27 -9z"/>
<path d="M3126 1002 c6 -4 14 -16 17 -26 6 -16 5 -17 -7 -7 -11 9 -16 9 -21 0
-10 -16 16 -30 32 -17 7 6 10 14 7 20 -3 5 0 15 6 23 10 13 8 15 -16 15 -16 0
-24 -4 -18 -8z"/>
<path d="M1658 993 c7 -3 16 -2 19 1 4 3 -2 6 -13 5 -11 0 -14 -3 -6 -6z"/>
<path d="M1790 996 c0 -2 7 -7 16 -10 8 -3 12 -2 9 4 -6 10 -25 14 -25 6z"/>
<path d="M1960 992 c0 -13 40 -33 52 -26 7 5 5 12 -7 21 -21 14 -45 17 -45 5z"/>
<path d="M2070 986 c14 -9 20 -15 13 -16 -6 0 -10 -8 -8 -17 2 -10 4 -21 4
-25 1 -4 9 -7 19 -6 39 3 62 -3 80 -22 17 -19 99 -41 146 -39 18 0 -82 39
-181 70 -42 13 -55 32 -16 23 15 -4 44 -13 63 -21 80 -34 136 -53 158 -53 17
0 23 -4 18 -15 -3 -8 -1 -15 5 -15 6 0 8 -4 4 -9 -7 -12 32 -34 46 -26 5 4 7
15 4 26 -8 25 11 25 25 -1 8 -15 8 -20 -2 -20 -19 0 25 -29 45 -30 24 0 52 27
34 33 -6 2 -9 8 -5 12 4 4 19 -2 34 -14 14 -11 31 -17 38 -13 7 4 2 8 -11 10
-13 2 -23 8 -23 13 0 11 0 11 39 -2 17 -6 36 -20 42 -30 5 -10 17 -19 25 -19
8 0 12 5 9 10 -8 13 -5 13 34 -1 27 -10 34 -9 45 6 12 17 15 17 46 1 36 -18
145 -22 155 -6 3 6 -3 10 -14 10 -11 0 -22 9 -26 21 -6 19 -12 20 -58 15 -102
-12 -137 -14 -133 -7 2 3 -8 7 -22 8 -72 6 -192 28 -192 35 0 4 -15 8 -32 8
-35 0 -115 25 -135 42 -7 5 -17 7 -22 4 -12 -8 -101 13 -101 23 0 4 5 12 12
19 14 14 11 17 -22 27 -25 8 -25 7 -7 -13 10 -11 14 -23 9 -26 -11 -6 -68 9
-85 22 -7 6 -28 13 -47 16 -35 7 -35 7 -10 -8z m763 -173 c-7 -2 -19 -2 -25 0
-7 3 -2 5 12 5 14 0 19 -2 13 -5z m57 -3 c13 -8 13 -10 -2 -10 -9 0 -20 5 -23
10 -8 13 5 13 25 0z"/>
<path d="M1735 982 c16 -12 16 -32 0 -26 -8 4 -15 1 -15 -5 0 -16 35 -14 49 3
10 12 8 17 -8 25 -22 12 -41 15 -26 3z"/>
<path d="M2880 980 c0 -5 5 -10 11 -10 5 0 7 5 4 10 -3 6 -8 10 -11 10 -2 0
-4 -4 -4 -10z"/>
<path d="M1574 950 c1 -27 2 -29 14 -13 13 19 12 35 -5 40 -6 2 -10 -9 -9 -27z"/>
<path d="M1430 945 c6 -8 9 -20 5 -27 -4 -7 0 -4 9 6 17 21 13 36 -11 36 -12
0 -13 -3 -3 -15z"/>
<path d="M1781 947 c-16 -16 -13 -30 5 -23 8 3 12 2 9 -4 -8 -13 24 -25 35
-14 5 5 -1 18 -15 30 -17 15 -27 18 -34 11z"/>
<path d="M2535 930 c-3 -5 -1 -10 4 -10 6 0 11 5 11 10 0 6 -2 10 -4 10 -3 0
-8 -4 -11 -10z"/>
<path d="M2593 919 c9 -5 22 -7 27 -4 6 3 10 1 10 -4 0 -6 5 -11 10 -11 6 0
10 7 10 15 0 11 -11 15 -37 15 -31 -1 -35 -3 -20 -11z"/>
<path d="M2055 911 c3 -5 1 -12 -5 -16 -12 -8 42 -55 63 -55 23 0 14 26 -19
55 -29 25 -50 34 -39 16z"/>
<path d="M2735 910 c-3 -5 1 -10 10 -10 9 0 13 5 10 10 -3 6 -8 10 -10 10 -2
0 -7 -4 -10 -10z"/>
<path d="M2992 911 c-8 -4 -24 -7 -38 -5 -15 1 -24 -3 -24 -12 0 -7 6 -11 14
-8 8 3 17 1 21 -5 3 -6 11 -11 17 -11 6 0 8 3 5 7 -4 3 -2 12 4 20 13 15 43
18 34 2 -5 -7 4 -9 26 -7 18 2 35 10 37 16 4 14 -75 17 -96 3z"/>
<path d="M2683 903 c9 -2 23 -2 30 0 6 3 -1 5 -18 5 -16 0 -22 -2 -12 -5z"/>
<path d="M2870 900 c0 -6 11 -10 25 -10 14 0 25 4 25 8 0 4 -11 9 -25 10 -14
1 -25 -3 -25 -8z"/>
<path d="M1788 883 c7 -3 16 -2 19 1 4 3 -2 6 -13 5 -11 0 -14 -3 -6 -6z"/>
<path d="M2688 883 c7 -3 16 -2 19 1 4 3 -2 6 -13 5 -11 0 -14 -3 -6 -6z"/>
<path d="M2780 860 c-8 -5 -10 -10 -5 -10 6 0 17 5 25 10 8 5 11 10 5 10 -5 0
-17 -5 -25 -10z"/>
<path d="M1399 839 c13 -11 26 -17 29 -14 8 8 -20 35 -37 35 -12 -1 -11 -5 8
-21z"/>
<path d="M1780 810 c-9 -6 -10 -10 -3 -10 6 0 15 5 18 10 8 12 4 12 -15 0z"/>
<path d="M2340 795 c-14 -8 -20 -14 -13 -15 6 0 19 -7 27 -16 20 -20 36 -10
34 21 -3 28 -12 30 -48 10z"/>
<path d="M3180 771 c0 -5 11 -8 25 -7 38 4 43 16 7 16 -18 0 -32 -4 -32 -9z"/>
<path d="M2275 759 c-8 -12 -5 -16 15 -19 25 -4 40 0 40 9 0 5 -10 7 -22 3
-14 -3 -19 -2 -14 6 4 7 3 12 -3 12 -5 0 -13 -5 -16 -11z"/>
<path d="M2480 761 c0 -6 -7 -11 -15 -11 -24 0 -17 -14 14 -28 32 -14 93 -6
69 9 -9 6 -7 9 9 9 12 0 25 5 28 10 4 6 -10 10 -34 10 -21 0 -46 3 -55 6 -9 3
-16 1 -16 -5z m45 -21 c3 -5 1 -10 -4 -10 -6 0 -11 5 -11 10 0 6 2 10 4 10 3
0 8 -4 11 -10z"/>
<path d="M2604 754 c3 -9 6 -22 6 -30 0 -10 5 -12 13 -7 14 9 18 10 50 12 18
1 19 3 7 11 -8 5 -25 10 -37 10 -13 0 -23 5 -23 10 0 6 -5 10 -11 10 -6 0 -8
-7 -5 -16z"/>
<path d="M1740 745 c7 -8 17 -15 22 -15 6 0 5 7 -2 15 -7 8 -17 15 -22 15 -6
0 -5 -7 2 -15z"/>
<path d="M2945 750 c-17 -7 -15 -9 13 -9 17 -1 32 4 32 9 0 12 -17 12 -45 0z"/>
<path d="M2336 730 c-19 -6 -19 -7 2 -12 12 -4 24 -2 27 2 8 13 -8 18 -29 10z"/>
<path d="M2703 712 c1 -12 6 -18 14 -15 16 6 13 25 -5 31 -6 2 -10 -6 -9 -16z"/>
<path d="M2788 723 c6 -2 10 -9 6 -14 -3 -5 11 -9 30 -9 44 0 47 15 5 24 -37
7 -60 7 -41 -1z"/>
<path d="M2950 720 c0 -6 -6 -8 -12 -4 -10 6 -10 4 0 -7 9 -9 15 -10 23 -2 8
8 8 13 0 17 -6 4 -11 2 -11 -4z"/>
<path d="M2883 698 c-2 -26 14 -58 29 -58 6 0 3 9 -6 19 -14 15 -15 24 -6 40
8 16 8 21 -3 21 -7 0 -13 -10 -14 -22z"/>
<path d="M1840 706 c0 -2 7 -6 15 -10 8 -3 15 -1 15 4 0 6 -7 10 -15 10 -8 0
-15 -2 -15 -4z"/>
<path d="M2455 700 c3 -5 11 -10 16 -10 6 0 7 5 4 10 -3 6 -11 10 -16 10 -6 0
-7 -4 -4 -10z"/>
<path d="M2523 703 c-44 -6 -42 -23 3 -23 19 0 33 4 29 9 -3 5 3 12 12 14 22
6 1 5 -44 0z"/>
<path d="M2795 680 c-3 -5 -1 -10 4 -10 6 0 11 5 11 10 0 6 -2 10 -4 10 -3 0
-8 -4 -11 -10z"/>
<path d="M2939 676 c23 -13 23 -14 5 -18 -15 -3 -13 -5 9 -10 35 -7 36 14 2
30 -35 16 -46 14 -16 -2z"/>
<path d="M2760 672 c0 -5 12 -14 26 -20 14 -7 22 -17 19 -22 -3 -6 -2 -10 3
-10 5 0 12 9 15 21 4 14 2 19 -8 16 -7 -3 -22 1 -34 9 -11 8 -21 11 -21 6z"/>
<path d="M2620 659 c0 -5 5 -7 10 -4 6 3 10 8 10 11 0 2 -4 4 -10 4 -5 0 -10
-5 -10 -11z"/>
<path d="M2850 650 c0 -5 7 -7 15 -4 8 4 15 8 15 10 0 2 -7 4 -15 4 -8 0 -15
-4 -15 -10z"/>
<path d="M3120 624 c0 -19 -5 -44 -10 -55 -8 -15 -7 -19 4 -19 21 0 25 -22 8
-48 -13 -21 -13 -25 0 -38 13 -13 17 -13 39 5 20 17 22 22 9 30 -8 5 -19 7
-25 4 -5 -4 -1 3 9 15 16 18 16 22 4 22 -9 0 -18 7 -22 15 -3 8 -2 15 2 15 4
0 8 12 9 26 0 15 7 31 15 35 11 7 10 11 -2 19 -28 18 -40 11 -40 -26z"/>
<path d="M3003 623 c9 -2 23 -2 30 0 6 3 -1 5 -18 5 -16 0 -22 -2 -12 -5z"/>
<path d="M2530 611 c0 -9 44 -17 73 -12 4 0 7 -11 7 -25 0 -24 3 -26 33 -20
23 4 28 3 17 -4 -12 -8 -11 -10 8 -10 20 0 21 3 12 20 -6 11 -16 20 -22 20 -6
0 -9 2 -6 5 10 10 108 13 108 3 0 -5 5 -6 10 -3 20 12 9 23 -26 27 -19 2 -38
0 -40 -4 -3 -5 -12 -4 -20 3 -11 9 -19 8 -38 -5 -15 -9 -26 -11 -28 -5 -5 15
-88 25 -88 10z"/>
<path d="M3062 599 c-24 -5 -62 -7 -83 -5 -33 3 -39 0 -37 -13 2 -11 14 -16
36 -16 17 -1 32 2 32 5 0 4 14 4 31 2 22 -3 30 -1 25 7 -4 6 -2 9 6 6 13 -5
46 11 38 18 -3 2 -25 0 -48 -4z"/>
<path d="M2888 593 c7 -3 16 -2 19 1 4 3 -2 6 -13 5 -11 0 -14 -3 -6 -6z"/>
<path d="M1716 577 c2 -7 18 -21 34 -31 24 -13 30 -14 30 -3 0 7 -16 21 -35
30 -24 11 -33 13 -29 4z"/>
<path d="M2705 539 c-10 -15 0 -22 35 -24 17 -2 34 -5 37 -9 8 -8 -27 -47 -37
-41 -4 3 -11 -2 -14 -11 -3 -8 -2 -13 3 -9 5 3 11 0 13 -7 3 -8 10 -7 27 4 16
11 19 17 9 21 -7 3 0 6 17 6 22 1 26 4 17 13 -7 7 -8 17 -1 30 10 19 5 22 -38
18 -12 -1 -31 4 -42 9 -14 8 -22 8 -26 0z"/>
<path d="M3050 540 c-13 -8 -12 -10 3 -10 9 0 17 5 17 10 0 12 -1 12 -20 0z"/>
<path d="M2667 524 c-12 -12 -8 -24 8 -24 8 0 15 -5 15 -11 0 -5 5 -7 11 -3 8
5 8 9 -1 14 -6 4 -11 11 -10 16 2 11 -14 16 -23 8z"/>
<path d="M2943 523 c9 -2 25 -2 35 0 9 3 1 5 -18 5 -19 0 -27 -2 -17 -5z"/>
<path d="M2891 501 c-1 -7 -7 -11 -15 -8 -8 3 -20 -1 -26 -9 -10 -11 -9 -14 6
-14 27 0 47 16 41 31 -5 12 -6 12 -6 0z"/>
<path d="M2960 499 c0 -5 11 -9 25 -9 14 0 25 2 25 4 0 2 -11 6 -25 8 -14 3
-25 1 -25 -3z"/>
<path d="M2720 490 c0 -13 11 -13 30 0 12 8 11 10 -7 10 -13 0 -23 -4 -23 -10z"/>
<path d="M3048 493 c6 -2 10 -9 6 -14 -3 -5 1 -9 9 -9 8 0 17 7 21 15 4 11 -2
15 -22 14 -15 0 -21 -3 -14 -6z"/>
<path d="M2992 463 c2 -10 11 -19 20 -21 12 -2 15 2 11 17 -7 25 -36 28 -31 4z"/>
<path d="M2455 429 c-4 -6 -4 -13 0 -17 4 -4 10 -2 12 5 2 7 12 9 21 6 15 -4
15 -3 2 6 -19 14 -27 14 -35 0z"/>
<path d="M2849 433 c-1 -5 -1 -12 0 -17 1 -5 -4 -4 -12 3 -12 9 -16 9 -20 -2
-3 -8 6 -18 23 -24 34 -13 39 -10 32 22 -4 23 -20 35 -23 18z"/>
<path d="M2410 420 c-9 -6 -10 -10 -3 -10 6 0 15 5 18 10 8 12 4 12 -15 0z"/>
<path d="M2566 422 c-8 -13 42 -20 74 -11 23 7 23 7 -7 8 -17 1 -38 4 -46 7
-8 3 -18 1 -21 -4z"/>
<path d="M3000 415 c0 -22 17 -26 34 -9 20 20 21 19 -9 20 -15 1 -25 -4 -25
-11z"/>
<path d="M2740 400 c36 -11 50 -11 50 0 0 6 -17 10 -37 9 -34 -1 -35 -2 -13
-9z"/>
<path d="M2915 400 c11 -5 27 -9 35 -9 13 -1 13 0 0 9 -8 5 -24 9 -35 9 l-20
0 20 -9z"/>
<path d="M2555 390 c-4 -6 -4 -10 -1 -10 2 0 11 -3 20 -6 9 -3 16 -2 16 4 0
14 -28 23 -35 12z"/>
<path d="M2725 380 c-7 -12 2 -30 16 -30 12 0 12 27 0 35 -5 3 -12 1 -16 -5z"/>
<path d="M2850 360 c0 -5 7 -10 15 -10 8 0 15 5 15 10 0 6 -7 10 -15 10 -8 0
-15 -4 -15 -10z"/>
<path d="M2720 330 c0 -5 7 -7 15 -4 8 4 15 8 15 10 0 2 -7 4 -15 4 -8 0 -15
-4 -15 -10z"/>
<path d="M2500 190 c0 -5 5 -10 11 -10 5 0 7 5 4 10 -3 6 -8 10 -11 10 -2 0
-4 -4 -4 -10z"/>
</g>
</svg>
