<?xml version="1.0" standalone="no"?>
<!DOCTYPE svg PUBLIC "-//W3C//DTD SVG 20010904//EN"
 "http://www.w3.org/TR/2001/REC-SVG-20010904/DTD/svg10.dtd">
<svg version="1.0" xmlns="http://www.w3.org/2000/svg"
 width="1582.000000pt" height="1330.000000pt" viewBox="0 0 1582.000000 1330.000000"
 preserveAspectRatio="xMidYMid meet">

<g transform="translate(0.000000,1330.000000) scale(0.100000,-0.100000)"
fill="#000000" stroke="none">
<path d="M13499 13286 c-52 -18 -109 -55 -109 -71 0 -7 -7 -18 -15 -25 -19
-16 -20 -99 -1 -126 8 -11 16 -31 18 -44 1 -14 13 -29 25 -35 12 -5 24 -18 27
-28 4 -16 11 -18 48 -12 109 17 162 51 151 95 -4 13 0 20 9 20 12 0 14 12 11
58 -6 82 -20 117 -59 152 -38 33 -52 35 -105 16z"/>
<path d="M6900 12802 c-50 -16 -112 -79 -161 -160 -50 -83 -53 -90 -50 -148 2
-52 -1 -65 -22 -90 -13 -16 -37 -51 -52 -79 -16 -27 -37 -60 -48 -73 -23 -25
-47 -86 -47 -119 0 -16 -8 -25 -25 -29 -22 -5 -25 -12 -25 -51 0 -34 -7 -55
-32 -90 l-33 -45 24 -19 c28 -23 41 -24 41 -5 0 8 15 19 33 26 24 8 38 23 55
58 12 26 22 53 22 60 0 7 31 66 69 130 39 65 75 131 81 146 6 16 24 44 40 63
17 19 30 45 30 58 0 14 23 62 52 108 49 77 97 191 98 229 0 20 -28 37 -50 30z"/>
<path d="M5212 12535 c-16 -13 -44 -52 -62 -87 -18 -35 -51 -94 -73 -132 -33
-57 -38 -72 -28 -88 9 -15 8 -18 -8 -18 -28 0 -87 -74 -100 -125 -7 -28 -21
-51 -37 -62 -55 -38 -138 -120 -166 -163 -16 -25 -38 -76 -49 -115 -28 -91
-38 -111 -102 -187 -30 -35 -66 -82 -81 -105 -14 -24 -30 -43 -35 -43 -14 0
-96 -129 -116 -182 -10 -27 -22 -48 -27 -48 -5 0 -12 -8 -16 -19 -9 -24 -138
-161 -152 -161 -5 0 -16 -13 -25 -30 -9 -16 -20 -30 -26 -30 -8 0 -249 -224
-359 -334 -32 -32 -245 -254 -286 -298 -18 -18 -47 -47 -65 -63 -19 -17 -51
-52 -72 -78 l-38 -47 -70 0 c-80 0 -84 -3 -168 -114 -24 -31 -66 -75 -95 -97
-28 -21 -56 -44 -63 -49 -6 -5 -15 -31 -19 -57 -5 -34 -15 -53 -35 -71 -16
-13 -48 -61 -70 -107 -39 -78 -41 -86 -29 -115 27 -64 8 -147 -50 -220 -16
-21 -30 -43 -30 -48 0 -6 -7 -15 -15 -19 -12 -7 -13 -16 -5 -42 17 -60 -20
-177 -64 -206 -16 -10 -26 -27 -26 -40 0 -18 -7 -25 -31 -30 -23 -5 -28 -9
-18 -16 26 -16 87 -10 101 10 22 31 113 31 149 0 19 -17 32 -19 66 -14 40 6
58 -5 33 -20 -5 -3 -10 -15 -10 -26 0 -14 7 -19 25 -19 14 0 28 -7 31 -15 4
-9 13 -13 24 -10 29 9 48 -5 71 -50 13 -25 31 -46 43 -49 12 -3 41 -22 65 -42
23 -20 53 -38 66 -39 12 -2 32 -8 43 -14 11 -6 38 -11 59 -11 21 -1 56 -8 78
-16 22 -9 51 -18 65 -21 14 -3 33 -12 42 -20 9 -8 73 -23 143 -34 70 -11 139
-26 154 -33 14 -8 49 -17 76 -21 65 -10 198 -51 255 -80 56 -28 216 -180 229
-217 6 -16 18 -28 26 -28 9 0 42 -24 73 -54 31 -30 66 -55 77 -58 17 -3 22
-16 31 -82 7 -52 17 -83 28 -91 9 -7 16 -22 16 -33 0 -12 6 -25 13 -29 6 -4
17 -17 23 -28 6 -11 25 -22 44 -25 39 -6 52 -29 21 -37 -14 -4 -24 -16 -28
-35 -4 -19 -16 -34 -37 -45 -52 -27 -101 -70 -121 -107 -11 -20 -28 -39 -38
-42 -10 -3 -23 -18 -30 -32 -6 -15 -36 -65 -65 -111 -30 -46 -56 -99 -59 -117
-3 -19 -12 -39 -19 -45 -8 -6 -14 -17 -14 -24 0 -7 -15 -53 -34 -102 -23 -58
-43 -140 -59 -234 -25 -150 -66 -269 -94 -269 -8 0 -22 -7 -31 -16 -20 -21
-115 -14 -251 16 -50 11 -102 20 -115 20 -13 0 -29 7 -36 15 -7 8 -29 15 -50
15 -21 0 -43 7 -50 15 -10 12 -16 13 -27 3 -10 -8 -17 -8 -21 -1 -4 6 -23 14
-42 18 -19 4 -38 11 -41 16 -3 5 -41 13 -84 19 -97 12 -191 38 -206 56 -6 8
-17 14 -24 14 -7 0 -42 13 -77 30 -48 23 -77 30 -123 30 -72 0 -102 -14 -133
-60 l-23 -35 23 -18 c13 -10 36 -29 52 -43 15 -13 35 -24 45 -24 9 0 67 -5
129 -10 106 -8 119 -12 221 -61 121 -57 128 -65 138 -161 l6 -60 76 4 76 3 -3
-27 c-2 -24 1 -28 23 -28 16 0 25 -6 25 -15 0 -63 -84 -142 -138 -131 -22 5
-34 1 -55 -20 -14 -14 -29 -35 -32 -45 -8 -24 11 -49 34 -49 10 0 30 -13 46
-30 24 -25 36 -30 77 -30 35 0 48 -4 48 -14 0 -20 -17 -29 -23 -14 -3 9 -16 1
-38 -21 -30 -31 -35 -33 -85 -29 -43 4 -58 10 -75 32 -15 19 -27 25 -41 20
-11 -3 -27 0 -36 8 -9 8 -30 15 -47 16 -16 1 -59 11 -95 22 -36 11 -108 29
-160 40 -137 28 -310 85 -396 131 -41 21 -81 39 -89 39 -8 0 -22 11 -31 25 -9
14 -31 32 -48 40 -17 9 -66 47 -109 85 -52 47 -86 70 -102 70 -14 0 -67 21
-117 48 -89 45 -97 47 -175 47 -76 0 -84 -2 -111 -28 -38 -36 -66 -99 -59
-129 4 -13 24 -33 46 -46 24 -13 51 -41 67 -67 31 -54 82 -84 157 -92 29 -3
61 -14 72 -23 11 -10 34 -25 51 -33 17 -9 36 -22 42 -30 7 -8 22 -12 37 -9 36
6 60 -5 46 -22 -14 -16 -7 -22 68 -62 30 -16 63 -35 75 -41 12 -7 30 -13 41
-13 11 0 37 -11 58 -25 20 -14 45 -25 55 -23 13 2 18 -5 20 -29 2 -18 12 -39
23 -46 18 -13 16 -15 -21 -26 -44 -13 -70 -50 -70 -98 0 -54 15 -62 178 -98
l124 -27 36 35 c20 20 47 40 58 44 12 4 37 28 55 52 19 24 52 57 75 73 l41 29
34 -20 c19 -11 81 -31 139 -46 58 -14 133 -37 168 -50 34 -14 81 -25 103 -25
35 0 41 -3 36 -19 -2 -10 8 -37 24 -61 38 -56 47 -105 25 -140 -9 -16 -24 -55
-35 -88 -22 -73 -52 -117 -93 -138 -39 -20 -153 -20 -351 1 -180 19 -168 21
-210 -20 -42 -41 -60 -96 -55 -170 3 -47 5 -51 44 -72 23 -13 76 -32 119 -43
57 -15 92 -31 137 -65 33 -25 67 -45 76 -45 10 0 24 -13 34 -29 21 -37 94 -91
123 -91 13 0 30 -11 39 -24 11 -18 31 -28 73 -36 121 -24 249 -61 275 -80 15
-11 32 -20 38 -20 6 0 13 -13 16 -30 4 -16 13 -35 20 -41 23 -19 17 -67 -11
-95 -29 -29 -8 -29 -255 1 -204 25 -344 20 -355 -14 -9 -29 12 -69 47 -92 26
-16 42 -19 78 -14 25 4 54 6 65 6 256 -6 484 -19 503 -29 53 -30 -7 -122 -79
-122 -15 0 -32 -6 -38 -14 -18 -22 7 -66 41 -73 15 -3 30 -14 34 -25 5 -16 13
-19 35 -16 42 6 43 -4 4 -42 -30 -30 -46 -35 -182 -61 -81 -16 -200 -36 -263
-44 -117 -16 -160 -33 -160 -63 1 -47 1 -47 277 -29 142 10 300 20 352 23 79
6 94 9 98 25 5 17 7 17 41 -2 20 -10 53 -19 72 -19 49 0 137 -43 151 -74 11
-23 14 -24 33 -11 21 16 116 21 116 7 0 -4 -6 -20 -12 -34 -12 -24 -20 -28
-78 -33 -36 -3 -77 -9 -92 -11 -42 -8 -35 -36 15 -59 31 -15 47 -31 62 -63 11
-24 27 -47 35 -52 32 -20 95 -10 185 30 110 49 205 68 401 78 122 6 155 11
168 25 22 22 119 23 160 2 27 -14 31 -14 38 0 5 8 15 15 23 15 19 0 73 -47 80
-71 6 -19 -17 -79 -48 -121 -8 -13 -9 -23 -1 -35 21 -33 47 -32 174 9 138 44
213 57 224 39 4 -6 14 -11 23 -11 9 0 43 -28 75 -62 47 -50 61 -60 68 -48 8
12 10 11 10 -7 0 -12 7 -29 16 -38 20 -20 13 -78 -16 -136 -19 -36 -19 -41 -5
-69 8 -16 15 -34 15 -39 0 -6 11 -27 25 -47 41 -61 48 -102 25 -163 -21 -57
-45 -91 -66 -91 -7 0 -18 -15 -24 -34 -6 -19 -17 -40 -25 -46 -29 -24 -45 -73
-45 -139 0 -103 6 -114 51 -108 64 8 164 82 209 155 22 34 50 66 64 72 13 5
27 13 30 18 3 6 38 13 76 17 54 5 78 13 100 32 37 31 57 91 41 121 -22 41
-151 54 -151 16 0 -11 -6 -13 -19 -9 -11 3 -29 1 -40 -5 -63 -31 -60 -31 -66
-7 -3 12 -5 54 -4 92 1 39 -2 104 -6 145 -13 133 25 243 91 265 17 6 39 17 48
24 22 18 48 4 56 -29 4 -16 16 -27 38 -32 36 -10 53 -35 31 -48 -10 -7 -6 -12
14 -19 16 -6 32 -11 37 -11 15 0 60 -23 60 -31 0 -4 -11 -10 -25 -13 -13 -3
-29 -15 -35 -26 -6 -11 -20 -20 -30 -20 -24 0 -26 -27 -4 -58 20 -29 34 -28
34 2 0 21 6 25 46 31 41 6 44 8 27 20 -17 13 -17 14 -1 20 22 9 81 -11 101
-33 8 -9 20 -35 27 -57 7 -22 31 -60 54 -86 22 -25 62 -70 88 -101 45 -53 114
-98 151 -98 13 0 15 -6 11 -30 -5 -23 -3 -30 9 -30 8 0 17 5 19 12 2 6 15 -4
28 -23 13 -19 43 -55 67 -81 24 -26 43 -52 43 -57 0 -6 26 -24 58 -40 36 -18
69 -45 89 -72 29 -39 107 -132 164 -195 10 -12 23 -33 29 -48 6 -16 24 -33 45
-41 38 -17 55 -41 55 -80 0 -15 11 -41 25 -59 43 -52 54 -68 101 -142 39 -63
46 -84 60 -175 20 -122 20 -144 5 -264 -20 -155 8 -347 68 -459 34 -63 40 -84
50 -185 16 -152 31 -213 53 -219 13 -3 18 -14 18 -43 0 -29 8 -47 31 -74 17
-19 36 -34 43 -33 15 4 56 -38 56 -56 0 -8 10 -16 23 -18 14 -2 27 -15 36 -35
8 -18 20 -33 26 -33 6 0 24 -14 41 -31 16 -17 39 -35 52 -40 12 -5 22 -15 22
-23 0 -10 16 -17 48 -21 26 -4 62 -16 81 -27 25 -14 36 -16 41 -7 6 9 16 9 44
-1 59 -19 219 20 254 62 6 8 34 25 62 38 27 13 52 32 56 42 3 10 14 23 25 28
10 6 26 25 35 43 9 18 32 47 50 65 20 19 39 53 48 83 9 29 24 58 33 65 17 13
17 15 -1 25 -17 11 -17 12 4 23 31 15 53 89 40 135 -7 25 -6 37 6 48 10 10 14
35 14 76 -1 177 -7 234 -33 305 -29 75 -56 167 -87 292 -11 47 -29 97 -39 111
-11 14 -32 52 -49 85 -17 33 -38 67 -48 75 -9 8 -30 42 -45 77 -46 103 -81
140 -136 147 -58 8 -109 78 -148 201 -31 100 -26 127 26 162 48 33 106 26 157
-19 21 -19 53 -42 70 -51 18 -9 36 -27 41 -40 10 -26 68 -82 94 -91 9 -4 22
-18 27 -32 5 -14 14 -25 19 -25 5 0 12 -10 15 -22 l6 -23 19 23 c29 33 38 28
57 -33 13 -42 22 -55 37 -55 10 0 33 -15 51 -32 l32 -33 -2 67 c-2 75 -17 104
-81 157 -50 41 -62 52 -101 98 -19 21 -53 59 -77 86 l-42 47 -26 -20 c-14 -11
-33 -20 -43 -20 -15 0 -16 2 -2 18 19 23 21 107 3 142 -18 35 -19 40 -2 40 7
0 21 -16 31 -34 24 -46 67 -85 73 -68 3 8 26 12 67 12 72 0 91 -10 209 -113
92 -79 127 -104 160 -112 15 -4 27 -14 27 -21 0 -8 12 -20 26 -26 14 -7 35
-30 46 -52 11 -23 31 -55 44 -72 22 -30 22 -32 4 -27 -11 3 -20 1 -20 -5 0
-11 57 -62 69 -62 4 0 20 -22 34 -48 14 -26 35 -56 45 -65 11 -10 27 -35 37
-57 10 -22 22 -40 27 -40 4 0 8 -17 8 -37 0 -21 9 -58 20 -82 11 -24 18 -46
16 -48 -2 -3 -16 3 -30 12 -14 10 -26 14 -26 11 0 -4 -13 1 -30 11 -29 17 -30
17 -45 -2 -11 -15 -14 -16 -14 -5 0 8 6 24 14 34 8 11 15 29 15 40 0 19 -1 19
-13 -3 -15 -29 -30 -29 -37 0 -3 12 -21 28 -40 38 -26 12 -36 23 -38 44 -4 35
-51 41 -82 11 -11 -11 -12 -16 -2 -26 7 -7 12 -27 12 -46 0 -27 3 -33 15 -28
9 3 18 -1 21 -9 4 -10 20 -15 45 -15 36 0 39 -2 39 -29 0 -17 5 -33 10 -36 6
-3 10 -13 10 -21 0 -9 13 -26 29 -40 16 -13 32 -35 35 -49 3 -13 15 -29 27
-35 11 -6 24 -21 28 -32 13 -36 94 -59 178 -52 l71 7 17 -33 c9 -18 30 -51 46
-73 16 -22 29 -53 29 -69 0 -20 5 -28 18 -28 10 0 26 -10 37 -23 17 -19 20
-20 23 -4 4 20 6 21 33 4 19 -11 25 -7 64 36 70 76 69 92 -13 238 -146 260
-276 440 -344 475 -15 8 -33 26 -40 41 -7 15 -25 34 -40 42 -16 9 -39 31 -53
50 -20 27 -22 38 -13 54 7 14 8 48 3 101 -5 45 -9 114 -10 154 -1 40 -7 78
-14 85 -6 6 -11 24 -11 39 0 16 -9 41 -19 56 -12 17 -24 60 -31 117 -7 50 -21
116 -31 147 -27 83 -25 112 14 154 41 45 114 64 254 64 71 0 115 5 143 16 49
20 138 14 175 -10 17 -11 46 -16 92 -15 111 2 115 4 131 84 13 65 13 72 -7
120 -26 61 -26 75 -3 75 9 0 -8 11 -38 23 -41 17 -55 27 -53 42 1 10 -9 32
-23 47 -36 44 -50 100 -36 147 7 21 12 49 12 62 l0 23 20 -22 20 -22 64 24
c67 25 76 25 76 -6 0 -16 9 -18 74 -18 93 0 115 -17 62 -48 -40 -23 -56 -63
-35 -88 7 -8 29 -24 50 -34 47 -25 155 -129 160 -155 3 -12 14 -21 27 -23 12
-2 36 -21 54 -43 23 -29 39 -39 59 -39 24 0 32 -7 51 -47 13 -27 34 -53 48
-60 18 -9 26 -22 30 -50 l5 -38 50 0 c62 -1 81 8 98 43 16 31 13 45 -37 157
-20 44 -36 88 -36 98 0 9 -6 17 -12 17 -15 1 -71 117 -85 178 -10 39 -9 44 14
62 14 11 48 21 81 25 80 9 102 14 102 25 0 25 -54 40 -190 55 -204 22 -290 44
-338 86 -47 42 -92 102 -92 123 0 8 -9 20 -20 26 -11 6 -20 21 -20 33 -1 12
-14 56 -31 97 -45 113 -47 147 -11 190 l29 34 184 8 c226 10 245 13 276 44 23
24 25 30 19 86 l-7 60 83 -7 c46 -4 108 -13 139 -21 75 -19 101 -18 184 6 38
11 84 20 102 20 33 0 155 58 187 89 13 14 21 44 28 111 12 110 7 135 -32 155
-32 16 -43 43 -12 29 9 -4 29 -7 45 -6 17 1 27 -4 27 -13 0 -19 25 -31 78 -38
26 -3 65 -20 98 -41 29 -20 61 -36 69 -36 8 0 15 -6 15 -14 0 -20 43 -52 93
-69 23 -8 58 -20 77 -26 67 -24 156 -38 270 -45 63 -4 120 -12 127 -17 6 -6
58 -15 115 -20 57 -5 111 -12 121 -15 21 -7 73 45 93 92 22 51 2 174 -28 174
-6 0 -20 7 -30 17 -10 9 -27 21 -37 27 -10 6 -30 19 -45 30 -14 10 -69 31
-121 46 -53 15 -102 33 -110 40 -8 6 -23 9 -35 5 -11 -3 -20 -2 -20 3 0 16
-81 62 -110 62 -15 0 -43 6 -61 14 -19 7 -70 17 -114 21 -44 4 -91 13 -105 20
-14 7 -59 20 -100 29 -41 10 -95 22 -120 28 -25 5 -60 10 -77 10 -22 -1 -33 4
-33 13 0 23 -65 33 -290 45 -256 12 -305 21 -367 64 -27 18 -66 39 -87 47 -21
8 -45 24 -53 35 -11 17 -28 23 -79 29 -44 4 -67 12 -71 22 -4 10 -13 13 -30 8
-81 -20 -102 63 -62 245 12 52 23 110 26 128 3 17 9 32 13 32 11 0 22 111 11
124 -5 6 -12 28 -16 49 -5 26 -15 42 -30 49 -29 13 -89 92 -115 151 -13 29
-30 114 -45 227 -14 99 -32 194 -40 210 -8 16 -15 41 -15 55 0 15 -9 40 -21
56 -20 28 -20 34 -9 116 12 93 7 134 -21 174 -25 35 -98 81 -182 115 -72 28
-91 47 -117 118 -13 36 -21 43 -60 54 -123 36 -127 39 -158 106 -16 34 -34 78
-41 97 -18 55 -55 86 -172 144 -81 41 -109 60 -109 74 0 10 -7 21 -15 25 -11
4 -15 20 -15 56 0 28 -7 83 -16 122 -12 54 -14 76 -5 89 7 12 7 20 1 24 -17
11 -11 22 20 35 17 7 30 17 30 22 0 5 13 14 29 19 64 23 176 269 151 334 -10
25 -56 45 -106 45 -39 0 -74 -39 -99 -111 -9 -24 -34 -77 -56 -117 -24 -45
-38 -80 -34 -91 18 -59 -81 -124 -188 -124 -53 0 -63 3 -84 27 -21 25 -22 33
-17 99 4 40 12 75 18 79 8 5 7 14 -3 30 -10 16 -11 23 -2 26 6 2 19 18 27 35
27 53 86 143 138 210 59 75 82 124 90 198 13 105 -22 140 -120 121 -68 -14
-104 -41 -209 -161 -105 -119 -143 -136 -374 -166 -57 -8 -109 -19 -114 -24
-6 -6 -20 -11 -30 -11 -11 0 -46 -9 -78 -21 -74 -27 -130 -17 -224 43 -37 24
-113 63 -169 88 l-101 45 -32 65 c-42 86 -48 117 -26 122 16 3 16 6 -4 23 -15
13 -23 31 -23 51 0 50 -10 65 -57 85 -30 13 -46 27 -53 46 -6 15 -15 36 -20
45 -6 10 -10 31 -10 48 0 17 -7 41 -15 53 -21 33 -76 491 -63 527 4 12 3 41
-3 65 -10 40 -9 47 11 72 l22 28 -29 23 c-15 13 -44 32 -64 42 -19 10 -48 37
-62 59 -15 23 -34 41 -42 41 -11 0 -15 11 -15 36 0 28 5 37 20 41 21 6 50 50
50 77 0 8 18 61 40 118 22 57 52 146 66 198 14 52 39 131 57 175 19 49 31 97
31 122 -1 34 3 44 18 49 18 5 18 7 3 18 -16 11 -15 14 10 30 25 17 27 21 21
67 -6 43 -4 49 11 49 47 0 59 223 14 238 -11 4 -13 -2 -8 -24 3 -16 9 -37 12
-46 5 -13 2 -15 -14 -11 -17 4 -21 1 -21 -18 0 -13 -7 -42 -15 -64 -8 -22 -14
-65 -15 -95 0 -52 -2 -56 -30 -67 -16 -6 -34 -22 -39 -35 -5 -12 -19 -47 -30
-76 -12 -29 -25 -82 -30 -117 -4 -35 -14 -72 -23 -82 -8 -10 -21 -36 -28 -58
-7 -22 -26 -69 -41 -104 -16 -35 -29 -76 -29 -92 0 -15 -4 -30 -9 -33 -4 -3
-11 -24 -15 -47 -4 -22 -15 -58 -26 -78 -10 -21 -22 -62 -26 -92 -4 -31 -16
-67 -29 -84 -20 -28 -50 -81 -130 -233 -17 -31 -38 -69 -48 -83 -9 -14 -21
-58 -26 -98 -8 -64 -16 -82 -56 -137 -6 -9 -6 -24 2 -45 11 -28 10 -32 -7 -36
-12 -3 -20 -14 -20 -27 0 -13 -11 -33 -25 -46 -14 -14 -25 -35 -25 -50 0 -15
-10 -36 -24 -49 -13 -12 -31 -40 -41 -62 -17 -38 -20 -39 -66 -39 -26 0 -51
-4 -54 -10 -3 -5 -15 -10 -26 -10 -10 0 -19 -4 -19 -9 0 -5 -15 -15 -34 -21
-21 -7 -36 -19 -40 -33 -7 -30 -34 -45 -103 -56 -60 -9 -123 -3 -158 16 -59
33 -135 146 -180 269 l-28 77 148 142 c138 133 147 145 141 171 -10 43 -41 64
-92 64 -24 0 -44 -4 -44 -10 0 -5 -15 -16 -33 -24 -39 -16 -75 -58 -83 -95
-26 -132 -34 -136 -126 -66 -40 32 -79 68 -86 81 -17 32 -2 85 38 135 37 46
38 68 5 99 -34 32 -32 65 7 100 l32 29 -37 34 c-20 19 -48 38 -64 42 -30 7
-63 32 -63 48 0 29 37 81 67 93 18 8 33 18 33 23 0 4 23 20 51 35 28 16 53 34
56 42 3 8 11 14 19 14 7 0 21 12 30 26 10 14 34 34 55 44 21 11 40 29 44 40 3
11 15 25 26 30 25 14 24 30 -2 30 -28 0 -78 -30 -84 -51 -4 -11 -21 -20 -45
-24 -30 -5 -40 -11 -40 -26 0 -12 -7 -19 -19 -19 -10 0 -45 -20 -78 -44 -114
-85 -181 -109 -264 -94 -62 11 -99 33 -99 59 0 11 -6 19 -14 19 -15 0 -28 29
-47 100 -6 25 -15 54 -21 65 -14 31 4 66 67 135 30 33 55 64 55 68 0 12 -54
62 -67 62 -6 0 -13 -6 -16 -12 -10 -29 -22 8 -22 65 0 93 37 148 141 210 163
97 325 210 350 243 15 19 32 34 39 34 7 0 15 9 18 20 4 17 2 20 -16 15 -12 -4
-31 -17 -42 -30 -11 -13 -33 -27 -50 -31 -16 -4 -43 -13 -58 -21 -30 -15 -83
-21 -93 -10 -4 3 7 28 24 55 17 26 38 66 46 88 8 23 23 59 34 80 11 22 23 57
27 77 4 20 17 49 29 64 20 26 32 68 60 206 8 43 14 55 23 46 8 -8 13 -4 17 18
4 17 22 45 41 63 42 41 43 53 8 69 -23 11 -29 10 -40 -5 -7 -10 -13 -28 -13
-40 0 -12 -7 -24 -15 -27 -8 -4 -26 -29 -40 -56 -14 -28 -34 -55 -45 -61 -11
-6 -27 -25 -36 -43 -26 -48 -194 -261 -215 -271 -11 -5 -19 -19 -19 -33 0 -35
-26 -91 -69 -147 -21 -28 -53 -79 -70 -113 -17 -34 -35 -64 -41 -68 -5 -3 -35
-48 -65 -100 -31 -52 -64 -97 -75 -100 -11 -4 -20 -12 -20 -19 0 -18 -127 -98
-190 -120 -70 -24 -177 -32 -223 -17 -63 21 -76 115 -19 145 15 8 41 29 57 46
17 18 47 41 68 51 36 19 67 62 54 75 -11 11 -55 -6 -83 -31 -38 -35 -128 -50
-197 -32 -23 6 -27 12 -21 25 5 9 10 56 12 103 l3 86 37 11 c45 14 132 87 132
111 0 20 22 42 64 63 l28 15 -30 21 c-38 27 -54 28 -77 2 -10 -12 -34 -30 -52
-41 -19 -12 -49 -44 -67 -73 -18 -28 -61 -76 -96 -106 -34 -30 -92 -85 -128
-122 -36 -38 -71 -68 -79 -68 -7 0 -18 -11 -23 -25 -9 -24 -14 -27 -55 -29
-10 -1 -24 -11 -30 -22 -10 -21 -11 -21 -32 -4 -12 10 -32 16 -45 13 -48 -8
-115 58 -120 119 -1 13 10 48 25 78 14 30 33 98 42 150 9 52 21 99 26 105 5 5
9 17 9 27 0 19 24 56 88 137 24 30 50 68 59 85 9 17 24 37 34 44 10 7 37 52
59 99 48 103 133 248 167 284 50 55 117 192 144 298 17 66 25 81 64 117 32 29
45 49 45 68 0 14 11 44 25 66 52 83 12 170 -53 115z m-2422 -3610 c0 -8 -7
-15 -15 -15 -8 0 -15 7 -15 15 0 8 7 15 15 15 8 0 15 -7 15 -15z m8754 -4295
c8 -10 2 -11 -29 -5 -60 10 -80 27 -26 21 24 -2 49 -10 55 -16z m-1106 -32 c9
-9 15 -9 24 0 16 16 86 15 118 -1 37 -18 37 -43 0 -62 -17 -9 -36 -26 -41 -39
-6 -12 -32 -36 -57 -53 -51 -32 -202 -93 -233 -93 -30 0 -22 33 14 55 20 12
45 45 67 87 33 62 75 118 90 118 3 0 11 -5 18 -12z"/>
<path d="M6391 11834 c-22 -28 -25 -42 -15 -68 14 -36 34 -10 47 62 8 39 -4
41 -32 6z"/>
<path d="M8098 11738 c-32 -11 -33 -15 -13 -42 19 -25 19 -50 1 -65 -8 -7 -24
-37 -37 -69 -12 -31 -33 -68 -46 -83 -16 -17 -23 -37 -23 -65 0 -21 -7 -48
-15 -58 -8 -11 -15 -30 -15 -43 0 -31 -35 -121 -56 -144 -17 -18 -23 -106 -10
-128 22 -35 105 16 106 65 0 11 9 47 20 79 11 32 20 73 20 90 0 58 60 237 91
270 48 52 73 138 53 189 -7 18 -35 19 -76 4z"/>
<path d="M5530 11491 c0 -5 7 -14 15 -21 16 -14 18 -10 9 14 -6 17 -24 22 -24
7z"/>
<path d="M5446 11440 c-14 -22 -31 -40 -37 -40 -23 0 -77 -74 -94 -130 l-7
-25 28 26 c16 15 38 30 50 33 12 4 35 24 52 45 18 22 41 43 53 46 19 6 19 8 4
25 -14 16 -14 18 -1 23 18 7 10 37 -9 37 -7 0 -24 -18 -39 -40z"/>
<path d="M6334 11119 c-7 -11 12 -29 31 -29 19 0 38 18 31 29 -4 6 -18 11 -31
11 -13 0 -27 -5 -31 -11z"/>
<path d="M618 10949 c-23 -13 -23 -36 1 -48 10 -6 67 -20 126 -32 84 -17 112
-19 131 -10 14 6 40 11 58 11 48 0 96 11 96 22 0 40 -357 89 -412 57z"/>
<path d="M6745 10478 c-16 -14 -42 -28 -57 -31 -29 -7 -124 -79 -148 -111 -21
-29 -31 -56 -20 -56 6 0 10 4 10 9 0 5 9 7 20 4 10 -3 32 4 48 16 16 11 41 25
56 31 14 5 26 16 26 24 0 8 10 16 22 18 27 4 81 78 76 103 -3 16 -6 15 -33 -7z"/>
<path d="M11273 10360 c-12 -5 -55 -34 -95 -64 -44 -34 -101 -66 -145 -82 -63
-23 -71 -28 -56 -39 14 -11 12 -17 -26 -58 -38 -40 -164 -116 -196 -117 -6 0
-36 -22 -67 -48 -31 -26 -83 -63 -115 -82 -32 -19 -74 -50 -93 -70 -40 -39
-139 -117 -179 -140 -14 -8 -28 -18 -29 -23 -2 -4 -17 -14 -33 -22 -22 -12
-29 -23 -29 -45 0 -16 -10 -44 -23 -63 -13 -20 -29 -66 -36 -107 -8 -40 -20
-88 -27 -107 -13 -29 -12 -33 1 -33 12 0 13 -4 4 -18 -15 -24 -7 -53 31 -119
25 -44 33 -51 48 -44 40 22 113 34 207 35 166 2 210 12 290 66 85 57 171 101
245 125 69 22 112 44 127 64 21 27 35 91 24 105 -7 9 -3 17 18 29 27 16 28 19
18 55 -11 41 -2 132 14 132 5 0 9 11 9 25 0 14 4 25 9 25 5 0 12 12 16 28 5
26 141 156 251 239 24 19 44 40 44 47 0 7 9 21 19 30 23 21 39 95 22 105 -6 4
-14 31 -18 61 -7 48 -11 54 -38 63 -17 6 -46 21 -65 34 -36 24 -87 29 -127 13z"/>
<path d="M11901 9070 c-100 -11 -113 -19 -85 -57 43 -58 213 -77 309 -34 43
19 48 24 32 32 -15 9 -16 13 -6 25 8 10 9 18 2 25 -15 15 -151 19 -252 9z"/>
<path d="M15565 8636 c-40 -17 -136 -122 -129 -141 20 -51 157 -79 245 -50
124 41 160 77 125 127 -9 12 -16 30 -16 40 0 9 -9 22 -19 28 -28 14 -170 12
-206 -4z"/>
<path d="M15255 7893 c-71 -10 -157 -38 -256 -84 -58 -27 -111 -49 -117 -49
-19 0 -62 -23 -62 -33 0 -30 65 -47 89 -24 11 10 14 10 18 0 12 -32 257 5 314
46 14 11 46 23 70 28 l44 9 3 48 c4 65 -7 72 -103 59z"/>
<path d="M244 6736 c-18 -14 -18 -17 -4 -43 10 -19 31 -33 60 -43 25 -8 55
-21 67 -27 12 -7 30 -13 39 -13 10 0 25 -6 33 -14 9 -8 48 -19 88 -24 52 -7
82 -18 107 -37 19 -14 50 -29 70 -32 20 -3 36 -10 36 -14 0 -5 13 -9 30 -9 25
0 29 -4 27 -22 -2 -19 4 -24 30 -26 17 -2 37 -10 43 -18 7 -8 23 -14 36 -14
12 0 26 -4 29 -10 3 -5 15 -10 27 -10 17 0 18 2 8 15 -17 21 3 20 36 -1 30
-20 100 -15 159 10 l40 18 -59 53 c-48 45 -66 55 -105 60 -78 10 -391 86 -444
108 -37 15 -52 18 -55 9 -6 -18 -20 -14 -27 7 -3 11 -23 23 -50 31 -24 7 -59
23 -77 36 -37 28 -112 33 -144 10z"/>
<path d="M13544 6511 c-40 -25 -132 -118 -139 -142 -15 -45 42 -63 109 -35 53
22 105 74 112 112 15 79 -17 104 -82 65z"/>
<path d="M12713 5339 c-53 -34 -69 -128 -37 -222 17 -50 23 -54 42 -35 9 9 12
7 12 -11 0 -37 18 -60 58 -71 50 -13 68 -13 85 4 8 8 30 21 50 29 30 13 38 23
51 68 14 46 14 55 2 68 -8 9 -20 39 -26 66 -6 28 -21 61 -33 73 -49 53 -147
68 -204 31z"/>
<path d="M2643 4539 c-27 -13 -92 -25 -179 -34 -84 -9 -145 -20 -160 -30 -32
-21 -56 -69 -48 -99 9 -36 56 -76 90 -77 78 -2 414 21 449 32 95 27 144 76
118 118 -17 28 -86 68 -155 90 -37 11 -68 21 -70 20 -2 0 -22 -9 -45 -20z"/>
<path d="M60 4348 c-57 -16 -66 -30 -40 -66 13 -17 30 -34 39 -37 23 -9 313
-24 471 -25 74 0 178 -5 230 -11 120 -13 216 -4 238 22 11 12 29 19 54 19 83
0 22 36 -83 49 -37 5 -73 12 -79 16 -6 4 -121 7 -255 6 -193 -1 -257 2 -305
14 -39 10 -77 13 -109 9 -31 -4 -51 -2 -55 5 -9 13 -58 13 -106 -1z"/>
<path d="M12078 2699 c-10 -5 -18 -17 -18 -26 0 -9 -9 -26 -20 -38 -23 -25
-38 -85 -21 -85 6 0 11 -17 11 -40 0 -30 7 -47 25 -65 13 -14 29 -25 35 -25 5
0 19 -9 30 -20 39 -39 107 -18 150 46 33 50 36 67 15 104 -8 14 -14 35 -15 48
0 12 -8 31 -17 41 -10 11 -26 31 -36 45 -15 22 -25 26 -70 26 -29 0 -60 -5
-69 -11z"/>
<path d="M2111 2660 c-102 -14 -471 -38 -766 -50 -287 -11 -335 -16 -335 -30
0 -4 15 -12 33 -15 17 -4 38 -12 45 -18 8 -6 55 -8 135 -3 67 4 228 9 357 11
263 4 549 20 626 36 53 10 95 42 78 59 -14 14 -103 19 -173 10z"/>
<path d="M2840 2641 c-117 -35 -170 -57 -170 -71 0 -14 -80 -48 -131 -56 -53
-9 -89 -38 -89 -74 0 -31 24 -58 35 -40 5 7 20 9 40 6 26 -5 33 -3 37 12 4 14
18 21 51 26 33 5 48 13 52 26 5 16 13 18 53 14 42 -5 58 -1 149 45 101 51 143
87 143 122 0 27 -54 24 -170 -10z"/>
<path d="M13956 2028 c-2 -7 -9 -30 -15 -50 -13 -42 -4 -70 45 -127 21 -25 33
-31 66 -31 31 0 49 -7 74 -30 47 -41 76 -46 141 -26 29 10 63 14 74 11 28 -9
89 53 89 92 0 47 -11 72 -34 79 -11 4 -33 15 -48 25 -14 11 -36 19 -49 19 -12
0 -31 7 -41 17 -29 26 -296 44 -302 21z"/>
<path d="M9167 1823 c-16 -16 -4 -41 37 -76 49 -40 76 -47 76 -19 0 19 -13 35
-66 77 -35 27 -37 28 -47 18z"/>
</g>
</svg>
