<?xml version="1.0" standalone="no"?>
<!DOCTYPE svg PUBLIC "-//W3C//DTD SVG 20010904//EN"
 "http://www.w3.org/TR/2001/REC-SVG-20010904/DTD/svg10.dtd">
<svg version="1.0" xmlns="http://www.w3.org/2000/svg"
 width="1276.000000pt" height="940.000000pt" viewBox="0 0 1276.000000 940.000000"
 preserveAspectRatio="xMidYMid meet">

<g transform="translate(0.000000,940.000000) scale(0.100000,-0.100000)"
fill="#000000" stroke="none">
<path d="M4777 9393 c-8 -12 154 -715 188 -818 51 -154 21 60 -44 325 -22 85
-55 225 -75 311 -36 151 -56 204 -69 182z"/>
<path d="M5660 9178 c0 -49 24 -258 45 -398 8 -52 22 -187 30 -299 14 -179 20
-218 50 -310 18 -58 38 -125 45 -148 6 -26 17 -43 25 -43 21 0 19 44 -4 105
-24 64 -37 152 -51 340 -6 83 -26 251 -45 375 -19 124 -40 268 -47 320 -11 76
-17 95 -31 98 -14 3 -17 -4 -17 -40z"/>
<path d="M5528 8793 c-7 -13 -2 -243 7 -291 4 -24 13 -46 20 -48 7 -3 16 -17
19 -30 14 -56 26 -7 25 104 -1 138 -25 265 -51 270 -9 2 -18 -1 -20 -5z"/>
<path d="M5256 8702 c-3 -6 0 -34 6 -64 l13 -53 3 47 c3 49 -10 90 -22 70z"/>
<path d="M5360 8388 c0 -12 13 -56 30 -97 16 -42 45 -135 64 -208 19 -73 45
-155 57 -183 18 -42 24 -48 36 -38 25 21 12 122 -26 196 -17 34 -50 119 -72
189 -39 119 -60 163 -81 163 -4 0 -8 -10 -8 -22z"/>
<path d="M5216 8154 c3 -11 17 -34 30 -50 l25 -29 -15 30 c-8 17 -21 39 -30
50 -15 20 -15 20 -10 -1z"/>
<path d="M8076 8091 c-9 -10 -33 -51 -52 -91 -19 -40 -59 -111 -90 -157 -30
-47 -77 -128 -104 -181 -91 -177 -122 -227 -178 -285 -41 -44 -52 -61 -42 -67
7 -4 18 -6 24 -4 6 3 43 55 83 117 39 62 93 137 120 167 86 99 151 194 163
240 7 25 36 88 66 140 53 93 67 140 41 140 -8 0 -22 -8 -31 -19z"/>
<path d="M8302 8003 c-39 -48 -69 -90 -66 -93 6 -5 43 35 106 118 68 88 36 68
-40 -25z"/>
<path d="M5216 8022 c-6 -10 27 -213 43 -267 l9 -30 1 35 c1 37 -34 258 -42
267 -3 2 -8 0 -11 -5z"/>
<path d="M6072 7977 c-52 -56 -99 -202 -68 -210 12 -2 106 180 106 205 0 27
-15 29 -38 5z"/>
<path d="M5856 7795 c-42 -51 -62 -96 -36 -80 15 10 92 126 87 131 -3 3 -26
-20 -51 -51z"/>
<path d="M5540 7760 c0 -5 5 -10 10 -10 6 0 10 5 10 10 0 6 -4 10 -10 10 -5 0
-10 -4 -10 -10z"/>
<path d="M5552 7705 c0 -16 2 -22 5 -12 2 9 2 23 0 30 -3 6 -5 -1 -5 -18z"/>
<path d="M6985 7710 c-3 -5 -10 -36 -15 -67 -11 -66 -73 -611 -90 -783 -10
-101 -15 -121 -42 -163 -33 -52 -54 -67 -91 -67 -15 0 -48 -19 -80 -45 -30
-24 -57 -41 -61 -38 -13 13 -5 55 39 209 57 201 63 234 41 234 -23 0 -32 -25
-66 -189 -16 -79 -35 -151 -42 -159 -7 -8 -46 -30 -86 -48 -41 -19 -90 -47
-108 -64 -41 -36 -55 -37 -80 -9 -10 12 -47 41 -81 66 -46 33 -65 53 -74 81
-6 20 -29 78 -50 129 -28 65 -39 106 -39 142 0 47 18 81 28 51 3 -7 24 -32 47
-54 23 -23 54 -69 70 -103 15 -35 32 -63 36 -63 5 0 9 3 9 8 -1 29 -27 109
-62 191 -23 53 -51 123 -64 156 -12 33 -38 102 -57 154 -20 52 -39 112 -43
134 -3 22 -22 64 -41 94 -18 29 -42 73 -52 96 -22 50 -59 73 -86 53 -17 -12
-17 -19 -1 -127 10 -63 24 -130 33 -149 20 -46 29 -151 14 -178 -9 -17 -7 -30
11 -67 22 -46 22 -46 4 -118 -10 -40 -36 -102 -58 -139 -29 -48 -43 -88 -53
-145 -21 -120 -31 -139 -83 -169 -26 -15 -73 -49 -105 -76 -62 -51 -69 -52
-127 -23 -64 33 -85 93 -77 223 4 76 10 101 27 124 32 43 17 45 -18 3 -54 -67
-57 -77 -44 -168 7 -46 12 -100 12 -121 0 -47 -19 -124 -37 -153 -17 -26 -64
-38 -92 -23 -29 15 -29 85 0 116 l21 22 -25 38 c-42 69 -84 196 -96 294 -21
162 -74 322 -102 304 -15 -9 -10 -35 30 -164 22 -69 48 -165 57 -215 9 -49 23
-121 30 -160 21 -109 18 -215 -6 -245 l-20 -25 -18 24 c-51 64 -202 413 -202
464 0 34 -33 77 -58 77 -17 0 -25 -45 -19 -101 8 -63 13 -72 38 -59 16 9 22 6
38 -21 11 -18 29 -60 41 -93 12 -34 44 -117 72 -186 101 -250 111 -285 106
-371 -4 -63 -10 -86 -31 -118 -29 -43 -72 -56 -84 -26 -7 21 23 99 52 134 13
15 27 39 30 53 13 51 -61 90 -99 52 -24 -23 -21 -80 5 -98 l22 -15 -28 -25
c-15 -14 -31 -26 -35 -26 -4 0 -44 80 -90 178 -45 97 -87 183 -93 190 -29 36
-38 -18 -10 -58 53 -75 163 -321 163 -364 0 -33 -45 -84 -83 -94 -32 -9 -34
-13 -22 -44 5 -12 2 -18 -7 -18 -19 0 -41 25 -67 78 -25 48 -131 185 -139 177
-3 -2 0 -11 6 -18 6 -7 27 -44 45 -81 42 -82 30 -96 -36 -42 -30 24 -58 64
-92 128 -29 57 -72 119 -109 159 -34 36 -74 90 -89 120 -67 128 -113 189 -144
189 -26 0 -12 -28 56 -114 85 -109 146 -215 164 -286 11 -40 21 -59 41 -71 15
-9 43 -43 63 -75 20 -33 49 -75 63 -94 40 -52 60 -95 60 -130 0 -62 -19 -41
-135 145 -113 181 -145 240 -145 262 0 22 -18 43 -37 43 -21 0 -15 -48 7 -62
12 -7 63 -85 114 -173 108 -185 132 -232 123 -242 -14 -13 -63 35 -114 113
-102 155 -107 162 -111 137 -2 -13 -8 -23 -13 -23 -19 0 -8 -24 46 -97 31 -42
54 -78 52 -80 -2 -2 -32 10 -66 27 -52 26 -66 39 -92 85 -17 30 -34 55 -39 55
-15 0 -20 -33 -7 -44 8 -6 27 -42 42 -79 30 -72 46 -87 93 -87 34 0 68 -24
112 -80 30 -38 31 -40 15 -70 -8 -16 -22 -30 -30 -30 -8 0 -15 -9 -15 -20 0
-26 -25 -38 -102 -49 -35 -6 -72 -13 -84 -16 -16 -5 -43 14 -125 87 -119 108
-206 178 -221 178 -19 0 -3 -18 67 -74 97 -79 235 -216 235 -234 0 -10 -7 -12
-27 -7 -32 8 -71 39 -132 107 -67 75 -169 151 -235 176 -62 23 -156 80 -156
93 0 14 -203 159 -222 159 -32 0 -19 -29 25 -56 23 -15 62 -46 87 -68 25 -23
91 -70 147 -105 57 -35 117 -76 134 -92 l31 -29 -29 -29 -28 -30 -27 31 c-15
17 -39 55 -54 83 -15 28 -38 56 -53 63 -57 27 -53 -40 5 -79 21 -13 49 -39 63
-58 l26 -34 -30 7 -30 8 29 -30 c28 -30 28 -52 0 -52 -25 0 -15 -16 25 -38 21
-12 51 -22 66 -22 20 0 38 -12 64 -42 20 -23 52 -58 72 -78 20 -19 57 -63 82
-97 51 -67 59 -106 30 -141 -24 -28 -85 -39 -102 -18 -8 9 -18 16 -23 16 -5 0
-24 11 -41 24 -18 13 -43 27 -57 31 -14 4 -37 16 -52 26 -31 23 -48 24 -48 5
0 -15 55 -66 71 -66 15 0 10 -27 -6 -34 -9 -3 -15 0 -15 10 0 13 -5 12 -26 -5
-21 -16 -41 -21 -89 -21 -80 0 -117 13 -138 50 -15 24 -25 29 -65 32 l-47 3
-6 45 c-4 26 -7 34 -7 18 -1 -15 -7 -30 -12 -33 -10 -6 -103 49 -204 120 -49
35 -96 46 -96 22 0 -22 43 -55 75 -59 28 -3 30 -6 35 -57 l5 -54 17 37 18 36
59 -30 c70 -35 76 -42 59 -70 -11 -17 -10 -25 5 -51 36 -64 6 -64 -176 1 -78
28 -150 49 -161 47 -18 -3 -17 -5 9 -16 17 -7 59 -21 95 -31 110 -31 122 -38
115 -59 -7 -25 7 -33 37 -23 42 16 81 -3 108 -53 18 -33 31 -45 47 -45 26 0
30 12 8 30 -8 7 -15 19 -15 26 0 33 105 -53 154 -126 19 -30 21 -60 2 -60 -7
0 -34 -16 -59 -35 -51 -39 -70 -38 -93 6 -16 31 -15 32 36 33 32 1 35 4 38 33
4 37 -9 43 -96 47 -64 2 -68 4 -135 59 -26 22 -50 38 -53 35 -9 -10 22 -61 56
-93 37 -35 80 -114 80 -148 0 -29 -18 -47 -47 -47 -31 0 -29 -12 12 -86 19
-34 35 -73 35 -86 -1 -23 -1 -23 -23 4 l-23 28 -19 -35 c-11 -21 -24 -34 -32
-31 -8 3 -13 -2 -13 -14 0 -32 -95 -69 -141 -55 -69 22 -97 269 -39 348 25 33
42 124 29 149 -22 42 -66 2 -75 -68 -2 -22 -12 -86 -21 -144 -15 -101 -15
-109 6 -214 23 -122 19 -140 -32 -154 -51 -14 -117 30 -117 79 0 18 -6 28 -20
32 -25 6 -34 -7 -21 -31 10 -20 -9 -94 -26 -99 -24 -8 -46 26 -51 78 -4 50
-23 89 -44 89 -28 0 14 -170 44 -178 31 -8 20 -31 -24 -52 -90 -43 -125 -22
-199 122 -28 57 -71 130 -94 163 -23 33 -90 138 -150 233 -59 95 -110 171
-112 168 -3 -2 35 -69 83 -148 48 -78 108 -179 135 -223 26 -44 61 -100 76
-125 29 -48 73 -153 73 -177 0 -9 -9 -13 -27 -11 -24 3 -28 -2 -43 -52 -9 -31
-34 -89 -55 -129 -39 -74 -59 -92 -159 -146 -28 -14 -43 -31 -51 -55 -11 -34
-11 -36 21 -58 61 -41 82 -113 44 -147 -24 -22 -13 -40 29 -48 17 -4 41 -22
61 -47 32 -41 40 -70 26 -103 -7 -14 -3 -17 29 -17 28 0 44 -7 66 -31 34 -37
35 -39 9 -72 -25 -32 -25 -36 3 -46 15 -6 29 -4 45 5 28 18 42 11 42 -24 0
-24 1 -25 14 -7 13 18 17 16 75 -41 60 -61 73 -86 49 -101 -36 -22 -151 -53
-162 -44 -9 8 -21 2 -42 -20 -24 -25 -26 -31 -14 -39 25 -16 55 -11 128 20 39
17 78 30 87 30 9 0 30 7 47 16 28 14 33 14 42 2 16 -21 57 -26 122 -16 48 7
59 6 66 -7 6 -10 14 -12 26 -6 10 5 27 5 40 0 l23 -9 -22 -39 c-46 -83 -126
-147 -290 -232 -85 -44 -188 -92 -229 -106 -41 -14 -81 -30 -89 -36 -7 -7 -64
-37 -125 -69 -61 -31 -105 -57 -98 -58 19 0 179 67 232 97 37 22 59 26 125 28
60 0 93 6 130 23 83 38 155 85 155 103 0 11 24 23 88 43 103 31 102 31 102 7
0 -12 -19 -31 -52 -52 -29 -19 -98 -66 -153 -105 -102 -72 -333 -186 -477
-233 -39 -13 -98 -45 -142 -76 -82 -59 -165 -107 -361 -210 -176 -92 -325
-175 -325 -181 0 -7 640 320 738 377 131 78 174 97 242 109 48 9 84 25 154 69
163 104 305 166 327 144 7 -7 -9 -33 -54 -84 -67 -76 -76 -94 -33 -65 29 18
63 21 68 5 2 -7 53 14 123 50 l120 62 3 -26 c4 -31 -21 -62 -88 -108 -25 -17
-51 -37 -58 -44 -7 -7 -18 -13 -23 -13 -17 0 -104 -63 -92 -67 6 -2 41 12 78
32 72 38 91 42 98 23 2 -8 35 16 80 60 41 39 78 72 81 72 11 0 182 39 199 46
13 5 17 0 17 -19 0 -21 -20 -42 -97 -104 -54 -42 -129 -110 -166 -149 -40 -43
-87 -81 -115 -94 -26 -13 -60 -33 -75 -46 -16 -13 -35 -24 -43 -24 -7 0 -26
-13 -40 -30 -15 -16 -52 -39 -83 -51 -49 -18 -68 -20 -163 -13 -107 7 -109 6
-148 -21 -22 -15 -40 -30 -40 -32 0 -3 57 -3 128 -1 121 3 127 2 127 -17 0
-37 -45 -46 -285 -59 -126 -6 -233 -16 -237 -20 -4 -5 70 -6 165 -2 106 4 172
3 172 -3 0 -14 -131 -95 -224 -138 -44 -21 -131 -64 -193 -96 -153 -77 -468
-167 -589 -167 -32 0 -73 -12 -134 -39 -48 -21 -107 -42 -130 -46 -23 -4 -66
-18 -95 -30 -29 -13 -99 -38 -156 -56 -57 -17 -131 -42 -164 -54 -149 -57
-409 -148 -502 -175 l-101 -30 -44 25 c-50 29 -129 33 -181 11 -40 -17 -137
-118 -137 -144 0 -36 55 -97 103 -116 l46 -17 80 41 c87 45 97 54 126 114 14
28 30 44 50 51 17 6 50 22 75 37 25 15 72 33 105 42 33 8 128 35 210 61 83 26
164 48 180 49 17 1 40 8 52 14 12 7 35 12 52 12 16 0 33 5 36 10 9 15 25 12
25 -4 0 -12 8 -12 52 1 29 8 73 26 98 40 181 99 353 158 506 172 60 6 129 13
154 15 26 3 103 31 185 69 258 118 458 181 1000 313 105 25 244 62 310 81
l120 35 17 -22 c10 -12 18 -28 18 -35 0 -7 7 -18 16 -26 8 -7 13 -21 11 -31
-3 -10 -3 -18 -1 -18 2 0 31 18 65 40 34 22 70 40 79 40 39 0 55 -55 20 -68
-46 -17 -332 -292 -303 -292 31 0 333 218 573 413 l134 109 60 -7 c75 -8 85
-14 115 -63 l24 -40 45 19 c24 10 56 19 72 19 15 0 33 7 40 15 19 23 38 18 54
-14 9 -16 28 -38 43 -49 l27 -20 -19 -41 c-21 -48 -40 -67 -50 -51 -12 20 -23
10 -28 -28 -8 -69 28 -83 56 -22 30 64 123 122 158 99 11 -8 -6 -28 -71 -90
-103 -99 -160 -139 -195 -139 l-27 0 31 39 c17 21 31 45 31 52 0 19 -43 -25
-122 -123 -38 -48 -91 -101 -116 -117 -26 -17 -72 -60 -102 -97 -30 -36 -131
-137 -225 -224 -93 -86 -179 -167 -189 -179 -40 -45 -1 -17 103 73 60 52 129
107 153 122 24 15 81 64 128 109 47 44 101 92 120 105 19 13 68 53 108 88 81
70 115 78 120 30 4 -31 -33 -85 -96 -142 -23 -21 -40 -42 -36 -45 3 -3 11 2
18 11 7 9 55 45 107 79 52 35 123 89 159 122 36 32 85 71 110 85 25 14 68 49
96 78 28 29 68 59 89 68 46 19 95 21 95 3 0 -22 -209 -248 -320 -346 -163
-144 -224 -215 -260 -299 -17 -41 -29 -76 -27 -79 3 -2 30 33 61 79 71 108
187 240 267 304 111 90 351 244 379 244 13 0 12 -30 -3 -57 -23 -42 -118 -132
-171 -161 -52 -30 -86 -68 -86 -97 0 -23 16 -18 57 19 37 33 41 34 153 40 96
6 135 14 237 48 117 39 123 40 147 24 38 -25 40 -53 12 -182 -30 -135 -31
-154 -12 -154 25 0 35 25 46 114 13 103 23 128 48 119 28 -10 149 -112 198
-167 105 -116 273 -246 320 -246 12 0 61 -20 108 -45 127 -67 343 -108 460
-86 125 23 212 79 299 194 l55 72 12 250 c18 390 15 375 85 472 43 58 64 81
75 76 92 -38 94 -38 144 -14 80 39 126 25 126 -40 0 -51 133 -155 250 -194 35
-12 69 -30 75 -40 5 -10 17 -26 25 -36 8 -9 23 -28 32 -42 10 -14 50 -41 90
-60 40 -19 96 -55 125 -78 119 -101 186 -151 180 -136 -3 9 -2 19 2 21 19 12
145 -34 208 -76 100 -67 244 -148 458 -260 104 -55 226 -123 270 -153 80 -53
138 -75 149 -56 11 17 -51 58 -192 129 -136 68 -171 89 -266 157 -26 19 -58
35 -70 35 -12 0 -80 34 -152 76 -71 43 -212 125 -313 184 -213 124 -257 157
-266 202 -9 43 -52 121 -80 148 -13 12 -43 26 -66 31 -24 6 -59 22 -77 36 -29
22 -37 24 -59 14 -47 -21 -85 25 -108 133 -6 30 -55 84 -109 123 -29 20 -30
21 -17 64 9 31 10 44 2 47 -6 2 -11 26 -11 53 0 43 3 51 28 67 16 9 27 23 25
30 -7 20 54 14 141 -14 105 -33 165 -27 239 25 l52 36 137 3 c123 3 147 1 225
-22 49 -14 125 -29 169 -35 63 -8 114 -24 220 -69 77 -33 177 -69 223 -81 98
-24 109 -25 93 -9 -17 17 -15 24 8 46 26 24 17 32 -75 62 -38 13 -104 38 -145
55 -41 18 -106 43 -143 55 -38 12 -71 29 -74 37 -12 32 14 33 97 3 89 -31 134
-38 128 -19 -5 16 -41 35 -273 143 -230 107 -296 131 -411 152 -139 24 -206
57 -239 117 -33 62 -18 69 77 37 60 -21 116 -31 203 -38 109 -9 123 -8 159 10
35 17 46 18 113 8 40 -6 112 -25 160 -41 47 -16 122 -33 165 -39 43 -5 114
-19 156 -30 76 -19 666 -134 852 -165 52 -9 185 -33 295 -55 364 -71 1117
-201 1124 -194 15 14 -56 30 -419 89 -118 20 -348 62 -510 95 -162 32 -329 64
-370 70 -75 10 -162 30 -453 101 -87 22 -170 39 -183 39 -64 0 -437 91 -525
128 -52 21 -165 59 -252 82 -169 47 -280 94 -285 123 -5 27 34 22 137 -18 49
-19 95 -35 101 -35 14 0 13 46 -2 57 -7 6 -45 18 -83 27 -97 23 -144 52 -159
97 -7 20 -34 65 -61 99 -40 53 -49 72 -53 114 -7 87 10 112 130 188 129 82
229 133 330 169 42 15 96 40 120 55 l43 29 145 -17 c80 -9 160 -17 179 -17 33
-1 34 -1 16 19 -18 19 -16 21 106 80 147 71 201 81 439 81 172 0 312 18 383
49 43 19 103 29 270 46 70 7 119 41 101 71 -17 29 -60 27 -163 -6 -96 -31
-290 -70 -460 -92 -74 -10 -101 -10 -143 1 -29 7 -88 13 -133 12 -70 0 -93 -5
-169 -36 -105 -44 -418 -126 -479 -126 -23 0 -69 9 -102 21 -85 30 -161 28
-280 -5 -130 -36 -201 -32 -295 16 -36 18 -65 40 -65 48 0 8 28 33 62 55 34
22 63 43 63 48 0 13 -45 8 -66 -8 -10 -8 -28 -15 -38 -15 -18 0 -17 2 6 27 14
16 29 35 34 44 12 21 263 152 373 194 47 18 145 49 216 69 146 42 1180 374
1208 388 9 5 17 13 17 18 0 16 -28 11 -78 -14 -52 -26 -864 -277 -1067 -329
-155 -41 -373 -115 -435 -150 -74 -41 -334 -117 -401 -117 -15 0 -19 7 -19 39
0 36 3 40 36 51 19 7 77 31 127 55 51 23 104 45 120 49 15 3 27 11 27 16 0 5
-37 -4 -82 -19 -111 -39 -168 -49 -325 -57 -136 -7 -248 0 -273 17 -13 8 -11
12 10 29 25 19 25 19 -26 0 -28 -10 -79 -21 -115 -25 -35 -3 -74 -8 -86 -11
-19 -4 -23 0 -23 19 0 30 52 111 85 133 14 9 35 34 46 56 16 32 24 38 52 38
51 -1 162 -18 295 -47 94 -21 125 -24 134 -15 19 19 0 29 -117 57 -122 30
-149 42 -183 78 l-23 25 43 34 c24 20 54 41 68 48 14 7 52 32 85 56 33 25 100
68 149 98 50 29 92 58 94 64 7 21 -14 13 -64 -22 -27 -19 -74 -50 -104 -69
-30 -19 -113 -71 -184 -115 -71 -45 -137 -82 -147 -82 -14 0 -19 7 -19 29 0
30 65 113 174 222 25 26 46 49 46 53 0 19 -37 -1 -102 -55 -79 -67 -121 -89
-168 -89 -33 0 -35 2 -19 32 8 15 8 19 -1 13 -6 -4 -20 1 -31 11 -17 16 -19
16 -19 1 0 -22 -19 -22 -27 -1 -8 20 8 30 80 51 42 12 57 21 55 32 -2 9 -15
17 -31 19 -15 2 -27 9 -27 18 0 12 -3 12 -23 -1 -28 -18 -37 -12 -37 24 0 17
11 35 32 53 18 14 30 30 26 33 -4 4 -30 -11 -59 -34 -28 -22 -55 -41 -59 -41
-21 0 -60 44 -60 68 0 51 11 72 36 72 25 0 33 15 12 23 -8 2 18 40 65 96 43
51 77 97 74 104 -2 6 -54 -37 -115 -96 -120 -116 -122 -116 -168 -65 -12 12
-27 33 -33 45 -6 13 -25 30 -41 38 -38 19 -37 33 0 92 29 45 30 51 30 162 0
84 5 134 19 183 17 60 26 133 22 183 -2 18 -3 18 -15 -4 l-14 -25 -25 51 c-15
28 -31 72 -38 99 -7 27 -16 57 -21 67 -9 18 -11 18 -28 2 -11 -10 -26 -15 -35
-12 -18 8 -20 37 -2 37 9 0 12 9 9 29 -2 15 3 42 12 59 24 46 20 71 -21 158
-29 60 -38 91 -37 129 0 61 40 170 74 206 53 56 94 113 107 151 22 65 58 129
116 206 74 99 115 178 100 193 -17 17 -27 7 -89 -89 -31 -48 -83 -119 -115
-159 -32 -39 -63 -83 -69 -98 -5 -14 -15 -23 -21 -20 -5 4 -47 8 -92 8 -105 2
-137 20 -137 75 0 137 42 567 67 699 8 45 13 89 10 97 -7 18 -23 21 -32 6z
m-908 -597 l4 -48 -20 24 c-20 22 -28 71 -14 84 13 14 25 -11 30 -60z m527
-919 c9 -3 16 -13 16 -21 0 -11 -7 -13 -32 -8 -48 11 -56 18 -28 26 14 4 26 7
27 8 1 1 8 -2 17 -5z m-1639 -364 c-19 -21 -45 -27 -45 -10 0 5 10 18 22 30
29 27 50 9 23 -20z m-969 -362 c14 -24 64 -80 110 -125 47 -46 86 -93 90 -109
8 -31 -6 -59 -30 -59 -20 0 -286 241 -286 260 0 14 65 75 80 75 5 0 22 -19 36
-42z m-493 -451 c42 -32 46 -55 16 -83 -19 -17 -23 -17 -47 -3 -24 13 -27 21
-27 71 0 61 -1 61 58 15z m163 -603 c-4 -14 -9 -24 -12 -21 -3 2 -2 17 2 31 3
15 9 25 11 22 3 -3 2 -17 -1 -32z m107 6 c15 -12 36 -35 48 -51 19 -27 20 -33
8 -56 -13 -24 -16 -25 -83 -18 -88 8 -116 19 -116 45 0 17 4 19 27 14 21 -6
25 -4 20 9 -7 20 13 65 33 71 29 8 38 6 63 -14z m-153 -156 c22 -15 40 -30 40
-34 0 -4 -14 -13 -31 -20 -33 -14 -49 -4 -49 32 0 9 -3 23 -6 32 -8 22 0 20
46 -10z m80 -20 c0 -8 -4 -14 -10 -14 -5 0 -10 9 -10 21 0 11 5 17 10 14 6 -3
10 -13 10 -21z m4213 -71 c-13 -2 -33 -2 -45 0 -13 2 -3 4 22 4 25 0 35 -2 23
-4z m677 -491 c0 -21 -54 -54 -157 -96 -113 -46 -169 -56 -191 -34 -37 37 25
70 208 109 149 32 140 31 140 21z m-5320 -1546 c0 -15 -35 -41 -75 -56 -39
-15 -30 6 17 40 46 33 58 37 58 16z m3755 -50 c0 -56 -65 -61 -73 -6 -4 27 14
41 48 38 20 -3 25 -8 25 -32z m-3739 -12 c-30 -21 -44 -16 -17 7 13 11 27 17
30 13 3 -3 -3 -12 -13 -20z m-186 -64 c0 -16 -36 -30 -76 -30 -44 0 -40 7 13
25 46 17 63 18 63 5z m140 -10 c0 -5 -10 -10 -22 -10 -19 0 -20 2 -8 10 19 13
30 13 30 0z"/>
<path d="M7121 7314 c0 -11 3 -14 6 -6 3 7 2 16 -1 19 -3 4 -6 -2 -5 -13z"/>
<path d="M5300 7258 c1 -16 77 -98 90 -98 13 0 13 6 -1 33 -28 53 -89 98 -89
65z"/>
<path d="M4170 7160 c0 -11 5 -20 10 -20 6 0 10 9 10 20 0 11 -4 20 -10 20 -5
0 -10 -9 -10 -20z"/>
<path d="M5265 7140 c3 -6 20 -17 37 -26 36 -18 60 -6 38 21 -14 17 -85 22
-75 5z"/>
<path d="M8460 7131 c0 -5 5 -13 10 -16 6 -3 10 -2 10 4 0 5 -4 13 -10 16 -5
3 -10 2 -10 -4z"/>
<path d="M7589 7033 c-13 -16 -12 -17 4 -4 9 7 17 15 17 17 0 8 -8 3 -21 -13z"/>
<path d="M7530 6985 c-7 -8 -8 -15 -2 -15 5 0 15 7 22 15 7 8 8 15 2 15 -5 0
-15 -7 -22 -15z"/>
<path d="M6120 6828 c0 -9 5 -20 11 -23 17 -11 20 0 4 21 -13 17 -14 17 -15 2z"/>
<path d="M3700 6736 c0 -2 9 -6 20 -9 11 -3 18 -1 14 4 -5 9 -34 13 -34 5z"/>
<path d="M8010 6465 c-7 -8 -8 -15 -2 -15 5 0 15 7 22 15 7 8 8 15 2 15 -5 0
-15 -7 -22 -15z"/>
<path d="M7290 6258 c0 -18 5 -40 10 -48 7 -11 10 -2 10 33 0 26 -4 47 -10 47
-5 0 -10 -15 -10 -32z"/>
<path d="M3790 6263 c0 -17 52 -70 152 -154 61 -51 185 -125 194 -116 14 14
-11 50 -44 64 -39 16 -72 41 -208 155 -45 37 -84 68 -88 68 -3 0 -6 -8 -6 -17z"/>
<path d="M7750 6245 c-8 -9 -8 -15 -2 -15 12 0 26 19 19 26 -2 2 -10 -2 -17
-11z"/>
<path d="M4567 6103 c-21 -21 7 -63 42 -63 18 0 13 57 -5 64 -20 8 -29 8 -37
-1z"/>
<path d="M3820 6093 c0 -13 89 -98 95 -91 3 3 -4 17 -15 31 -24 31 -80 72 -80
60z"/>
<path d="M3500 5741 c0 -5 5 -13 10 -16 6 -3 10 -2 10 4 0 5 -4 13 -10 16 -5
3 -10 2 -10 -4z"/>
<path d="M2719 5653 c12 -24 31 -39 31 -25 0 5 -10 17 -21 28 -22 19 -22 19
-10 -3z"/>
<path d="M3248 5553 c7 -3 16 -2 19 1 4 3 -2 6 -13 5 -11 0 -14 -3 -6 -6z"/>
<path d="M3345 5521 c22 -10 51 -21 65 -25 14 -3 7 2 -15 13 -22 10 -51 21
-65 25 -14 3 -7 -2 15 -13z"/>
<path d="M3675 5450 c3 -5 13 -10 21 -10 8 0 12 5 9 10 -3 6 -13 10 -21 10 -8
0 -12 -4 -9 -10z"/>
<path d="M3545 5441 c3 -6 20 -18 37 -27 16 -9 27 -11 23 -5 -3 6 -20 18 -37
27 -16 9 -27 11 -23 5z"/>
<path d="M3482 5380 c0 -14 2 -19 5 -12 2 6 2 18 0 25 -3 6 -5 1 -5 -13z"/>
<path d="M3870 5275 c14 -8 30 -14 35 -14 6 0 -1 6 -15 14 -14 8 -29 14 -35
14 -5 0 1 -6 15 -14z"/>
<path d="M3441 5204 c0 -11 3 -14 6 -6 3 7 2 16 -1 19 -3 4 -6 -2 -5 -13z"/>
<path d="M3592 5194 c1 -9 9 -19 16 -22 9 -3 13 2 10 14 -1 9 -9 19 -16 22 -9
3 -13 -2 -10 -14z"/>
<path d="M8350 5114 c0 -6 7 -19 16 -30 14 -18 14 -18 3 6 -14 31 -19 36 -19
24z"/>
<path d="M8840 5055 c-20 -22 -22 -27 -10 -55 9 -21 19 -30 36 -30 66 0 105
54 66 91 -29 26 -64 24 -92 -6z"/>
<path d="M7704 5045 c-10 -8 -14 -15 -8 -15 6 0 17 7 24 15 16 19 9 19 -16 0z"/>
<path d="M3185 4885 c-16 -55 -13 -84 5 -56 10 17 23 101 17 108 -3 2 -13 -21
-22 -52z"/>
<path d="M7727 4933 c-4 -3 -7 -11 -7 -17 0 -6 5 -5 12 2 6 6 9 14 7 17 -3 3
-9 2 -12 -2z"/>
<path d="M7712 4839 c2 -6 8 -10 13 -10 5 0 11 4 13 10 2 6 -4 11 -13 11 -9 0
-15 -5 -13 -11z"/>
<path d="M2790 4698 c0 -18 5 -40 10 -48 7 -11 10 -4 10 27 0 23 -4 45 -10 48
-6 4 -10 -7 -10 -27z"/>
<path d="M3288 4614 c-5 -4 -8 -21 -8 -38 1 -26 2 -28 11 -13 11 19 8 63 -3
51z"/>
<path d="M2686 4579 c-7 -38 -6 -113 3 -153 5 -26 7 -28 20 -12 10 12 23 15
47 10 45 -8 45 11 0 65 -20 24 -37 57 -41 81 -8 48 -20 52 -29 9z"/>
<path d="M9430 4569 c0 -24 23 -21 28 4 2 10 -3 17 -12 17 -10 0 -16 -9 -16
-21z"/>
<path d="M3180 4566 c0 -9 7 -16 16 -16 17 0 14 22 -4 28 -7 2 -12 -3 -12 -12z"/>
<path d="M2917 4534 c-6 -7 29 -102 45 -121 14 -18 28 -16 28 2 0 13 -58 125
-64 125 -2 0 -5 -3 -9 -6z"/>
<path d="M2530 4479 c0 -9 9 -27 20 -40 15 -19 19 -20 20 -8 0 9 -9 27 -20 40
-15 19 -19 20 -20 8z"/>
<path d="M8683 4401 c-144 -48 -266 -90 -270 -95 -13 -12 39 2 237 66 102 33
213 68 248 80 34 11 62 24 62 29 0 13 12 16 -277 -80z"/>
<path d="M2880 4386 c0 -8 5 -18 10 -21 6 -3 10 1 10 9 0 8 -4 18 -10 21 -5 3
-10 -1 -10 -9z"/>
<path d="M3111 4374 c0 -11 3 -14 6 -6 3 7 2 16 -1 19 -3 4 -6 -2 -5 -13z"/>
<path d="M3170 4358 c0 -13 5 -30 10 -38 7 -11 10 -7 10 17 0 17 -4 35 -10 38
-6 3 -10 -4 -10 -17z"/>
<path d="M2620 4315 c42 -77 44 -79 60 -60 12 14 7 23 -40 68 l-53 52 33 -60z"/>
<path d="M2940 4340 c0 -11 7 -20 15 -20 8 0 15 9 15 20 0 11 -7 20 -15 20 -8
0 -15 -9 -15 -20z"/>
<path d="M2380 4318 c0 -18 18 -34 28 -24 3 4 -2 14 -11 23 -16 16 -17 16 -17
1z"/>
<path d="M9570 4144 c-110 -17 -287 -55 -235 -49 120 12 344 49 339 57 -3 4
-8 7 -12 7 -4 -1 -45 -7 -92 -15z"/>
<path d="M9205 4140 c-13 -6 -15 -9 -5 -9 8 0 22 4 30 9 18 12 2 12 -25 0z"/>
<path d="M9010 4109 c-95 -17 -110 -17 -154 -4 -60 18 -89 20 -66 5 8 -5 12
-10 8 -10 -4 0 -87 -16 -184 -35 -158 -32 -264 -63 -264 -80 0 -3 8 -1 18 4 9
5 47 17 82 26 36 9 73 19 84 22 43 12 2 -17 -45 -32 -34 -12 -47 -20 -39 -25
16 -10 56 -4 190 27 58 13 194 44 303 68 110 24 201 46 205 49 8 9 -23 6 -138
-15z m-150 -28 c-20 -11 -201 -44 -207 -37 -5 5 80 31 127 39 48 8 96 7 80 -2z"/>
<path d="M2305 4086 c30 -26 51 -34 40 -16 -3 6 -21 17 -38 26 l-32 15 30 -25z"/>
<path d="M8908 4030 c-80 -15 -154 -33 -165 -39 -17 -11 -17 -12 2 -7 11 2 88
17 170 32 83 14 157 30 165 35 25 14 -14 9 -172 -21z"/>
<path d="M10993 4005 c-7 -19 12 -35 40 -35 13 0 18 6 15 23 -4 27 -45 37 -55
12z"/>
<path d="M8645 3980 c-7 -12 2 -12 30 0 19 8 19 9 -2 9 -12 1 -25 -3 -28 -9z"/>
<path d="M1381 3494 c-37 -31 -40 -60 -6 -76 57 -26 119 39 80 82 -24 26 -37
25 -74 -6z"/>
<path d="M9990 3472 c0 -17 59 -32 165 -42 55 -6 137 -14 183 -18 76 -7 107
-3 83 12 -5 3 -52 10 -104 16 -52 5 -106 14 -120 19 -40 15 -207 26 -207 13z"/>
<path d="M11682 3348 c-20 -20 -15 -66 9 -73 29 -10 74 25 74 56 0 20 -6 24
-35 27 -19 2 -41 -3 -48 -10z"/>
<path d="M11138 3329 c-27 -15 -23 -57 6 -65 33 -8 66 12 66 40 0 33 -37 46
-72 25z"/>
<path d="M2450 3175 c-20 -24 -5 -28 21 -6 19 16 20 20 8 21 -9 0 -22 -7 -29
-15z"/>
<path d="M9570 3010 c0 -21 158 -64 181 -49 11 6 11 9 -1 12 -8 3 -45 14 -83
26 -75 23 -97 26 -97 11z"/>
<path d="M2962 2894 c-25 -17 -29 -44 -8 -44 16 0 46 26 46 40 0 17 -17 19
-38 4z"/>
<path d="M10040 2821 c0 -13 117 -50 181 -58 87 -9 47 15 -71 43 -117 28 -110
27 -110 15z"/>
<path d="M2254 2729 c-84 -82 -119 -128 -68 -91 46 33 159 151 151 158 -3 4
-41 -27 -83 -67z"/>
<path d="M10810 2450 c0 -5 9 -10 21 -10 11 0 17 5 14 10 -3 6 -13 10 -21 10
-8 0 -14 -4 -14 -10z"/>
<path d="M8995 2310 c-3 -5 1 -10 9 -10 9 0 16 5 16 10 0 6 -4 10 -9 10 -6 0
-13 -4 -16 -10z"/>
<path d="M2662 2201 c-44 -27 -121 -70 -170 -96 -49 -25 -98 -55 -107 -65 -12
-13 8 -6 59 20 42 22 87 40 100 40 12 0 42 13 67 29 47 32 148 120 138 121 -3
0 -42 -22 -87 -49z"/>
<path d="M7660 2201 c0 -6 9 -15 21 -21 18 -10 20 -9 17 7 -3 19 -38 32 -38
14z"/>
<path d="M9185 2110 c27 -12 43 -12 25 0 -8 5 -22 9 -30 9 -10 0 -8 -3 5 -9z"/>
<path d="M10261 2090 c14 -31 19 -36 19 -24 0 6 -7 19 -16 30 -14 18 -14 18
-3 -6z"/>
<path d="M8370 2027 c0 -16 108 -122 117 -114 8 8 -53 83 -88 107 -22 16 -29
18 -29 7z"/>
<path d="M1402 1773 c-28 -14 -50 -28 -48 -30 5 -5 106 45 106 52 0 7 1 7 -58
-22z"/>
<path d="M8880 1752 c0 -25 96 -83 159 -97 19 -4 61 -20 95 -36 51 -24 62 -27
64 -14 5 23 -15 43 -51 51 -18 4 -57 23 -87 43 -30 19 -68 41 -84 48 -32 15
-96 17 -96 5z"/>
<path d="M1208 1673 c-48 -26 -86 -48 -84 -50 5 -5 186 85 186 92 0 10 -18 3
-102 -42z"/>
<path d="M1039 1579 c-23 -19 -23 -20 -2 -10 12 6 25 16 28 21 10 16 -1 12
-26 -11z"/>
<path d="M10828 1493 c6 -2 18 -2 25 0 6 3 1 5 -13 5 -14 0 -19 -2 -12 -5z"/>
<path d="M12170 1451 c0 -10 30 -24 37 -17 3 2 -5 9 -16 16 -12 6 -21 7 -21 1z"/>
<path d="M7691 1374 c0 -11 3 -14 6 -6 3 7 2 16 -1 19 -3 4 -6 -2 -5 -13z"/>
<path d="M12136 1271 c7 -7 99 -41 111 -41 2 0 3 4 3 10 0 5 -23 16 -52 25
-59 17 -76 19 -62 6z"/>
<path d="M8119 1257 c15 -19 88 -63 128 -77 l28 -10 -25 21 c-34 29 -148 86
-131 66z"/>
<path d="M11160 1230 c20 -13 33 -13 25 0 -3 6 -14 10 -23 10 -15 0 -15 -2 -2
-10z"/>
<path d="M4297 1205 c-20 -14 -37 -30 -37 -36 0 -11 49 21 70 46 18 21 10 19
-33 -10z"/>
<path d="M8314 1157 c16 -12 61 -47 101 -78 39 -31 82 -62 96 -68 40 -20 -92
96 -152 134 -63 39 -90 46 -45 12z"/>
<path d="M4205 1125 c-16 -14 -25 -25 -19 -25 6 0 21 11 34 25 30 32 24 31
-15 0z"/>
<path d="M4126 1053 c-6 -14 -5 -15 5 -6 7 7 10 15 7 18 -3 3 -9 -2 -12 -12z"/>
<path d="M3940 899 c-28 -25 -34 -33 -15 -21 28 19 73 62 64 62 -2 0 -24 -18
-49 -41z"/>
<path d="M12720 790 c20 -13 33 -13 25 0 -3 6 -14 10 -23 10 -15 0 -15 -2 -2
-10z"/>
<path d="M8597 649 c12 -12 25 -20 28 -17 3 3 -7 13 -22 23 l-28 17 22 -23z"/>
<path d="M6110 650 c0 -5 5 -10 11 -10 5 0 7 5 4 10 -3 6 -8 10 -11 10 -2 0
-4 -4 -4 -10z"/>
<path d="M9470 466 c20 -18 238 -147 505 -299 268 -151 305 -170 305 -157 0
12 -3 14 -375 226 -159 91 -299 174 -310 184 -20 19 -53 34 -110 51 -25 7 -27
7 -15 -5z"/>
<path d="M7467 454 c-13 -13 -7 -24 14 -24 11 0 19 5 17 12 -5 14 -22 21 -31
12z"/>
</g>
</svg>
