<?xml version="1.0" standalone="no"?>
<!DOCTYPE svg PUBLIC "-//W3C//DTD SVG 20010904//EN"
 "http://www.w3.org/TR/2001/REC-SVG-20010904/DTD/svg10.dtd">
<svg version="1.0" xmlns="http://www.w3.org/2000/svg"
 width="1024.000000pt" height="927.000000pt" viewBox="0 0 1024.000000 927.000000"
 preserveAspectRatio="xMidYMid meet">

<g transform="translate(0.000000,927.000000) scale(0.100000,-0.100000)"
fill="#000000" stroke="none">
<path d="M9905 9220 c3 -5 1 -10 -5 -10 -25 0 -75 -79 -86 -135 -3 -19 -20
-50 -36 -67 -16 -17 -36 -44 -43 -59 -8 -15 -28 -37 -45 -49 -16 -12 -30 -26
-30 -33 0 -6 -12 -24 -27 -39 -15 -15 -22 -28 -17 -28 12 0 64 55 64 67 0 5
14 17 30 28 16 11 30 26 30 33 0 13 13 16 23 5 4 -3 0 -11 -9 -18 -17 -12 -21
-46 -9 -81 5 -15 -4 -35 -34 -74 -22 -30 -38 -56 -35 -59 5 -5 62 53 81 84 24
39 26 47 12 56 -11 7 -12 10 -1 21 11 11 16 9 28 -6 8 -11 14 -16 15 -10 1 5
2 18 3 29 0 11 10 21 21 23 11 2 29 11 40 20 11 9 8 3 -7 -14 -16 -16 -28 -37
-28 -46 0 -8 -9 -27 -20 -41 -11 -14 -20 -36 -20 -49 0 -13 -6 -30 -12 -37
-10 -11 -10 -14 0 -18 18 -7 15 -20 -13 -57 -14 -18 -25 -37 -25 -42 0 -6 -15
-25 -34 -43 -19 -18 -37 -44 -40 -57 -3 -12 -14 -25 -24 -28 -10 -4 -42 -35
-71 -71 -52 -66 -78 -83 -66 -43 6 17 4 20 -9 15 -10 -4 -16 -1 -16 8 0 9 -6
12 -16 8 -14 -5 -16 -2 -10 21 5 20 3 27 -6 24 -16 -6 -46 -58 -47 -81 -1 -13
-6 -17 -19 -13 -14 5 -21 -2 -31 -29 -15 -41 -34 -47 -25 -7 16 64 44 112 71
123 21 8 24 12 13 19 -11 7 -11 12 3 34 46 71 48 79 9 36 -25 -27 -42 -39 -42
-29 0 8 5 20 12 27 6 6 9 15 5 18 -12 12 -36 -17 -43 -52 -4 -24 -12 -34 -25
-34 -24 0 -34 19 -15 26 9 3 16 16 16 29 0 12 7 28 15 35 14 12 22 70 9 70 -3
0 -19 -9 -35 -21 -47 -33 -33 -8 31 55 33 32 60 60 60 62 0 12 -24 0 -52 -26
-17 -16 -35 -30 -39 -30 -14 0 -11 17 5 32 8 7 55 51 105 97 50 46 91 92 91
101 0 10 7 21 16 24 9 4 14 10 10 13 -4 4 -19 -5 -34 -20 -62 -61 -119 -107
-154 -124 -21 -10 -38 -21 -38 -25 0 -5 -5 -8 -11 -8 -10 0 -101 -75 -213
-176 -33 -29 -45 -25 -22 8 9 12 16 32 16 43 -1 20 -1 20 -16 0 -8 -11 -19
-19 -24 -18 -4 1 -14 -4 -20 -12 -7 -8 -19 -15 -27 -15 -17 0 -43 -24 -43 -39
0 -6 -4 -11 -10 -11 -5 0 -10 -4 -10 -9 0 -16 -40 -61 -135 -149 -16 -16 -35
-37 -42 -48 -10 -16 -13 -17 -22 -4 -9 12 -11 9 -11 -13 0 -27 -2 -28 -35 -23
-24 4 -41 1 -53 -9 -49 -44 -84 -67 -90 -60 -4 3 9 20 28 36 48 41 52 44 73
52 12 4 17 17 17 43 l0 37 -25 -27 c-13 -14 -26 -26 -29 -26 -2 0 -3 16 -1 35
2 19 1 35 -2 35 -3 0 -26 -22 -52 -50 -26 -27 -50 -50 -54 -50 -19 0 -2 29 48
81 43 45 55 65 55 89 0 18 -4 29 -10 25 -5 -3 -10 -12 -10 -19 0 -7 -9 -21
-20 -31 -11 -10 -20 -23 -20 -29 0 -13 -104 -126 -116 -126 -4 0 -3 5 4 12 19
19 14 30 -10 23 l-23 -6 23 20 c26 23 28 31 7 31 -34 0 -8 33 28 35 21 2 54
32 44 41 -4 4 -13 1 -22 -6 -23 -19 -18 3 6 29 39 41 13 32 -37 -14 -27 -24
-52 -45 -56 -45 -14 0 -8 28 7 34 22 8 18 26 -5 26 -13 0 -20 -7 -20 -20 0
-11 -4 -20 -9 -20 -18 0 -23 22 -11 45 11 20 10 26 -3 39 -20 21 -23 20 -55
-9 -40 -37 -53 -33 -49 18 4 40 46 114 97 168 8 9 22 26 30 39 8 12 25 34 38
48 12 14 22 38 22 53 0 16 4 29 9 29 5 0 7 -10 4 -22 -5 -21 -3 -20 21 7 26
30 35 52 16 40 -14 -8 -13 8 1 22 6 6 9 17 7 25 -3 8 -35 -16 -86 -66 -45 -44
-85 -77 -88 -73 -14 13 -82 -35 -143 -101 -35 -38 -92 -100 -127 -137 -35 -38
-64 -72 -64 -76 0 -3 -20 -29 -45 -55 -25 -27 -45 -52 -45 -56 0 -5 -7 -8 -15
-8 -8 0 -19 -9 -24 -19 -6 -10 -44 -36 -84 -57 l-74 -38 -54 39 c-30 22 -67
52 -83 67 -28 26 -35 28 -114 28 l-84 0 -75 -72 c-101 -98 -195 -207 -188
-219 4 -5 -3 -9 -14 -9 -25 0 -50 35 -44 61 4 12 0 19 -10 19 -18 0 -29 -24
-20 -47 3 -10 3 -15 -2 -11 -10 10 -37 -11 -29 -23 9 -15 41 -10 48 7 8 20 26
8 26 -18 0 -14 -5 -18 -15 -14 -10 4 -15 -1 -15 -14 0 -12 7 -20 18 -21 13 0
12 -3 -5 -11 -13 -6 -23 -19 -23 -30 0 -10 -5 -18 -11 -18 -6 0 -9 7 -5 15 3
8 1 15 -5 15 -5 0 -12 -7 -15 -15 -8 -21 -24 -8 -24 19 0 13 -6 29 -14 35 -11
9 -15 7 -20 -11 -3 -13 -1 -24 4 -26 6 -2 10 -12 10 -23 0 -11 7 -19 16 -19
25 0 10 -25 -17 -27 -35 -3 -52 5 -42 19 14 22 11 87 -4 81 -7 -3 -11 -8 -8
-13 2 -4 -6 -17 -19 -29 -14 -13 -27 -33 -30 -46 -6 -23 -45 -36 -123 -40 -30
-2 -32 0 -27 21 9 34 -5 30 -17 -6 -10 -27 -43 -49 -56 -36 -3 3 6 25 21 50
30 51 31 56 13 56 -7 0 -18 -12 -25 -27 -31 -69 -43 -83 -70 -82 l-27 0 23 16
c14 10 22 26 22 45 0 16 6 31 15 34 8 4 15 12 15 19 0 16 29 73 41 80 13 9 11
45 -2 45 -6 0 -9 -6 -6 -14 3 -8 -4 -22 -15 -33 -11 -10 -29 -36 -39 -58 -10
-22 -29 -53 -42 -69 -24 -28 -25 -28 -51 -11 -27 18 -37 6 -11 -15 8 -7 15
-16 15 -21 0 -12 -31 -11 -49 0 -12 8 -12 12 -2 25 9 11 10 16 2 16 -6 0 -11
-4 -11 -10 0 -5 -4 -10 -10 -10 -5 0 -10 7 -10 15 0 8 4 15 9 15 5 0 11 14 15
30 3 19 12 30 22 30 10 0 14 5 11 15 -3 7 2 24 12 36 l18 23 7 -37 c4 -20 12
-37 19 -37 16 0 59 54 82 103 13 28 23 37 36 34 20 -5 35 10 63 66 19 37 19
38 0 51 -17 13 -20 12 -26 -5 -11 -29 -29 -13 -22 18 8 30 33 57 60 66 58 17
167 58 194 72 24 12 30 21 25 36 -4 11 -2 19 5 19 7 0 36 25 66 55 30 30 52
55 48 55 -4 0 6 13 23 28 16 16 27 35 25 43 -7 19 -42 49 -59 49 -7 0 -13 3
-13 8 0 4 -12 12 -27 18 -82 33 -89 35 -117 24 -15 -5 -42 -10 -60 -10 -37 0
-98 -19 -107 -33 -4 -5 -37 -10 -73 -10 -62 -1 -66 -2 -60 -21 10 -31 24 -46
45 -46 11 0 19 -4 19 -10 0 -5 -11 -10 -25 -10 -14 0 -25 -4 -25 -10 0 -13
-37 -13 -45 1 -5 6 -12 4 -20 -8 -13 -17 -14 -17 -20 0 -4 9 -15 17 -25 17
-10 0 -20 5 -22 12 -3 8 -11 6 -26 -8 -16 -15 -20 -28 -17 -55 7 -53 -5 -96
-30 -113 -28 -19 -56 -11 -48 12 6 14 4 14 -17 -1 -18 -12 -27 -14 -37 -5 -9
8 -13 7 -13 -1 0 -8 -6 -7 -16 3 -18 19 -30 20 -39 6 -5 -8 -11 -7 -20 0 -8 7
-23 9 -35 5 -15 -5 -30 2 -56 24 -19 17 -41 31 -50 31 -9 0 -14 8 -13 23 4 41
-2 62 -22 86 -19 23 -27 25 -95 22 -73 -2 -74 -2 -74 24 0 21 -4 25 -31 25
-18 0 -47 9 -65 21 l-34 20 -12 -25 c-10 -23 -8 -29 12 -51 19 -20 21 -27 11
-39 -7 -8 -22 -16 -34 -18 -21 -3 -22 -8 -21 -100 1 -74 5 -103 18 -123 14
-21 15 -29 6 -41 -10 -11 -9 -15 4 -20 22 -8 12 -20 -35 -44 -23 -12 -48 -18
-62 -15 -16 4 -29 -1 -45 -20 -30 -34 -28 -40 6 -16 34 24 72 18 72 -11 0 -10
-29 -46 -66 -81 -36 -34 -89 -83 -116 -110 -36 -34 -56 -46 -69 -42 -15 5 -19
1 -19 -17 0 -13 -7 -32 -15 -42 -11 -15 -12 -23 -3 -33 17 -21 -3 -36 -34 -24
-22 8 -30 6 -49 -15 -16 -17 -19 -24 -8 -24 8 0 20 5 27 12 9 9 12 9 12 -3 0
-22 -13 -36 -39 -44 -20 -6 -23 -4 -18 10 5 11 3 15 -5 12 -7 -2 -12 -15 -11
-28 1 -13 -1 -18 -3 -11 -3 6 -14 12 -24 12 -15 0 -13 5 11 31 34 36 37 49 9
42 -12 -3 -20 0 -20 7 0 11 -48 -18 -78 -47 -14 -13 -32 -17 -32 -8 0 8 55 62
109 108 25 20 39 37 32 37 -6 0 -22 -9 -34 -20 -22 -21 -73 -50 -89 -50 -4 0
-9 10 -9 23 -1 20 -2 20 -6 2 -7 -27 -31 -43 -78 -51 -22 -3 -45 -10 -50 -15
-6 -4 -16 -4 -23 0 -9 5 -5 11 13 19 14 6 25 16 25 21 0 14 -59 -5 -92 -29
-15 -11 -32 -20 -38 -20 -5 0 -10 -4 -10 -10 0 -5 11 -10 24 -10 19 0 22 -4
18 -25 -5 -28 -17 -32 -30 -10 -7 13 -11 11 -21 -12 -11 -24 -14 -26 -24 -12
-9 12 -25 15 -64 12 -44 -4 -53 -2 -53 12 0 9 -4 14 -9 10 -16 -9 -22 12 -11
39 5 14 16 26 24 26 18 0 23 15 18 51 -7 47 -55 48 -73 3 -4 -13 -15 -24 -24
-24 -8 0 -15 -4 -15 -10 0 -5 -4 -10 -10 -10 -5 0 -10 9 -10 20 0 34 -16 23
-60 -39 -23 -33 -23 -34 -3 -29 20 5 21 4 10 -19 -8 -18 -8 -29 1 -44 10 -16
9 -21 -8 -31 -13 -9 -20 -24 -20 -45 0 -17 -5 -33 -11 -35 -5 -2 -11 -10 -12
-18 -4 -28 -19 -41 -37 -35 -29 9 -59 -11 -53 -35 7 -27 -23 -27 -32 0 -10 33
-57 23 -109 -22 -11 -10 -35 -18 -53 -18 -18 0 -33 -4 -33 -10 0 -5 -7 -10
-16 -10 -8 0 -22 -7 -31 -15 -8 -8 -18 -13 -23 -10 -4 3 -13 -2 -20 -10 -8
-10 -17 -12 -24 -6 -6 5 -27 11 -46 13 -29 2 -34 0 -32 -14 2 -10 -2 -18 -8
-18 -6 0 -9 -4 -5 -9 3 -6 18 -6 37 0 38 11 50 2 23 -16 -42 -30 -85 -81 -85
-102 0 -14 -6 -23 -15 -23 -9 0 -26 -7 -39 -16 -16 -10 -26 -12 -31 -4 -7 11
43 120 55 120 5 0 11 15 15 33 4 17 9 41 11 52 5 19 4 19 -9 3 -8 -10 -19 -18
-26 -18 -6 0 -11 -9 -11 -19 0 -11 -5 -23 -10 -26 -6 -4 -8 -11 -5 -16 4 -5
-2 -21 -13 -37 -10 -15 -22 -35 -25 -44 -7 -19 -32 -24 -42 -9 -3 6 4 15 15
21 11 6 18 15 15 21 -10 15 -35 10 -42 -8 -3 -10 -25 -38 -48 -63 -22 -25 -61
-73 -85 -107 -24 -35 -47 -63 -51 -63 -9 0 -51 -71 -45 -77 3 -3 17 7 33 21
15 14 31 26 35 26 5 0 8 4 8 8 0 14 76 92 88 92 7 0 12 5 12 10 0 6 15 10 34
10 25 0 35 5 39 20 3 11 12 20 21 20 18 0 36 -37 29 -60 -16 -50 -60 -110 -82
-110 -6 0 -11 -7 -11 -16 0 -11 -6 -14 -20 -9 -15 5 -18 3 -14 -9 7 -17 -34
-76 -53 -76 -15 0 -15 0 -17 -62 -2 -54 7 -61 27 -22 8 15 17 22 20 17 12 -19
-34 -65 -59 -60 -16 3 -24 -2 -29 -17 -6 -21 -6 -21 -15 2 -10 25 -30 21 -30
-5 0 -16 -27 -42 -44 -43 -5 0 -3 6 3 14 8 10 9 16 1 21 -5 3 -10 15 -10 26 0
11 -5 17 -10 14 -6 -4 -8 -16 -5 -26 4 -11 1 -26 -5 -34 -6 -8 -9 -19 -5 -25
9 -15 -21 -12 -34 3 -8 10 -7 17 2 26 9 10 8 14 -5 22 -22 12 -23 29 -3 29 10
0 15 10 15 30 0 38 -20 31 -39 -13 -17 -37 -56 -77 -77 -77 -7 0 -14 -7 -14
-16 0 -13 -3 -14 -15 -4 -8 7 -12 17 -9 22 4 6 1 14 -6 18 -16 10 -42 2 -35
-10 3 -5 1 -12 -5 -15 -7 -4 -8 -23 -4 -51 l6 -43 -51 -32 c-28 -18 -51 -37
-51 -43 0 -6 -8 -19 -17 -28 -32 -28 -89 -97 -148 -177 -5 -7 -29 -33 -52 -57
-24 -24 -43 -52 -43 -64 0 -11 -7 -20 -15 -20 -9 0 -23 -15 -32 -34 -9 -19
-24 -37 -34 -39 -11 -3 -19 -12 -19 -21 0 -9 -3 -16 -7 -16 -5 0 -21 -23 -38
-51 -16 -28 -40 -64 -52 -79 -13 -15 -23 -30 -23 -33 0 -6 -59 -67 -65 -67 -2
0 -1 9 2 20 4 14 0 20 -11 20 -9 0 -16 7 -16 15 0 9 -10 15 -26 15 -23 0 -25
-3 -19 -30 5 -23 3 -30 -9 -30 -20 0 -39 -36 -31 -60 7 -21 -10 -28 -18 -7 -3
9 -9 7 -24 -5 -11 -10 -25 -18 -31 -18 -7 0 -12 -4 -12 -10 0 -5 -8 -10 -19
-10 -13 0 -20 -9 -23 -30 -3 -17 -1 -33 4 -36 4 -3 8 -14 8 -25 0 -10 4 -19 9
-19 5 0 7 -9 4 -20 -3 -11 -1 -20 4 -20 11 0 38 -50 34 -64 -1 -5 3 -13 10
-17 18 -10 2 -42 -17 -35 -9 4 -29 -4 -47 -19 -41 -32 -42 -34 -78 -75 -16
-19 -58 -65 -92 -102 -102 -108 -122 -135 -119 -152 2 -10 -3 -16 -15 -16 -15
0 -16 2 -3 10 8 5 11 10 5 10 -30 -1 -75 -61 -75 -100 0 -16 -4 -20 -19 -15
-16 5 -18 2 -14 -15 4 -16 0 -23 -16 -27 -16 -4 -20 -10 -15 -29 5 -18 2 -24
-9 -24 -9 0 -25 -12 -36 -26 -25 -32 -100 -44 -124 -19 -29 28 -137 -7 -137
-44 0 -6 3 -11 8 -11 15 0 33 -41 23 -54 -6 -7 -7 -22 -4 -35 4 -14 1 -26 -8
-32 -12 -7 -11 -14 3 -40 24 -41 23 -94 -2 -119 -10 -10 -15 -22 -10 -25 6 -4
5 -14 -3 -25 -14 -24 -27 -26 -27 -5 0 25 -15 17 -27 -15 -12 -32 -40 -40 -49
-15 -9 23 -23 18 -30 -10 -3 -14 -10 -25 -15 -25 -5 0 -2 -11 7 -25 16 -24 12
-45 -7 -45 -6 0 -7 9 -4 21 6 19 5 19 -17 7 -12 -7 -25 -16 -28 -19 -3 -4 -15
-9 -27 -13 -13 -4 -23 -12 -23 -17 0 -6 -12 -10 -27 -9 -46 3 -63 1 -63 -10 0
-18 -43 -60 -63 -60 -30 0 -50 -27 -43 -60 5 -25 2 -30 -14 -30 -11 0 -20 6
-20 12 0 19 -26 -23 -34 -54 -3 -15 -15 -32 -26 -38 -12 -6 -20 -21 -20 -36 0
-21 -3 -23 -19 -15 -16 9 -20 6 -27 -17 -11 -41 -11 -41 -13 -52 0 -5 -10 -10
-21 -10 -11 0 -20 -4 -20 -10 0 -5 -9 -10 -19 -10 -11 0 -22 -8 -26 -17 -14
-42 -78 -93 -115 -93 -13 0 -28 -12 -38 -30 -9 -16 -20 -30 -24 -30 -5 0 -8
-9 -8 -20 0 -10 -9 -24 -20 -30 -21 -11 -24 -8 -20 23 1 17 0 17 -22 3 -13 -8
-36 -31 -51 -51 -15 -19 -33 -35 -40 -35 -14 0 -47 -35 -47 -49 0 -5 10 -15
22 -23 21 -14 21 -15 2 -40 -10 -14 -26 -31 -35 -36 -13 -9 -15 -6 -11 16 3
15 12 32 21 39 9 6 13 15 8 19 -10 10 -57 -35 -57 -55 0 -13 -2 -13 -9 -2 -7
11 -10 9 -16 -8 -3 -11 -11 -21 -16 -21 -28 0 -182 -161 -250 -263 -55 -80
-93 -119 -111 -112 -10 4 -18 15 -18 25 0 12 -8 18 -24 18 -26 0 -26 -22 0
-32 9 -3 12 -10 9 -16 -4 -6 -11 -8 -16 -5 -5 4 -9 -1 -9 -9 0 -10 9 -16 24
-16 23 0 24 -2 18 -67 -4 -48 -2 -64 7 -59 6 4 11 1 11 -8 0 -27 33 -86 48
-86 12 0 13 -9 7 -42 -13 -78 -13 -87 1 -92 8 -3 14 -12 14 -21 0 -8 8 -16 18
-17 9 0 22 -2 29 -2 6 -1 15 -5 19 -9 17 -16 26 -5 20 26 -6 35 0 50 26 60 14
5 15 1 7 -26 -14 -51 -11 -51 28 -5 20 23 34 35 30 26 -3 -10 -2 -20 3 -23 6
-4 10 -15 10 -26 0 -32 27 -33 62 -4 l33 28 5 -24 6 -24 12 22 c7 12 18 27 24
35 38 39 41 47 24 64 -19 19 -11 41 9 24 10 -8 19 -8 34 2 12 7 21 16 21 20 0
5 5 8 10 8 6 0 10 -5 10 -11 0 -20 26 -36 71 -43 53 -8 82 -43 63 -74 -13 -21
-7 -42 12 -42 8 0 17 -7 20 -15 4 -8 14 -15 23 -15 9 0 29 -7 45 -15 38 -20
51 -15 75 32 16 33 75 94 150 155 12 10 21 24 21 32 0 8 9 17 19 21 11 3 37
21 58 40 21 19 46 37 56 41 13 4 17 12 14 26 -4 14 -2 18 9 14 8 -3 37 17 70
50 31 30 69 57 84 60 24 5 26 10 25 43 -1 20 -5 42 -8 48 -4 7 -2 15 4 18 6 4
13 -2 16 -14 3 -12 7 -21 10 -21 16 0 44 25 57 51 20 39 20 39 1 39 -8 0 -15
-4 -15 -10 0 -5 -4 -10 -9 -10 -15 0 -6 53 9 58 8 3 24 -8 36 -24 26 -31 30
-31 36 6 3 22 0 25 -24 22 -20 -2 -28 1 -28 12 0 8 4 17 10 21 5 3 7 12 3 20
-3 9 1 15 10 15 8 0 17 7 21 15 9 26 26 17 26 -14 0 -29 28 -50 49 -37 5 4 12
0 14 -6 4 -10 6 -10 6 0 1 6 10 12 20 12 10 0 21 7 25 15 3 9 0 15 -10 15 -13
0 -12 4 3 25 10 13 24 25 31 25 6 0 12 4 12 10 0 5 -7 7 -16 3 -12 -4 -15 -2
-12 8 3 8 12 14 20 14 8 0 22 6 30 13 12 10 22 5 53 -25 24 -23 40 -33 43 -25
2 7 7 12 11 12 10 0 42 -58 40 -72 -5 -26 13 -58 31 -58 28 0 47 -37 49 -93 1
-45 0 -48 -30 -54 -26 -5 -30 -9 -25 -29 5 -18 -1 -31 -25 -54 -18 -16 -35
-30 -38 -30 -3 0 -15 -20 -26 -45 -11 -25 -22 -45 -26 -45 -4 0 -9 -10 -12
-22 -4 -13 -29 -48 -56 -78 -28 -30 -54 -59 -58 -65 -17 -21 -33 -108 -33
-174 0 -64 2 -70 35 -105 19 -21 35 -41 35 -46 0 -5 9 -12 20 -15 11 -3 20
-10 20 -15 0 -5 9 -12 20 -15 11 -3 20 -12 20 -20 0 -7 12 -27 26 -44 36 -43
89 -43 150 1 24 17 44 35 44 39 0 4 7 10 15 13 11 4 19 -3 26 -21 8 -21 6 -30
-11 -48 -22 -23 -70 -39 -70 -24 0 5 -9 9 -19 9 -25 0 -54 -39 -41 -55 7 -8 1
-16 -18 -26 -15 -8 -35 -21 -44 -29 -22 -20 -77 -47 -108 -54 -33 -7 -93 -63
-97 -90 -2 -11 -8 -22 -13 -24 -6 -2 -10 -10 -10 -18 0 -8 -4 -14 -10 -14 -5
0 -10 -6 -10 -14 0 -8 -4 -16 -9 -18 -16 -6 -103 -90 -98 -94 3 -3 12 2 21 11
9 10 16 12 16 5 0 -13 -39 -49 -54 -50 -4 0 -6 7 -2 15 9 24 -4 18 -59 -30
-29 -25 -52 -52 -51 -62 0 -10 -7 -19 -19 -21 -11 -2 -23 -9 -27 -16 -6 -8
-11 -7 -19 4 -8 11 -12 12 -16 2 -2 -7 -18 -19 -35 -28 -21 -11 -29 -21 -25
-34 2 -10 1 -24 -4 -31 -8 -12 -10 -12 -18 0 -10 16 -31 6 -31 -15 0 -8 -10
-14 -24 -14 -32 0 -42 -16 -15 -23 12 -3 18 -10 14 -17 -4 -6 -13 -9 -20 -6
-7 2 -22 -2 -34 -10 -19 -14 -25 -11 -22 9 0 4 -2 7 -6 7 -8 0 -82 -50 -103
-69 -12 -12 -11 -13 8 -7 16 5 22 3 22 -8 0 -8 3 -21 6 -30 4 -11 0 -16 -13
-16 -10 0 -24 -9 -31 -20 -7 -11 -18 -20 -25 -20 -7 0 -18 -9 -25 -20 -8 -13
-23 -20 -41 -20 -21 0 -32 -6 -36 -20 -9 -30 -60 -53 -85 -40 -11 6 -17 16
-14 22 4 7 3 8 -4 4 -15 -9 -16 -36 -2 -36 22 0 8 -21 -25 -37 -32 -15 -54
-47 -42 -60 3 -2 15 0 26 6 17 10 23 8 33 -9 7 -11 24 -20 38 -20 34 0 70 -11
70 -20 0 -4 -13 -10 -30 -14 -20 -3 -30 -12 -30 -23 0 -21 36 -47 45 -33 3 5
1 11 -5 15 -17 11 -11 25 11 25 11 0 17 -4 14 -10 -4 -7 2 -9 18 -5 25 7 25 5
20 -34 -5 -35 -3 -40 11 -35 18 7 22 34 5 34 -8 0 -7 6 2 17 11 13 11 17 2 20
-7 3 -13 9 -13 15 0 13 -47 58 -60 58 -17 0 1 27 26 38 24 12 24 11 8 -13 -21
-32 -10 -32 28 0 22 18 25 25 13 25 -13 0 -16 6 -11 24 4 17 1 26 -10 30 -22
8 -34 -1 -34 -26 0 -15 -5 -19 -20 -15 -15 4 -20 0 -20 -15 0 -13 -5 -18 -14
-15 -7 3 -18 1 -24 -5 -6 -6 -15 -7 -21 -4 -15 9 4 46 24 46 7 0 26 11 42 24
15 13 38 26 51 30 12 4 22 11 22 16 0 5 13 16 29 24 26 14 30 14 42 0 11 -14
10 -18 -5 -29 -10 -8 -16 -19 -14 -25 2 -6 20 2 43 19 22 17 47 31 55 31 8 0
21 9 28 20 7 11 19 20 27 20 8 0 15 7 15 15 0 8 5 15 11 15 6 0 8 -9 4 -20 -5
-14 -2 -20 9 -20 12 0 16 10 16 35 0 19 5 35 11 35 7 0 9 -11 6 -27 -3 -15 0
-37 6 -50 14 -31 5 -38 -34 -24 -38 13 -52 5 -25 -14 10 -8 15 -18 11 -24 -9
-16 -25 -14 -25 3 0 8 -7 17 -16 20 -23 9 -28 1 -9 -14 8 -7 15 -16 15 -21 0
-12 -42 -49 -56 -49 -16 0 -25 41 -12 57 14 18 0 16 -18 -2 -11 -10 -13 -25
-8 -51 6 -32 4 -36 -10 -31 -18 7 -46 -1 -46 -13 0 -4 12 -11 26 -14 20 -5 33
-1 50 15 33 31 41 17 13 -23 -13 -19 -16 -27 -7 -20 17 14 34 1 23 -18 -3 -6
-5 -10 -2 -10 13 0 98 48 129 73 21 17 44 27 52 24 9 -4 13 -1 10 6 -5 14 51
41 66 32 5 -3 10 3 10 14 0 12 12 28 28 38 40 26 77 66 63 71 -18 6 -13 32 7
32 14 0 15 2 2 10 -8 5 -11 12 -8 16 12 11 40 -5 45 -25 3 -11 13 -21 24 -24
10 -3 19 -12 19 -20 0 -20 -27 -47 -46 -47 -27 0 -14 -18 14 -19 56 -1 62 -3
79 -24 21 -26 65 -47 97 -47 32 0 162 85 213 140 63 68 97 96 158 127 76 39
97 59 91 86 -3 13 35 57 130 150 195 192 261 255 281 266 10 5 66 57 125 114
58 58 120 113 137 123 17 10 31 22 31 27 0 4 5 5 12 1 6 -4 8 -3 4 4 -3 6 2
18 11 28 11 11 18 13 21 5 2 -6 8 -11 14 -11 6 0 7 7 4 15 -3 9 1 18 9 21 8 4
15 13 15 21 0 10 7 14 20 10 10 -3 24 1 31 9 6 8 15 11 20 9 4 -3 13 3 18 14
12 22 94 57 111 46 6 -3 21 3 34 16 17 16 35 22 67 22 40 0 44 -2 44 -24 0
-19 -8 -27 -38 -36 -42 -14 -158 -70 -222 -107 -47 -27 -73 -70 -55 -91 6 -8
9 -19 5 -26 -4 -6 4 -21 20 -35 23 -20 35 -23 73 -18 25 3 50 8 55 11 6 3 7 1
3 -5 -8 -13 12 -16 38 -6 12 5 14 10 6 19 -8 9 -5 14 12 19 13 3 25 1 26 -4 2
-6 8 -10 14 -10 6 0 7 7 4 16 -5 14 -1 16 24 10 21 -4 42 1 68 14 20 11 41 20
46 20 5 0 18 7 28 17 17 15 18 15 18 -3 -1 -29 -21 -50 -76 -78 -33 -18 -42
-26 -28 -26 12 0 27 7 34 15 14 17 40 20 40 5 0 -5 11 -10 25 -10 14 0 25 -5
25 -10 0 -6 11 -16 25 -22 14 -6 25 -17 25 -25 0 -7 6 -16 14 -19 8 -3 17 -20
20 -39 5 -25 15 -37 41 -49 19 -9 37 -21 40 -26 3 -6 20 -10 36 -10 18 0 28
-4 24 -10 -8 -13 1 -13 26 0 13 7 19 7 19 0 0 -5 4 -10 8 -10 10 0 122 108
122 118 0 4 14 23 30 42 17 19 28 41 25 47 -2 7 8 21 23 30 15 10 42 35 61 55
31 35 61 50 61 29 0 -5 11 -11 25 -13 27 -6 65 17 160 95 64 54 179 111 203
102 20 -7 52 28 52 58 0 13 6 32 14 42 13 18 17 18 40 6 14 -8 26 -19 26 -25
0 -6 9 -17 20 -23 19 -12 18 -15 -16 -110 -53 -145 -56 -160 -44 -183 9 -16 8
-38 -4 -90 -33 -142 -15 -251 55 -342 34 -44 36 -59 9 -83 -20 -18 -21 -18
-27 3 -8 34 -21 26 -33 -19 -9 -32 -15 -40 -29 -36 -20 5 -46 -27 -35 -44 3
-6 -3 -17 -15 -26 -12 -8 -21 -20 -20 -26 3 -26 -2 -37 -16 -37 -8 0 -15 5
-15 11 0 5 -4 7 -10 4 -5 -3 -10 -17 -10 -30 0 -13 -6 -28 -13 -32 -7 -4 -28
-28 -47 -53 -18 -25 -48 -58 -65 -75 -41 -38 -142 -159 -175 -208 -14 -20 -29
-37 -35 -37 -5 0 -37 -26 -70 -56 -108 -101 -191 -164 -226 -171 -47 -9 -58
-28 -59 -98 0 -57 2 -62 36 -90 20 -17 47 -50 61 -75 45 -80 75 -120 89 -120
8 0 14 -4 14 -10 0 -14 27 -13 32 1 2 6 17 12 33 12 16 0 40 10 54 23 39 36
47 29 12 -11 -22 -25 -31 -46 -31 -70 0 -19 4 -35 10 -35 12 0 43 58 36 68 -2
4 12 23 31 42 24 25 33 42 30 58 -4 18 0 22 23 22 33 0 43 9 29 26 -14 17 -2
37 18 30 11 -4 13 -1 8 14 -5 16 -2 20 14 20 12 0 21 7 21 15 0 8 6 15 14 15
7 0 26 16 41 35 36 48 69 78 73 66 2 -5 -8 -21 -23 -36 -14 -16 -25 -34 -25
-41 0 -8 -4 -14 -10 -14 -5 0 -10 -10 -10 -22 1 -21 2 -22 14 -5 7 9 18 17 24
17 6 0 19 16 28 35 9 19 20 35 25 35 5 0 9 6 9 14 0 8 7 16 15 20 8 3 15 15
15 26 0 11 6 19 13 18 6 -2 11 4 9 13 -1 10 6 19 19 22 16 4 19 11 14 26 -5
17 -2 21 14 21 11 0 22 9 26 20 8 24 41 44 57 34 7 -5 1 -16 -18 -32 l-29 -24
30 7 c17 3 46 9 65 12 39 6 109 51 110 71 0 6 7 12 15 12 8 0 15 -7 15 -15 0
-8 -4 -15 -10 -15 -5 0 -10 -15 -10 -33 0 -18 -5 -38 -12 -45 -8 -8 -8 -15 2
-26 16 -21 30 -11 30 20 0 14 4 22 10 19 6 -3 10 -15 10 -25 0 -10 7 -25 15
-34 8 -8 15 -19 15 -25 0 -5 10 -17 21 -25 15 -10 20 -21 16 -36 -3 -11 1 -27
9 -34 14 -15 19 -36 8 -36 -3 0 -13 7 -22 16 -14 15 -17 15 -29 -2 -18 -25
-16 -61 5 -73 15 -10 15 -11 -6 -17 -30 -9 -23 -28 14 -34 25 -4 29 -10 32
-43 3 -39 -12 -51 -21 -16 -3 12 -10 18 -16 14 -15 -9 -14 -38 2 -54 10 -10 7
-16 -13 -31 -31 -24 -6 -28 28 -4 12 8 26 13 31 9 5 -3 12 -1 16 5 3 5 -1 10
-11 10 -14 0 -14 3 -4 15 7 9 19 14 27 11 17 -7 17 10 1 18 -10 5 -10 7 0 12
6 3 12 17 12 30 0 13 5 24 10 24 6 0 10 -8 10 -17 1 -17 1 -17 11 0 5 9 17 17
26 17 10 0 13 6 9 16 -3 9 -3 21 1 27 4 7 8 18 9 26 3 17 -17 61 -27 61 -16 0
-32 41 -20 53 8 8 11 5 11 -11 0 -15 5 -20 15 -16 13 6 20 -6 16 -28 0 -5 4
-8 10 -8 7 0 18 -8 25 -17 10 -15 15 -16 25 -5 7 6 21 12 31 12 10 0 18 7 18
16 0 9 11 29 25 46 14 16 25 36 25 44 0 8 10 14 25 14 19 0 25 5 23 16 -2 10
3 19 11 22 9 3 11 -1 7 -16 -4 -11 -2 -23 4 -27 6 -4 10 12 10 44 0 46 2 51
25 57 14 3 25 10 25 15 0 5 9 9 20 9 16 0 19 5 14 30 -4 19 -2 30 5 30 6 0 11
-7 11 -15 0 -8 6 -15 14 -15 19 0 29 17 16 25 -35 21 33 172 72 159 14 -4 18
0 18 23 0 31 23 72 90 158 59 76 179 199 187 191 10 -9 -46 -86 -63 -86 -11 0
-14 -5 -10 -16 7 -19 -12 -81 -34 -106 -17 -20 -40 -24 -40 -6 0 6 -13 -1 -30
-17 -16 -16 -30 -34 -30 -40 0 -21 -25 -65 -37 -65 -7 0 -13 -11 -13 -25 0
-15 6 -25 14 -25 19 0 69 68 62 85 -3 8 -1 15 4 15 6 0 10 6 10 14 0 17 33 31
38 16 3 -7 11 -5 23 6 18 17 21 16 57 -4 23 -13 61 -22 93 -24 49 -3 54 -5 53
-25 0 -13 7 -25 16 -28 9 -3 23 -17 30 -30 17 -32 32 -31 67 3 16 15 39 34 51
42 12 8 22 20 22 28 0 7 6 15 14 18 7 3 28 23 46 45 30 38 31 41 15 59 -9 10
-14 24 -10 29 10 17 25 13 19 -4 -4 -8 -2 -15 4 -15 11 0 82 115 82 135 0 7 6
15 14 18 8 3 16 16 18 29 2 13 9 22 16 20 8 -1 11 2 8 6 -3 5 3 17 14 27 11
10 31 38 45 62 27 46 40 47 56 6 l9 -24 29 31 c28 31 29 32 60 15 34 -17 33
-35 -2 -35 -20 0 -20 -1 6 -19 15 -10 35 -27 42 -38 13 -18 13 -22 0 -33 -8
-6 -18 -9 -24 -6 -5 3 -11 -1 -15 -9 -3 -8 -12 -15 -21 -15 -22 0 -18 -21 5
-27 12 -3 20 -14 20 -26 0 -20 0 -20 -14 -1 -12 15 -18 17 -33 7 -10 -6 -17
-17 -15 -24 2 -6 -2 -25 -7 -41 -9 -25 -7 -32 18 -54 30 -26 44 -67 30 -81 -5
-5 -12 -29 -15 -55 -6 -45 -6 -46 21 -46 16 0 35 -8 44 -20 9 -11 29 -24 45
-28 29 -7 49 -20 89 -58 16 -15 24 -17 38 -7 10 6 29 11 41 11 13 0 34 12 47
25 35 38 81 34 126 -10 34 -34 46 -65 25 -65 -5 0 -10 5 -10 12 0 6 -3 9 -6 5
-3 -3 -3 -15 1 -27 6 -18 12 -20 37 -15 24 6 30 3 35 -14 4 -16 11 -20 24 -16
13 4 19 1 19 -8 0 -8 7 -18 16 -21 22 -8 26 -8 19 4 -3 6 -2 10 3 10 16 0 22
-13 11 -26 -18 -22 8 -49 50 -50 32 -1 41 4 61 34 14 19 37 44 53 56 16 11 35
35 43 51 8 17 23 45 34 63 11 18 18 37 15 42 -3 4 1 13 9 19 11 9 15 9 18 0 3
-9 9 -9 24 -1 18 11 18 11 0 12 -17 0 -18 2 -4 18 8 9 18 25 21 35 9 24 25 21
30 -6 4 -19 4 -19 6 5 0 15 6 30 11 33 6 3 10 20 10 36 0 17 4 28 8 25 4 -3
16 12 26 32 10 20 22 45 27 54 13 25 11 28 -10 28 -11 0 -23 5 -26 10 -4 6 5
10 21 10 24 0 26 3 21 33 -5 38 7 67 29 67 25 0 75 33 70 46 -6 17 64 88 101
103 30 12 103 88 103 108 0 4 11 19 25 33 60 61 95 109 94 126 -4 42 2 60 26
71 30 13 34 -1 8 -29 -15 -17 -15 -18 5 -18 15 0 26 10 36 34 20 47 32 51 28
8 l-4 -37 21 32 c21 33 24 45 22 77 -1 13 -6 17 -21 13 -25 -6 -25 -2 0 25 19
21 19 26 2 78 -2 8 8 2 24 -13 26 -26 27 -29 12 -38 -18 -10 -25 -49 -9 -49 5
0 14 7 21 15 7 8 19 15 27 15 13 0 13 -3 3 -15 -10 -11 -9 -18 4 -30 9 -9 16
-28 16 -42 0 -25 -1 -25 -18 -10 -28 25 -38 21 -52 -23 -9 -28 -21 -42 -37
-46 -13 -4 -23 -14 -23 -23 0 -28 84 -27 113 2 l22 22 3 -30 c5 -47 19 -50 26
-6 7 46 15 51 34 20 10 -16 11 -24 1 -35 -14 -18 -8 -27 14 -18 15 5 47 72 47
98 0 21 24 38 37 25 8 -8 15 -5 24 12 6 13 15 26 18 29 13 11 112 162 121 183
7 20 9 20 15 4 7 -16 9 -16 26 4 11 12 19 28 19 36 0 7 5 13 10 13 6 0 10 6
10 14 0 7 12 19 28 25 15 6 40 32 56 57 16 25 37 51 47 57 11 7 19 19 19 28 0
9 7 22 15 29 11 9 15 9 15 1 0 -9 6 -9 22 0 14 8 18 14 10 17 -14 4 -16 32 -2
32 6 0 10 -5 10 -11 0 -8 5 -7 15 1 10 8 15 27 13 50 -1 20 5 46 14 59 17 24
33 15 17 -9 -16 -26 -10 -30 24 -14 40 19 82 77 79 110 -2 31 16 40 34 18 14
-18 15 -16 9 17 -4 26 -1 40 10 49 13 11 14 8 9 -19 -9 -45 15 -40 57 11 59
72 74 107 39 88 -29 -16 -24 2 10 35 17 16 30 39 30 53 0 15 19 42 53 76 28
29 58 63 66 77 8 13 21 34 29 47 13 20 13 22 -4 22 -18 1 -18 1 -1 14 10 8 17
26 17 45 0 38 35 81 66 81 29 0 54 10 54 21 0 5 -7 9 -15 9 -8 0 -15 8 -14 18
1 28 43 97 59 97 22 0 25 -43 4 -66 -15 -17 -15 -19 -1 -19 33 0 47 13 47 41
0 16 5 29 11 29 6 0 9 -9 6 -20 -3 -13 0 -20 9 -20 9 0 14 11 14 28 0 15 5 33
11 39 15 15 3 63 -17 63 -8 0 -30 -6 -48 -14 -28 -12 -36 -12 -47 -1 -8 8 -41
17 -74 22 -58 8 -60 9 -63 39 -2 17 3 36 11 42 15 12 11 72 -4 72 -14 0 -49
33 -49 47 0 7 -5 22 -12 33 -10 16 -9 22 11 39 18 15 24 31 24 61 0 36 6 45
30 41 4 0 7 10 7 23 0 14 5 28 10 31 15 9 12 25 -5 25 -18 0 -19 12 -3 28 18
18 3 25 -22 10 -17 -10 -20 -19 -16 -43 4 -19 3 -25 -3 -16 -15 23 -30 3 -25
-34 5 -39 -1 -43 -29 -17 -19 17 -20 16 -13 -10 6 -25 4 -28 -21 -28 -21 0
-24 -3 -15 -12 15 -15 16 -38 2 -38 -6 0 -25 -16 -42 -36 -18 -21 -37 -33 -45
-29 -8 3 -23 -5 -33 -17 -18 -23 -18 -23 3 -40 l22 -18 -22 -6 c-14 -4 -23
-14 -23 -25 0 -11 -4 -20 -10 -20 -5 -1 -14 -2 -18 -3 -16 -2 -72 -51 -72 -63
0 -7 -6 -10 -13 -8 -7 3 -18 -8 -25 -25 -17 -36 -32 -39 -32 -5 0 16 6 25 16
25 12 0 15 7 12 25 -3 14 -2 25 1 25 12 0 32 55 21 58 -23 8 -8 22 21 20 22
-2 35 3 43 16 6 10 28 35 48 55 21 20 38 41 38 47 0 6 18 32 40 57 22 25 40
50 40 55 0 6 12 25 27 42 20 25 23 34 13 40 -9 6 -6 9 11 12 16 2 31 16 44 41
11 20 27 39 36 42 9 3 21 17 28 31 6 14 17 24 24 21 18 -6 9 -39 -16 -59 -17
-14 -18 -18 -6 -18 21 0 49 -32 50 -56 0 -17 1 -17 16 3 8 13 21 23 28 23 13
0 57 53 83 99 10 17 11 26 3 34 -17 17 -13 29 9 22 11 -4 20 -2 20 4 0 22 2
26 16 42 8 9 14 22 12 29 -2 6 6 17 17 23 11 7 31 20 44 30 13 9 41 17 62 17
37 0 46 -9 55 -57 1 -7 9 -20 18 -29 9 -8 16 -28 16 -44 0 -21 6 -31 23 -36
12 -5 25 -7 30 -6 4 1 12 -9 17 -23 9 -24 34 -32 56 -17 6 4 14 23 18 43 7 40
29 65 46 54 6 -4 22 1 36 10 13 9 29 13 34 10 10 -6 38 46 45 85 3 14 15 33
27 42 18 14 19 18 7 18 -9 0 -22 7 -29 15 -10 12 -9 15 8 15 11 0 27 2 34 5 9
4 19 -4 26 -17 11 -23 11 -23 11 4 1 15 -6 31 -15 36 -10 5 -14 15 -10 21 6 9
11 9 22 0 10 -8 17 -7 29 5 21 21 13 33 -25 38 -23 4 -34 0 -41 -14 -5 -10
-16 -18 -23 -18 -11 0 -11 6 -2 33 16 45 27 60 61 81 18 12 24 21 17 24 -7 2
-19 -2 -28 -9 -11 -9 -18 -9 -26 -1 -16 16 8 42 35 39 16 -1 22 4 22 18 0 14
-10 22 -35 30 -50 15 -62 24 -55 46 9 26 -9 24 -70 -6 -43 -22 -50 -23 -58
-10 -4 8 -5 24 -2 35 4 11 2 20 -4 20 -18 0 -13 22 11 47 12 13 16 23 10 23
-7 0 -12 9 -12 20 0 16 -7 20 -38 20 -21 0 -42 -4 -48 -10 -5 -5 -22 -11 -37
-12 -27 -2 -97 -65 -97 -87 0 -5 -10 -26 -22 -47 -20 -34 -22 -35 -35 -18 -7
10 -13 22 -13 27 0 4 -9 5 -20 2 -11 -4 -20 -2 -20 4 0 6 -4 11 -10 11 -5 0
-10 -9 -10 -19 0 -25 -15 -35 -36 -23 -21 11 -62 -7 -70 -30 -8 -26 -26 -22
-22 5 2 15 -2 21 -11 19 -48 -11 -99 40 -107 106 -6 45 -11 51 -54 55 -23 3
-37 11 -44 26 -8 19 -14 21 -73 15 -36 -3 -76 -9 -90 -15 -55 -21 -183 -4
-183 24 0 5 11 22 25 38 13 16 27 45 31 64 3 19 10 35 14 35 5 0 16 20 26 45
9 25 21 45 25 45 5 0 9 7 9 15 0 8 5 15 10 15 6 0 10 7 10 15 0 8 5 15 10 15
6 0 10 6 10 14 0 8 14 24 30 36 21 15 30 30 30 48 0 15 8 39 17 52 24 36 105
120 114 120 5 0 19 10 32 23 57 52 88 77 97 77 6 0 10 3 10 8 0 4 17 16 38 27
20 10 48 27 62 36 28 19 79 48 160 93 125 68 210 138 210 173 0 26 -107 143
-132 143 -22 0 -21 107 1 130 22 23 43 50 62 80 9 14 25 35 35 47 69 80 99
118 99 123 0 4 13 18 29 31 26 23 29 33 37 124 8 85 7 100 -6 107 -8 5 -15 18
-15 28 0 12 -7 20 -16 20 -12 0 -14 5 -8 18 4 9 9 36 12 58 3 31 10 45 28 54
13 8 24 17 24 22 0 6 33 42 73 81 39 40 81 85 92 100 11 15 35 44 53 64 35 38
41 67 16 77 -8 3 -24 27 -36 53 -11 27 -29 58 -40 69 -10 12 -18 25 -17 30 4
22 -2 34 -16 34 -8 0 -15 7 -15 15 0 8 -7 15 -16 15 -11 0 -15 6 -11 20 3 11
-3 29 -14 41 -10 12 -19 26 -19 31 0 12 -97 10 -143 -4 -33 -10 -43 -19 -58
-55 -10 -24 -22 -43 -27 -43 -4 0 -15 -16 -22 -36 -14 -34 -16 -35 -50 -29
-19 4 -44 15 -56 26 -11 10 -26 19 -32 19 -7 0 -12 7 -12 16 0 11 -6 14 -22 8
-31 -9 -39 -24 -33 -55 4 -17 0 -30 -10 -39 -8 -7 -15 -18 -15 -26 0 -15 -40
-86 -54 -96 -6 -4 -5 -12 2 -21 10 -12 8 -16 -9 -20 -15 -4 -19 -11 -14 -25 3
-11 1 -23 -5 -27 -5 -3 -10 -2 -10 4 0 6 -7 8 -15 5 -16 -7 -21 -34 -6 -34 5
0 4 -17 -3 -38 -12 -43 -68 -112 -89 -112 -7 0 -20 -11 -27 -25 -12 -23 -15
-24 -31 -9 -12 11 -18 12 -21 3 -8 -25 -28 3 -28 40 0 38 -19 91 -32 91 -5 0
-8 6 -8 14 0 14 64 59 86 60 18 2 74 63 92 103 9 21 27 48 40 61 23 23 28 47
12 57 -5 3 -10 16 -10 28 0 17 -2 19 -9 8 -8 -12 -14 -13 -36 -3 -14 7 -37 12
-50 12 -35 0 -31 16 5 24 33 6 41 34 15 56 -12 10 -10 18 15 58 29 47 30 62 4
62 -9 0 -22 6 -30 14 -8 8 -34 18 -58 21 -37 6 -43 10 -39 26 5 19 37 26 47
10 3 -5 17 -11 32 -14 22 -4 25 -2 20 16 -3 11 1 34 8 52 15 34 63 78 77 69 5
-3 14 -2 20 2 8 5 7 9 -1 14 -17 11 -4 41 20 47 11 3 20 11 20 18 0 25 83 115
106 115 22 0 23 3 17 49 -5 45 -4 49 13 45 18 -5 64 27 64 44 0 4 12 20 28 37
15 16 34 39 42 51 8 12 42 59 75 105 33 46 60 90 60 99 0 8 7 15 15 15 8 0 15
7 15 15 0 16 55 90 67 90 8 0 38 23 69 52 9 9 20 14 23 10 3 -3 6 6 6 19 0 30
15 54 27 46 6 -4 11 25 13 71 4 114 2 146 -9 150 -6 2 -11 9 -11 16 0 7 -8 21
-17 32 -10 10 -20 32 -21 48 -4 31 -23 56 -42 56 -6 0 -8 5 -5 10 4 6 -10 10
-35 10 -25 0 -39 -4 -35 -10z m-36 -446 c-7 -9 -18 -25 -24 -37 -11 -23 -35
-35 -35 -17 0 13 51 69 64 70 5 0 2 -7 -5 -16z m39 -56 c-6 -17 -36 -34 -45
-24 -4 4 1 14 11 22 24 17 39 18 34 2z m-59 -92 c-6 -13 -22 -29 -36 -35 l-24
-11 27 35 c30 40 49 46 33 11z m-3161 -38 c-3 -7 -13 -15 -24 -17 -16 -3 -17
-1 -5 13 16 19 34 21 29 4z m3082 -23 c-7 -8 -16 -12 -21 -9 -13 8 -1 24 18
24 13 0 13 -3 3 -15z m-4023 -31 c-3 -3 -12 -4 -19 -1 -8 3 -5 6 6 6 11 1 17
-2 13 -5z m3983 -13 c0 -6 -4 -13 -10 -16 -5 -3 -10 -16 -10 -29 0 -30 -36
-64 -51 -49 -8 8 -2 24 22 57 33 44 49 56 49 37z m-3072 -30 c3 -16 -1 -22
-10 -19 -7 3 -15 15 -16 27 -3 16 1 22 10 19 7 -3 15 -15 16 -27z m45 -1 c-6
-21 -21 -35 -29 -27 -6 6 18 47 27 47 4 0 5 -9 2 -20z m1637 -11 c-12 -22 -30
-25 -30 -6 0 17 21 38 32 31 4 -3 3 -14 -2 -25z m955 11 c3 -5 2 -10 -4 -10
-5 0 -13 5 -16 10 -3 6 -2 10 4 10 5 0 13 -4 16 -10z m-2555 -10 c0 -5 -7 -10
-15 -10 -8 0 -15 5 -15 10 0 6 7 10 15 10 8 0 15 -4 15 -10z m-240 -30 c0 -5
-6 -10 -12 -10 -7 0 -24 -3 -38 -7 -22 -6 -24 -5 -11 10 15 18 61 23 61 7z
m2755 -10 c-3 -5 -11 -10 -16 -10 -6 0 -7 5 -4 10 3 6 11 10 16 10 6 0 7 -4 4
-10z m46 -13 c-10 -9 -11 -8 -5 6 3 10 9 15 12 12 3 -3 0 -11 -7 -18z m-2371
5 c0 -14 -11 -21 -26 -15 -8 3 -11 9 -8 14 7 11 34 12 34 1z m-50 -17 c0 -8
-7 -15 -15 -15 -26 0 -18 20 13 29 1 1 2 -6 2 -14z m-58 -26 c-13 -12 -32 -19
-45 -16 -20 3 -18 5 13 20 48 22 58 21 32 -4z m2498 16 c0 -11 -43 -75 -51
-75 -12 0 -12 36 0 58 8 15 51 29 51 17z m-940 -14 c0 -6 -4 -13 -10 -16 -5
-3 -10 1 -10 9 0 9 5 16 10 16 6 0 10 -4 10 -9z m1080 -15 c0 -8 -4 -18 -10
-21 -5 -3 -10 3 -10 14 0 12 5 21 10 21 6 0 10 -6 10 -14z m-2715 -15 c-8 -13
-55 -15 -55 -2 0 5 12 11 28 13 32 4 36 3 27 -11z m2727 -74 c-10 -11 -18 -14
-22 -7 -4 6 -14 8 -23 4 -13 -5 -16 -2 -11 10 3 9 11 16 18 16 6 0 18 10 25
23 l15 22 6 -25 c5 -16 1 -31 -8 -43z m-862 20 c0 -15 -78 -77 -97 -77 -18 0
-17 19 2 26 8 4 15 11 15 18 0 14 61 57 72 50 4 -3 8 -11 8 -17z m500 4 c0 -6
-4 -13 -10 -16 -5 -3 -10 1 -10 9 0 9 5 16 10 16 6 0 10 -4 10 -9z m450 0 c0
-12 -20 -25 -27 -18 -7 7 6 27 18 27 5 0 9 -4 9 -9z m-176 -23 c-4 -7 -16 -25
-26 -40 -11 -16 -14 -28 -8 -28 6 0 14 8 17 18 7 18 22 32 36 32 4 0 3 -9 -3
-20 -9 -16 -8 -20 5 -20 14 0 14 -3 -1 -25 -15 -23 -15 -27 1 -51 9 -14 14
-29 10 -32 -6 -6 -20 11 -28 32 -1 5 -22 -11 -46 -34 -34 -34 -45 -40 -52 -29
-5 8 -7 25 -4 38 4 14 1 27 -6 31 -16 11 -1 33 18 26 22 -9 36 3 23 19 -8 10
-3 21 20 46 16 18 30 37 30 41 0 5 5 8 11 8 5 0 7 -6 3 -12z m-82 -40 c-7 -7
-12 -8 -12 -2 0 14 12 26 19 19 2 -3 -1 -11 -7 -17z m148 2 c0 -5 -4 -10 -10
-10 -5 0 -10 5 -10 10 0 6 5 10 10 10 6 0 10 -4 10 -10z m30 -35 c-7 -9 -15
-13 -17 -11 -7 7 7 26 19 26 6 0 6 -6 -2 -15z m-2780 -4 c0 -13 -39 -58 -40
-46 0 10 31 55 38 55 1 0 2 -4 2 -9z m1332 -40 c-18 -16 -32 -36 -32 -45 0
-22 9 -20 37 6 l23 21 0 -25 c0 -15 6 -29 13 -31 7 -4 6 -6 -5 -6 -9 -1 -18 5
-21 12 -5 17 -58 -12 -65 -35 -4 -16 -5 -16 -27 0 l-23 17 24 42 c13 24 19 45
14 48 -20 12 -10 27 13 21 14 -3 32 1 43 9 34 25 39 -2 6 -34z m-1437 -5 c-9
-13 -13 -30 -10 -39 4 -8 2 -18 -4 -22 -6 -3 -14 0 -17 9 -7 18 25 88 37 80 5
-3 2 -15 -6 -28z m2633 -37 c-7 -5 -9 -9 -4 -9 11 0 -14 -30 -25 -30 -15 0
-10 27 14 67 l22 38 3 -29 c2 -16 -2 -32 -10 -37z m-3262 35 c-3 -9 -6 -20 -6
-25 0 -5 -9 -9 -20 -9 -23 0 -26 -10 -7 -29 10 -10 8 -16 -10 -28 -21 -14 -21
-17 -7 -38 19 -29 3 -41 -21 -15 -26 28 -32 25 -39 -20 -6 -37 -8 -40 -31 -34
-16 4 -25 2 -25 -5 0 -7 -13 -17 -30 -22 -33 -12 -50 -47 -29 -60 10 -6 8 -9
-7 -9 -17 0 -23 8 -28 35 -7 34 -22 53 -33 41 -4 -4 -1 -12 5 -18 10 -10 6
-17 -14 -35 -15 -13 -32 -23 -38 -23 -6 0 -5 -5 2 -12 19 -19 14 -30 -10 -27
-13 2 -34 -1 -47 -5 -14 -5 -27 -4 -34 3 -14 14 -57 14 -57 1 0 -6 14 -19 31
-29 28 -17 29 -20 13 -29 -15 -9 -16 -12 -5 -26 8 -9 11 -20 7 -24 -4 -4 -12
2 -18 12 -8 14 -12 15 -18 6 -5 -7 -3 -21 3 -31 16 -25 -1 -38 -19 -15 -9 13
-11 23 -4 30 14 14 12 26 -4 26 -8 0 -23 -18 -33 -40 -17 -36 -33 -52 -33 -31
0 14 -54 -1 -71 -21 -9 -10 -23 -18 -31 -18 -9 0 -21 -7 -28 -15 -17 -21 -36
-3 -22 21 7 13 3 23 -20 46 -24 23 -27 32 -18 43 16 19 32 8 25 -16 -4 -10 -2
-19 2 -19 15 0 33 23 33 42 0 11 7 18 19 18 28 0 111 94 112 127 0 27 1 27 9
6 5 -13 14 -23 19 -23 10 0 12 6 31 77 8 31 15 41 26 36 9 -3 12 -12 8 -25 -5
-17 -4 -18 15 -6 12 7 26 28 32 46 10 29 12 31 23 17 11 -15 13 -14 24 9 8 17
8 26 1 26 -15 0 -3 16 29 39 35 25 60 14 43 -18 -15 -27 -4 -27 27 2 l25 22
-6 -33 c-5 -24 -3 -32 6 -30 6 3 13 19 15 36 3 34 16 42 26 16 8 -22 26 -7 26
22 0 13 5 24 10 24 6 0 10 -10 10 -22 1 -23 1 -23 16 -3 9 12 11 21 4 23 -5 2
-10 8 -10 13 0 5 15 0 33 -10 34 -19 57 -18 57 4 0 14 38 44 59 44 8 1 11 -5
7 -15z m2168 -25 c-9 -10 -24 -19 -32 -19 -11 0 -7 9 13 30 31 33 49 22 19
-11z m-202 -2 c-12 -13 -22 -29 -22 -35 0 -7 -5 -12 -11 -12 -7 0 -18 -8 -25
-17 -7 -10 -16 -15 -20 -10 -8 8 74 96 90 97 5 0 0 -10 -12 -23z m-2202 -1 c0
-8 -7 -16 -15 -20 -17 -6 -18 -4 -9 18 8 20 24 21 24 2z m254 -31 c-4 -8 -10
-15 -15 -15 -5 0 -9 7 -9 15 0 8 7 15 15 15 9 0 12 -6 9 -15z m570 -44 c-2 -3
-12 3 -21 12 -14 14 -14 18 -2 33 12 15 14 14 21 -12 4 -15 5 -30 2 -33z m595
18 c-19 -12 -24 -2 -8 17 9 11 14 13 17 4 3 -7 -2 -16 -9 -21z m1151 11 c0 -5
-4 -10 -10 -10 -5 0 -10 5 -10 10 0 6 5 10 10 10 6 0 10 -4 10 -10z m950 -15
c-7 -9 -15 -13 -19 -10 -3 3 1 10 9 15 21 14 24 12 10 -5z m-3260 -5 c0 -5 -7
-10 -15 -10 -8 0 -15 5 -15 10 0 6 7 10 15 10 8 0 15 -4 15 -10z m451 -33
c-10 -9 -11 -8 -5 6 3 10 9 15 12 12 3 -3 0 -11 -7 -18z m2707 -38 c-24 -34
-50 -71 -58 -83 -37 -53 -73 -96 -78 -91 -5 5 35 69 78 122 14 17 38 50 54 72
17 23 34 41 38 41 5 0 -11 -28 -34 -61z m-1085 36 c-3 -9 -8 -14 -10 -11 -3 3
-2 9 2 15 9 16 15 13 8 -4z m57 -5 c0 -5 -5 -10 -11 -10 -5 0 -7 5 -4 10 3 6
8 10 11 10 2 0 4 -4 4 -10z m50 -19 c0 -5 3 -16 6 -25 4 -10 1 -16 -8 -16 -7
0 -15 11 -16 25 -1 14 3 25 8 25 6 0 10 -4 10 -9z m240 0 c0 -17 -18 -21 -24
-6 -3 9 0 15 9 15 8 0 15 -4 15 -9z m837 -3 c-2 -7 -12 -12 -21 -12 -10 1 -16
-6 -16 -20 -1 -20 -31 -66 -44 -66 -3 0 -6 11 -6 25 0 18 5 25 20 25 21 0 28
16 9 22 -5 2 -7 11 -4 21 8 20 69 25 62 5z m-1383 -54 c4 -11 1 -14 -11 -12
-9 2 -18 9 -21 16 -6 18 25 15 32 -4z m269 -21 c-9 -24 -34 -42 -58 -42 -17 0
-15 4 13 29 36 34 55 39 45 13z m-1788 -4 c4 -5 -3 -19 -16 -30 l-22 -19 21
-23 c12 -13 19 -27 15 -30 -3 -4 1 -7 9 -7 20 0 33 -47 17 -66 -6 -8 -18 -14
-27 -14 -9 0 -26 -10 -39 -22 -25 -24 -28 -19 -14 30 8 26 7 32 -6 32 -10 0
-14 6 -10 20 3 11 1 20 -4 20 -15 0 -10 26 11 52 10 14 17 28 13 31 -8 9 17
37 33 37 7 0 16 -5 19 -11z m527 -11 c-6 -6 -15 -8 -19 -4 -4 4 -1 11 7 16 19
12 27 3 12 -12z m2255 -10 c-3 -8 -6 -5 -6 6 -1 11 2 17 5 13 3 -3 4 -12 1
-19z m-807 -10 c-1 -14 -24 -48 -32 -48 -3 0 -5 13 -4 30 1 21 6 30 19 30 9 0
17 -6 17 -12z m-105 -39 c6 -37 8 -39 24 -25 22 20 32 11 25 -23 l-5 -26 26
29 c14 15 28 26 31 23 11 -11 -73 -127 -107 -149 -21 -13 -35 -26 -33 -30 7
-11 -19 -48 -33 -48 -8 0 -12 11 -11 31 3 26 -2 35 -27 48 -38 22 -70 24 -86
5 -17 -20 -32 -18 -21 4 5 9 7 24 4 32 -5 13 -3 13 12 1 15 -13 19 -13 26 -1
5 8 5 19 -1 26 -7 8 -2 14 17 18 29 8 54 -8 54 -33 0 -27 18 -47 30 -35 8 8 6
22 -9 50 -12 21 -21 45 -21 52 0 19 28 44 41 37 8 -5 8 -10 0 -18 -14 -14 -14
-74 -1 -82 6 -3 13 2 17 12 3 10 12 25 19 34 10 11 11 24 3 52 -5 21 -7 42 -4
47 12 20 23 9 30 -31z m55 21 c0 -5 -4 -10 -10 -10 -5 0 -10 5 -10 10 0 6 5
10 10 10 6 0 10 -4 10 -10z m-1900 -10 c0 -5 -4 -10 -9 -10 -6 0 -13 5 -16 10
-3 6 1 10 9 10 9 0 16 -4 16 -10z m-580 -10 c0 -5 -4 -10 -10 -10 -5 0 -10 5
-10 10 0 6 5 10 10 10 6 0 10 -4 10 -10z m2100 -21 c0 -10 -31 -20 -42 -13 -5
3 -2 14 8 25 13 15 19 17 26 7 4 -7 8 -16 8 -19z m30 10 c0 -5 -4 -9 -10 -9
-5 0 -10 7 -10 16 0 8 5 12 10 9 6 -3 10 -10 10 -16z m118 -1 c-17 -26 -68
-63 -52 -38 29 48 40 60 53 60 11 0 11 -4 -1 -22z m-2325 -14 c-27 -20 -39
-17 -18 6 10 11 22 17 27 14 5 -3 1 -12 -9 -20z m-1121 -6 c-6 -6 -15 -8 -19
-4 -4 4 -1 11 7 16 19 12 27 3 12 -12z m618 2 c0 -5 -5 -10 -11 -10 -5 0 -7 5
-4 10 3 6 8 10 11 10 2 0 4 -4 4 -10z m3870 0 c0 -5 -4 -10 -10 -10 -5 0 -10
5 -10 10 0 6 5 10 10 10 6 0 10 -4 10 -10z m-3390 -24 c0 -3 -4 -8 -10 -11 -5
-3 -10 -1 -10 4 0 6 5 11 10 11 6 0 10 -2 10 -4z m2260 -28 c0 -25 -46 -75
-57 -64 -4 4 6 18 22 31 17 13 27 27 22 31 -4 4 -13 2 -19 -4 -7 -7 -17 -12
-22 -12 -12 0 34 39 47 40 4 0 7 -10 7 -22z m1113 7 c7 -17 -8 -29 -28 -21
-17 6 -9 36 10 36 7 0 15 -7 18 -15z m-1453 -26 c0 -6 -4 -7 -10 -4 -5 3 -10
11 -10 16 0 6 5 7 10 4 6 -3 10 -11 10 -16z m1390 11 c0 -5 -4 -10 -10 -10 -5
0 -10 5 -10 10 0 6 5 10 10 10 6 0 10 -4 10 -10z m-4275 -31 c15 -15 15 -17 1
-22 -10 -4 -16 -1 -16 9 0 9 -5 13 -12 10 -7 -3 -21 -9 -30 -12 -19 -7 -31
-31 -22 -46 3 -5 17 1 31 14 l26 23 -5 -27 c-5 -28 13 -40 27 -18 3 5 20 7 37
3 27 -5 30 -4 25 11 -9 23 13 16 27 -8 8 -14 8 -20 -2 -23 -7 -3 -35 -22 -62
-44 -27 -21 -56 -39 -64 -39 -9 0 -20 -9 -26 -20 -6 -11 -15 -20 -20 -20 -19
0 -10 25 18 47 27 22 27 22 4 23 -12 0 -25 -7 -28 -15 -4 -8 -11 -15 -17 -15
-7 0 -7 4 1 12 35 35 -5 37 -43 2 -15 -14 -29 -23 -31 -21 -9 8 21 62 45 84
14 13 22 27 18 37 -3 8 -2 28 4 43 8 26 14 29 54 28 27 0 51 -6 60 -16z m90 1
c-3 -5 -13 -10 -21 -10 -8 0 -12 5 -9 10 3 6 13 10 21 10 8 0 12 -4 9 -10z
m3050 -60 c-14 -27 -35 -41 -35 -23 0 7 41 53 47 53 2 0 -3 -13 -12 -30z
m-2405 -4 c0 -3 -4 -8 -10 -11 -5 -3 -10 -1 -10 4 0 6 5 11 10 11 6 0 10 -2
10 -4z m2620 -7 c0 -6 -7 -9 -15 -5 -9 3 -15 0 -15 -10 0 -9 -5 -14 -12 -12
-20 7 -20 26 -1 31 32 8 43 7 43 -4z m-144 -34 c3 -14 10 -25 15 -25 5 0 9 -9
9 -21 0 -11 5 -30 12 -42 11 -21 12 -21 19 12 8 36 -6 71 -28 71 -16 0 -17 16
-1 26 6 4 14 2 16 -4 2 -7 10 -12 18 -12 7 0 11 -6 8 -14 -4 -11 1 -14 18 -11
44 7 68 17 68 31 0 15 16 19 24 5 3 -4 -8 -21 -25 -36 -23 -19 -28 -30 -20
-38 8 -8 15 -6 25 9 15 19 15 19 30 -1 13 -17 13 -20 0 -23 -8 -2 -14 -12 -14
-23 0 -10 -4 -19 -10 -19 -5 0 -10 5 -10 11 0 5 -5 7 -10 4 -6 -4 -9 -18 -8
-32 3 -30 -18 -43 -25 -16 -4 17 -4 17 -12 -1 -5 -11 -17 -28 -27 -38 -12 -12
-17 -26 -13 -39 8 -23 -1 -25 -21 -4 -12 11 -12 19 -4 35 6 11 15 20 20 20 12
0 33 40 25 48 -3 4 -10 0 -14 -7 -5 -8 -17 -11 -30 -6 -17 5 -21 14 -21 45 0
22 -6 43 -12 47 -15 9 -38 48 -38 63 0 21 30 9 36 -15z m-2563 -35 c-8 -8 -33
32 -26 43 3 5 12 -1 19 -14 7 -13 10 -26 7 -29z m2547 -40 c0 -5 -2 -10 -4
-10 -3 0 -8 5 -11 10 -3 6 -1 10 4 10 6 0 11 -4 11 -10z m-3470 -19 c0 -10 -7
-21 -15 -25 -16 -6 -19 3 -9 28 8 22 24 20 24 -3z m3388 1 c2 -6 -6 -10 -17
-9 -22 1 -26 8 -14 21 9 9 26 3 31 -12z m38 -28 c0 -9 5 -19 12 -21 7 -3 11 0
10 5 -4 12 9 12 40 1 25 -10 30 -29 7 -29 -8 0 -15 -9 -15 -20 0 -13 -7 -20
-19 -20 -14 0 -18 5 -14 19 3 13 -2 20 -17 24 -12 3 -19 10 -15 16 3 6 -1 11
-9 11 -23 0 -20 -16 9 -54 26 -35 31 -61 15 -86 -7 -12 -12 -12 -22 -2 -20 20
-26 14 -33 -28 -5 -30 -10 -38 -19 -31 -6 5 -35 8 -64 6 -42 -3 -52 -1 -52 12
0 12 8 15 39 10 45 -6 81 13 81 44 0 13 7 19 24 19 l24 0 -16 43 c-21 57 -29
66 -52 60 -11 -3 -20 0 -20 6 0 6 17 11 40 11 22 0 40 5 40 10 0 6 6 10 14 10
8 0 13 -7 12 -16z m-3661 -24 c-3 -5 -10 -10 -16 -10 -5 0 -9 5 -9 10 0 6 7
10 16 10 8 0 12 -4 9 -10z m170 -10 c-3 -5 -11 -10 -16 -10 -6 0 -7 5 -4 10 3
6 11 10 16 10 6 0 7 -4 4 -10z m3419 -64 c-9 -7 -14 -18 -10 -24 7 -12 1 -17
-36 -26 -29 -7 -37 5 -15 24 48 41 61 49 69 44 5 -3 1 -12 -8 -18z m136 -40
c0 -15 -18 -31 -26 -23 -7 7 7 37 17 37 5 0 9 -6 9 -14z m-21 -80 c0 -6 -3 -5
-6 2 -6 14 -33 16 -33 2 0 -5 5 -10 10 -10 15 0 12 -26 -4 -39 -21 -18 -29 38
-9 68 15 23 16 24 29 6 8 -10 14 -24 13 -29z m-2764 -16 c3 -5 1 -10 -4 -10
-6 0 -11 5 -11 10 0 6 2 10 4 10 3 0 8 -4 11 -10z m2585 -17 c-1 -20 -56 -63
-80 -63 -15 0 -12 30 3 30 6 0 23 9 37 20 26 21 40 25 40 13z m2150 -33 c0 -5
-4 -10 -10 -10 -5 0 -10 5 -10 10 0 6 5 10 10 10 6 0 10 -4 10 -10z m-1043
-60 c1 -17 -2 -30 -7 -30 -6 0 -10 14 -10 30 0 39 14 39 17 0z m-1187 -3 c0
-14 -19 -37 -31 -37 -4 0 -2 11 4 25 13 27 27 33 27 12z m2240 3 c0 -5 -4 -10
-10 -10 -5 0 -10 5 -10 10 0 6 5 10 10 10 6 0 10 -4 10 -10z m-2330 -10 c0 -5
-2 -10 -4 -10 -3 0 -8 5 -11 10 -3 6 -1 10 4 10 6 0 11 -4 11 -10z m-3360 -34
c0 -3 -4 -8 -10 -11 -5 -3 -10 -1 -10 4 0 6 5 11 10 11 6 0 10 -2 10 -4z
m3380 -7 c0 -4 -6 -12 -14 -18 -11 -9 -16 -9 -21 0 -5 7 -21 9 -46 5 -34 -5
-49 1 -35 15 7 7 116 5 116 -2z m-3710 -29 c-7 -14 -7 -20 0 -20 17 0 11 -14
-19 -48 -17 -17 -32 -28 -35 -23 -3 5 6 21 19 35 14 15 23 32 19 37 -8 13 3
39 16 39 8 0 8 -6 0 -20z m3635 -20 c8 0 17 -4 20 -10 4 -6 -5 -10 -19 -10
-21 0 -26 5 -25 23 0 12 3 16 6 10 2 -7 11 -13 18 -13z m1232 2 c-10 -10 -17
-24 -17 -30 0 -7 -5 -12 -10 -12 -18 0 -6 34 15 47 28 17 31 16 12 -5z m-1337
-19 c0 -5 -5 -15 -10 -23 -8 -12 -10 -11 -10 8 0 12 5 22 10 22 6 0 10 -3 10
-7z m1134 -8 c-4 -8 -8 -15 -10 -15 -2 0 -4 7 -4 15 0 8 4 15 10 15 5 0 7 -7
4 -15z m-1217 -20 c-4 -8 -12 -15 -19 -14 -10 0 -10 2 0 6 6 2 12 12 12 21 0
8 3 13 6 9 4 -3 4 -13 1 -22z m141 5 c12 -19 11 -20 -8 -8 -20 13 -27 28 -12
28 4 0 13 -9 20 -20z m-3358 -25 c0 -8 -4 -15 -10 -15 -5 0 -10 7 -10 15 0 8
5 15 10 15 6 0 10 -7 10 -15z m4376 -32 c-6 -14 -9 -15 -16 -4 -11 19 -1 46
13 32 5 -5 7 -18 3 -28z m-4686 -23 c0 -5 -4 -10 -10 -10 -5 0 -10 5 -10 10 0
6 5 10 10 10 6 0 10 -4 10 -10z m3530 -20 c0 -5 -4 -10 -9 -10 -6 0 -13 5 -16
10 -3 6 1 10 9 10 9 0 16 -4 16 -10z m-3570 -34 c0 -8 -4 -18 -10 -21 -5 -3
-10 3 -10 14 0 12 5 21 10 21 6 0 10 -6 10 -14z m4855 4 c-3 -5 -11 -10 -16
-10 -6 0 -7 5 -4 10 3 6 11 10 16 10 6 0 7 -4 4 -10z m-2653 -22 c-7 -7 -12
-8 -12 -2 0 14 12 26 19 19 2 -3 -1 -11 -7 -17z m1272 -3 c3 -9 -1 -18 -10
-22 -19 -7 -28 2 -21 22 8 19 23 19 31 0z m-54 -55 c0 -5 -7 -10 -15 -10 -8 0
-15 5 -15 10 0 6 7 10 15 10 8 0 15 -4 15 -10z m-86 -21 c-6 -10 -8 -20 -13
-66 0 -7 -5 -13 -11 -13 -10 0 -7 60 4 79 4 6 12 11 17 11 6 0 7 -5 3 -11z
m-1260 -34 c-21 -16 -44 -16 -47 0 -2 9 53 25 62 18 3 -2 -4 -10 -15 -18z
m1316 15 c0 -5 -7 -10 -16 -10 -8 0 -12 5 -9 10 3 6 10 10 16 10 5 0 9 -4 9
-10z m-1803 -47 c-3 -3 -11 -2 -17 2 -9 6 -9 10 1 16 14 8 27 -7 16 -18z
m-1937 8 c0 -6 -4 -13 -10 -16 -5 -3 -10 1 -10 9 0 9 5 16 10 16 6 0 10 -4 10
-9z m3606 -16 c0 -14 -7 -25 -13 -25 -16 0 -16 5 -1 30 16 25 16 25 14 -5z
m-3436 -5 c0 -5 -4 -10 -10 -10 -5 0 -10 5 -10 10 0 6 5 10 10 10 6 0 10 -4
10 -10z m-50 -12 c0 -4 -5 -8 -12 -8 -6 0 -19 -7 -29 -16 -25 -23 -54 -11 -39
16 7 14 20 19 45 18 19 -1 35 -5 35 -10z m2225 -7 c3 -5 1 -12 -5 -16 -5 -3
-10 1 -10 9 0 18 6 21 15 7z m1215 -31 c-6 -11 -18 -20 -27 -20 -14 0 -14 2 2
20 10 11 22 20 27 20 5 0 4 -9 -2 -20z m-3430 -4 c0 -8 -4 -17 -9 -21 -6 -3
-9 4 -8 15 1 23 17 28 17 6z m2180 -5 c0 -5 -12 -16 -26 -26 -20 -13 -29 -14
-38 -5 -8 8 -6 15 8 26 22 16 56 19 56 5z m1565 -1 c-3 -5 -12 -10 -18 -10 -7
0 -6 4 3 10 19 12 23 12 15 0z m-3779 -65 c-9 -7 -16 -16 -16 -21 0 -12 -37
-44 -50 -44 -7 0 -7 7 1 21 6 12 8 34 5 50 -4 21 -2 29 8 29 7 0 19 7 27 16
11 14 14 12 27 -12 13 -24 13 -29 -2 -39z m2124 25 c0 -5 -4 -10 -10 -10 -5 0
-10 5 -10 10 0 6 5 10 10 10 6 0 10 -4 10 -10z m-2230 -45 c0 -8 -4 -15 -10
-15 -5 0 -10 7 -10 15 0 8 5 15 10 15 6 0 10 -7 10 -15z m2170 -2 c-8 -4 -20
-13 -27 -22 -11 -14 -12 -13 -13 7 0 18 5 22 28 21 16 0 21 -3 12 -6z m-90
-47 c0 -16 -18 -31 -27 -22 -8 8 5 36 17 36 5 0 10 -6 10 -14z m40 4 c0 -5 -5
-10 -11 -10 -5 0 -7 5 -4 10 3 6 8 10 11 10 2 0 4 -4 4 -10z m1485 -20 c3 -5
1 -10 -4 -10 -6 0 -11 5 -11 10 0 6 2 10 4 10 3 0 8 -4 11 -10z m-3785 -30 c0
-11 -4 -20 -9 -20 -5 0 -7 9 -4 20 3 11 7 20 9 20 2 0 4 -9 4 -20z m140 12 c0
-13 -12 -22 -22 -16 -10 6 -1 24 13 24 5 0 9 -4 9 -8z m-88 -17 c0 -5 -5 -11
-11 -13 -6 -2 -11 4 -11 13 0 9 5 15 11 13 6 -2 11 -8 11 -13z m2158 -4 c0 -5
9 -11 20 -14 33 -9 24 -30 -9 -24 -23 5 -31 2 -36 -12 -3 -10 -2 -26 1 -36 6
-14 3 -16 -15 -10 -14 4 -23 2 -27 -9 -7 -17 -34 -22 -34 -7 0 5 -7 17 -16 25
-14 15 -12 16 21 16 25 0 37 5 41 18 13 38 28 62 41 62 7 0 13 -4 13 -9z
m-2080 -41 c0 -5 -4 -10 -10 -10 -5 0 -10 5 -10 10 0 6 5 10 10 10 6 0 10 -4
10 -10z m1660 -110 c0 -5 -2 -10 -4 -10 -3 0 -8 5 -11 10 -3 6 -1 10 4 10 6 0
11 -4 11 -10z m1757 -52 c-3 -8 -6 -5 -6 6 -1 11 2 17 5 13 3 -3 4 -12 1 -19z
m-3687 -3 c0 -8 -7 -15 -15 -15 -9 0 -12 6 -9 15 4 8 10 15 15 15 5 0 9 -7 9
-15z m3655 -14 c-3 -6 -11 -8 -17 -5 -6 4 -5 9 3 15 16 10 23 4 14 -10z m87
-33 c-7 -7 -12 -8 -12 -2 0 14 12 26 19 19 2 -3 -1 -11 -7 -17z m-282 -28 c0
-5 -5 -10 -11 -10 -5 0 -7 5 -4 10 3 6 8 10 11 10 2 0 4 -4 4 -10z m-3510 -14
c0 -3 -4 -8 -10 -11 -5 -3 -10 -1 -10 4 0 6 5 11 10 11 6 0 10 -2 10 -4z m-48
-68 c-7 -7 -12 -8 -12 -2 0 14 12 26 19 19 2 -3 -1 -11 -7 -17z m-282 -198 c0
-5 -5 -10 -11 -10 -5 0 -7 5 -4 10 3 6 8 10 11 10 2 0 4 -4 4 -10z m1770 0 c0
-5 -4 -10 -10 -10 -5 0 -10 5 -10 10 0 6 5 10 10 10 6 0 10 -4 10 -10z m270
-19 c0 -6 -4 -13 -10 -16 -5 -3 -10 1 -10 9 0 9 5 16 10 16 6 0 10 -4 10 -9z
m-33 -63 c-3 -8 -6 -5 -6 6 -1 11 2 17 5 13 3 -3 4 -12 1 -19z m-457 -137 c0
-6 -4 -13 -10 -16 -5 -3 -10 1 -10 9 0 9 5 16 10 16 6 0 10 -4 10 -9z m387
-13 c-3 -8 -6 -5 -6 6 -1 11 2 17 5 13 3 -3 4 -12 1 -19z m-582 -147 c3 -5 1
-12 -5 -16 -5 -3 -10 1 -10 9 0 18 6 21 15 7z m195 -91 c0 -5 -4 -10 -10 -10
-5 0 -10 5 -10 10 0 6 5 10 10 10 6 0 10 -4 10 -10z m-216 -28 c2 -4 1 -14 -4
-21 -10 -17 -31 -5 -23 14 6 16 19 20 27 7z m193 -27 c-12 -25 -27 -33 -27
-14 0 6 5 19 11 30 15 28 29 14 16 -16z m-677 -306 c0 -5 -4 -9 -10 -9 -5 0
-10 7 -10 16 0 8 5 12 10 9 6 -3 10 -10 10 -16z m-90 -79 c0 -5 -2 -10 -4 -10
-3 0 -8 5 -11 10 -3 6 -1 10 4 10 6 0 11 -4 11 -10z m-80 -51 c0 -11 -27 -12
-34 0 -3 4 -3 11 0 14 8 8 34 -3 34 -14z m-70 -109 c0 -5 -4 -10 -10 -10 -5 0
-10 5 -10 10 0 6 5 10 10 10 6 0 10 -4 10 -10z m6450 6 c0 -3 -4 -8 -10 -11
-5 -3 -10 -1 -10 4 0 6 5 11 10 11 6 0 10 -2 10 -4z m-6499 -36 c6 0 7 -5 4
-10 -4 -6 -16 -8 -27 -4 -17 5 -19 3 -14 -14 8 -23 -11 -41 -20 -18 -8 22 15
59 33 52 8 -3 19 -6 24 -6z m6529 -85 c0 -8 -4 -15 -10 -15 -5 0 -10 7 -10 15
0 8 5 15 10 15 6 0 10 -7 10 -15z m30 -30 c0 -8 -6 -15 -12 -15 -7 0 -23 -3
-35 -6 -13 -4 -23 -2 -23 3 0 11 37 31 58 32 6 1 12 -6 12 -14z m-6682 -14 c3
-8 -1 -12 -9 -9 -7 2 -15 10 -17 17 -3 8 1 12 9 9 7 -2 15 -10 17 -17z m-74
-14 c-4 -12 -58 -37 -78 -37 -17 0 16 28 39 34 14 4 25 11 25 17 0 6 4 8 10 4
5 -3 7 -11 4 -18z m6706 -33 c0 -8 -4 -12 -10 -9 -5 3 -10 10 -10 16 0 5 5 9
10 9 6 0 10 -7 10 -16z m230 -14 c0 -5 -4 -10 -10 -10 -5 0 -10 5 -10 10 0 6
5 10 10 10 6 0 10 -4 10 -10z m-332 -22 c-4 -30 -71 -66 -125 -67 l-42 -1 26
40 c29 44 44 52 35 18 -6 -23 5 -20 40 10 9 7 21 11 27 8 5 -4 12 -2 16 4 11
18 26 10 23 -12z m-6648 -8 c0 -5 -4 -10 -9 -10 -6 0 -13 5 -16 10 -3 6 1 10
9 10 9 0 16 -4 16 -10z m300 -30 c0 -5 -4 -10 -10 -10 -5 0 -10 5 -10 10 0 6
5 10 10 10 6 0 10 -4 10 -10z m-338 -22 c-7 -7 -12 -8 -12 -2 0 6 3 14 7 17 3
4 9 5 12 2 2 -3 -1 -11 -7 -17z m188 3 c0 -6 -4 -13 -10 -16 -5 -3 -10 1 -10
9 0 9 5 16 10 16 6 0 10 -4 10 -9z m6540 -7 c0 -8 -5 -12 -10 -9 -6 4 -8 11
-5 16 9 14 15 11 15 -7z m-6772 -27 c3 -25 -5 -32 -30 -28 -5 0 -8 -3 -8 -8 0
-12 -57 -41 -64 -33 -13 12 -4 21 39 42 38 18 45 26 39 42 -4 15 -2 19 7 16 8
-3 15 -17 17 -31z m335 19 c4 -10 0 -12 -14 -9 -10 3 -19 1 -19 -5 0 -11 -49
-26 -57 -18 -6 6 58 46 73 46 7 0 14 -6 17 -14z m-193 -41 c0 -8 -7 -15 -15
-15 -26 0 -18 20 13 29 1 1 2 -6 2 -14z m88 -6 c-2 -6 -8 -10 -13 -10 -5 0
-11 4 -13 10 -2 6 4 11 13 11 9 0 15 -5 13 -11z m-328 -79 c12 -8 12 -10 -3
-16 -9 -3 -17 -12 -17 -19 0 -7 -7 -16 -16 -19 -12 -5 -15 -2 -9 11 4 10 10
26 12 36 6 19 12 21 33 7z m40 -26 c0 -8 -5 -12 -10 -9 -6 4 -8 11 -5 16 9 14
15 11 15 -7z m280 12 c0 -3 -4 -8 -10 -11 -5 -3 -10 -1 -10 4 0 6 5 11 10 11
6 0 10 -2 10 -4z m-420 -35 c0 -12 -28 -22 -34 -12 -3 5 -3 11 1 15 9 9 33 7
33 -3z m6600 -17 c0 -9 -5 -14 -12 -12 -18 6 -21 28 -4 28 9 0 16 -7 16 -16z
m-6566 -18 c-6 -16 -24 -23 -24 -8 0 10 22 33 27 28 2 -2 1 -11 -3 -20z m246
3 c0 -11 -4 -18 -9 -15 -5 3 -14 0 -20 -8 -9 -11 -9 -15 1 -19 10 -3 8 -9 -6
-23 -18 -18 -19 -18 -12 -1 4 14 2 18 -12 15 -11 -2 -17 -13 -17 -32 -1 -15
-11 -39 -24 -52 -21 -21 -21 -25 -6 -30 17 -7 38 13 30 27 -3 4 13 18 35 33
28 18 40 22 40 12 0 -7 -7 -19 -15 -26 -8 -7 -15 -18 -15 -25 0 -7 -7 -18 -16
-26 -14 -12 -14 -14 2 -26 16 -12 14 -13 -15 -13 -30 0 -81 -38 -81 -61 0 -5
-10 -9 -22 -9 -22 0 -22 1 5 25 28 27 35 63 15 83 -9 9 -7 20 8 47 10 19 24
35 31 35 7 0 13 7 13 15 0 16 69 95 83 95 4 0 7 -9 7 -21z m6290 -14 c10 -12
10 -15 -4 -15 -9 0 -16 7 -16 15 0 8 2 15 4 15 2 0 9 -7 16 -15z m-6610 -4 c0
-13 -29 -35 -37 -28 -7 8 15 37 28 37 5 0 9 -4 9 -9z m-45 -79 c0 -18 -20 -15
-23 4 -3 10 1 15 10 12 7 -3 13 -10 13 -16z m-1395 -22 c0 -5 -4 -10 -10 -10
-5 0 -10 5 -10 10 0 6 5 10 10 10 6 0 10 -4 10 -10z m1330 -26 c0 -8 -5 -12
-10 -9 -6 4 -8 11 -5 16 9 14 15 11 15 -7z m52 1 c0 -5 -5 -11 -11 -13 -6 -2
-11 4 -11 13 0 9 5 15 11 13 6 -2 11 -8 11 -13z m198 -20 c14 -16 10 -18 -14
-9 -9 3 -16 10 -16 15 0 14 16 11 30 -6z m-1485 -16 c11 -17 -1 -21 -15 -4 -8
9 -8 15 -2 15 6 0 14 -5 17 -11z m1467 -51 c-8 -8 -9 -4 -5 13 4 13 8 18 11
10 2 -7 -1 -18 -6 -23z m-57 13 c3 -5 1 -12 -5 -16 -5 -3 -10 1 -10 9 0 18 6
21 15 7z m6405 -66 c0 -12 -7 -25 -15 -28 -17 -7 -30 9 -15 18 5 3 10 15 10
26 0 11 5 17 10 14 6 -3 10 -17 10 -30z m-6390 -14 c0 -10 -24 -21 -47 -21
-13 0 -13 3 -3 15 13 16 50 21 50 6z m30 -36 c0 -8 -7 -15 -15 -15 -16 0 -20
12 -8 23 11 12 23 8 23 -8z m-90 -14 c0 -10 -13 -33 -30 -51 -16 -18 -30 -35
-30 -40 0 -11 -40 -44 -46 -37 -7 6 22 51 70 109 37 43 36 43 36 19z m6370
-27 c0 -8 -5 -12 -10 -9 -6 4 -8 11 -5 16 9 14 15 11 15 -7z m48 -15 c-2 -6
-8 -10 -13 -10 -5 0 -11 4 -13 10 -2 6 4 11 13 11 9 0 15 -5 13 -11z m-7322
-26 c-10 -10 -19 5 -10 18 6 11 8 11 12 0 2 -7 1 -15 -2 -18z m944 7 c0 -5 -7
-10 -15 -10 -8 0 -15 5 -15 10 0 6 7 10 15 10 8 0 15 -4 15 -10z m5747 -38
c-10 -10 -17 -26 -17 -34 0 -15 -28 -33 -37 -24 -8 7 26 65 44 75 25 13 29 5
10 -17z m-84 -10 c-6 -24 -23 -30 -23 -9 0 13 21 39 26 34 2 -2 1 -13 -3 -25z
m-6603 8 c0 -5 -4 -10 -10 -10 -5 0 -10 5 -10 10 0 6 5 10 10 10 6 0 10 -4 10
-10z m1014 -15 c-7 -17 -20 -20 -28 -6 -7 10 3 21 20 21 8 0 11 -6 8 -15z
m5956 5 c0 -5 -5 -10 -11 -10 -5 0 -7 5 -4 10 3 6 8 10 11 10 2 0 4 -4 4 -10z
m-7031 -13 c6 -8 8 -16 5 -20 -10 -9 -34 4 -34 19 0 18 14 18 29 1z m941 -18
c0 -24 -23 -21 -28 4 -2 10 3 17 12 17 10 0 16 -9 16 -21z m-35 -29 c3 -5 1
-10 -4 -10 -6 0 -11 5 -11 10 0 6 2 10 4 10 3 0 8 -4 11 -10z m5855 6 c0 -3
-4 -8 -10 -11 -5 -3 -10 -1 -10 4 0 6 5 11 10 11 6 0 10 -2 10 -4z m-164 -37
c-3 -16 -13 -37 -21 -45 -8 -9 -15 -24 -15 -35 0 -25 -26 -25 -33 1 -7 27 -20
25 -34 -6 -12 -27 -8 -80 9 -101 7 -8 5 -18 -6 -28 -14 -15 -16 -15 -16 -1 0
25 -19 18 -26 -9 -3 -14 -11 -25 -18 -25 -12 0 -36 -66 -36 -101 0 -11 -12
-33 -27 -48 -16 -15 -34 -40 -42 -54 -31 -59 -47 -17 -16 44 12 24 32 64 45
89 13 25 38 65 56 89 26 34 34 54 34 86 0 32 6 47 28 67 15 14 35 28 46 32 10
3 16 12 13 20 -8 20 21 56 45 56 18 0 20 -4 14 -31z m-7626 -14 c0 -16 -6 -25
-15 -25 -8 0 -15 -7 -15 -15 0 -8 -4 -15 -10 -15 -12 0 -13 5 -1 28 5 9 12 25
15 35 8 26 26 21 26 -8z m7678 0 c-3 -3 -9 2 -12 12 -6 14 -5 15 5 6 7 -7 10
-15 7 -18z m308 -2 c-10 -10 -19 5 -10 18 6 11 8 11 12 0 2 -7 1 -15 -2 -18z
m-450 -10 c-10 -10 -19 5 -10 18 6 11 8 11 12 0 2 -7 1 -15 -2 -18z m854 17
c0 -5 -6 -13 -14 -17 -8 -4 -16 -17 -18 -28 -5 -19 -5 -19 -13 -2 -5 12 -1 24
10 37 19 21 35 26 35 10z m-655 -29 c-7 -23 -25 -29 -25 -8 0 14 21 39 28 33
2 -3 1 -14 -3 -25z m155 19 c0 -5 -9 -10 -21 -10 -11 0 -17 5 -14 10 3 6 13
10 21 10 8 0 14 -4 14 -10z m270 -10 c0 -11 -7 -20 -15 -20 -18 0 -19 12 -3
28 16 16 18 15 18 -8z m-506 -51 c-23 -26 -30 -16 -14 22 11 26 15 28 22 14 7
-12 5 -22 -8 -36z m666 41 c0 -5 -5 -10 -11 -10 -5 0 -7 5 -4 10 3 6 8 10 11
10 2 0 4 -4 4 -10z m-7222 -67 c-6 -7 -17 -13 -24 -13 -17 0 -18 -12 -2 -28 6
-6 9 -15 5 -19 -4 -4 -13 -1 -19 5 -9 9 -15 5 -24 -18 -9 -20 -20 -30 -34 -30
-20 0 -20 2 9 39 17 21 31 43 31 49 0 5 7 15 15 22 8 7 15 21 15 32 0 19 1 19
19 -3 14 -17 16 -28 9 -36z m1126 29 c-13 -10 -15 -16 -6 -19 13 -5 17 -33 4
-33 -4 0 -14 -16 -21 -35 -9 -26 -29 -46 -82 -80 -38 -25 -81 -45 -95 -45 -24
0 -24 1 -8 25 9 14 26 25 37 25 20 0 20 0 1 14 -19 14 -19 15 1 22 28 10 61
48 72 80 12 35 40 55 52 36 6 -10 12 -7 25 13 9 14 22 23 28 19 7 -5 5 -12 -8
-22z m5626 13 c0 -8 -4 -15 -10 -15 -5 0 -10 7 -10 15 0 8 5 15 10 15 6 0 10
-7 10 -15z m85 -15 c-20 -22 -31 -20 -22 5 4 8 14 15 23 15 16 0 16 -2 -1 -20z
m395 -6 c0 -8 -5 -12 -10 -9 -6 4 -8 11 -5 16 9 14 15 11 15 -7z m190 12 c0
-2 -7 -9 -15 -16 -12 -10 -15 -10 -15 4 0 9 7 16 15 16 8 0 15 -2 15 -4z
m-400 -16 c0 -5 -7 -10 -16 -10 -8 0 -12 5 -9 10 3 6 10 10 16 10 5 0 9 -4 9
-10z m186 -43 c12 -49 10 -57 -15 -57 -13 0 -16 12 -18 56 -2 67 16 68 33 1z
m256 25 c-2 -16 1 -20 11 -16 26 9 26 -10 2 -39 -28 -32 -41 -34 -48 -7 -8 30
-23 24 -33 -12 -5 -17 -16 -34 -23 -36 -11 -4 -12 0 -6 14 5 11 9 36 10 56 0
31 3 37 17 32 10 -3 24 3 35 16 21 25 39 21 35 -8z m-952 -17 c-8 -9 -15 -36
-16 -61 -3 -47 -9 -64 -25 -64 -14 0 -11 26 6 40 8 7 15 16 15 21 0 5 -7 9
-15 9 -8 0 -15 9 -15 20 0 11 -7 23 -15 26 -8 4 -15 14 -15 23 1 14 2 14 14
-1 20 -26 56 -23 56 4 0 17 3 19 12 10 8 -8 8 -15 -2 -27z m580 30 c0 -8 -43
-55 -50 -55 -10 0 -6 44 5 52 11 9 45 11 45 3z m-304 -41 c-4 -9 -9 -15 -11
-12 -3 3 -3 13 1 22 4 9 9 15 11 12 3 -3 3 -13 -1 -22z m-7936 2 c0 -3 -4 -8
-10 -11 -5 -3 -10 -1 -10 4 0 6 5 11 10 11 6 0 10 -2 10 -4z m7734 -4 c3 -5
-4 -16 -15 -25 -18 -16 -19 -16 -19 1 0 28 22 43 34 24z m546 -6 c0 -3 -4 -8
-10 -11 -5 -3 -10 -1 -10 4 0 6 5 11 10 11 6 0 10 -2 10 -4z m-188 -24 c-15
-5 -16 -48 -2 -57 13 -8 13 -35 1 -35 -5 0 -13 10 -17 23 -4 12 -11 25 -17 28
-12 9 24 59 38 51 5 -3 4 -7 -3 -10z m59 5 c-1 -12 -15 -9 -19 4 -3 6 1 10 8
8 6 -3 11 -8 11 -12z m-322 -24 c0 -25 -1 -26 -9 -8 -12 27 -12 35 0 35 6 0
10 -12 9 -27z m81 1 c0 -9 -13 -32 -30 -51 -16 -18 -30 -40 -30 -48 0 -8 -4
-15 -10 -15 -18 0 -10 26 20 66 16 21 30 45 30 52 0 18 20 15 20 -4z m-230
-39 c0 -8 -4 -15 -10 -15 -5 0 -7 7 -4 15 4 8 8 15 10 15 2 0 4 -7 4 -15z
m300 6 c0 -5 -6 -14 -14 -20 -12 -10 -13 -8 -9 8 5 21 23 30 23 12z m180 -7
c0 -8 -4 -12 -10 -9 -5 3 -10 10 -10 16 0 5 5 9 10 9 6 0 10 -7 10 -16z
m-7820 -13 c0 -6 -4 -13 -10 -16 -5 -3 -10 1 -10 9 0 9 5 16 10 16 6 0 10 -4
10 -9z m1900 -37 c0 -7 -9 -18 -20 -24 -11 -6 -28 -27 -37 -48 -15 -33 -17
-35 -20 -14 -3 13 1 30 8 38 6 8 9 17 6 21 -4 3 3 19 14 35 17 23 24 26 35 17
8 -6 14 -17 14 -25z m5828 13 c2 -10 -3 -17 -12 -17 -10 0 -16 9 -16 21 0 24
23 21 28 -4z m-528 -17 c0 -5 -4 -10 -10 -10 -5 0 -10 5 -10 10 0 6 5 10 10
10 6 0 10 -4 10 -10z m590 -10 c0 -5 -2 -10 -4 -10 -3 0 -8 5 -11 10 -3 6 -1
10 4 10 6 0 11 -4 11 -10z m-7120 -16 c0 -8 -4 -12 -10 -9 -5 3 -10 10 -10 16
0 5 5 9 10 9 6 0 10 -7 10 -16z m-30 -4 c0 -5 -5 -10 -11 -10 -5 0 -7 5 -4 10
3 6 8 10 11 10 2 0 4 -4 4 -10z m324 -16 c8 -21 8 -24 -3 -24 -5 0 -11 9 -14
20 -6 24 8 27 17 4z m6994 -6 c-2 -13 -11 -24 -23 -27 -19 -3 -19 -3 -2 16 9
11 14 23 10 26 -3 4 -1 7 6 7 7 0 11 -10 9 -22z m-668 -2 c0 -18 -37 -63 -45
-54 -8 8 22 68 35 68 6 0 10 -6 10 -14z m152 -8 c-7 -7 -12 -8 -12 -2 0 14 12
26 19 19 2 -3 -1 -11 -7 -17z m240 -3 c5 -26 1 -30 -20 -17 -7 5 -10 16 -6 25
9 24 21 21 26 -8z m429 -8 c-10 -9 -11 -8 -5 6 3 10 9 15 12 12 3 -3 0 -11 -7
-18z m-381 -7 c0 -5 -4 -10 -10 -10 -5 0 -10 5 -10 10 0 6 5 10 10 10 6 0 10
-4 10 -10z m120 -27 c0 -6 3 -18 6 -27 5 -12 0 -16 -19 -16 -14 0 -32 3 -41 6
-23 9 -20 26 4 19 16 -5 20 -2 20 14 0 14 -5 19 -15 15 -14 -6 -21 7 -10 18 9
9 55 -16 55 -29z m60 17 c0 -5 -6 -10 -14 -10 -8 0 -18 5 -21 10 -3 6 3 10 14
10 12 0 21 -4 21 -10z m-740 -56 c-13 -13 -30 -24 -38 -24 -12 0 -10 6 7 24
12 13 21 27 20 32 -4 21 2 24 17 9 15 -15 15 -18 -6 -41z m-5410 21 c0 -8 5
-15 11 -15 5 0 9 -8 8 -17 -3 -34 1 -43 19 -43 16 -1 16 -1 0 -11 -10 -5 -15
-16 -11 -24 3 -9 0 -22 -7 -30 -7 -9 -10 -29 -7 -49 4 -23 0 -42 -13 -61 -12
-19 -17 -40 -14 -63 4 -30 2 -33 -11 -22 -9 7 -13 21 -10 31 8 26 -10 24 -29
-2 -9 -14 -13 -33 -9 -50 6 -32 10 -30 -82 -33 -32 -1 -40 -5 -39 -18 2 -21
-7 -23 -23 -7 -9 9 -17 3 -33 -25 -12 -20 -25 -36 -28 -36 -13 -1 -74 -62 -68
-68 4 -3 12 0 18 6 27 27 30 10 3 -18 -16 -16 -34 -30 -41 -30 -22 0 -27 -21
-8 -34 16 -12 14 -14 -14 -24 -18 -6 -32 -16 -32 -21 0 -6 -7 -11 -15 -11 -8
0 -15 7 -15 16 0 25 51 84 72 84 15 0 19 6 16 24 -3 23 39 92 107 174 32 39
60 91 56 106 -4 17 11 47 54 102 25 31 47 65 50 75 4 11 17 22 31 25 27 7 44
31 44 63 0 12 5 21 10 21 6 0 10 -7 10 -15z m65 -32 c-7 -17 -8 -17 -15 2 -5
11 -9 27 -9 35 -1 12 2 11 15 -2 11 -11 14 -23 9 -35z m138 22 c-5 -13 -23
-22 -23 -11 0 15 14 35 21 31 4 -3 6 -12 2 -20z m-51 -7 c-7 -7 -12 -8 -12 -2
0 6 3 14 7 17 3 4 9 5 12 2 2 -3 -1 -11 -7 -17z m5328 7 c0 -8 -7 -15 -15 -15
-9 0 -12 6 -9 15 4 8 10 15 15 15 5 0 9 -7 9 -15z m-5550 -7 c0 -7 -5 -20 -10
-28 -8 -12 -10 -9 -10 13 0 15 5 27 10 27 6 0 10 -6 10 -12z m-2290 -30 c0
-18 -2 -20 -9 -8 -6 8 -7 18 -5 22 9 14 14 9 14 -14z m7960 6 c0 -8 -4 -12
-10 -9 -5 3 -10 10 -10 16 0 5 5 9 10 9 6 0 10 -7 10 -16z m-8067 -24 c10 -17
13 -30 8 -30 -6 0 -11 7 -11 15 0 9 -7 18 -15 21 -8 4 -15 10 -15 15 0 18 16
8 33 -21z m1167 20 c0 -5 -4 -10 -10 -10 -5 0 -10 5 -10 10 0 6 5 10 10 10 6
0 10 -4 10 -10z m7120 -22 c0 -13 -23 -5 -28 10 -2 7 2 10 12 6 9 -3 16 -11
16 -16z m235 12 c3 -5 1 -10 -4 -10 -6 0 -11 5 -11 10 0 6 2 10 4 10 3 0 8 -4
11 -10z m-8085 -10 c0 -5 -5 -10 -11 -10 -5 0 -7 5 -4 10 3 6 8 10 11 10 2 0
4 -4 4 -10z m7608 -2 c-6 -18 -28 -21 -28 -4 0 9 7 16 16 16 9 0 14 -5 12 -12z
m-7948 -18 c0 -5 -5 -12 -11 -16 -12 -7 -31 15 -23 28 6 9 34 -1 34 -12z
m7767 7 c-6 -18 -33 -31 -52 -23 -12 4 -14 10 -7 19 13 15 64 19 59 4z m-7267
-22 c-7 -9 -15 -13 -17 -11 -7 7 7 26 19 26 6 0 6 -6 -2 -15z m-125 -4 c3 -5
1 -12 -5 -16 -5 -3 -10 1 -10 9 0 18 6 21 15 7z m7239 -32 c-23 -26 -34 -24
-34 7 0 19 4 25 15 21 8 -4 18 -1 22 5 5 9 8 9 11 -1 2 -6 -4 -21 -14 -32z
m-6627 4 c-15 -16 -17 -16 -17 -1 0 9 6 18 13 21 20 7 22 -2 4 -20z m-977 8
c0 -4 -9 -20 -20 -34 -11 -14 -20 -30 -20 -37 0 -6 -4 -8 -10 -5 -16 10 -12
30 11 59 20 26 39 34 39 17z m400 4 c0 -7 -39 -45 -45 -45 -9 0 29 49 38 50 4
0 7 -2 7 -5z m-515 -25 c20 -23 13 -39 -9 -21 -19 16 -23 5 -21 -56 2 -53 -8
-70 -20 -33 -8 24 -30 26 -39 4 -3 -8 -10 -12 -16 -9 -19 12 -10 45 19 66 16
11 35 32 42 45 15 29 21 30 44 4z m255 10 c0 -5 -4 -10 -10 -10 -5 0 -10 5
-10 10 0 6 5 10 10 10 6 0 10 -4 10 -10z m7570 -10 c0 -11 -4 -20 -9 -20 -11
0 -22 26 -14 34 12 12 23 5 23 -14z m393 -5 c26 25 31 12 10 -25 -10 -18 -22
-41 -28 -51 -5 -11 -13 -19 -17 -19 -5 0 -8 -7 -8 -15 0 -7 -6 -18 -12 -22
-16 -10 -35 -39 -49 -75 -6 -16 -15 -28 -20 -28 -6 0 -16 -15 -24 -33 -8 -19
-21 -39 -29 -47 -9 -7 -16 -17 -16 -22 0 -15 -64 -72 -68 -60 -4 13 -52 2 -53
-12 0 -6 -23 -30 -50 -53 -48 -42 -81 -53 -94 -33 -3 6 0 10 8 10 9 0 17 14
21 36 4 19 13 37 21 40 7 3 15 14 18 25 5 19 27 27 27 9 0 -5 7 -10 15 -10 11
0 14 7 9 24 -6 26 25 56 58 56 16 0 24 24 20 61 -1 3 9 15 21 26 12 12 51 49
87 83 36 35 75 69 86 77 12 8 25 30 29 51 7 33 9 35 14 13 6 -23 7 -23 24 -6z
m194 -7 c-3 -8 -6 -5 -6 6 -1 11 2 17 5 13 3 -3 4 -12 1 -19z m-8213 -27 c3
-5 -1 -11 -9 -15 -9 -3 -15 0 -15 9 0 16 16 20 24 6z m7601 0 c3 -5 1 -12 -5
-16 -5 -3 -10 1 -10 9 0 18 6 21 15 7z m-7265 -8 c0 -5 -9 -19 -20 -33 -11
-14 -20 -31 -20 -38 0 -7 -13 -15 -29 -18 -16 -4 -39 -15 -51 -26 -33 -31 -33
-16 1 25 17 21 35 35 40 32 5 -4 14 -3 21 1 8 5 6 11 -7 20 -17 13 -17 14 1
19 10 4 26 10 34 15 19 11 30 12 30 3z m6560 3 c0 -3 -4 -8 -10 -11 -5 -3 -10
-1 -10 4 0 6 5 11 10 11 6 0 10 -2 10 -4z m1180 0 c0 -3 -4 -8 -10 -11 -5 -3
-10 -1 -10 4 0 6 5 11 10 11 6 0 10 -2 10 -4z m-8055 -39 c-11 -43 -30 -51
-49 -23 -10 15 -12 27 -6 31 6 3 10 -1 10 -9 0 -25 19 -19 32 9 14 31 21 26
13 -8z m8256 10 c-13 -13 -26 -3 -16 12 3 6 11 8 17 5 6 -4 6 -10 -1 -17z
m-761 -7 c0 -5 -2 -10 -4 -10 -3 0 -8 5 -11 10 -3 6 -1 10 4 10 6 0 11 -4 11
-10z m44 -5 c-4 -8 -12 -15 -20 -15 -17 0 -18 17 -1 23 22 9 27 7 21 -8z
m-7734 -15 c0 -11 -4 -20 -10 -20 -5 0 -10 2 -10 4 0 2 -3 11 -6 20 -4 11 -1
16 10 16 9 0 16 -8 16 -20z m2486 -27 c-30 -32 -33 -26 -10 19 11 21 19 27 26
20 7 -7 2 -19 -16 -39z m6208 12 c-17 -26 -24 -31 -24 -16 0 10 28 41 36 41 2
0 -3 -11 -12 -25z m-184 -11 c0 -8 -4 -14 -10 -14 -5 0 -10 9 -10 21 0 11 5
17 10 14 6 -3 10 -13 10 -21z m-8465 6 c3 -5 1 -10 -4 -10 -6 0 -11 5 -11 10
0 6 2 10 4 10 3 0 8 -4 11 -10z m8565 -10 c0 -5 -5 -10 -11 -10 -5 0 -7 5 -4
10 3 6 8 10 11 10 2 0 4 -4 4 -10z m-1020 -10 c0 -5 -5 -10 -11 -10 -5 0 -7 5
-4 10 3 6 8 10 11 10 2 0 4 -4 4 -10z m-7120 -25 c-7 -8 -10 -21 -7 -29 4 -9
0 -12 -13 -9 -13 4 -23 -4 -36 -29 -9 -18 -19 -27 -21 -20 -5 13 76 116 85
108 3 -3 -1 -12 -8 -21z m8006 -12 c-11 -11 -19 6 -11 24 8 17 8 17 12 0 3
-10 2 -21 -1 -24z m-1590 -30 c-10 -10 -19 5 -10 18 6 11 8 11 12 0 2 -7 1
-15 -2 -18z m48 -2 c3 -5 -1 -14 -8 -20 -12 -10 -13 -8 -9 8 6 23 9 25 17 12z
m-81 -47 c-3 -9 -23 -35 -44 -58 -22 -22 -39 -44 -39 -48 0 -5 -7 -8 -15 -8
-8 0 -15 3 -15 6 0 12 66 84 78 84 6 0 12 9 12 20 0 11 7 20 15 20 9 0 12 -6
8 -16z m-4530 -38 c-4 -5 -12 -1 -19 9 -7 10 -11 22 -8 27 3 5 12 1 19 -9 7
-10 11 -22 8 -27z m-63 -4 c0 -10 -22 -32 -32 -32 -5 0 -3 9 4 20 13 20 28 27
28 12z m-2150 -22 c0 -5 -4 -10 -10 -10 -5 0 -10 5 -10 10 0 6 5 10 10 10 6 0
10 -4 10 -10z m7485 -20 c3 -5 1 -10 -4 -10 -6 0 -11 5 -11 10 0 6 2 10 4 10
3 0 8 -4 11 -10z m-4487 -60 c-15 -12 -24 -14 -27 -7 -2 6 1 13 8 15 6 2 11 9
11 16 0 7 6 18 13 25 10 10 13 8 15 -9 2 -12 -6 -28 -20 -40z m5406 51 c3 -4
-3 -16 -13 -25 -22 -20 -40 -4 -21 19 14 17 26 19 34 6z m-6324 -11 c0 -5 -4
-10 -10 -10 -5 0 -10 5 -10 10 0 6 5 10 10 10 6 0 10 -4 10 -10z m18 -22 c-3
-7 -13 -15 -24 -17 -16 -3 -17 -1 -5 13 16 19 34 21 29 4z m-2118 -2 c0 -3 -4
-8 -10 -11 -5 -3 -10 -1 -10 4 0 6 5 11 10 11 6 0 10 -2 10 -4z m8370 -11 c0
-8 -4 -15 -10 -15 -5 0 -10 7 -10 15 0 8 5 15 10 15 6 0 10 -7 10 -15z m-6240
-29 c0 -2 -7 -9 -15 -16 -12 -10 -15 -10 -15 4 0 9 7 16 15 16 8 0 15 -2 15
-4z m790 -26 c-32 -28 -38 -25 -10 5 13 14 26 23 28 20 3 -3 -5 -14 -18 -25z
m-50 -19 c0 -12 -20 -25 -27 -18 -7 7 6 27 18 27 5 0 9 -4 9 -9z m-830 -26 c0
-8 -4 -15 -9 -15 -13 0 -22 16 -14 24 11 11 23 6 23 -9z m-40 -26 c0 -5 -4 -9
-10 -9 -5 0 -10 7 -10 16 0 8 5 12 10 9 6 -3 10 -10 10 -16z m5665 -31 c-8
-24 -32 -55 -38 -47 -10 11 15 69 29 69 11 0 14 -6 9 -22z m-5768 -8 c8 -12 9
-21 3 -25 -15 -9 -30 4 -30 26 0 24 12 24 27 -1z m5590 -5 c-4 -8 -14 -15 -23
-15 -16 0 -16 2 1 20 20 22 31 20 22 -5z m98 5 c4 -6 1 -17 -5 -25 -16 -19 -3
-37 22 -29 16 5 19 2 16 -13 -2 -11 -12 -18 -25 -18 -12 0 -25 -3 -29 -7 -14
-15 -19 -8 -20 27 0 19 4 35 8 35 5 0 6 9 3 20 -4 14 -2 20 9 20 8 0 18 -5 21
-10z m-4818 -6 c-3 -3 -12 -4 -19 -1 -8 3 -5 6 6 6 11 1 17 -2 13 -5z m3833
-14 c0 -5 -4 -10 -10 -10 -5 0 -10 5 -10 10 0 6 5 10 10 10 6 0 10 -4 10 -10z
m-4757 -37 c3 -16 5 -29 4 -29 -1 -1 -12 -5 -24 -8 -19 -6 -23 -4 -23 16 0 23
16 48 31 48 4 0 9 -12 12 -27z m5947 17 c0 -5 -7 -10 -15 -10 -8 0 -15 5 -15
10 0 6 7 10 15 10 8 0 15 -4 15 -10z m-260 -20 c0 -5 -7 -10 -16 -10 -8 0 -12
5 -9 10 3 6 10 10 16 10 5 0 9 -4 9 -10z m-4880 -20 c0 -5 -9 -14 -20 -20 -22
-12 -27 -1 -8 18 14 14 28 16 28 2z m5097 -12 c-3 -8 -6 -5 -6 6 -1 11 2 17 5
13 3 -3 4 -12 1 -19z m-257 7 c0 -2 -9 -9 -20 -15 -12 -6 -20 -7 -20 -1 0 5 8
12 18 14 9 3 18 5 20 6 1 0 2 -1 2 -4z m-5710 -21 c0 -8 5 -12 10 -9 6 3 10 2
10 -4 0 -15 -36 -32 -54 -25 -12 4 -16 0 -16 -15 0 -12 -4 -21 -10 -21 -19 0
-10 30 15 46 14 9 25 23 25 30 0 8 5 14 10 14 6 0 10 -7 10 -16z m5780 -19 c0
-8 -7 -15 -15 -15 -8 0 -15 7 -15 15 0 8 7 15 15 15 8 0 15 -7 15 -15z m160 8
c0 -5 -5 -15 -10 -23 -8 -12 -10 -11 -10 8 0 12 5 22 10 22 6 0 10 -3 10 -7z
m-225 -13 c3 -5 -3 -10 -15 -10 -12 0 -18 5 -15 10 3 6 10 10 15 10 5 0 12 -4
15 -10z m-245 -20 c0 -5 -5 -10 -11 -10 -5 0 -7 5 -4 10 3 6 8 10 11 10 2 0 4
-4 4 -10z m198 -34 c-2 -12 -6 -13 -21 -1 -17 12 -17 13 0 31 17 16 18 16 21
1 2 -9 2 -23 0 -31z m204 -28 c-9 -9 -12 -7 -12 12 0 19 3 21 12 12 9 -9 9
-15 0 -24z m-262 6 c0 -8 -5 -12 -10 -9 -6 4 -8 11 -5 16 9 14 15 11 15 -7z
m-40 -28 c-5 -15 -14 -25 -20 -21 -10 6 -2 36 14 47 16 11 18 3 6 -26z m204 8
c-4 -17 -2 -29 7 -35 10 -6 6 -9 -13 -9 -30 0 -36 17 -18 51 16 28 32 23 24
-7z m-4624 -34 c0 -12 -76 -47 -171 -80 -35 -12 -83 -30 -105 -42 -23 -11 -50
-18 -60 -16 -23 4 48 52 105 70 23 7 41 16 41 20 0 5 9 8 19 8 11 0 23 5 26
10 4 6 14 10 23 9 21 -3 73 18 70 28 0 5 2 16 7 26 7 17 9 17 26 -2 11 -11 19
-25 19 -31z m4544 -38 c-29 -27 -29 -27 1 35 19 38 20 39 23 15 3 -17 -5 -33
-24 -50z m176 23 c-17 -20 -50 -38 -50 -28 0 19 44 63 54 53 6 -6 4 -15 -4
-25z m-6070 -19 c0 -8 -4 -17 -9 -20 -10 -7 -23 19 -14 28 11 11 23 6 23 -8z
m6091 -18 c-4 -12 -13 -24 -19 -26 -7 -2 -7 5 1 22 15 32 30 35 18 4z m-181
-32 c0 -9 -7 -12 -20 -9 -11 3 -17 9 -14 14 8 14 34 10 34 -5z m-1210 0 c0 -9
-73 -76 -78 -72 -8 9 28 56 43 56 8 0 15 5 15 10 0 6 5 10 10 10 6 0 10 -2 10
-4z m1160 -15 c0 -12 -20 -25 -27 -18 -7 7 6 27 18 27 5 0 9 -4 9 -9z m90 -28
c0 -18 -77 -80 -87 -70 -8 8 60 87 75 87 6 0 12 -8 12 -17z m-1220 -8 c10 -13
9 -15 -9 -15 -23 0 -29 -16 -8 -23 9 -4 9 -7 0 -18 -19 -19 -26 -5 -19 36 7
38 17 43 36 20z m1107 -22 c-3 -15 -1 -35 4 -45 5 -9 6 -24 3 -32 -7 -19 -28
-22 -22 -4 3 7 -7 23 -20 35 -22 20 -23 25 -11 40 32 41 53 44 46 6z m440 -25
c-3 -7 -5 -2 -5 12 0 14 2 19 5 13 2 -7 2 -19 0 -25z m-6471 -15 c-11 -11 -17
4 -9 23 7 18 8 18 11 1 2 -10 1 -21 -2 -24z m274 17 c0 -5 -5 -10 -11 -10 -5
0 -7 5 -4 10 3 6 8 10 11 10 2 0 4 -4 4 -10z m4036 -5 c10 -8 31 -15 46 -15
36 0 41 -12 28 -60 -12 -45 -30 -54 -30 -15 0 14 -4 25 -10 25 -5 0 -10 -7
-10 -15 0 -24 -18 -17 -22 8 -2 17 -9 21 -29 19 -18 -2 -28 3 -33 15 -3 10 -9
23 -12 30 -5 10 11 19 42 22 5 0 19 -6 30 -14z m501 6 c20 17 16 -6 -5 -24
-21 -19 -32 -13 -32 17 0 15 3 17 12 8 8 -8 15 -9 25 -1z m1519 -13 c11 -26 7
-68 -7 -68 -5 0 -9 10 -9 23 0 12 -4 29 -9 37 -10 15 -6 30 8 30 4 0 12 -10
17 -22z m-1456 -4 c0 -4 -8 -13 -17 -20 -17 -12 -17 -13 0 -19 9 -4 17 -14 17
-22 0 -8 -6 -13 -13 -10 -9 3 -13 -6 -14 -30 -1 -20 -10 -44 -22 -57 -12 -12
-21 -29 -21 -38 0 -8 -8 -26 -18 -39 -10 -13 -22 -33 -26 -43 -6 -18 -13 -20
-15 -4 -1 5 -10 23 -20 41 l-19 34 30 46 c24 37 27 49 19 66 -14 25 -14 41 0
41 16 0 48 -42 49 -62 0 -15 20 -28 20 -14 0 2 3 11 6 20 4 11 1 16 -10 16
-24 0 -19 34 10 69 24 29 44 40 44 25z m1260 -2 c0 -5 -9 -17 -20 -27 -16 -14
-20 -15 -20 -4 0 16 19 39 32 39 4 0 8 -4 8 -8z m-200 -22 c0 -5 -5 -10 -11
-10 -5 0 -7 5 -4 10 3 6 8 10 11 10 2 0 4 -4 4 -10z m347 -52 c-3 -8 -6 -5 -6
6 -1 11 2 17 5 13 3 -3 4 -12 1 -19z m-297 1 c0 -6 7 -9 15 -5 8 3 15 1 15 -4
0 -11 -13 -14 -45 -10 -27 3 -32 9 -15 20 20 13 30 12 30 -1z m-1710 -9 c0 -5
-4 -10 -10 -10 -5 0 -10 5 -10 10 0 6 5 10 10 10 6 0 10 -4 10 -10z m1938 -28
c2 -7 -3 -12 -12 -12 -9 0 -16 7 -16 16 0 17 22 14 28 -4z m-2138 -168 c0 -8
-5 -12 -10 -9 -6 4 -8 11 -5 16 9 14 15 11 15 -7z m666 -43 c-8 -13 -36 -15
-36 -3 0 4 5 13 12 20 14 14 34 0 24 -17z m1104 13 c0 -8 -5 -12 -10 -9 -6 4
-8 11 -5 16 9 14 15 11 15 -7z m-6056 -41 c-16 -13 -35 -28 -42 -34 -11 -9
-13 -6 -10 12 2 14 11 25 23 28 11 2 24 10 28 17 5 8 13 11 19 8 7 -5 0 -16
-18 -31z m4895 11 c17 -12 20 -19 11 -28 -8 -8 -14 -7 -21 7 -15 26 -32 21
-26 -9 5 -30 -15 -43 -38 -24 -19 16 -19 40 -1 40 7 0 19 7 26 15 16 19 20 19
49 -1z m-4979 -44 c0 -11 -6 -20 -13 -20 -19 0 -27 10 -20 26 8 21 33 17 33
-6z m40 -27 c0 -5 -5 -15 -10 -23 -8 -12 -10 -11 -10 8 0 12 5 22 10 22 6 0
10 -3 10 -7z m4937 1 c-3 -3 -12 -4 -19 -1 -8 3 -5 6 6 6 11 1 17 -2 13 -5z
m-5167 -12 c0 -14 -11 -21 -26 -15 -21 8 -17 23 6 23 11 0 20 -4 20 -8z m166
-18 c38 -18 39 -21 20 -47 -9 -11 -20 -15 -32 -11 -16 6 -17 5 -6 -7 18 -20
16 -89 -4 -89 -8 0 -12 4 -9 10 3 5 -2 22 -12 37 -11 16 -24 37 -29 48 -12 21
-54 34 -54 16 0 -6 7 -8 15 -5 11 5 17 -3 21 -25 4 -18 15 -36 25 -42 18 -9
18 -11 -3 -39 -16 -22 -27 -28 -41 -24 -13 4 -17 2 -12 -5 4 -7 1 -19 -6 -27
-16 -19 -4 -30 16 -14 9 7 19 9 23 5 4 -4 0 -12 -9 -18 -14 -9 -15 -15 -6 -34
8 -19 7 -27 -5 -40 -20 -19 -43 -12 -51 16 -3 12 -1 19 4 15 5 -3 13 -3 19 1
13 8 -9 55 -26 55 -26 0 -43 -12 -37 -28 4 -15 3 -15 -6 -2 -9 13 -12 13 -28
-2 -10 -11 -12 -18 -5 -18 6 0 9 -7 6 -15 -4 -8 -12 -15 -19 -15 -22 0 -39 28
-26 44 6 7 8 21 5 31 -6 16 -3 17 29 11 24 -4 37 -3 37 4 0 6 11 16 25 22 16
7 22 15 17 22 -5 6 -16 30 -25 54 l-17 42 25 0 c18 0 25 5 25 19 0 11 14 28
34 40 41 25 43 26 49 4 4 -14 5 -12 6 5 1 26 20 28 67 6z m4959 2 c18 -13 18
-14 -8 -9 -15 3 -27 9 -27 14 0 13 13 11 35 -5z m-1975 -50 c0 -3 -4 -8 -10
-11 -5 -3 -10 -1 -10 4 0 6 5 11 10 11 6 0 10 -2 10 -4z m-3205 -75 c3 -5 1
-12 -5 -16 -5 -3 -10 1 -10 9 0 18 6 21 15 7z m-45 -31 c0 -5 -4 -10 -10 -10
-5 0 -10 5 -10 10 0 6 5 10 10 10 6 0 10 -4 10 -10z m-140 -14 c0 -2 -7 -9
-15 -16 -12 -10 -15 -10 -15 4 0 9 7 16 15 16 8 0 15 -2 15 -4z m72 -63 c-6
-18 -29 -16 -36 3 -4 10 1 25 11 36 18 20 18 20 24 -4 3 -12 4 -29 1 -35z
m306 46 c-2 -6 -8 -10 -13 -10 -5 0 -11 4 -13 10 -2 6 4 11 13 11 9 0 15 -5
13 -11z m-358 -66 c0 -19 -4 -24 -16 -19 -11 4 -18 -1 -21 -14 -6 -24 -28 -26
-37 -3 -7 16 8 33 30 33 7 0 14 9 17 21 7 28 27 15 27 -18z m5250 27 c0 -5 -2
-10 -4 -10 -3 0 -8 5 -11 10 -3 6 -1 10 4 10 6 0 11 -4 11 -10z m1000 -50 c0
-5 -4 -10 -10 -10 -5 0 -10 5 -10 10 0 6 5 10 10 10 6 0 10 -4 10 -10z m-6340
-20 c0 -5 -4 -10 -10 -10 -5 0 -10 5 -10 10 0 6 5 10 10 10 6 0 10 -4 10 -10z
m292 -2 c7 -20 -3 -88 -13 -88 -5 0 -9 9 -9 20 0 22 -29 27 -47 9 -6 -6 -17
-8 -24 -4 -15 10 38 40 63 37 12 -2 15 2 11 18 -6 21 12 29 19 8z m4651 -63
c-5 -16 -33 -21 -33 -7 0 13 22 32 31 26 5 -2 6 -11 2 -19z m-4742 -37 c3 -5
9 -3 12 6 8 20 27 21 27 2 0 -7 -9 -16 -21 -19 -23 -6 -69 11 -69 25 0 11 42
-1 51 -14z m4689 -28 c0 -5 -2 -10 -4 -10 -3 0 -8 5 -11 10 -3 6 -1 10 4 10 6
0 11 -4 11 -10z m-4800 -10 c0 -5 -5 -10 -11 -10 -5 0 -7 5 -4 10 3 6 8 10 11
10 2 0 4 -4 4 -10z m65 -10 c3 -5 1 -10 -4 -10 -6 0 -11 5 -11 10 0 6 2 10 4
10 3 0 8 -4 11 -10z m3138 -169 c3 -14 1 -18 -9 -14 -8 3 -14 11 -14 19 0 21
17 17 23 -5z m332 -11 c-3 -5 -11 -10 -16 -10 -6 0 -7 5 -4 10 3 6 11 10 16
10 6 0 7 -4 4 -10z m235 -54 c6 -8 21 -16 33 -18 17 -2 21 -9 19 -27 -3 -33
-8 -36 -27 -21 -22 19 -28 7 -26 -52 1 -38 -2 -49 -9 -42 -6 6 -11 34 -12 63
0 31 -4 51 -11 51 -7 0 -4 7 6 14 15 12 16 14 2 20 -8 3 -15 10 -15 16 0 15
26 12 40 -4z m-604 -23 c-10 -10 -19 5 -10 18 6 11 8 11 12 0 2 -7 1 -15 -2
-18z m529 -14 c31 -37 28 -53 -8 -57 -30 -4 -34 -14 -12 -32 13 -10 19 -10 35
5 22 20 27 6 9 -26 -8 -15 -7 -26 5 -44 17 -25 12 -35 -16 -35 -21 0 -23 11
-7 27 9 9 5 18 -12 35 -51 49 -53 55 -30 87 16 22 18 32 9 37 -6 4 -14 2 -16
-4 -6 -19 -22 -14 -22 7 0 17 11 28 32 30 3 1 18 -13 33 -30z m179 -20 c-9
-10 -21 -16 -26 -13 -5 3 -2 14 8 25 9 10 21 16 26 13 5 -3 2 -14 -8 -25z m26
-29 c0 -5 -4 -10 -10 -10 -5 0 -10 5 -10 10 0 6 5 10 10 10 6 0 10 -4 10 -10z
m-1026 -54 c-3 -8 -12 -17 -21 -20 -10 -4 -13 -14 -9 -29 6 -24 -17 -67 -35
-67 -5 0 -24 -16 -41 -35 -36 -42 -51 -38 -19 5 12 17 17 30 11 30 -19 0 -10
29 12 41 16 9 23 9 26 0 7 -21 24 -11 19 10 -4 15 2 31 21 50 29 31 45 37 36
15z m334 2 c-2 -6 -10 -14 -16 -16 -7 -2 -10 2 -6 12 7 18 28 22 22 4z m612 3
c0 -12 -20 -25 -27 -18 -7 7 6 27 18 27 5 0 9 -4 9 -9z m-938 -43 c-7 -7 -12
-8 -12 -2 0 14 12 26 19 19 2 -3 -1 -11 -7 -17z m198 -57 c0 -6 -4 -13 -10
-16 -5 -3 -10 1 -10 9 0 9 5 16 10 16 6 0 10 -4 10 -9z m680 -31 c0 -5 -4 -10
-9 -10 -6 0 -13 5 -16 10 -3 6 1 10 9 10 9 0 16 -4 16 -10z m-60 -40 c0 -5 -4
-10 -10 -10 -5 0 -10 5 -10 10 0 6 5 10 10 10 6 0 10 -4 10 -10z m50 -20 c0
-5 -4 -10 -10 -10 -5 0 -10 5 -10 10 0 6 5 10 10 10 6 0 10 -4 10 -10z m-41
-19 c6 -10 7 -21 4 -25 -9 -8 -33 14 -33 30 0 20 18 17 29 -5z"/>
<path d="M9357 8204 c-4 -4 -7 -14 -7 -23 0 -11 3 -12 11 -4 6 6 10 16 7 23
-2 6 -7 8 -11 4z"/>
<path d="M5901 8094 c0 -11 3 -14 6 -6 3 7 2 16 -1 19 -3 4 -6 -2 -5 -13z"/>
<path d="M5855 8060 c-3 -5 1 -10 9 -10 9 0 16 5 16 10 0 6 -4 10 -9 10 -6 0
-13 -4 -16 -10z"/>
<path d="M5610 8020 c0 -5 5 -10 10 -10 6 0 10 5 10 10 0 6 -4 10 -10 10 -5 0
-10 -4 -10 -10z"/>
<path d="M5600 7965 c17 -17 22 -18 30 -5 12 20 3 30 -26 28 l-24 -2 20 -21z"/>
<path d="M5760 7975 c-7 -8 -19 -15 -26 -15 -8 0 -14 -7 -14 -15 0 -8 5 -15
10 -15 6 0 10 5 10 10 0 6 6 10 13 10 7 0 18 9 25 20 14 23 0 27 -18 5z"/>
<path d="M5536 7951 c-4 -7 -5 -15 -2 -18 9 -9 19 4 14 18 -4 11 -6 11 -12 0z"/>
<path d="M5550 7904 c0 -8 5 -12 10 -9 6 3 10 10 10 16 0 5 -4 9 -10 9 -5 0
-10 -7 -10 -16z"/>
<path d="M5370 7784 c0 -8 5 -12 10 -9 6 3 10 10 10 16 0 5 -4 9 -10 9 -5 0
-10 -7 -10 -16z"/>
<path d="M5286 7695 c-8 -9 -12 -23 -9 -32 6 -14 8 -14 20 3 12 17 18 44 9 44
-3 0 -11 -7 -20 -15z"/>
<path d="M6290 7839 c0 -5 5 -7 10 -4 6 3 10 8 10 11 0 2 -4 4 -10 4 -5 0 -10
-5 -10 -11z"/>
<path d="M8197 7763 c-8 -7 11 -33 24 -33 5 0 9 9 9 20 0 19 -20 27 -33 13z"/>
<path d="M8065 7740 c4 -6 11 -8 16 -5 14 9 11 15 -7 15 -8 0 -12 -5 -9 -10z"/>
<path d="M4661 7651 c-8 -6 -9 -11 -3 -15 6 -3 14 -1 17 5 9 14 2 20 -14 10z"/>
<path d="M8014 7574 c3 -9 6 -24 6 -35 0 -10 7 -19 15 -19 18 0 20 41 3 58
-17 17 -31 15 -24 -4z"/>
<path d="M8316 3775 c-3 -9 0 -15 9 -15 8 0 15 7 15 15 0 8 -4 15 -9 15 -5 0
-11 -7 -15 -15z"/>
<path d="M2870 3639 c0 -5 5 -7 10 -4 6 3 10 8 10 11 0 2 -4 4 -10 4 -5 0 -10
-5 -10 -11z"/>
<path d="M2650 3009 c0 -18 2 -19 15 -9 15 12 12 30 -6 30 -5 0 -9 -10 -9 -21z"/>
<path d="M6551 1997 c-6 -8 -8 -17 -4 -20 7 -8 33 11 33 24 0 13 -16 11 -29
-4z"/>
<path d="M1320 1660 c0 -20 25 -38 36 -27 8 7 -15 47 -26 47 -6 0 -10 -9 -10
-20z"/>
<path d="M10000 8729 c0 -5 5 -7 10 -4 6 3 10 8 10 11 0 2 -4 4 -10 4 -5 0
-10 -5 -10 -11z"/>
<path d="M9755 8680 c-3 -5 1 -10 9 -10 9 0 16 5 16 10 0 6 -4 10 -9 10 -6 0
-13 -4 -16 -10z"/>
<path d="M9592 8624 c-14 -17 -20 -33 -17 -45 9 -27 25 -24 25 5 0 13 7 29 15
36 16 13 20 30 8 30 -5 0 -18 -12 -31 -26z"/>
<path d="M5700 8636 c0 -2 7 -6 15 -10 8 -3 15 -1 15 4 0 6 -7 10 -15 10 -8 0
-15 -2 -15 -4z"/>
<path d="M9673 8613 c-13 -13 -22 -27 -21 -31 5 -18 -35 -72 -67 -90 -34 -21
-43 -36 -26 -46 9 -6 121 117 121 133 0 6 9 16 20 23 23 15 25 24 8 30 -7 2
-23 -6 -35 -19z"/>
<path d="M9506 8504 c-28 -41 -28 -49 2 -40 13 4 22 18 25 39 2 18 3 33 2 35
-2 2 -15 -13 -29 -34z"/>
<path d="M9805 8467 c-4 -10 -5 -21 -1 -24 10 -10 18 4 13 24 -4 17 -4 17 -12
0z"/>
<path d="M9707 8353 c-4 -3 -7 -13 -7 -22 1 -13 3 -13 11 2 11 19 8 33 -4 20z"/>
<path d="M5638 8325 c-10 -13 -18 -27 -18 -31 0 -10 30 17 41 38 14 26 -3 22
-23 -7z"/>
<path d="M4964 8318 c-12 -5 -30 -28 -40 -49 -9 -22 -28 -50 -41 -64 -18 -18
-23 -30 -18 -46 l8 -23 23 28 c13 15 24 36 24 47 0 11 6 19 13 18 6 -1 29 -1
50 0 30 1 37 5 37 21 0 11 5 20 10 20 6 0 10 7 10 15 0 11 -7 14 -25 9 -29 -7
-34 10 -7 25 16 10 15 10 -3 10 -11 0 -30 -5 -41 -11z m11 -48 c-3 -5 -10 -10
-16 -10 -5 0 -9 5 -9 10 0 6 7 10 16 10 8 0 12 -4 9 -10z"/>
<path d="M6833 8276 c-13 -6 -23 -20 -24 -31 0 -11 -3 -14 -6 -7 -8 19 -31 14
-38 -9 -4 -12 -16 -30 -26 -40 -20 -20 -26 -83 -9 -94 17 -11 11 -37 -10 -42
-22 -6 -27 -29 -8 -35 7 -3 9 -11 3 -24 -7 -17 -8 -17 -12 -1 -3 9 -9 17 -14
17 -15 0 -10 -16 10 -34 11 -10 17 -24 14 -32 -3 -8 1 -14 10 -14 15 0 37 59
53 140 4 16 12 30 19 30 8 0 11 -8 8 -20 -7 -27 14 -26 22 1 5 14 1 25 -12 34
-10 7 -14 17 -10 22 5 4 17 -3 27 -17 11 -14 20 -21 20 -16 0 5 7 3 15 -4 10
-9 15 -9 15 -1 0 6 -4 11 -10 11 -17 0 -11 22 12 47 24 26 40 107 24 123 -12
12 -44 11 -73 -4z m7 -112 c0 -8 -7 -14 -15 -14 -8 0 -15 9 -15 20 0 13 5 18
15 14 8 -4 15 -12 15 -20z"/>
<path d="M9637 8273 c-4 -3 -7 -13 -7 -21 0 -12 3 -12 15 -2 8 7 15 16 15 21
0 11 -14 12 -23 2z"/>
<path d="M6935 8248 c-3 -13 -3 -43 1 -68 7 -52 7 -79 3 -100 -2 -8 3 -15 11
-15 8 0 16 10 18 22 2 12 12 25 23 28 11 4 17 10 14 15 -2 4 0 22 6 39 9 25
15 30 30 26 26 -9 15 19 -16 39 -30 20 -35 20 -35 0 0 -23 -24 -11 -28 14 -4
29 -20 28 -27 0z m48 -93 c-7 -21 -13 -19 -13 6 0 11 4 18 10 14 5 -3 7 -12 3
-20z"/>
<path d="M9586 8204 c-4 -9 -4 -19 -1 -22 6 -6 35 18 35 29 0 16 -28 10 -34
-7z"/>
<path d="M5523 8170 c-3 -11 -9 -20 -14 -20 -5 0 -6 7 -3 15 4 10 0 15 -15 15
-23 0 -28 -19 -9 -38 17 -17 2 -27 -17 -12 -21 18 -29 6 -14 -21 9 -18 9 -24
-1 -27 -7 -3 -20 -14 -29 -25 -9 -11 -33 -37 -53 -59 -21 -21 -38 -45 -38 -55
0 -11 15 0 44 30 24 26 47 47 50 47 3 0 14 8 24 18 10 9 31 28 48 42 30 26 42
46 50 88 5 27 -16 30 -23 2z"/>
<path d="M9505 8111 c-3 -5 -1 -12 5 -16 5 -3 10 1 10 9 0 18 -6 21 -15 7z"/>
<path d="M6842 8011 c2 -7 7 -12 11 -12 12 1 9 15 -3 20 -7 2 -11 -2 -8 -8z"/>
<path d="M6805 7970 c-3 -11 -11 -20 -16 -20 -5 0 -9 -7 -9 -15 0 -8 5 -15 10
-15 6 0 10 6 10 13 0 9 2 9 9 -1 7 -11 10 -10 15 3 9 24 7 55 -3 55 -5 0 -13
-9 -16 -20z"/>
<path d="M6490 7970 c0 -5 7 -10 15 -10 8 0 15 5 15 10 0 6 -7 10 -15 10 -8 0
-15 -4 -15 -10z"/>
<path d="M9355 7870 c-10 -11 -13 -20 -8 -20 13 0 38 29 31 35 -3 3 -13 -4
-23 -15z"/>
<path d="M9261 7274 c0 -11 3 -14 6 -6 3 7 2 16 -1 19 -3 4 -6 -2 -5 -13z"/>
<path d="M9216 7225 c-3 -8 -1 -15 4 -15 6 0 10 7 10 15 0 8 -2 15 -4 15 -2 0
-6 -7 -10 -15z"/>
<path d="M3558 6985 c-39 -35 -50 -62 -22 -51 9 3 18 6 20 6 2 0 4 6 4 14 0 7
10 20 21 28 12 8 20 19 18 26 -2 7 -19 -2 -41 -23z"/>
<path d="M3597 6930 c3 -11 11 -19 17 -17 17 6 13 31 -6 35 -12 2 -15 -2 -11
-18z"/>
<path d="M3552 6888 c-13 -13 -16 -38 -6 -38 8 0 33 32 34 43 0 11 -15 8 -28
-5z"/>
<path d="M3612 6868 c5 -15 37 -18 41 -3 1 6 -9 12 -22 13 -16 3 -22 -1 -19
-10z"/>
<path d="M2673 6033 c-24 -35 -35 -63 -24 -63 5 0 14 13 21 29 6 17 18 31 26
33 9 2 10 8 5 16 -6 11 -13 7 -28 -15z"/>
<path d="M1643 4810 c-12 -28 -8 -39 8 -23 6 6 9 19 6 29 -3 17 -5 16 -14 -6z"/>
<path d="M9905 4400 c-3 -5 1 -10 10 -10 9 0 13 5 10 10 -3 6 -8 10 -10 10 -2
0 -7 -4 -10 -10z"/>
<path d="M3045 2509 c-10 -15 3 -25 16 -12 7 7 7 13 1 17 -6 3 -14 1 -17 -5z"/>
<path d="M2990 2450 c0 -5 5 -10 10 -10 6 0 10 5 10 10 0 6 -4 10 -10 10 -5 0
-10 -4 -10 -10z"/>
<path d="M2618 2163 c-30 -36 -30 -47 0 -19 18 17 32 31 32 33 0 9 -19 1 -32
-14z"/>
<path d="M6251 1744 c0 -11 3 -14 6 -6 3 7 2 16 -1 19 -3 4 -6 -2 -5 -13z"/>
<path d="M6180 1669 c0 -5 5 -7 10 -4 6 3 10 8 10 11 0 2 -4 4 -10 4 -5 0 -10
-5 -10 -11z"/>
<path d="M827 1493 c-16 -8 -27 -21 -25 -30 4 -23 28 -28 28 -6 0 10 12 26 28
35 33 21 8 22 -31 1z"/>
<path d="M5505 1459 c-10 -15 1 -23 20 -15 9 3 13 10 10 16 -8 13 -22 13 -30
-1z"/>
<path d="M715 1410 c-3 -5 -1 -10 4 -10 6 0 11 5 11 10 0 6 -2 10 -4 10 -3 0
-8 -4 -11 -10z"/>
<path d="M695 1370 c20 -22 31 -20 22 5 -4 8 -14 15 -23 15 -16 0 -16 -2 1
-20z"/>
<path d="M630 1280 c0 -5 -7 -10 -15 -10 -8 0 -15 -4 -15 -10 0 -13 27 -13 35
1 4 6 13 8 21 5 8 -3 14 1 14 9 0 8 -9 15 -20 15 -11 0 -20 -4 -20 -10z"/>
<path d="M703 1242 c-24 -21 -29 -32 -24 -47 7 -18 9 -17 27 10 10 17 23 33
27 36 5 4 8 11 6 17 -2 6 -18 -1 -36 -16z"/>
<path d="M935 1250 c-3 -5 -1 -10 4 -10 6 0 11 5 11 10 0 6 -2 10 -4 10 -3 0
-8 -4 -11 -10z"/>
<path d="M533 1220 c-10 -11 -26 -20 -37 -20 -10 0 -25 -8 -32 -17 -9 -12 -16
-14 -21 -7 -15 20 -39 23 -40 4 -1 -13 4 -16 19 -12 17 4 20 2 15 -11 -4 -10
-1 -17 6 -17 14 0 120 77 125 91 7 17 -18 9 -35 -11z"/>
<path d="M640 1210 c-8 -5 -12 -12 -9 -15 4 -3 12 1 19 10 14 17 11 19 -10 5z"/>
<path d="M940 1210 c0 -5 7 -10 15 -10 8 0 15 5 15 10 0 6 -7 10 -15 10 -8 0
-15 -4 -15 -10z"/>
<path d="M1005 1199 c-11 -16 -1 -19 13 -3 7 8 8 14 3 14 -5 0 -13 -5 -16 -11z"/>
<path d="M5300 1191 c0 -6 5 -13 11 -17 6 -3 9 -15 6 -25 -4 -14 0 -19 14 -19
25 0 25 31 1 53 -21 19 -32 22 -32 8z"/>
<path d="M5345 1190 c-3 -5 1 -10 10 -10 9 0 13 5 10 10 -3 6 -8 10 -10 10 -2
0 -7 -4 -10 -10z"/>
<path d="M550 1169 c0 -5 5 -7 10 -4 6 3 10 8 10 11 0 2 -4 4 -10 4 -5 0 -10
-5 -10 -11z"/>
<path d="M705 1160 c-16 -11 -25 -20 -19 -20 5 0 16 6 23 13 11 10 14 10 18 0
7 -20 23 -15 23 7 0 25 -7 25 -45 0z"/>
<path d="M355 1140 c-3 -5 -2 -10 4 -10 5 0 13 5 16 10 3 6 2 10 -4 10 -5 0
-13 -4 -16 -10z"/>
<path d="M479 1130 c-13 -10 -18 -19 -11 -20 6 0 12 4 12 8 0 5 10 14 23 20
12 6 17 11 11 11 -7 1 -22 -8 -35 -19z"/>
<path d="M5376 1133 c-6 -14 -5 -15 5 -6 7 7 10 15 7 18 -3 3 -9 -2 -12 -12z"/>
<path d="M636 1124 c-11 -28 -6 -38 9 -18 8 10 15 22 15 27 0 13 -18 7 -24 -9z"/>
<path d="M503 1115 c-19 -21 -16 -27 7 -15 11 6 20 15 20 20 0 14 -13 12 -27
-5z"/>
<path d="M558 1102 c-38 -27 -49 -52 -24 -52 7 0 16 9 19 20 3 12 17 22 35 26
21 4 29 11 25 20 -7 19 -12 18 -55 -14z"/>
<path d="M700 1110 c-20 -15 -22 -21 -13 -31 11 -11 37 -5 72 18 5 3 -20 33
-28 33 -3 0 -17 -9 -31 -20z"/>
<path d="M846 1114 c-4 -12 -2 -15 9 -11 25 10 28 -13 3 -33 -14 -12 -18 -19
-9 -20 7 0 29 14 48 30 33 29 33 30 8 24 -18 -5 -25 -3 -23 7 4 19 -28 23 -36
3z"/>
<path d="M367 1106 c-17 -13 -16 -14 3 -19 15 -4 20 0 20 14 0 22 0 22 -23 5z"/>
<path d="M5341 1088 c-14 -41 -9 -45 12 -8 10 16 13 31 8 34 -5 3 -14 -8 -20
-26z"/>
<path d="M460 1086 c0 -9 5 -16 10 -16 6 0 10 4 10 9 0 6 -4 13 -10 16 -5 3
-10 -1 -10 -9z"/>
<path d="M780 1071 c-28 -14 -35 -22 -33 -44 2 -33 -22 -37 -30 -5 -9 33 -20
14 -12 -20 6 -28 8 -29 35 -19 16 6 32 17 35 25 2 7 1 10 -4 7 -5 -3 -12 -1
-15 4 -6 9 32 45 57 54 7 2 10 7 7 10 -3 3 -21 -3 -40 -12z"/>
<path d="M370 1051 c-7 -13 -7 -22 0 -26 11 -7 11 -8 14 23 3 27 0 28 -14 3z"/>
<path d="M644 1056 c-10 -8 -24 -12 -31 -9 -7 3 -13 0 -13 -6 0 -6 -11 -11
-24 -11 -15 0 -26 -7 -28 -17 -2 -12 -13 -18 -33 -18 -26 0 -30 -3 -27 -25 1
-19 0 -22 -8 -10 -11 17 -36 6 -54 -23 -25 -39 41 -32 76 8 12 14 29 25 39 25
14 0 104 54 132 80 16 14 -10 19 -29 6z"/>
<path d="M480 1039 c0 -11 5 -17 10 -14 6 3 10 13 10 21 0 8 -4 14 -10 14 -5
0 -10 -9 -10 -21z"/>
<path d="M4630 1039 c0 -18 2 -19 15 -9 15 12 12 30 -6 30 -5 0 -9 -10 -9 -21z"/>
<path d="M666 1002 c-4 -7 -1 -21 7 -32 12 -17 16 -18 20 -6 7 19 -17 53 -27
38z"/>
<path d="M5228 993 c7 -3 16 -2 19 1 4 3 -2 6 -13 5 -11 0 -14 -3 -6 -6z"/>
<path d="M4610 976 c0 -8 -5 -16 -12 -18 -7 -3 -9 -12 -4 -23 6 -17 9 -15 26
13 24 39 24 42 5 42 -8 0 -15 -6 -15 -14z"/>
<path d="M611 962 c-13 -24 3 -42 30 -35 24 7 24 15 0 37 -18 17 -20 17 -30
-2z"/>
<path d="M4535 960 c-3 -5 1 -10 9 -10 9 0 16 5 16 10 0 6 -4 10 -9 10 -6 0
-13 -4 -16 -10z"/>
<path d="M4716 923 c-11 -11 -6 -23 9 -23 8 0 15 4 15 9 0 13 -16 22 -24 14z"/>
<path d="M4511 893 c7 -10 14 -19 15 -21 1 -2 18 0 38 3 22 5 36 13 36 22 0
15 -20 14 -64 -3 -9 -3 -16 -1 -16 5 0 6 -5 11 -11 11 -8 0 -7 -6 2 -17z"/>
<path d="M4400 860 c0 -5 5 -10 10 -10 6 0 10 5 10 10 0 6 -4 10 -10 10 -5 0
-10 -4 -10 -10z"/>
<path d="M4508 816 c-9 -13 -14 -26 -11 -30 9 -8 43 24 43 41 0 20 -13 15 -32
-11z"/>
<path d="M4632 828 c6 -18 28 -21 28 -4 0 9 -7 16 -16 16 -9 0 -14 -5 -12 -12z"/>
<path d="M4682 819 c2 -7 10 -15 17 -17 8 -3 12 1 9 9 -2 7 -10 15 -17 17 -8
3 -12 -1 -9 -9z"/>
<path d="M4664 789 c-3 -6 -3 -14 2 -18 5 -3 10 -24 11 -46 1 -22 3 -55 5 -72
2 -18 1 -33 -4 -33 -4 0 -8 9 -8 19 0 11 -5 23 -10 26 -6 3 -7 17 -4 31 4 14
2 24 -5 24 -7 0 -11 -27 -11 -75 0 -72 -1 -76 -26 -85 -40 -15 -52 -11 -20 7
28 15 29 16 11 29 -10 8 -22 14 -27 14 -4 0 -8 11 -8 25 0 16 6 25 15 25 8 0
15 -9 15 -20 0 -11 7 -20 15 -20 19 0 19 9 -2 32 -13 14 -14 21 -5 30 9 9 7
17 -10 35 -27 29 -44 29 -59 2 -9 -18 -8 -24 4 -31 14 -7 14 -12 1 -36 -17
-33 -18 -52 -1 -52 6 0 13 -11 13 -24 2 -32 -39 -55 -66 -38 -11 7 -28 12 -37
11 -11 0 -13 -3 -5 -6 6 -2 12 -11 12 -18 0 -7 9 -15 20 -18 11 -3 20 -10 20
-16 0 -6 -9 -11 -20 -11 -11 0 -20 5 -20 11 0 8 -5 8 -15 -1 -8 -7 -16 -9 -16
-4 -2 11 -5 42 -7 73 -2 24 -2 24 -17 5 -8 -11 -15 -14 -15 -6 0 23 -15 12
-35 -25 -11 -21 -22 -40 -25 -43 -3 -3 -12 -18 -20 -34 -8 -16 -43 -57 -77
-90 -35 -33 -63 -64 -63 -68 0 -13 41 -20 55 -8 11 9 12 7 8 -12 -4 -22 -3
-21 22 6 29 31 29 31 39 -1 6 -19 3 -23 -12 -23 -18 0 -19 -3 -9 -24 l12 -25
32 25 c17 13 37 24 45 24 7 0 2 -7 -10 -16 -18 -12 -22 -23 -20 -60 3 -39 6
-44 27 -44 14 0 33 7 43 17 26 23 33 10 11 -23 l-18 -29 33 23 c17 13 32 28
32 33 0 5 9 9 20 9 11 0 20 5 20 10 0 6 5 10 10 10 6 0 10 -7 10 -15 0 -8 -7
-15 -15 -15 -8 0 -15 -7 -15 -15 0 -8 8 -15 19 -15 20 0 38 52 20 58 -5 2 -9
12 -9 22 0 10 -4 22 -10 25 -16 10 -12 45 5 45 9 0 15 -9 15 -22 0 -21 1 -21
13 -3 8 10 19 15 26 11 6 -4 14 0 17 9 6 14 8 14 26 -2 11 -9 17 -25 15 -35
-4 -14 1 -18 19 -18 15 0 24 6 24 15 0 8 -7 15 -15 15 -8 0 -15 7 -15 15 0 8
4 15 10 15 5 0 7 7 4 15 -4 10 -13 13 -25 10 -15 -5 -19 -1 -19 18 0 14 6 30
14 36 12 10 17 8 26 -8 15 -29 32 -26 24 4 -7 27 4 33 24 13 9 -9 12 -8 12 5
0 10 -4 23 -10 30 -46 56 -60 76 -60 84 0 5 13 22 30 38 33 32 33 43 0 25 -12
-6 -24 -9 -27 -6 -8 8 39 45 59 46 11 0 15 6 11 20 -3 11 0 20 6 20 14 0 15
27 1 32 -5 2 -12 26 -14 53 -5 74 -23 105 -42 74z m-94 -272 c0 -7 16 -21 35
-30 22 -11 35 -24 35 -36 0 -11 6 -21 13 -24 8 -3 5 -11 -10 -26 -27 -25 -31
-26 -29 -4 0 10 -9 19 -23 23 -14 3 -26 11 -29 19 -3 10 0 11 16 2 15 -8 23
-8 27 0 4 6 -2 13 -14 16 -21 5 -54 57 -43 67 10 10 22 6 22 -7z m-180 -37 c0
-5 -4 -10 -10 -10 -5 0 -10 5 -10 10 0 6 5 10 10 10 6 0 10 -4 10 -10z m30
-20 c0 -11 -7 -20 -15 -20 -13 0 -14 4 -5 20 6 11 13 20 15 20 3 0 5 -9 5 -20z
m114 5 c-6 -16 -24 -21 -24 -7 0 11 11 22 21 22 5 0 6 -7 3 -15z m-169 -25
c-3 -5 -11 -10 -16 -10 -6 0 -7 5 -4 10 3 6 11 10 16 10 6 0 7 -4 4 -10z m185
-53 c-1 -21 -1 -21 -15 -3 -8 10 -12 23 -9 28 9 14 24 -2 24 -25z m-73 6 c-9
-9 -19 -14 -23 -11 -10 10 6 28 24 28 15 0 15 -1 -1 -17z m-107 -11 c0 -11
-22 -32 -32 -32 -5 0 -4 9 2 20 11 20 30 28 30 12z m124 -17 c-4 -8 -11 -15
-16 -15 -6 0 -5 6 2 15 7 8 14 15 16 15 2 0 1 -7 -2 -15z m-210 -20 c-4 -8
-11 -15 -16 -15 -6 0 -5 6 2 15 7 8 14 15 16 15 2 0 1 -7 -2 -15z m143 -22
c-3 -3 -11 -2 -17 2 -9 6 -9 10 1 16 14 8 27 -7 16 -18z m13 -43 c0 -5 -4 -10
-10 -10 -5 0 -10 5 -10 10 0 6 5 10 10 10 6 0 10 -4 10 -10z m34 -72 c-8 -29
-10 -31 -23 -23 -8 4 -8 12 -1 26 15 27 33 24 24 -3z"/>
<path d="M4432 771 c4 -13 18 -16 19 -4 0 4 -5 9 -11 12 -7 2 -11 -2 -8 -8z"/>
<path d="M4465 759 c-4 -6 -5 -13 -2 -16 7 -7 27 6 27 18 0 12 -17 12 -25 -2z"/>
<path d="M4520 760 c0 -5 5 -10 10 -10 6 0 10 5 10 10 0 6 -4 10 -10 10 -5 0
-10 -4 -10 -10z"/>
<path d="M4180 726 c0 -22 3 -27 11 -19 8 8 8 16 0 30 -9 16 -10 14 -11 -11z"/>
<path d="M4265 740 c-3 -6 1 -13 9 -16 9 -3 16 -15 16 -25 0 -28 29 -23 36 6
4 14 5 27 3 29 -12 10 -59 14 -64 6z"/>
<path d="M4366 719 c-9 -13 -16 -32 -16 -42 0 -17 2 -17 16 -7 24 21 37 51 26
62 -6 6 -15 2 -26 -13z"/>
<path d="M4485 720 c-8 -13 -1 -24 14 -19 6 3 7 10 2 18 -6 10 -10 10 -16 1z"/>
<path d="M4397 676 c-9 -7 -22 -27 -28 -45 -6 -17 -17 -31 -25 -31 -8 0 -14
-4 -14 -9 0 -17 -48 -63 -59 -57 -5 4 -7 -10 -4 -34 4 -26 2 -40 -6 -40 -6 0
-11 9 -11 20 0 11 -4 20 -10 20 -5 0 -10 -18 -10 -41 0 -29 -3 -38 -12 -33 -7
4 -5 -2 5 -12 18 -19 18 -18 38 6 11 14 32 47 47 74 40 72 47 84 63 103 9 10
20 30 27 46 6 15 16 27 22 27 5 0 10 5 10 10 0 13 -11 12 -33 -4z"/>
<path d="M4135 649 c-4 -6 -5 -13 -2 -16 7 -7 27 6 27 18 0 12 -17 12 -25 -2z"/>
<path d="M4468 643 c-6 -7 -19 -13 -29 -13 -10 0 -21 -5 -25 -11 -4 -7 2 -9
17 -7 21 3 24 -1 21 -26 -3 -26 -1 -28 13 -16 13 11 18 10 30 -6 13 -18 14
-18 21 -1 4 12 0 23 -12 32 -18 14 -18 16 -1 26 9 5 17 16 17 24 0 17 -37 16
-52 -2z"/>
<path d="M4070 640 c0 -5 5 -10 10 -10 6 0 10 5 10 10 0 6 -4 10 -10 10 -5 0
-10 -4 -10 -10z"/>
<path d="M4320 630 c0 -5 5 -10 11 -10 5 0 7 5 4 10 -3 6 -8 10 -11 10 -2 0
-4 -4 -4 -10z"/>
<path d="M4119 539 c-44 -45 -77 -84 -73 -88 4 -3 9 0 11 7 3 6 10 12 16 12 7
0 21 14 32 30 24 37 39 39 31 5 -4 -17 -1 -31 8 -41 13 -13 17 -11 32 13 10
15 28 39 40 53 12 14 25 41 28 60 6 32 6 34 -8 16 -8 -10 -17 -24 -19 -30 -2
-6 -7 -8 -11 -4 -4 3 -3 16 4 27 22 42 -11 20 -91 -60z"/>
<path d="M4285 591 c-3 -5 -1 -12 5 -16 5 -3 10 1 10 9 0 18 -6 21 -15 7z"/>
<path d="M4830 586 c0 -2 7 -6 15 -10 8 -3 15 -1 15 4 0 6 -7 10 -15 10 -8 0
-15 -2 -15 -4z"/>
<path d="M4030 525 c-7 -14 -10 -28 -6 -32 9 -9 36 25 36 44 0 21 -16 15 -30
-12z"/>
<path d="M4745 519 c-4 -6 -5 -13 -2 -16 7 -7 27 6 27 18 0 12 -17 12 -25 -2z"/>
<path d="M4687 513 c-23 -6 -19 -46 4 -51 13 -2 16 3 13 25 -2 15 -1 22 2 16
8 -18 25 -16 18 2 -6 16 -7 16 -37 8z"/>
<path d="M3981 464 l-23 -24 25 0 c30 0 42 14 30 34 -7 12 -12 10 -32 -10z"/>
<path d="M4210 384 c0 -8 5 -12 10 -9 6 4 8 11 5 16 -9 14 -15 11 -15 -7z"/>
<path d="M4700 294 c0 -8 5 -12 10 -9 6 4 8 11 5 16 -9 14 -15 11 -15 -7z"/>
<path d="M4557 237 c-16 -11 -16 -14 -2 -35 16 -22 45 -30 45 -12 0 6 -7 10
-15 10 -19 0 -19 9 2 32 13 15 14 18 1 18 -8 0 -22 -6 -31 -13z"/>
<path d="M4586 151 c-4 -7 -5 -15 -2 -18 9 -9 19 4 14 18 -4 11 -6 11 -12 0z"/>
<path d="M4462 113 c-7 -3 -17 -14 -23 -25 -9 -18 -8 -18 10 -9 32 18 43 44
13 34z"/>
<path d="M4490 85 c0 -8 7 -15 16 -15 14 0 14 3 4 15 -7 8 -14 15 -16 15 -2 0
-4 -7 -4 -15z"/>
<path d="M4458 53 c7 -3 16 -2 19 1 4 3 -2 6 -13 5 -11 0 -14 -3 -6 -6z"/>
</g>
</svg>
