<?xml version="1.0" standalone="no"?>
<!DOCTYPE svg PUBLIC "-//W3C//DTD SVG 20010904//EN"
 "http://www.w3.org/TR/2001/REC-SVG-20010904/DTD/svg10.dtd">
<svg version="1.0" xmlns="http://www.w3.org/2000/svg"
 width="1590.000000pt" height="598.000000pt" viewBox="0 0 1590.000000 598.000000"
 preserveAspectRatio="xMidYMid meet">

<g transform="translate(0.000000,598.000000) scale(0.100000,-0.100000)"
fill="#000000" stroke="none">
<path d="M7666 5721 c-3 -4 6 -6 19 -3 14 2 25 6 25 8 0 8 -39 4 -44 -5z"/>
<path d="M7490 5690 c-9 -6 -10 -10 -3 -10 6 0 15 5 18 10 8 12 4 12 -15 0z"/>
<path d="M7520 5689 c0 -5 5 -7 10 -4 6 3 10 8 10 11 0 2 -4 4 -10 4 -5 0 -10
-5 -10 -11z"/>
<path d="M7405 5666 c-18 -13 -18 -14 8 -9 15 3 24 9 21 14 -7 12 -7 12 -29
-5z"/>
<path d="M8395 5662 c-18 -4 -42 -26 -83 -76 -7 -9 -10 -16 -6 -16 3 0 1 -7
-6 -15 -7 -8 -9 -15 -6 -15 15 0 -15 -38 -33 -43 -26 -6 -49 18 -25 27 9 3 20
4 25 0 5 -3 9 2 9 11 0 12 -4 14 -19 5 -11 -5 -21 -6 -23 -1 -2 4 -16 2 -33
-5 -26 -11 -27 -13 -8 -14 30 0 19 -30 -10 -30 -57 0 -82 -8 -85 -24 -2 -11
-9 -15 -19 -12 -8 3 -23 6 -34 6 -10 0 -19 7 -19 15 0 11 -11 15 -40 15 -22 0
-40 5 -40 10 0 9 -24 7 -65 -4 -20 -5 -75 -41 -75 -49 0 -4 11 -5 25 -1 14 3
32 3 42 0 14 -6 14 -8 -3 -22 -12 -10 -15 -17 -8 -20 7 -3 10 -14 7 -24 -6
-23 9 -25 56 -9 34 12 36 16 21 39 -8 13 -11 11 -16 -7 -4 -13 -12 -23 -20
-23 -8 0 -11 6 -7 17 4 11 3 14 -5 9 -13 -8 -15 4 -6 28 3 9 10 14 14 11 5 -3
15 3 22 12 15 21 68 30 68 13 0 -6 7 -18 15 -26 9 -10 15 -34 15 -65 0 -27 4
-49 10 -49 6 0 6 -9 0 -25 -5 -14 -8 -25 -6 -25 2 0 -2 -24 -10 -52 -7 -29
-14 -54 -14 -55 0 -6 37 -3 43 3 3 4 0 15 -7 26 -11 15 -12 28 -4 56 11 38 36
77 53 81 6 1 20 11 33 21 24 21 67 27 77 10 3 -6 -3 -23 -13 -38 -11 -15 -25
-47 -32 -71 -15 -58 -121 -179 -128 -146 -4 18 -11 19 -48 5 -23 -9 -29 -8
-37 6 -8 13 -11 14 -18 3 -5 -9 -9 -10 -9 -2 0 8 -13 8 -49 -2 -28 -7 -77 -16
-110 -20 -57 -7 -86 -25 -40 -25 17 0 19 -3 10 -14 -7 -8 -8 -17 -3 -20 5 -3
16 4 25 15 10 11 22 17 28 13 8 -4 7 -9 -2 -15 -9 -6 4 -9 36 -9 28 1 59 -1
70 -3 11 -3 27 -1 36 4 13 7 18 3 22 -16 5 -31 4 -32 -55 -31 -46 1 -63 -9
-34 -20 8 -3 20 -19 27 -35 11 -28 10 -32 -26 -64 -30 -28 -46 -35 -77 -35
-32 0 -46 -7 -72 -34 -29 -29 -35 -32 -51 -20 -22 17 -45 18 -45 3 0 -6 -13
-21 -30 -35 -28 -24 -32 -56 -7 -51 7 1 11 -4 10 -10 -2 -7 2 -13 7 -13 16 0
12 -27 -6 -45 -9 -9 -29 -18 -44 -21 -17 -4 -27 -12 -26 -22 1 -12 -8 -17 -29
-19 -16 0 -36 -2 -42 -2 -7 -1 -13 -7 -13 -14 0 -15 -41 -37 -68 -37 -9 0 -42
-12 -72 -26 -30 -14 -63 -28 -72 -30 -10 -2 -28 -6 -40 -9 -13 -3 -24 -9 -26
-15 -2 -5 -15 -10 -28 -10 -14 0 -33 -4 -42 -9 -9 -5 -46 -11 -82 -14 -67 -7
-115 -14 -137 -22 -7 -2 -13 0 -13 5 0 6 11 10 24 10 13 0 27 7 30 16 3 8 9
13 14 10 4 -2 14 -1 22 4 11 7 9 11 -10 18 -28 11 -140 24 -215 27 -28 1 -56
5 -63 9 -7 4 -12 2 -12 -3 0 -6 -5 -11 -10 -11 -6 0 -8 11 -4 25 3 14 2 25 -4
25 -5 0 -9 -8 -8 -17 1 -16 -6 -17 -49 -14 -27 2 -113 5 -190 5 -95 1 -142 5
-148 13 -9 14 6 54 27 72 9 7 16 20 16 27 0 8 5 14 10 14 6 0 10 5 10 11 0 6
9 24 21 40 12 18 16 29 8 29 -8 0 -7 5 2 17 8 9 13 18 12 20 -7 9 -2 33 10 45
19 19 28 46 17 53 -6 4 -10 14 -10 23 0 13 2 13 14 -3 13 -18 15 -18 30 -2 10
9 21 17 25 17 10 0 81 68 81 79 0 5 14 14 30 21 17 7 30 18 30 26 0 7 10 19
23 25 12 7 26 18 30 25 4 8 12 14 18 14 5 0 29 18 51 40 23 22 46 40 51 40 5
0 7 9 4 20 -3 11 -1 20 4 20 5 0 9 7 9 15 0 8 6 15 14 15 10 0 12 -7 9 -22 -5
-18 -3 -21 7 -11 16 15 6 43 -16 43 -9 0 -23 -8 -31 -17 -8 -10 -12 -12 -8 -5
3 6 1 12 -5 12 -17 0 -105 -47 -119 -64 -7 -9 -17 -14 -21 -11 -4 3 -27 -8
-51 -24 -43 -29 -71 -33 -47 -6 26 29 37 40 53 54 11 9 13 17 7 23 -7 7 0 21
23 42 55 52 82 74 107 87 12 6 34 22 47 35 l24 24 -49 -15 c-27 -8 -51 -15
-54 -15 -9 0 -113 -69 -119 -78 -3 -5 -28 -21 -56 -36 -108 -58 -126 -71 -132
-94 -3 -14 -11 -21 -19 -18 -8 3 -11 0 -7 -10 3 -7 1 -14 -4 -14 -6 0 -22 -11
-37 -25 -15 -14 -32 -23 -37 -20 -5 4 -9 -1 -9 -9 0 -9 -4 -16 -8 -16 -4 0
-26 -17 -48 -38 -40 -39 -94 -63 -94 -42 0 6 -4 9 -9 5 -5 -3 -12 -1 -16 5 -3
5 -1 10 6 10 9 0 10 3 2 11 -8 8 -20 2 -42 -20 -18 -17 -35 -31 -39 -31 -4 -1
-23 -25 -42 -55 -19 -30 -38 -55 -42 -55 -5 0 -8 -5 -8 -11 0 -9 -45 -75 -60
-89 -14 -12 -50 -79 -50 -92 0 -8 -11 -27 -25 -42 -14 -15 -25 -31 -25 -37 0
-5 -4 -9 -10 -9 -5 0 -10 -5 -10 -10 0 -6 -9 -30 -21 -54 -17 -36 -25 -44 -42
-40 -12 2 -23 8 -25 14 -2 5 -10 10 -17 10 -17 0 -57 49 -49 61 6 10 -36 29
-48 23 -4 -3 -9 5 -13 16 -7 20 -25 28 -25 10 0 -5 5 -10 10 -10 6 0 10 -4 10
-10 0 -14 -61 -27 -95 -20 -16 4 -46 5 -65 4 -28 -2 -80 16 -100 36 -3 3 -16
6 -30 7 -25 2 -25 2 3 -9 15 -7 27 -15 27 -20 0 -4 8 -8 18 -9 12 0 10 -3 -8
-10 -14 -6 -29 -11 -35 -12 -5 -1 -16 -8 -23 -14 -7 -7 -25 -13 -38 -13 -29 0
-84 -26 -84 -40 0 -13 7 -13 33 4 12 8 33 13 47 11 14 -1 31 -3 38 -4 18 -2
15 -22 -5 -37 -17 -13 -17 -13 0 -14 9 0 26 9 38 21 20 20 21 20 35 2 14 -17
15 -17 9 4 -7 25 6 36 30 27 13 -5 14 -9 4 -15 -8 -4 -10 -12 -5 -16 4 -4 13
-1 20 9 9 12 16 14 29 7 11 -7 17 -6 17 0 0 5 -10 13 -22 17 -24 7 -55 34 -40
34 6 0 35 -13 66 -29 30 -16 65 -31 77 -33 12 -2 27 -11 33 -20 14 -24 -34
-68 -75 -68 -17 0 -50 -5 -74 -11 -25 -6 -52 -9 -60 -5 -8 3 -18 5 -21 5 -4 0
-10 3 -13 8 -7 11 -104 53 -121 53 -7 0 -26 6 -43 14 -26 12 -127 37 -159 40
-3 1 -10 4 -14 9 -4 4 -33 7 -65 7 -32 0 -60 4 -63 9 -3 4 -16 6 -29 4 -17 -3
-30 2 -43 19 -10 12 -31 29 -46 37 -15 8 -25 18 -22 22 4 7 -36 35 -43 31 -10
-7 -23 1 -23 13 0 8 -4 15 -9 15 -11 0 -107 88 -101 92 3 2 13 10 23 17 15 12
17 12 11 -4 -5 -12 -4 -16 4 -11 15 9 55 -30 80 -79 l21 -40 -6 34 c-4 25 -3
32 6 27 14 -9 39 15 33 32 -3 9 3 12 14 10 11 -2 18 2 17 9 -3 13 22 7 45 -10
7 -5 16 -7 20 -3 4 4 -1 13 -11 20 -21 16 -22 36 -1 36 33 0 2 18 -43 25 -27
4 -53 11 -58 15 -17 14 -66 24 -123 24 -28 1 -52 6 -52 11 0 14 35 43 52 42
39 -1 72 4 61 11 -6 4 -38 6 -70 5 -85 -4 -85 -4 -68 -23 27 -29 19 -42 -22
-35 -21 4 -49 8 -63 10 -14 2 -26 3 -28 4 -1 1 6 11 18 23 l20 22 -27 12 c-16
6 -31 9 -35 7 -5 -2 -8 0 -8 6 0 5 7 14 16 19 19 10 11 32 -11 32 -8 0 -18 -6
-22 -14 -4 -7 -19 -19 -32 -26 -15 -8 -21 -8 -17 -1 12 18 -18 39 -55 39 -60
-1 -79 2 -79 10 0 4 11 9 26 10 14 1 33 6 42 11 11 6 24 6 35 -1 10 -5 30 -6
45 -2 50 14 57 15 113 17 59 2 101 23 77 38 -9 6 -9 9 -1 9 6 0 15 -5 19 -11
4 -8 9 -7 15 2 12 20 11 31 -2 23 -6 -3 -15 -1 -19 5 -4 7 -20 14 -36 17 -16
2 -40 6 -54 8 -14 2 -33 -1 -42 -5 -12 -7 -20 -4 -26 7 -8 14 -40 17 -233 20
-221 4 -223 4 -244 28 -11 13 -27 26 -35 28 -9 3 -15 17 -15 34 0 20 -5 28
-14 26 -8 -2 -21 0 -30 4 -35 15 -51 11 -51 -13 0 -20 4 -23 21 -18 13 5 19 3
15 -3 -3 -5 3 -12 14 -15 26 -7 26 -24 0 -32 -12 -4 -29 -15 -39 -26 -19 -21
-54 -25 -111 -14 -19 3 -45 8 -58 10 -13 2 -35 11 -49 20 -20 13 -31 15 -49 7
-15 -8 -24 -8 -26 -1 -4 13 -95 14 -111 1 -7 -5 -32 -13 -57 -17 -58 -9 -106
-23 -153 -46 -22 -11 -44 -16 -50 -12 -7 4 -38 6 -70 4 l-59 -3 18 34 c10 19
19 28 22 20 3 -10 8 -9 23 4 13 12 40 18 90 20 83 3 118 23 79 44 -44 23 -198
-1 -243 -39 -9 -7 -31 -15 -49 -17 -44 -7 -82 -18 -148 -44 -30 -12 -84 -33
-119 -45 -36 -13 -71 -31 -79 -41 -7 -11 -18 -18 -23 -17 -5 2 -18 -6 -29 -17
-11 -11 -27 -20 -35 -20 -9 0 -38 -11 -65 -25 -27 -14 -54 -25 -60 -25 -14 0
-13 23 4 55 13 25 13 32 0 57 -31 60 -63 86 -115 95 -24 3 -36 -3 -69 -38 -22
-23 -40 -48 -40 -56 0 -8 -12 -26 -28 -41 -53 -54 -57 -60 -39 -80 16 -17 15
-21 -1 -53 -32 -63 -62 -89 -102 -89 -30 0 -41 -7 -70 -42 -61 -74 -70 -81
-98 -74 -15 4 -31 6 -37 6 -5 -1 -30 -3 -54 -4 -30 -2 -45 -8 -47 -18 -1 -8
-15 -29 -30 -45 -41 -43 -56 -62 -84 -108 -13 -22 -28 -41 -32 -43 -4 -2 -8
-8 -8 -14 0 -5 -7 -16 -15 -24 -8 -9 -15 -24 -15 -35 0 -10 -4 -19 -10 -19 -5
0 -10 -5 -10 -12 0 -6 -9 -21 -20 -33 -11 -11 -21 -31 -23 -44 -2 -13 -13 -31
-23 -40 -11 -9 -29 -32 -39 -51 -11 -19 -27 -44 -37 -55 -9 -11 -28 -42 -42
-69 -14 -27 -30 -54 -35 -60 -5 -6 -12 -22 -16 -36 -4 -14 -15 -43 -25 -65 -9
-22 -20 -48 -23 -58 -4 -9 -7 -19 -8 -22 -1 -2 -8 -33 -15 -67 -22 -111 -43
-212 -50 -238 -3 -14 -6 -65 -5 -114 0 -54 -5 -101 -13 -121 -8 -18 -12 -36
-9 -38 7 -8 -15 -113 -31 -150 -7 -18 -19 -53 -26 -80 -7 -26 -17 -50 -21 -53
-5 -3 -9 -13 -9 -23 0 -14 -8 -18 -42 -18 -40 0 -97 -21 -124 -47 -7 -6 -29
-24 -50 -41 -58 -47 -84 -75 -84 -90 0 -8 -4 -15 -8 -15 -8 0 -35 -63 -38 -90
-1 -8 -5 -33 -9 -55 -3 -22 -8 -49 -10 -60 -1 -12 3 -38 10 -59 27 -79 27 -83
-7 -119 -50 -51 -132 -182 -127 -204 3 -9 -19 -63 -25 -63 -2 0 -20 7 -40 15
-34 14 -37 14 -56 -5 -11 -11 -20 -16 -20 -11 0 6 -9 9 -20 8 -13 -1 -16 -5
-10 -11 15 -15 12 -23 -10 -29 -11 -3 -20 -13 -20 -22 0 -12 5 -15 20 -10 16
5 20 2 20 -19 0 -14 4 -26 8 -26 30 0 161 -138 154 -162 -3 -9 60 -128 82
-156 30 -38 99 -102 116 -107 11 -4 20 -10 20 -14 0 -5 33 -25 72 -44 69 -34
199 -63 222 -49 5 3 35 4 66 3 31 -1 86 5 123 15 66 16 104 14 92 -7 -4 -5 -9
-8 -12 -5 -3 3 -14 1 -24 -5 -18 -9 -18 -12 -4 -39 8 -16 15 -35 15 -43 0 -28
30 -40 101 -39 47 0 79 6 95 17 13 8 24 11 24 6 0 -5 18 -27 39 -49 22 -22 45
-51 52 -63 22 -41 96 -119 114 -119 5 0 23 -14 39 -30 16 -17 36 -30 43 -30 8
0 11 -5 8 -11 -4 -6 -13 -8 -21 -5 -9 4 -18 -4 -24 -19 -5 -14 -14 -25 -20
-25 -5 0 -10 -7 -10 -15 0 -24 67 -17 74 8 2 10 9 16 14 13 16 -10 1 -46 -18
-46 -16 0 -18 -8 -15 -77 3 -61 0 -82 -12 -95 -24 -27 -6 -83 27 -84 40 -2 60
-14 77 -48 21 -40 41 -55 76 -56 32 0 87 -53 87 -82 0 -10 4 -18 8 -18 5 0 13
-10 19 -22 6 -13 24 -31 41 -40 27 -16 30 -16 28 -1 -2 24 21 27 29 4 3 -12
13 -21 21 -21 8 0 12 -4 9 -10 -8 -13 -5 -12 33 1 17 6 34 19 37 30 4 10 11
19 16 19 5 0 9 6 9 14 0 10 -9 14 -27 12 -29 -4 -53 9 -53 26 0 6 7 7 16 4 8
-3 13 -2 9 3 -12 20 10 43 67 72 57 29 61 29 74 12 14 -17 14 -16 5 4 -7 14
-8 30 -2 45 5 13 12 35 15 49 4 18 14 29 30 33 14 3 28 16 32 29 4 12 22 36
40 53 19 17 34 38 34 46 0 9 6 23 14 30 8 8 15 23 17 33 2 10 15 20 27 22 l24
3 -23 -37 c-13 -20 -17 -33 -11 -29 7 4 12 1 12 -9 0 -12 -5 -15 -16 -11 -10
4 -22 -1 -30 -11 -21 -28 -16 -41 6 -14 18 21 20 21 20 5 0 -16 2 -17 10 -4 6
9 10 11 10 3 0 -7 6 -10 13 -7 24 9 127 11 127 2 0 -10 9 -21 62 -79 31 -33
36 -44 28 -59 -13 -24 -13 -33 0 -25 6 3 10 1 10 -5 0 -6 -6 -13 -14 -16 -8
-3 -12 -12 -9 -20 3 -8 9 -11 14 -8 5 3 9 0 9 -5 0 -6 -5 -11 -10 -11 -6 0 -9
-3 -9 -7 1 -5 0 -10 -1 -13 -1 -3 -3 -14 -5 -24 -2 -11 -6 -30 -10 -43 -6 -24
9 -33 18 -10 3 6 6 2 6 -10 1 -13 -3 -23 -7 -23 -13 0 -28 -60 -26 -100 1 -19
4 -58 8 -86 6 -42 4 -54 -14 -76 -11 -14 -20 -30 -20 -35 0 -5 -25 -36 -55
-68 -30 -33 -55 -64 -55 -70 0 -5 15 6 33 26 18 20 43 41 55 48 31 17 62 43
62 54 0 5 7 16 16 24 15 15 19 15 50 -2 30 -16 51 -47 46 -68 -1 -4 6 -3 17 2
10 6 20 8 23 6 6 -6 168 147 168 157 0 4 10 18 23 32 12 13 28 31 35 40 7 9
18 14 24 10 7 -4 6 -9 -2 -14 -14 -9 11 -20 43 -19 15 0 17 2 7 6 -8 3 -18 11
-22 17 -16 23 -7 25 24 6 17 -10 35 -17 40 -14 4 3 8 1 8 -5 0 -14 68 -34 88
-25 29 12 42 13 48 2 4 -6 10 -5 16 3 6 10 7 7 3 -8 -5 -17 -2 -23 9 -23 9 0
16 -4 16 -10 0 -5 7 -10 15 -10 8 0 15 5 15 11 0 5 -5 7 -12 3 -7 -5 -9 0 -6
14 7 25 -13 45 -40 40 -31 -5 -54 20 -41 44 8 15 8 22 -1 28 -7 4 -9 13 -6 19
4 6 -5 18 -21 28 -37 21 -60 98 -31 100 10 1 18 -3 18 -8 0 -5 9 -4 19 3 17
10 31 7 88 -22 37 -19 70 -38 71 -42 2 -4 8 -6 13 -3 5 4 19 -3 31 -14 20 -20
41 -25 79 -22 9 1 19 -5 22 -13 4 -9 13 -13 21 -10 8 3 33 -7 57 -23 24 -16
44 -23 46 -17 2 7 21 5 56 -7 29 -10 64 -19 77 -21 14 -2 30 -6 36 -10 5 -4
19 -5 30 -4 10 2 42 -5 70 -14 27 -10 72 -20 100 -23 78 -8 129 -19 135 -29 3
-5 33 -11 65 -13 32 -2 69 -6 82 -9 13 -3 76 -6 139 -7 l117 -2 3 25 c2 18 -3
28 -19 36 -18 8 -19 11 -5 11 19 1 21 9 9 29 -5 7 -16 10 -25 6 -11 -4 -17 -1
-17 9 0 19 16 31 24 18 4 -5 24 -8 46 -6 22 3 40 1 40 -4 0 -4 12 -8 28 -9 15
0 41 -3 57 -6 49 -9 255 -14 255 -6 0 4 -10 7 -22 7 -38 0 -78 14 -78 29 0 12
-29 12 -49 -1 -5 -3 -12 3 -16 14 -6 20 -35 37 -35 21 0 -6 -4 -10 -9 -10 -5
0 -7 8 -5 18 6 21 88 76 92 62 2 -6 10 -10 18 -10 17 0 18 -12 2 -29 -14 -14
-8 -13 35 8 15 8 27 18 27 23 0 4 11 18 25 30 14 12 25 27 25 35 0 7 12 26 28
43 20 23 37 31 70 33 46 4 51 0 25 -18 -16 -12 -16 -14 0 -29 17 -18 21 -30
17 -55 -1 -9 4 -12 14 -8 8 3 23 -1 31 -10 19 -18 19 -18 32 22 5 17 14 30 19
30 19 0 32 16 38 45 3 18 10 29 16 25 6 -3 13 0 16 8 5 14 49 33 67 28 9 -2
96 48 115 66 8 7 18 11 23 8 5 -4 9 -1 9 4 0 6 7 11 15 11 8 0 15 5 15 10 0 6
6 10 13 10 22 0 20 -58 -3 -70 -11 -6 -20 -20 -20 -31 0 -16 -4 -19 -20 -14
-14 4 -20 2 -20 -8 0 -7 6 -14 13 -15 29 -2 52 -9 50 -15 -2 -4 -3 -13 -3 -21
0 -8 -13 -19 -30 -25 -26 -9 -30 -15 -30 -47 l0 -38 28 27 c16 15 32 24 37 20
5 -5 3 0 -4 10 -13 16 -8 22 13 18 5 -1 12 3 16 9 4 7 16 7 38 -1 24 -8 32
-17 32 -35 0 -20 24 -44 44 -44 3 0 22 34 43 76 36 73 41 78 108 115 53 29 71
44 72 61 1 12 -1 25 -5 28 -4 3 -15 17 -25 32 -20 32 -98 88 -122 88 -20 0
-75 31 -75 42 0 4 7 8 15 8 8 0 15 5 15 11 0 5 5 7 10 4 6 -4 7 -12 4 -18 -5
-9 -4 -9 6 0 7 6 19 9 28 6 11 -5 13 -3 7 7 -12 19 -8 69 6 86 8 10 21 13 38
9 14 -4 37 -9 51 -11 14 -3 49 -12 79 -22 l53 -16 -5 -38 c-4 -27 0 -41 13
-53 12 -11 20 -13 25 -5 3 5 11 7 17 4 7 -4 6 -9 -1 -14 -8 -4 -5 -15 9 -33
12 -15 17 -27 11 -27 -28 0 -6 -19 33 -29 73 -18 92 -14 123 24 30 38 45 38
95 3 31 -21 68 -31 68 -18 0 5 9 11 19 15 11 3 37 17 57 32 l38 25 55 -17 c57
-18 77 -23 99 -24 6 -1 12 -8 12 -17 0 -14 3 -14 15 -4 23 19 95 -4 95 -30 0
-10 -3 -20 -7 -22 -5 -1 -18 -21 -30 -43 -12 -22 -31 -46 -42 -53 -18 -12 -23
-11 -46 12 -16 16 -25 20 -25 11 0 -8 4 -16 9 -20 6 -3 9 -13 9 -23 -1 -9 2
-29 5 -44 11 -44 48 -37 102 18 25 25 45 52 45 60 0 28 45 114 60 114 8 1 80
2 160 3 142 3 146 3 207 35 34 18 64 32 67 32 2 0 9 -13 16 -30 7 -16 16 -30
20 -30 4 0 13 -13 20 -30 7 -16 16 -30 21 -30 4 0 10 -9 14 -19 6 -21 31 -34
46 -26 5 4 -6 36 -25 73 -46 91 -53 129 -29 148 17 14 17 15 -6 8 -16 -4 -21
-3 -17 5 4 6 1 11 -8 11 -8 0 -17 -6 -20 -12 -3 -9 -11 -6 -25 11 l-21 23 -9
-23 c-5 -13 -7 -27 -5 -30 2 -4 -13 -3 -34 2 -58 13 -90 17 -182 24 -119 9
-123 11 -104 39 8 13 14 28 13 32 -4 23 2 36 15 31 8 -3 16 -2 18 2 2 5 28 11
58 15 59 6 64 7 155 31 33 9 69 17 80 18 11 1 22 4 25 7 9 10 76 30 98 30 12
0 22 5 22 11 0 8 12 10 36 6 31 -5 34 -4 29 14 -5 15 -2 19 18 19 28 0 38 -18
30 -49 -4 -16 1 -23 23 -32 40 -16 54 -19 54 -9 0 5 -10 10 -22 12 -25 3 -28
20 -6 26 9 2 8 0 -2 -7 -13 -9 -13 -11 3 -11 9 0 17 4 17 9 0 5 10 7 21 4 19
-5 21 -3 14 25 l-6 31 48 -4 c64 -5 103 -15 103 -26 0 -14 -33 -24 -38 -11 -2
6 -10 8 -18 5 -27 -10 25 -39 70 -38 22 0 43 -3 46 -6 8 -10 120 -18 114 -8
-3 5 -2 9 3 10 4 0 22 3 38 5 24 4 28 3 18 -7 -14 -14 -17 -30 -5 -28 4 1 20
1 36 0 20 -1 27 -5 23 -15 -7 -17 61 -29 80 -14 7 5 18 6 24 2 8 -4 9 -3 5 4
-8 13 1 14 91 15 37 0 54 5 58 15 5 13 8 12 19 -3 9 -13 25 -18 50 -17 29 1
36 -2 34 -16 -2 -9 3 -17 12 -17 19 0 24 -28 12 -65 -12 -34 -9 -39 23 -32 16
3 25 11 25 23 0 23 26 25 46 4 14 -13 12 -15 -12 -15 -36 0 -24 -11 17 -16 18
-2 35 -6 37 -9 3 -3 11 0 18 6 12 10 49 -3 64 -23 7 -8 106 -53 153 -68 75
-24 168 -32 357 -34 162 -1 404 9 430 18 8 3 40 7 70 11 30 3 69 7 85 9 17 2
57 7 90 11 33 3 94 14 135 24 41 10 91 17 110 16 34 -2 69 9 81 27 6 9 15 11
91 22 26 4 63 18 83 31 19 14 49 32 66 40 38 20 189 177 189 197 0 6 12 8 26
5 19 -3 35 4 62 29 20 19 42 34 47 34 6 0 3 -5 -5 -10 -12 -8 -9 -10 12 -10
20 0 31 8 43 30 9 17 19 30 24 30 13 0 32 -26 24 -33 -3 -4 0 -7 8 -7 10 -1 9
-4 -4 -11 -24 -14 -11 -32 14 -19 12 7 19 7 19 1 0 -6 7 -8 15 -5 8 4 15 12
15 19 0 15 95 16 118 2 7 -5 19 -4 27 3 15 13 35 6 35 -12 0 -6 -6 -6 -15 2
-13 11 -14 10 -9 -4 3 -9 12 -16 20 -16 25 0 62 23 58 35 -4 9 3 11 28 6 32
-7 33 -9 34 -56 2 -73 3 -77 13 -71 5 3 11 -4 15 -17 6 -22 52 -51 67 -41 5 3
9 0 9 -6 0 -7 8 -9 19 -5 11 3 22 1 26 -5 3 -6 11 -8 16 -4 5 3 7 10 4 15 -4
5 -1 9 5 9 14 0 41 26 34 32 -2 3 3 11 13 19 15 12 16 12 8 -1 -6 -10 -2 -9
12 3 12 10 28 20 37 21 19 3 66 42 66 56 0 5 -7 10 -15 10 -8 0 -15 5 -15 10
0 12 53 5 81 -11 15 -7 19 -6 19 6 0 10 -10 15 -30 15 -16 0 -30 4 -30 8 0 18
30 68 50 82 47 34 4 55 -54 25 -15 -8 -37 -15 -48 -15 -11 0 -28 -5 -39 -11
-28 -15 -89 6 -89 31 0 10 5 22 10 25 6 3 10 15 10 25 0 28 28 40 59 27 37
-16 41 -27 25 -60 -9 -16 -13 -32 -9 -35 3 -3 8 4 12 16 3 12 9 19 14 16 5 -3
8 -2 7 3 -4 13 34 58 62 73 31 16 100 90 100 107 0 7 4 13 8 13 16 0 52 95 50
132 -1 44 17 71 43 63 11 -4 42 -22 70 -41 28 -19 56 -34 63 -34 7 0 17 -5 24
-12 15 -15 42 -19 42 -6 0 5 -9 12 -19 15 -11 3 -25 17 -31 33 -7 17 -21 30
-38 33 -32 7 -75 66 -66 91 5 14 22 20 45 18 3 -1 6 6 6 14 0 8 -5 14 -11 14
-5 0 0 8 13 18 13 9 37 29 54 44 17 15 35 24 40 21 6 -3 7 -1 3 5 -3 6 -2 13
4 17 16 10 12 35 -5 29 -8 -4 -15 -12 -15 -20 0 -16 -16 -19 -25 -4 -10 15
-35 12 -35 -5 0 -10 -10 -15 -31 -15 -18 0 -28 4 -24 10 4 6 11 7 17 4 7 -5 9
-1 5 9 -4 10 0 20 11 26 25 15 -3 13 -41 -2 -41 -16 -67 -11 -67 14 0 18 -25
25 -67 20 -16 -2 -16 6 2 74 8 31 17 89 20 128 3 40 8 85 11 100 l6 28 116 -7
c65 -4 128 -8 142 -9 14 -1 45 3 70 7 25 5 56 11 70 13 54 7 50 5 140 84 19
17 44 33 55 35 11 3 54 13 95 22 41 10 83 18 93 19 10 1 22 6 25 12 11 16 47
32 85 37 19 2 46 11 59 20 14 9 27 14 30 11 7 -8 58 16 58 26 0 5 23 20 50 34
28 14 50 23 50 20 0 -3 31 10 69 29 38 19 71 32 75 29 3 -4 6 0 6 7 0 7 3 10
7 7 3 -4 13 -1 21 6 12 9 16 9 19 0 3 -7 9 -13 15 -13 5 0 6 9 3 20 -5 15 -2
20 12 20 10 0 43 16 73 35 30 20 103 60 163 91 59 30 107 57 107 60 0 2 -9 0
-21 -6 -23 -13 -82 -4 -73 11 3 5 -2 9 -10 9 -9 0 -16 -7 -16 -15 0 -20 -10
-19 -25 1 -6 9 -26 18 -44 20 -18 2 -37 6 -42 9 -5 4 -6 -2 -2 -11 5 -13 3
-16 -10 -11 -11 4 -15 0 -14 -15 1 -19 6 -20 94 -16 51 3 93 2 93 -1 0 -6
-397 -208 -455 -231 -44 -18 -87 -31 -113 -35 -13 -2 -29 -9 -37 -15 -8 -6
-24 -13 -37 -15 -28 -5 -46 -9 -73 -18 -11 -3 -31 -9 -45 -12 -14 -3 -52 -11
-85 -19 -54 -11 -106 -8 -123 8 -11 11 9 36 28 36 12 0 19 4 16 9 -3 4 -18 6
-33 3 -26 -5 -27 -4 -14 12 8 10 27 24 43 32 27 14 94 74 83 74 -11 0 -89 -43
-103 -56 -7 -8 -17 -12 -22 -9 -5 3 12 27 38 53 26 26 46 46 43 45 -2 -2 -10
2 -18 8 -10 9 -13 7 -13 -9 0 -27 -30 -45 -51 -31 -11 8 -11 12 -1 16 17 7 15
53 -3 53 -16 0 -10 29 9 43 6 5 1 5 -11 2 -17 -5 -23 -2 -23 10 0 30 62 15 85
-21 31 -49 46 -55 96 -37 24 8 52 17 63 19 25 5 33 14 13 14 -16 0 -25 29 -9
31 4 0 15 2 25 4 16 3 18 -1 12 -22 -4 -17 -2 -22 5 -18 6 4 26 9 43 12 44 7
89 32 84 46 -2 7 -14 18 -28 24 -20 10 -25 10 -27 -2 -2 -8 -13 -15 -25 -16
-48 -2 -213 1 -227 4 -8 2 -37 7 -65 11 -27 4 -66 12 -85 18 -40 13 -102 57
-95 68 3 4 -9 10 -25 12 -20 3 -30 0 -30 -9 0 -21 -32 -15 -65 12 -144 119
-215 189 -221 216 -3 13 -6 31 -8 39 -2 8 -11 15 -22 15 -14 0 -20 10 -25 40
-4 22 -5 41 -4 43 2 2 -6 13 -17 24 l-21 21 24 13 c13 7 19 13 12 14 -7 0 -10
7 -6 15 6 16 43 17 54 2 3 -4 19 -10 35 -11 19 -3 29 -9 28 -20 -1 -9 1 -14 5
-11 4 2 27 -3 51 -11 50 -17 110 -25 110 -15 0 9 -38 41 -48 41 -5 0 -18 12
-31 26 l-22 25 21 45 c12 24 26 44 31 44 5 0 9 6 9 14 0 8 7 22 16 31 18 18
15 25 -13 29 -10 2 -16 6 -15 11 2 4 -2 12 -10 16 -10 7 -10 9 0 9 6 0 12 10
12 21 0 12 13 36 29 54 16 18 31 39 33 46 5 14 92 19 143 9 25 -5 35 0 66 31
25 26 36 46 36 68 0 35 -17 42 -60 27 -19 -8 -33 -7 -46 1 -16 10 -17 8 -13
-13 3 -17 0 -24 -11 -24 -8 0 -23 -3 -33 -7 -12 -4 -15 -3 -10 5 13 21 17 62
6 62 -5 0 -10 -4 -10 -10 0 -5 -6 -10 -13 -10 -18 0 -67 -24 -67 -32 0 -17
-30 -7 -31 10 0 10 -3 12 -6 5 -2 -7 -13 -13 -23 -13 -10 0 -26 -7 -35 -16
-18 -18 -76 -32 -111 -26 -19 3 -22 9 -20 52 0 28 2 45 4 40 2 -6 8 -10 14
-10 6 0 8 7 4 15 -3 8 -2 15 3 15 5 0 11 17 14 38 9 52 12 66 18 77 4 6 7 46
8 90 3 86 11 105 47 105 18 0 22 4 17 17 -5 11 -3 14 6 8 10 -6 11 -3 1 15 -7
13 -17 19 -26 16 -8 -3 -20 -8 -28 -12 -10 -4 -15 10 -20 53 -3 32 -9 78 -12
103 -3 25 -6 50 -6 57 -1 6 -7 9 -15 6 -12 -5 -16 -63 -3 -63 3 0 6 -32 6 -70
1 -39 -2 -70 -7 -70 -4 0 -4 -12 0 -27 4 -16 6 -48 4 -73 -3 -25 -6 -63 -7
-86 -1 -22 -6 -46 -10 -52 -4 -7 -2 -12 3 -12 6 0 11 -11 11 -25 0 -14 -4 -25
-10 -25 -5 0 -10 -6 -10 -13 0 -8 -11 -19 -25 -25 -26 -12 -36 -38 -10 -28 19
7 19 1 -1 -18 -14 -15 -14 -16 2 -16 17 0 17 -1 0 -13 -9 -7 -17 -17 -16 -22
9 -44 -11 -57 -93 -60 -52 -2 -66 10 -51 43 4 9 6 22 5 29 -1 6 6 10 16 8 24
-3 38 6 22 15 -7 5 8 8 36 7 39 -2 49 1 51 15 1 10 5 36 9 58 5 27 3 40 -5 40
-6 0 -8 -4 -5 -10 3 -5 -1 -10 -9 -10 -20 0 -20 14 0 34 8 9 11 16 5 16 -14 0
-51 -41 -51 -56 0 -17 -8 -21 -60 -29 -24 -4 -51 -15 -60 -25 -13 -15 -19 -17
-30 -7 -10 9 -13 9 -17 -1 -3 -6 -9 -9 -14 -6 -6 3 -5 11 2 20 9 12 9 13 -3 9
-9 -4 -22 1 -31 9 -8 8 -17 12 -20 9 -11 -11 -71 -11 -89 1 -15 9 -22 8 -31
-4 -14 -17 -32 -23 -64 -22 -13 1 -23 -4 -23 -11 0 -6 -11 -13 -25 -13 -17 -1
-26 5 -31 20 -4 11 -14 27 -23 34 -14 11 -10 12 24 11 44 -3 85 8 85 21 0 13
42 3 52 -12 6 -10 8 -10 8 2 0 11 3 11 12 2 19 -19 25 -14 20 19 -4 28 -2 30
16 25 17 -6 20 -2 18 18 -1 20 -5 24 -21 20 -46 -11 -204 -11 -208 0 -3 6 -9
2 -13 -9 -6 -13 -19 -20 -38 -20 -22 -1 -42 13 -87 57 -33 32 -59 55 -59 51 0
-5 -5 -1 -10 7 -5 8 -21 15 -36 15 -15 0 -29 6 -32 13 -2 7 0 12 5 11 24 -4
22 4 -7 30 -32 27 -35 56 -5 44 8 -3 15 -1 15 5 0 5 -11 13 -24 16 -13 3 -32
9 -43 12 -17 5 -17 5 0 -6 9 -6 17 -15 17 -20 0 -14 -32 1 -57 26 -33 33 -112
69 -125 56 -7 -7 -4 -13 10 -21 10 -6 22 -8 25 -5 3 3 8 -4 12 -15 3 -12 11
-21 16 -21 5 0 9 -5 9 -11 0 -7 9 -20 21 -30 26 -22 17 -44 -11 -29 -11 6 -23
25 -28 42 -7 27 -15 34 -51 43 -35 8 -40 12 -29 23 11 11 8 12 -17 6 -33 -8
-45 -20 -45 -46 0 -10 -5 -18 -10 -18 -6 0 -8 10 -4 24 8 32 -30 43 -50 15
-13 -19 -14 -19 -20 4 -4 18 -12 23 -34 22 -15 -1 -33 -4 -40 -9 -6 -4 -21 -2
-32 4 -11 6 -37 9 -58 6 -41 -5 -96 -24 -72 -26 12 0 12 -2 2 -9 -21 -13 18
-20 86 -16 31 2 62 -1 69 -7 9 -7 13 -7 13 1 0 8 5 7 15 -3 9 -8 23 -12 31 -9
14 5 15 3 5 -16 -11 -21 -17 -22 -88 -16 -54 4 -79 2 -84 -6 -11 -19 1 -39 23
-39 17 0 18 3 8 15 -16 20 -11 19 36 -5 l39 -19 -50 -2 c-27 -1 -54 0 -60 2
-12 3 -67 8 -150 13 -65 3 -75 -2 -151 -72 -30 -28 -61 -80 -70 -117 -22 -95
-120 -181 -217 -190 -23 -2 -58 -7 -77 -11 -39 -7 -77 -8 -162 -3 -43 2 -68
-2 -107 -21 -28 -13 -53 -31 -56 -41 -3 -9 -13 -20 -22 -23 -12 -5 -13 -9 -3
-21 7 -8 19 -15 26 -15 7 0 23 -13 36 -30 12 -16 29 -30 37 -30 13 -1 13 -2
-2 -11 -13 -8 -15 -14 -7 -30 6 -11 8 -24 5 -29 -3 -6 4 -10 17 -11 l23 0 -22
-11 c-13 -6 -23 -16 -23 -23 0 -20 -36 -55 -57 -55 -12 0 -26 6 -32 14 -13 16
-66 31 -93 27 -9 -1 -22 7 -28 18 -6 12 -8 21 -4 21 14 0 -22 32 -50 45 l-31
13 27 1 c15 1 30 5 33 11 3 5 0 7 -9 4 -11 -4 -15 2 -14 24 1 34 -9 55 -23 47
-15 -10 -10 32 6 45 8 7 15 21 15 31 0 11 4 19 10 19 5 0 12 11 16 25 3 14 9
25 13 25 10 0 10 34 0 40 -12 8 1 51 13 44 5 -3 7 -12 4 -20 -3 -8 1 -14 9
-14 20 0 19 12 -4 36 -20 22 -44 63 -46 79 -6 51 -19 115 -23 111 -2 -3 -12
-1 -22 4 -11 6 -42 4 -85 -5 -38 -8 -79 -13 -92 -11 -15 3 -23 0 -23 -9 0 -27
13 -45 32 -45 19 0 18 -1 -4 -29 -13 -15 -35 -35 -50 -44 -24 -14 -26 -19 -18
-46 9 -32 -3 -52 -17 -27 -4 8 -21 16 -37 18 -32 3 -30 -6 -40 167 -4 68 -11
102 -25 127 -21 34 -16 45 8 22 14 -13 14 -9 -5 37 -8 19 10 19 29 1 8 -9 24
-12 36 -9 12 3 21 1 21 -6 0 -16 19 -14 36 4 9 8 28 15 42 15 15 0 42 4 60 9
21 7 32 6 32 -1 0 -6 7 -5 17 3 11 10 14 10 9 2 -11 -19 5 -16 21 5 8 9 12 12
9 5 -10 -19 38 -11 58 10 12 11 22 14 30 9 14 -12 61 -5 98 14 24 12 29 12 34
1 6 -16 34 -19 31 -3 -2 10 154 49 163 40 2 -3 -5 -13 -18 -22 -21 -17 -21
-17 26 -16 26 1 67 7 91 14 27 7 67 9 107 5 53 -6 64 -5 64 7 0 10 9 14 28 13
15 -1 35 2 44 7 9 4 28 9 42 10 15 1 26 6 26 11 0 4 5 5 10 2 6 -3 10 -1 10 4
0 6 11 11 25 11 14 0 28 7 31 15 7 17 40 20 49 5 4 -6 3 -10 -2 -9 -26 4 -42
-2 -37 -16 4 -11 -5 -16 -35 -21 -23 -4 -41 -10 -41 -15 0 -15 105 -10 125 5
14 10 25 11 38 5 13 -7 19 -6 23 5 3 9 24 21 45 26 21 6 39 15 39 21 0 6 9 7
21 4 15 -5 19 -4 15 4 -4 6 -13 11 -19 11 -7 0 -14 10 -14 22 -3 32 -32 50
-78 47 -54 -3 -130 12 -114 22 7 4 16 6 20 4 15 -10 119 -13 124 -4 4 5 2 9
-3 9 -5 0 -22 11 -38 25 -16 14 -37 28 -47 31 -9 3 -15 9 -12 14 3 5 -8 11
-25 15 -16 4 -30 11 -30 16 0 6 -4 8 -9 5 -11 -7 -72 13 -90 30 -12 11 -17 10
-28 -4 -11 -12 -16 -14 -19 -4 -3 6 -14 12 -25 12 -10 0 -19 -6 -19 -12 0 -7
-7 -22 -15 -32 -14 -18 -15 -17 -13 22 1 22 5 39 10 36 4 -3 13 -2 20 2 7 4
33 9 58 10 25 1 81 6 125 11 44 4 96 8 117 8 20 0 34 3 31 8 -2 4 -15 7 -29 7
-13 0 -24 4 -24 9 0 11 -60 33 -60 23 0 -4 -4 -2 -8 3 -4 6 -32 17 -62 24 -68
17 -77 19 -67 13 4 -2 0 -10 -10 -18 -12 -9 -13 -13 -5 -14 7 0 10 -5 7 -10
-4 -7 -12 -7 -25 0 -10 6 -33 9 -49 8 -37 -4 -46 14 -11 19 63 9 68 30 11 39
l-40 6 1 47 c1 51 -21 161 -32 161 -4 0 -13 14 -20 30 -7 18 -20 30 -31 30
-22 0 -34 16 -17 24 9 3 7 9 -6 20 -23 19 -46 22 -28 4 19 -19 14 -30 -10 -22
-16 5 -11 -4 19 -33 32 -31 37 -41 27 -51 -7 -7 -18 -12 -24 -12 -7 0 -8 -6
-2 -17 5 -10 9 -36 11 -58 1 -22 8 -44 14 -50 7 -5 11 -19 9 -31 -3 -19 -9
-20 -80 -18 -110 4 -175 13 -193 27 -9 7 -28 35 -43 62 -15 28 -38 70 -52 94
-14 24 -23 50 -20 56 4 11 -27 32 -59 41 -30 8 -64 17 -97 23 -43 9 -65 25
-73 52 -4 11 -15 19 -27 19 -16 0 -19 -5 -16 -25 5 -23 2 -25 -33 -25 -21 0
-41 5 -45 11 -4 8 1 9 17 4 19 -5 21 -4 9 5 -13 9 -13 12 4 25 19 14 19 15
-10 40 -16 14 -31 25 -34 26 -3 0 -12 2 -20 4 -8 2 -28 7 -45 10 -16 3 -32 9
-35 13 -3 4 -15 7 -27 6 -12 -1 -43 6 -70 16 -26 9 -53 15 -59 13 -6 -2 -17 3
-24 12 -10 12 -10 15 4 15 9 0 16 7 16 16 0 11 6 14 20 9 15 -5 18 -3 14 9 -3
9 3 20 15 28 12 7 21 21 21 31 0 15 -6 17 -31 13 -17 -2 -32 -6 -33 -8 -48
-81 -73 -101 -112 -94 -12 3 -34 -2 -49 -10 -33 -17 -35 -17 -35 -1 0 7 -14
12 -37 12 -43 0 -53 17 -18 33 51 23 16 106 -40 94z m245 -207 c0 -9 -6 -12
-15 -9 -8 4 -15 10 -15 15 0 5 7 9 15 9 8 0 15 -7 15 -15z m322 -72 c-6 -3
-10 -9 -6 -14 3 -5 -2 -9 -11 -9 -22 0 -55 18 -55 31 0 5 11 2 24 -6 22 -15
24 -14 29 7 5 19 8 20 19 9 10 -11 10 -14 0 -18z m-493 -42 c9 -6 10 -11 2
-15 -13 -8 -31 1 -31 15 0 11 11 11 29 0z m321 -1 c0 -12 -38 -33 -69 -36 -25
-3 -121 -64 -121 -77 0 -4 7 -10 16 -14 18 -7 84 22 84 36 0 5 9 13 20 16 11
3 27 14 36 23 15 15 18 14 35 -7 l18 -22 13 20 c7 12 21 21 31 21 11 0 15 -4
11 -12 -4 -7 -3 -8 4 -4 19 11 35 -3 21 -20 -9 -11 -6 -16 14 -25 18 -8 23
-17 19 -31 -3 -14 -7 -16 -13 -7 -9 15 -39 21 -39 8 0 -5 6 -9 14 -9 8 0 16
-5 18 -12 2 -6 26 -13 52 -14 26 -2 54 -8 62 -15 10 -8 14 -8 14 0 0 7 8 8 25
1 14 -5 25 -6 25 -2 0 4 5 -1 11 -10 5 -10 18 -18 28 -18 27 0 35 -30 14 -47
-14 -10 -15 -13 -3 -11 29 4 60 -13 60 -33 0 -11 4 -18 9 -14 5 3 12 1 15 -4
6 -9 -32 -27 -74 -35 -14 -3 -40 -9 -57 -15 -18 -5 -33 -8 -33 -5 0 3 -9 0
-20 -6 -13 -7 -20 -7 -20 -1 0 14 -49 61 -63 61 -7 0 -4 -6 6 -14 24 -19 21
-35 -5 -29 -20 4 -21 3 -5 -7 26 -16 21 -36 -13 -50 -16 -7 -30 -16 -30 -21 0
-7 -29 -20 -40 -17 -9 2 -88 -41 -95 -52 -3 -5 -13 -10 -20 -10 -8 0 -28 -14
-46 -31 -29 -28 -32 -29 -54 -15 -12 8 -25 12 -29 9 -15 -15 73 -123 101 -123
7 0 13 -4 13 -10 0 -5 8 -10 18 -10 10 0 22 -4 28 -9 26 -25 83 -48 107 -44
15 3 27 9 27 14 0 12 56 40 64 32 3 -4 6 1 6 10 0 10 5 17 10 17 18 0 10 -24
-15 -49 -27 -25 -35 -52 -10 -31 25 21 26 6 2 -27 -12 -16 -28 -28 -34 -26 -7
3 -13 -2 -13 -11 0 -9 -5 -16 -11 -16 -6 0 -9 -7 -5 -15 3 -9 0 -15 -9 -15 -8
0 -15 -5 -15 -10 0 -10 -23 -8 -91 6 -15 3 -37 16 -49 29 -19 20 -26 22 -46
13 -18 -9 -21 -14 -13 -25 9 -10 8 -13 0 -13 -11 0 -22 8 -56 38 -12 10 -21 9
-54 -8 -49 -25 -51 -25 -46 -1 2 14 -3 20 -21 24 -13 2 -27 0 -30 -4 -3 -5
-10 -9 -15 -9 -6 0 -7 5 -4 10 3 6 -1 10 -10 10 -8 0 -18 6 -21 14 -3 8 -12
12 -20 9 -10 -3 -14 2 -14 18 0 38 -13 50 -48 44 -20 -3 -36 0 -46 11 -21 21
-20 46 2 43 36 -3 51 1 46 14 -3 8 10 40 29 73 43 77 50 94 32 88 -8 -4 -18 7
-26 30 -7 20 -17 36 -21 36 -13 0 -9 17 8 34 8 9 20 14 25 11 10 -7 12 5 9 50
-1 17 -7 33 -12 36 -6 4 -1 10 11 14 11 3 21 11 21 16 0 12 49 59 61 59 5 0
12 0 15 -1 4 0 11 5 15 13 6 10 9 8 9 -7 0 -15 2 -17 9 -6 5 7 14 10 20 7 6
-4 11 -3 11 2 0 5 9 19 20 32 24 27 25 40 5 40 -8 0 -15 -7 -15 -16 0 -8 -4
-13 -9 -10 -5 4 -12 0 -15 -6 -3 -7 -3 -3 0 9 4 18 2 22 -11 17 -9 -4 -14 -13
-11 -20 3 -8 0 -11 -9 -8 -14 6 -12 62 2 73 5 3 17 23 28 44 11 20 22 37 25
38 45 6 121 6 125 -1 6 -10 56 -3 70 11 12 12 25 12 25 -1z m280 -14 c0 -3 -4
-8 -10 -11 -5 -3 -10 -1 -10 4 0 6 5 11 10 11 6 0 10 -2 10 -4z m-94 -75 c-11
-18 -26 -13 -26 9 0 11 -5 20 -11 20 -5 0 -7 5 -3 11 4 7 13 4 26 -9 11 -11
17 -25 14 -31z m264 -7 c0 -8 -5 -12 -10 -9 -6 4 -8 11 -5 16 9 14 15 11 15
-7z m-755 -41 c-1 -12 -9 -17 -21 -15 -18 3 -18 3 1 -12 20 -15 20 -15 -2 -16
-18 0 -23 6 -23 24 0 22 9 29 42 35 3 0 5 -7 3 -16z m-105 -23 c0 -5 8 -10 17
-10 9 0 14 -3 10 -6 -9 -9 -57 5 -57 16 0 6 7 10 15 10 8 0 15 -4 15 -10z
m876 -45 c9 -19 21 -35 27 -35 6 0 7 -3 4 -6 -3 -4 -2 -15 4 -25 6 -13 6 -19
0 -19 -6 0 -15 9 -21 19 -6 12 -19 18 -33 17 -20 -2 -23 1 -19 26 3 18 0 28
-8 28 -10 0 -10 3 0 15 19 22 27 19 46 -20z m-256 -175 c0 -5 -7 -10 -15 -10
-8 0 -15 5 -15 10 0 6 7 10 15 10 8 0 15 -4 15 -10z m536 -58 c-26 -2 -46 -7
-46 -13 0 -5 -4 -9 -10 -9 -21 0 -10 40 13 44 54 12 63 12 75 -3 11 -14 8 -16
-32 -19z m179 18 c3 -5 2 -10 -4 -10 -5 0 -13 5 -16 10 -3 6 -2 10 4 10 5 0
13 -4 16 -10z m-3655 -19 c0 -30 13 -32 56 -12 49 24 58 19 34 -22 -29 -47
-80 -153 -80 -166 0 -6 -4 -11 -10 -11 -5 0 -7 -6 -4 -14 3 -8 1 -17 -5 -20
-8 -6 -21 -53 -35 -136 -3 -14 -5 -26 -5 -28 -1 -2 -10 3 -22 11 -11 8 -29 12
-40 10 -15 -4 -18 -2 -13 11 11 28 -15 17 -30 -13 -10 -19 -25 -30 -45 -33
-28 -4 -28 -3 -18 21 7 14 14 28 18 31 3 3 17 28 31 55 16 34 36 56 61 70 20
11 37 25 37 31 0 19 76 127 110 158 17 15 29 31 25 34 -4 4 -12 0 -18 -9 -7
-9 -18 -14 -24 -12 -7 3 -19 -1 -28 -9 -36 -32 -43 -36 -56 -27 -11 7 -11 14
6 41 35 60 55 74 55 39z m3710 10 c0 -6 -4 -13 -10 -16 -5 -3 -10 1 -10 9 0 9
5 16 10 16 6 0 10 -4 10 -9z m-70 -31 c0 -5 -5 -10 -11 -10 -5 0 -7 5 -4 10 3
6 8 10 11 10 2 0 4 -4 4 -10z m-140 -10 c-20 -13 -33 -13 -25 0 3 6 14 10 23
10 15 0 15 -2 2 -10z m-7335 -60 c-17 -19 -17 -21 -2 -33 19 -14 9 -30 -40
-65 -38 -27 -49 -28 -63 -3 -11 22 -3 81 12 81 6 0 8 -9 5 -20 -3 -11 -1 -20
4 -20 5 0 9 7 9 15 0 9 7 18 15 21 8 4 15 13 15 21 0 8 5 11 10 8 6 -3 10 -1
10 4 0 6 10 11 22 11 21 0 21 -1 3 -20z m284 -14 c9 13 43 17 50 6 3 -6 24
-11 46 -13 22 -2 48 -11 58 -21 20 -21 21 -25 5 -43 -7 -8 -29 -33 -48 -55
-134 -154 -204 -209 -239 -191 -26 15 -37 78 -17 100 9 10 16 21 16 26 0 4 8
15 19 24 10 9 21 26 25 37 4 12 20 27 35 34 24 10 29 17 28 46 -1 19 -3 34 -6
34 -16 -1 -29 -18 -28 -35 1 -14 -5 -21 -21 -23 -25 -4 -82 -52 -82 -70 0 -10
-30 -26 -36 -19 -5 5 37 81 48 88 5 3 9 8 7 10 -1 2 1 14 5 26 9 27 82 54 110
40 10 -5 21 -5 25 -1z m2121 -51 c0 -3 -9 -5 -20 -5 -11 0 -20 7 -20 15 0 13
4 14 20 5 11 -6 20 -13 20 -15z m-2350 6 c0 -5 -7 -12 -16 -15 -24 -9 -28 -7
-14 9 14 17 30 20 30 6z m2235 -3 c14 2 25 0 25 -5 0 -6 9 -20 20 -33 11 -12
17 -27 13 -33 -3 -5 -10 -3 -15 7 -5 9 -18 16 -28 16 -19 0 -51 35 -49 55 0 6
2 6 5 -1 3 -6 16 -9 29 -6z m5423 -21 c17 -3 32 -1 32 4 0 13 54 11 68 -3 16
-16 16 -31 0 -22 -7 4 -35 8 -63 9 -27 1 -70 6 -95 10 -39 8 -42 10 -20 15 14
4 30 3 35 -1 6 -4 25 -9 43 -12z m-1820 -77 c3 -19 1 -22 -10 -13 -17 13 -67
11 -96 -6 -29 -16 -35 -11 -27 22 6 23 10 25 68 23 58 -1 62 -3 65 -26z m1487
0 c-3 -5 -15 -10 -25 -10 -10 0 -22 5 -25 10 -4 6 7 10 25 10 18 0 29 -4 25
-10z m-1987 -20 c1 -2 8 -3 15 -4 6 0 12 -6 12 -13 0 -6 3 -15 8 -19 15 -15 6
-34 -18 -40 -15 -4 -25 -13 -25 -24 0 -16 -3 -17 -25 -7 -27 13 -31 22 -15 32
12 7 14 26 3 23 -15 -4 -53 13 -53 23 0 6 4 8 9 5 5 -3 19 3 32 13 19 15 45
20 57 11z m549 -6 c-3 -3 -12 -4 -19 -1 -8 3 -5 6 6 6 11 1 17 -2 13 -5z
m2001 -22 c3 -10 -8 -12 -44 -10 -28 2 -49 8 -52 16 -3 10 8 12 44 10 28 -2
49 -8 52 -16z m-674 -1 c4 -5 0 -12 -6 -14 -8 -3 -6 -6 5 -6 9 -1 17 -6 17
-12 0 -16 -21 -6 -38 19 -13 20 -13 22 1 22 9 0 18 -4 21 -9z m61 -1 c3 -5 1
-10 -4 -10 -6 0 -11 5 -11 10 0 6 2 10 4 10 3 0 8 -4 11 -10z m-1469 -35 c4
-14 4 -29 0 -32 -8 -8 -93 -10 -100 -2 -12 12 6 38 32 48 45 16 61 13 68 -14z
m1528 16 c4 -5 -3 -7 -14 -4 -23 6 -26 13 -6 13 8 0 17 -4 20 -9z m-1464 -32
c0 -5 -10 -9 -21 -9 -18 0 -19 2 -9 15 12 15 30 12 30 -6z m44 -2 c16 -12 16
-14 -8 -40 -14 -15 -30 -27 -36 -27 -5 0 -10 -5 -10 -10 0 -6 -11 -22 -24 -35
-14 -13 -27 -32 -30 -42 -3 -10 -17 -30 -31 -45 -14 -15 -25 -32 -25 -37 0
-18 -32 -42 -50 -36 -23 7 -48 -21 -32 -37 8 -8 7 -15 -6 -24 -26 -20 -37 -16
-17 6 18 20 17 20 -13 21 -51 2 -57 4 -54 18 2 10 -6 12 -35 6 -122 -25 -159
-10 -113 46 37 43 104 109 112 109 4 0 10 -10 12 -22 3 -13 7 -32 9 -43 3 -11
5 3 6 31 1 48 3 53 32 65 28 11 33 10 45 -6 8 -10 14 -14 14 -8 0 19 30 43 54
43 13 0 29 6 35 14 17 21 63 30 72 14 6 -10 13 -7 29 10 11 12 25 22 31 22 6
0 7 5 4 10 -9 14 8 12 29 -3z m1603 -23 c-3 -3 -12 -4 -19 -1 -8 3 -5 6 6 6
11 1 17 -2 13 -5z m-4594 -51 c-3 -7 -9 -10 -14 -7 -14 8 -11 21 5 21 8 0 12
-6 9 -14z m3561 -22 c4 -5 -3 -7 -14 -4 -23 6 -26 13 -6 13 8 0 17 -4 20 -9z
m256 5 c0 -2 -9 -6 -20 -9 -11 -3 -20 -1 -20 4 0 5 9 9 20 9 11 0 20 -2 20 -4z
m-1472 -41 c7 -16 8 -26 1 -31 -17 -10 -38 4 -34 23 2 10 4 21 4 26 2 16 18 6
29 -18z m734 -99 c-19 -38 -52 -115 -52 -121 0 -3 -10 -21 -22 -40 -19 -28
-29 -35 -56 -35 -35 0 -70 24 -52 35 5 3 10 14 10 24 0 19 64 91 81 91 5 0 12
8 16 18 3 9 22 33 42 52 31 30 36 33 39 16 2 -10 -1 -28 -6 -40z m2632 37 c3
-7 1 -14 -4 -14 -6 -1 -16 -2 -22 -3 -15 -3 -38 13 -38 25 0 14 59 6 64 -8z
m-3346 -21 c3 -9 -2 -13 -14 -10 -9 1 -19 9 -22 16 -3 9 2 13 14 10 9 -1 19
-9 22 -16z m3202 -2 c0 -5 -4 -10 -10 -10 -5 0 -10 5 -10 10 0 6 5 10 10 10 6
0 10 -4 10 -10z m-3239 -44 c-27 -12 -38 -1 -21 19 10 12 16 13 27 3 13 -11
12 -14 -6 -22z m3349 14 c0 -5 -7 -7 -15 -4 -8 4 -15 8 -15 10 0 2 7 4 15 4 8
0 15 -4 15 -10z m130 -90 c0 -5 -4 -10 -10 -10 -5 0 -10 5 -10 10 0 6 5 10 10
10 6 0 10 -4 10 -10z m200 -64 c0 -24 -18 -28 -30 -6 -9 17 -8 20 10 20 11 0
20 -6 20 -14z m490 -96 c0 -5 -6 -10 -12 -10 -7 0 -23 -3 -35 -6 -13 -4 -23
-2 -23 4 0 9 20 17 58 21 6 0 12 -3 12 -9z m-2866 -19 c13 -1 -2 -16 -17 -16
-7 0 -33 -11 -59 -25 -58 -29 -72 -20 -30 20 31 29 34 30 106 21z m1793 -30
c14 -20 41 -50 60 -67 36 -34 42 -47 16 -37 -10 4 -14 2 -10 -5 4 -6 24 -16
44 -23 32 -10 35 -13 18 -19 -11 -4 -36 -2 -55 5 -28 10 -44 10 -85 -2 -52
-15 -84 -18 -92 -9 -9 9 -22 88 -23 133 0 48 16 63 68 61 25 -1 38 -9 59 -37z
m978 19 c-5 -9 16 -15 38 -11 5 1 5 -4 1 -11 -18 -32 -39 -48 -64 -48 -16 0
-30 -7 -34 -15 -7 -20 -72 -20 -80 0 -3 8 6 26 21 41 21 21 33 25 59 21 26 -4
33 -2 37 14 3 10 10 19 17 19 6 0 8 -4 5 -10z m-3613 -22 c-7 -7 -12 -8 -12
-2 0 14 12 26 19 19 2 -3 -1 -11 -7 -17z m-68 -4 c9 -3 16 -12 16 -19 0 -7 5
-15 12 -17 18 -6 -22 -67 -46 -70 -13 -2 -22 -12 -24 -25 -2 -13 -7 -23 -12
-23 -4 0 -10 -9 -13 -21 -3 -12 -10 -18 -16 -15 -5 4 -28 0 -50 -8 -22 -7 -43
-11 -45 -8 -10 9 42 42 66 42 28 0 55 16 45 26 -4 4 0 15 9 25 20 23 9 42 -21
35 -29 -7 -57 20 -31 30 9 3 22 1 30 -5 16 -14 26 -4 26 25 0 28 23 40 54 28z
m976 -85 c0 -14 -5 -19 -17 -17 -23 4 -28 25 -6 31 10 3 19 5 21 6 1 0 2 -8 2
-20z m1563 -14 c-3 -8 -12 -15 -19 -15 -12 0 -12 4 -4 20 12 23 32 18 23 -5z
m417 -55 c0 -5 -8 -10 -17 -10 -15 0 -16 2 -3 10 19 12 20 12 20 0z m-1101
-32 c14 -31 7 -45 -24 -49 -13 -2 -29 -5 -35 -8 -19 -9 -50 -9 -45 -1 3 5 1
18 -4 28 -17 33 10 56 67 58 22 1 31 -5 41 -28z m-145 0 c3 -13 6 -32 6 -43 0
-15 -2 -17 -9 -6 -7 11 -14 11 -40 -2 -21 -10 -33 -12 -37 -5 -4 7 -2 8 4 4 7
-4 12 -1 12 8 0 9 -4 16 -10 16 -16 0 -1 25 23 36 34 18 44 16 51 -8z m1323 6
c-3 -3 -12 -4 -19 -1 -8 3 -5 6 6 6 11 1 17 -2 13 -5z m-2185 -53 c-6 -3 -13
-19 -16 -35 -6 -34 -7 -35 -35 -41 -11 -2 -25 -6 -30 -10 -5 -3 -13 0 -17 6
-4 7 15 32 47 61 30 27 55 44 58 37 2 -6 -1 -14 -7 -18z m748 5 c0 -2 -7 -6
-15 -10 -8 -3 -15 -1 -15 4 0 6 7 10 15 10 8 0 15 -2 15 -4z m1629 -29 c6 -8
9 -16 6 -19 -3 -2 6 -15 20 -28 33 -31 32 -45 -5 -60 -54 -22 -110 8 -110 58
0 34 10 48 35 55 34 8 42 7 54 -6z m-956 -75 c-4 -8 0 -10 12 -6 12 5 27 -4
52 -31 70 -76 77 -102 28 -102 -14 0 -23 2 -21 5 9 8 -37 28 -72 30 -17 1 -51
-7 -75 -19 -23 -12 -43 -21 -44 -20 -10 5 -23 -1 -18 -9 3 -5 21 -10 38 -11
18 0 41 -4 52 -9 18 -7 17 -8 -10 -15 -16 -4 -60 -23 -97 -42 -38 -18 -71 -32
-75 -31 -11 4 -16 56 -8 85 3 13 10 21 15 18 6 -3 10 -1 10 4 0 6 -4 11 -9 11
-5 0 -11 9 -14 20 -3 11 -1 20 4 20 5 0 17 8 27 18 21 20 87 65 124 83 35 18
87 19 81 1z m-3113 -47 c-7 -9 -15 -13 -17 -11 -7 7 7 26 19 26 6 0 6 -6 -2
-15z m70 -51 c0 -3 -7 -12 -15 -20 -12 -13 -15 -13 -15 -1 0 7 3 17 7 20 8 8
23 9 23 1z m330 -4 c0 -5 -7 -10 -16 -10 -8 0 -12 5 -9 10 3 6 10 10 16 10 5
0 9 -4 9 -10z m1705 0 c8 -13 -5 -13 -25 0 -13 8 -13 10 2 10 9 0 20 -4 23
-10z m2528 -12 c2 -7 -1 -21 -7 -30 -7 -12 -15 -14 -28 -7 -21 12 -24 34 -3
26 8 -4 17 -2 20 3 3 4 -1 11 -7 13 -8 4 -7 6 4 6 9 1 18 -5 21 -11z m-4253
-31 c0 -7 -9 -13 -20 -13 -23 0 -24 2 -7 20 13 15 27 11 27 -7z m1734 5 c2 -4
1 -14 -4 -21 -10 -17 -31 -5 -23 14 6 16 19 20 27 7z m-2044 -42 c0 -5 -7 -7
-15 -4 -8 4 -12 10 -9 15 6 11 24 2 24 -11z m3290 -67 c0 -3 14 -19 31 -35 31
-30 33 -52 3 -27 -15 12 -17 12 -12 -1 2 -8 14 -16 25 -18 16 -2 19 -8 15 -24
-4 -17 -2 -19 17 -13 12 4 21 2 21 -4 0 -6 -10 -11 -22 -12 -13 0 -17 -3 -10
-6 8 -3 4 -11 -13 -25 -14 -10 -29 -17 -34 -14 -5 4 -11 1 -13 -6 -3 -9 -6 -9
-12 1 -5 8 -1 14 13 18 14 3 21 13 20 27 -1 15 -3 16 -6 5 -4 -18 -34 -27 -70
-21 l-22 3 22 37 c13 20 26 42 30 48 4 7 -5 11 -23 11 -17 0 -30 -4 -30 -9 0
-4 6 -8 12 -8 7 0 -2 -15 -20 -32 -31 -31 -34 -32 -46 -15 -13 17 -46 14 -46
-4 0 -5 -9 -9 -20 -9 -11 0 -20 4 -20 8 0 4 -15 13 -34 20 -37 13 -76 44 -76
59 0 9 62 39 180 89 24 11 47 19 51 19 4 0 11 4 15 8 7 7 74 -56 74 -70z
m1195 66 c4 -6 13 -8 20 -5 7 2 16 -2 19 -10 4 -10 -3 -14 -23 -14 -39 0 -61
9 -61 26 0 16 36 19 45 3z m-4855 -15 c39 -16 53 -33 28 -35 -7 0 -22 -2 -33
-5 -33 -7 -65 5 -65 25 0 35 13 38 70 15z m3080 0 c0 -19 -36 -62 -61 -73 -34
-15 -49 -8 -49 22 0 22 -1 22 -20 -3 -11 -14 -20 -23 -21 -20 0 3 -2 13 -4 23
-4 19 22 37 43 30 6 -3 12 1 12 7 0 9 3 10 13 1 8 -6 17 -7 23 -2 8 8 31 16
57 20 4 0 7 -2 7 -5z m-2380 -55 c0 -6 -4 -7 -10 -4 -5 3 -10 11 -10 16 0 6 5
7 10 4 6 -3 10 -11 10 -16z m-75 1 c3 -6 -1 -7 -9 -4 -18 7 -21 14 -7 14 6 0
13 -4 16 -10z m-1135 -25 c0 -14 -24 -54 -31 -50 -8 6 12 55 24 55 4 0 7 -2 7
-5z m660 -5 c0 -5 -4 -10 -10 -10 -5 0 -10 5 -10 10 0 6 5 10 10 10 6 0 10 -4
10 -10z m-860 -4 c0 -3 -4 -8 -10 -11 -5 -3 -10 -1 -10 4 0 6 5 11 10 11 6 0
10 -2 10 -4z m1590 -4 c0 -13 -12 -22 -22 -16 -10 6 -1 24 13 24 5 0 9 -4 9
-8z m2036 -17 c9 -8 12 -19 9 -25 -11 -17 7 -11 21 8 10 13 15 14 25 5 10 -10
5 -16 -21 -30 -18 -10 -40 -25 -49 -33 -25 -24 -58 -22 -65 3 -4 15 -8 18 -14
10 -4 -7 -23 -19 -42 -27 -40 -16 -68 -4 -62 26 2 13 12 16 37 14 22 -1 31 2
28 10 -4 12 24 26 60 29 10 1 23 7 29 13 16 16 26 15 44 -3z m-2712 -10 c3 -8
2 -15 -3 -15 -5 0 -14 7 -21 15 -10 12 -10 15 3 15 8 0 17 -7 21 -15z m472 -7
c4 -6 -3 -19 -16 -30 -22 -18 -24 -18 -33 -2 -15 27 33 58 49 32z m-1229 -58
c-2 -34 -9 -37 -31 -14 -19 19 -12 36 11 27 13 -5 15 -2 10 11 -4 10 -3 15 3
11 5 -3 8 -19 7 -35z m3817 23 c-5 -5 -12 -12 -15 -16 -3 -5 -9 -2 -12 7 -5
12 0 16 15 16 12 0 17 -3 12 -7z m-39 -13 c3 -6 -1 -7 -9 -4 -18 7 -21 14 -7
14 6 0 13 -4 16 -10z m597 -49 c13 -12 18 -26 14 -37 -4 -11 -2 -15 8 -11 18
7 43 -21 48 -53 3 -22 0 -25 -30 -24 -48 3 -65 12 -58 32 6 16 5 16 -8 0 -14
-19 -61 -24 -71 -8 -3 6 -1 10 4 10 6 0 10 3 9 8 -3 8 5 12 28 12 9 0 12 -5 8
-12 -4 -7 -3 -8 4 -4 7 4 12 16 12 27 0 12 4 17 11 13 7 -4 10 -1 7 7 -3 8
-15 13 -27 12 -25 -3 -27 4 -4 29 20 22 19 22 45 -1z m-3842 -11 c0 -5 -5 -10
-11 -10 -5 0 -7 5 -4 10 3 6 8 10 11 10 2 0 4 -4 4 -10z m660 -20 c0 -5 -5
-10 -11 -10 -5 0 -7 5 -4 10 3 6 8 10 11 10 2 0 4 -4 4 -10z m2490 -18 c0 -5
-3 -12 -7 -16 -5 -4 -8 -12 -8 -17 0 -5 -4 -9 -9 -8 -5 0 -13 -5 -17 -13 -7
-10 -9 -10 -9 0 0 17 -27 15 -33 -3 -5 -11 -21 -14 -72 -11 -73 4 -78 6 -69
30 4 10 18 16 36 16 19 0 27 -4 22 -11 -8 -14 32 -2 60 17 15 10 23 11 34 2 9
-8 16 -8 20 -1 12 17 52 29 52 15z m-2854 -48 c8 3 14 1 14 -4 0 -6 -6 -10
-14 -10 -8 0 -16 -3 -19 -7 -2 -5 -2 -2 0 5 2 9 -3 11 -17 7 -25 -8 -25 -2 -2
21 16 17 17 17 20 0 2 -10 10 -15 18 -12z m102 -55 c3 -8 1 -11 -3 -7 -5 4
-14 3 -22 -3 -10 -9 -13 -8 -13 3 0 30 29 36 38 7z m-128 -8 c0 -5 -7 -11 -15
-15 -9 -3 -15 0 -15 9 0 8 7 15 15 15 8 0 15 -4 15 -9z m150 -30 c0 -5 -9 -11
-20 -14 -22 -6 -26 3 -8 21 11 11 28 7 28 -7z m2970 -27 c-35 -30 -47 -28 -24
4 8 12 24 22 35 22 18 0 16 -4 -11 -26z m1575 6 c-3 -5 -16 -10 -28 -9 -21 0
-21 1 -2 9 28 12 37 12 30 0z m-904 -50 c5 -35 2 -43 -13 -46 -10 -1 -21 3
-25 8 -3 7 -1 8 5 4 7 -4 12 -5 12 -1 0 3 -10 10 -22 15 -18 7 -19 9 -5 9 9 1
17 6 17 11 0 6 7 10 15 10 8 0 16 -4 16 -10z m-3701 -55 c0 -8 -4 -15 -10 -15
-5 0 -10 7 -10 15 0 8 5 15 10 15 6 0 10 -7 10 -15z m110 11 c0 -2 -9 -6 -20
-9 -11 -3 -18 -1 -14 4 5 9 34 13 34 5z m-25 -46 c3 -5 2 -10 -4 -10 -5 0 -13
5 -16 10 -3 6 -2 10 4 10 5 0 13 -4 16 -10z m3685 0 c0 -5 -4 -10 -10 -10 -5
0 -10 5 -10 10 0 6 5 10 10 10 6 0 10 -4 10 -10z m815 -30 c-3 -5 -1 -10 4
-10 6 0 11 -5 11 -11 0 -8 -5 -8 -15 1 -17 14 -20 30 -4 30 5 0 7 -4 4 -10z
m-787 -18 c8 -6 2 -9 -18 -9 -20 0 -26 3 -18 9 7 4 15 8 18 8 3 0 11 -4 18 -8z
m42 -32 c0 -6 -11 -9 -25 -7 -37 5 -42 17 -7 17 18 0 32 -5 32 -10z m-3674
-89 c-9 -14 -45 -20 -53 -9 -3 6 -2 8 3 5 6 -3 16 -2 24 4 19 11 33 12 26 0z
m3764 -311 c0 -5 -2 -10 -4 -10 -3 0 -8 5 -11 10 -3 6 -1 10 4 10 6 0 11 -4
11 -10z m371 -56 c8 -4 9 1 4 16 -6 19 -4 22 10 17 9 -4 23 -7 31 -7 9 0 13
-4 9 -9 -3 -5 -6 -32 -6 -60 -2 -53 -19 -62 -19 -10 0 19 -5 29 -15 29 -13 0
-14 -4 -4 -22 14 -26 19 -148 7 -148 -4 0 -7 -3 -6 -7 3 -16 -25 -93 -35 -93
-5 0 -7 -10 -4 -22 4 -12 2 -27 -4 -34 -10 -13 -2 -44 12 -44 5 0 9 -6 9 -14
0 -8 6 -17 13 -19 8 -4 4 -12 -13 -26 -22 -18 -23 -21 -6 -21 18 0 18 -1 -3
-21 -18 -17 -25 -19 -31 -9 -4 7 -13 9 -19 6 -6 -4 -11 0 -11 9 0 9 -5 13 -10
10 -8 -5 -7 -11 1 -21 9 -11 5 -26 -17 -71 -16 -32 -33 -61 -39 -65 -19 -14
-75 -9 -82 8 -5 13 -7 13 -14 2 -6 -9 -9 -4 -9 15 0 15 4 27 8 27 5 0 9 7 9
16 0 16 -20 16 -76 -2 -19 -6 -22 -4 -16 7 5 7 10 20 11 29 1 8 5 23 9 33 4 9
3 17 -3 17 -6 0 -8 10 -4 22 5 21 5 21 14 -2 7 -18 11 -21 17 -11 6 9 11 10
15 2 10 -16 58 9 51 27 -7 18 14 44 27 35 6 -3 9 0 6 8 -8 23 -34 21 -73 -5
-42 -29 -57 -32 -50 -13 2 6 7 30 10 51 3 21 8 49 11 62 3 12 0 32 -7 45 -6
13 -13 36 -14 51 -2 16 -5 31 -8 35 -3 3 -1 17 5 32 6 14 11 37 12 50 2 25 36
40 36 16 0 -8 7 -20 15 -29 8 -8 27 -38 41 -65 14 -28 28 -51 33 -51 4 0 20
-27 36 -60 16 -33 33 -60 39 -60 5 0 6 -3 3 -6 -12 -12 14 -44 35 -44 17 0 19
3 10 12 -7 7 -12 20 -12 30 0 10 -5 18 -10 18 -16 0 -60 51 -60 68 0 9 -10 26
-22 39 -24 25 -50 85 -52 121 0 12 -7 22 -13 22 -16 0 -16 6 -3 30 7 12 7 21
0 25 -6 4 -5 11 3 19 6 8 15 12 19 10 4 -2 9 5 13 16 5 17 14 20 57 19 27 -1
53 2 56 8 4 6 16 12 27 15 15 3 22 -3 28 -24 4 -15 12 -30 18 -34z m-418 33
c4 3 7 -1 7 -10 0 -18 15 -23 24 -8 4 5 0 12 -6 14 -7 3 -3 6 10 6 20 1 22 -1
11 -21 -6 -13 -21 -31 -33 -40 -26 -21 -15 -34 16 -18 l23 12 -23 -23 c-18
-19 -24 -21 -31 -11 -7 12 -14 11 -39 -2 -17 -9 -41 -15 -54 -15 -13 1 -52 -2
-88 -5 -35 -4 -61 -4 -58 0 4 4 24 9 44 11 20 2 45 8 54 13 10 5 21 6 25 2 5
-4 5 1 2 11 -4 10 -1 17 6 18 8 0 8 2 -1 6 -10 4 -7 10 10 21 13 9 26 17 29
17 3 0 13 8 23 18 13 12 22 15 30 7 7 -5 16 -7 19 -3z m664 -124 c-7 -139 -18
-181 -50 -180 -12 1 -34 -2 -49 -6 -22 -6 -26 -4 -22 8 3 8 11 12 17 8 6 -4 8
0 4 10 -3 10 -2 17 2 17 5 0 7 9 4 20 -3 11 -10 20 -15 20 -9 0 -7 19 8 95 3
16 12 38 21 47 10 11 12 18 5 18 -13 0 -17 42 -5 53 3 4 24 7 46 7 l39 0 -5
-117z m-148 35 c-4 -18 -11 -45 -14 -60 -5 -27 -6 -27 -25 -10 -18 15 -19 18
-5 28 8 6 15 20 15 31 0 19 17 43 31 43 4 0 3 -15 -2 -32z m-325 7 c-4 -8 -11
-15 -16 -15 -6 0 -5 6 2 15 7 8 14 15 16 15 2 0 1 -7 -2 -15z m-336 0 c-6 -6
-34 -12 -97 -21 -31 -4 -41 -3 -37 5 4 6 10 9 14 7 4 -2 25 0 47 4 50 10 80
12 73 5z m-11 -51 c13 -4 20 -11 17 -16 -4 -6 3 -8 17 -4 19 5 20 5 8 -3 -18
-12 -92 7 -83 21 6 9 11 10 41 2z m88 -4 c3 -5 1 -10 -4 -10 -6 0 -11 5 -11
10 0 6 2 10 4 10 3 0 8 -4 11 -10z m-145 -15 c0 -11 -11 -15 -40 -15 -48 0
-51 6 -7 19 45 13 47 13 47 -4z m161 -49 c-9 -16 -24 -25 -47 -28 -19 -2 -34
0 -34 4 0 4 6 8 14 8 7 0 25 11 41 26 32 29 44 25 26 -10z m-311 14 c-20 -13
-33 -13 -25 0 3 6 14 10 23 10 15 0 15 -2 2 -10z m118 -5 c-10 -11 -48 -14
-48 -4 0 5 12 9 27 9 14 0 24 -2 21 -5z m739 -17 c-3 -8 -6 -5 -6 6 -1 11 2
17 5 13 3 -3 4 -12 1 -19z m-817 2 c0 -5 -2 -10 -4 -10 -3 0 -8 5 -11 10 -3 6
-1 10 4 10 6 0 11 -4 11 -10z m-35 -10 c-3 -5 -15 -10 -26 -10 -11 0 -17 5
-14 10 3 6 15 10 26 10 11 0 17 -4 14 -10z m50 -30 c-3 -5 -13 -10 -21 -10 -8
0 -14 5 -14 10 0 6 9 10 21 10 11 0 17 -4 14 -10z m218 -17 c-4 -10 -9 -11
-19 -2 -18 15 -18 15 5 15 11 0 17 -5 14 -13z m-10172 -26 c-10 -9 -11 -8 -5
6 3 10 9 15 12 12 3 -3 0 -11 -7 -18z m10119 19 c0 -3 -4 -8 -10 -11 -5 -3
-10 -1 -10 4 0 6 5 11 10 11 6 0 10 -2 10 -4z m-9290 -59 c0 -19 -1 -19 -19
-3 -23 21 -18 54 5 35 8 -6 14 -21 14 -32z m9115 23 c-3 -5 -11 -10 -16 -10
-6 0 -7 5 -4 10 3 6 11 10 16 10 6 0 7 -4 4 -10z m90 -20 c-3 -5 -12 -10 -18
-10 -7 0 -6 4 3 10 19 12 23 12 15 0z m71 -32 c3 -4 11 -8 17 -8 7 0 6 4 -3
10 -13 8 -12 10 3 10 12 0 17 -6 15 -17 -2 -11 -11 -17 -22 -15 -9 2 -24 -2
-31 -8 -7 -6 -19 -10 -27 -9 -25 3 -38 -1 -38 -12 0 -7 10 -9 26 -5 23 6 24 5
12 -9 -36 -45 -61 -60 -98 -61 -34 0 -38 2 -33 20 8 33 5 58 -8 70 -9 8 -10 7
-6 -6 3 -10 2 -20 -3 -23 -6 -4 -11 2 -11 12 -1 17 -2 17 -6 1 -2 -10 -10 -18
-16 -19 -7 0 -20 -2 -29 -4 -10 -2 -18 1 -18 6 0 6 -4 7 -10 4 -5 -3 -10 -1
-10 4 0 6 7 11 15 11 9 0 12 6 9 15 -8 19 25 33 36 15 5 -8 15 -10 26 -5 11 4
25 9 32 11 8 1 16 5 19 8 3 2 16 0 30 -5 18 -6 30 -5 45 5 22 16 75 18 84 4z
m850 -15 c39 -19 32 -37 -16 -47 -49 -9 -45 -11 -49 29 -1 19 -31 20 -31 1 0
-7 -6 -19 -14 -25 -11 -9 -15 -6 -19 14 -10 56 45 68 129 28z m19 17 c3 -5 1
-10 -4 -10 -6 0 -11 5 -11 10 0 6 2 10 4 10 3 0 8 -4 11 -10z m-10102 -43 c3
-8 1 -20 -4 -28 -6 -10 -9 -7 -9 14 0 29 5 35 13 14z m9245 -25 c2 -7 -4 -12
-13 -12 -9 0 -13 -4 -10 -10 3 -5 2 -10 -3 -10 -5 0 -12 -10 -15 -22 -4 -12
-9 -20 -12 -16 -3 3 2 24 11 47 16 40 33 49 42 23z m-672 -29 c-10 -10 -19 5
-10 18 6 11 8 11 12 0 2 -7 1 -15 -2 -18z m688 3 c-3 -9 -10 -16 -15 -16 -5 0
-4 9 3 20 14 22 21 20 12 -4z m-9224 -28 c0 -21 -3 -29 -10 -22 -5 5 -7 19 -4
32 9 31 14 27 14 -10z m8983 16 c-3 -8 0 -14 6 -14 6 0 11 -4 11 -10 0 -5 -7
-7 -16 -3 -9 3 -20 0 -25 -8 -6 -10 -9 -10 -9 -1 0 6 -11 12 -24 12 -13 0 -27
-6 -29 -12 -3 -7 -6 -3 -6 9 -1 17 7 24 31 31 52 13 67 12 61 -4z m-468 -4 c3
-5 -1 -10 -9 -10 -9 0 -16 5 -16 10 0 6 4 10 9 10 6 0 13 -4 16 -10z m542 -40
c2 -24 -10 -26 -28 -3 -8 10 -9 14 -2 10 6 -4 14 -3 18 3 9 14 11 13 12 -10z
m143 -40 c0 -5 -5 -10 -11 -10 -5 0 -7 5 -4 10 3 6 8 10 11 10 2 0 4 -4 4 -10z
m-183 -17 c-12 -6 -22 -17 -23 -25 -3 -42 -5 -43 -24 -20 -17 20 -20 21 -28 6
-9 -16 -10 -15 -16 4 -4 12 -12 23 -17 23 -5 1 -13 3 -19 4 -5 1 -17 3 -25 4
-8 0 -15 4 -15 9 0 4 43 7 95 7 78 0 90 -2 72 -12z m158 -13 c3 -5 1 -10 -4
-10 -6 0 -11 5 -11 10 0 6 2 10 4 10 3 0 8 -4 11 -10z m-272 -15 c27 -11 20
-25 -13 -26 -42 -2 -47 -3 -56 -11 -8 -9 26 -12 99 -9 50 3 56 -2 33 -25 -16
-15 -52 -19 -60 -6 -3 5 -24 7 -48 5 -53 -3 -81 11 -57 30 9 6 14 18 12 25 -3
6 3 12 12 12 9 0 13 5 10 11 -7 11 34 7 68 -6z m-583 -17 c0 -13 -32 -26 -52
-20 -18 4 -18 5 -1 17 19 14 53 16 53 3z m60 2 c0 -5 -6 -10 -14 -10 -8 0 -18
5 -21 10 -3 6 3 10 14 10 12 0 21 -4 21 -10z m790 -5 c0 -8 -4 -15 -8 -15 -5
0 -9 7 -9 15 0 8 4 15 9 15 4 0 8 -7 8 -15z m340 -35 c0 -15 -7 -20 -25 -20
-14 0 -25 4 -25 8 0 7 30 27 48 31 1 1 2 -8 2 -19z m-9717 -20 c-3 -12 -8 -19
-11 -16 -5 6 5 36 12 36 2 0 2 -9 -1 -20z m9137 -44 c-1 -18 -26 -46 -35 -38
-4 4 -6 0 -3 -8 6 -18 -12 -49 -67 -116 -39 -47 -168 -179 -197 -199 -111 -80
-191 -124 -174 -97 3 5 0 9 -7 9 -7 0 -24 3 -39 6 -16 3 -28 1 -28 -4 0 -5 11
-9 25 -9 14 0 25 -4 25 -10 0 -5 -9 -10 -21 -10 -11 0 -29 -5 -41 -11 -11 -6
-31 -13 -44 -15 -48 -8 -70 -13 -101 -23 -17 -5 -34 -7 -37 -4 -3 3 -28 0 -57
-7 -75 -18 -151 -18 -166 0 -8 10 -15 11 -20 5 -7 -9 -63 -15 -63 -7 0 3 54
24 58 22 1 0 14 11 28 25 20 20 41 28 67 25 1 -1 29 13 62 29 36 17 64 25 70
20 13 -13 25 -11 25 4 0 7 27 26 60 42 33 16 60 33 60 37 0 5 5 6 11 3 5 -4
18 1 27 12 9 10 23 19 31 21 7 1 20 9 28 17 8 8 22 15 31 15 10 0 29 11 44 25
15 13 32 26 39 27 7 2 32 23 56 48 24 25 46 48 51 53 4 4 23 20 42 36 33 28
38 30 117 27 98 -4 120 8 32 18 -129 13 -105 45 34 44 50 0 77 -4 77 -12z
m-720 -14 c-1 -17 -57 -46 -97 -50 -52 -5 -56 9 -8 27 19 7 35 15 35 19 0 4
16 8 35 9 19 1 35 -1 35 -5z m920 -2 c0 -5 -2 -10 -4 -10 -3 0 -8 5 -11 10 -3
6 -1 10 4 10 6 0 11 -4 11 -10z m-10 -40 c0 -5 -5 -10 -11 -10 -5 0 -7 5 -4
10 3 6 8 10 11 10 2 0 4 -4 4 -10z m464 1 c7 -10 -29 -44 -42 -40 -15 6 5 49
22 49 8 0 17 -4 20 -9z m-506 -138 c-16 -20 -26 -15 -23 10 1 12 3 29 4 37 1
10 7 6 16 -10 9 -18 10 -29 3 -37z m-1719 -17 c13 -16 5 -24 -29 -31 -22 -4
-27 14 -8 33 16 16 23 15 37 -2z m86 -7 c-9 -14 -48 -28 -59 -21 -5 3 6 11 25
17 19 7 35 13 37 14 2 0 0 -4 -3 -10z m1689 -14 c3 -8 1 -15 -5 -15 -18 0 -5
-33 14 -36 9 -1 17 2 17 7 0 5 4 9 9 9 5 0 9 -12 9 -26 0 -16 -5 -23 -13 -20
-8 3 -16 -2 -19 -10 -3 -9 -10 -13 -15 -10 -5 4 -12 0 -14 -6 -8 -18 -27 11
-20 29 3 7 -2 13 -11 13 -19 0 -20 -5 -5 -32 13 -24 5 -35 -15 -18 -14 11 -14
16 0 48 31 74 55 99 68 67z m-1601 -4 c4 -1 7 -5 7 -9 0 -7 -24 -8 -80 -2 -11
1 -10 4 4 9 11 4 29 6 40 5 12 -1 24 -3 29 -3z m2150 -16 c4 -8 2 -17 -3 -20
-6 -4 -10 3 -10 14 0 25 6 27 13 6z m-3369 -70 c18 -19 39 -35 47 -35 12 0 12
-2 -1 -10 -13 -9 -13 -10 0 -11 8 -1 18 -1 23 0 4 0 7 -4 7 -10 0 -6 -7 -8
-16 -5 -9 3 -24 6 -35 6 -12 0 -16 5 -13 14 4 11 -7 14 -55 12 -34 -2 -61 1
-61 5 0 5 16 17 37 27 l36 19 -26 5 c-15 3 -27 2 -27 -2 0 -4 -9 -10 -20 -13
-13 -3 -20 0 -20 8 0 8 10 16 23 18 55 11 70 6 101 -28z m-388 10 c-22 -17
-46 -20 -46 -6 0 11 18 19 45 20 20 0 20 0 1 -14z m49 -4 c-3 -6 -11 -11 -17
-11 -6 0 -6 6 2 15 14 17 26 13 15 -4z m-127 -19 c6 -18 -15 -14 -22 4 -4 10
-1 14 6 12 6 -2 14 -10 16 -16z m332 -22 c-14 -4 -31 -4 -39 -2 -22 8 19 20
44 14 18 -5 18 -6 -5 -12z m3015 -10 c-6 -9 -9 -9 -16 1 -10 17 0 34 13 21 6
-6 7 -16 3 -22z m245 -34 c0 -8 -4 -18 -10 -21 -5 -3 -10 3 -10 14 0 12 5 21
10 21 6 0 10 -6 10 -14z m-3283 -8 c15 -7 33 -19 38 -26 9 -11 54 -20 113 -21
13 -1 20 -5 17 -11 -3 -6 -16 -8 -28 -5 -30 6 -97 17 -127 20 -14 1 -43 8 -65
14 -26 7 -43 7 -49 1 -14 -14 -56 -13 -56 1 0 6 7 8 16 5 8 -3 25 3 36 14 25
23 64 26 105 8z m-607 -2 c0 -3 -4 -8 -10 -11 -5 -3 -10 -1 -10 4 0 6 5 11 10
11 6 0 10 -2 10 -4z m320 -3 c0 -14 -44 -29 -65 -23 -36 9 -24 25 21 28 24 1
44 -1 44 -5z m345 -3 c3 -5 1 -10 -4 -10 -6 0 -11 5 -11 10 0 6 2 10 4 10 3 0
8 -4 11 -10z m165 0 c12 -6 21 -7 25 0 7 11 34 2 59 -22 11 -10 26 -18 33 -18
7 0 13 -7 13 -15 0 -25 -58 -19 -84 10 -13 14 -30 25 -38 25 -9 0 -21 7 -28
15 -14 17 -7 19 20 5z m-452 -17 c-2 -11 -13 -19 -28 -19 -26 -2 -65 14 -42
17 6 1 16 2 21 3 5 0 13 4 17 9 14 14 35 7 32 -10z m1972 -73 c-19 -12 -40
-13 -40 -1 0 9 40 20 50 13 2 -2 -2 -7 -10 -12z m-1975 -10 c3 -5 -1 -10 -9
-10 -9 0 -16 5 -16 10 0 6 4 10 9 10 6 0 13 -4 16 -10z m485 0 c0 -5 -4 -10
-10 -10 -5 0 -10 5 -10 10 0 6 5 10 10 10 6 0 10 -4 10 -10z m53 -7 c-3 -7
-14 -13 -24 -13 -12 0 -16 5 -13 14 3 8 14 14 24 13 10 -1 16 -7 13 -14z m114
-9 c4 -13 -37 -33 -54 -27 -7 3 -13 12 -13 22 0 13 8 17 32 17 17 -1 33 -6 35
-12z m1206 -1 c-7 -2 -21 -2 -30 0 -10 3 -4 5 12 5 17 0 24 -2 18 -5z m87 -3
c0 -5 -11 -10 -25 -10 -14 0 -25 5 -25 10 0 6 11 10 25 10 14 0 25 -4 25 -10z
m-1650 -7 c0 -15 -15 -28 -35 -32 -20 -3 -20 -3 -1 18 19 21 36 27 36 14z
m-75 -22 c-3 -6 -11 -8 -17 -5 -6 4 -5 9 3 15 16 10 23 4 14 -10z m125 -10 c0
-17 -18 -21 -24 -6 -3 9 0 15 9 15 8 0 15 -4 15 -9z m174 -20 c3 -5 -5 -8 -19
-7 -14 0 -25 4 -25 9 0 10 38 9 44 -2z m253 -17 c-3 -3 -12 -4 -19 -1 -8 3 -5
6 6 6 11 1 17 -2 13 -5z m-264 -11 c-7 -2 -19 -2 -25 0 -7 3 -2 5 12 5 14 0
19 -2 13 -5z m-2448 -33 c-10 -11 -26 -22 -36 -25 -24 -8 -24 -16 2 -44 17
-18 19 -25 9 -31 -8 -5 -15 -19 -17 -32 -2 -13 -8 -24 -13 -26 -6 -2 -10 -10
-10 -17 0 -21 -31 -27 -57 -9 -28 18 -36 15 -27 -10 3 -9 15 -16 25 -16 30 0
22 -28 -13 -46 -18 -9 -41 -23 -51 -32 -10 -9 -25 -17 -35 -18 -32 -4 -61 -13
-82 -24 -12 -6 -24 -10 -26 -7 -8 8 42 57 57 57 13 1 59 62 59 79 0 5 13 14
29 21 53 21 97 90 80 122 -8 16 -5 19 21 24 16 4 30 13 30 21 0 13 60 46 69
37 2 -2 -4 -13 -14 -24z m1194 1 c9 -1 11 -9 6 -28 -3 -16 -9 -31 -13 -35 -10
-10 -72 22 -72 38 0 16 28 33 49 29 9 -2 22 -4 30 -4z m-4316 -131 c3 -11 0
-20 -6 -20 -8 0 -7 -4 1 -12 20 -20 14 -36 -13 -30 -14 2 -25 9 -25 14 0 5 -5
6 -11 2 -8 -4 -9 1 -4 17 15 50 48 66 58 29z m3477 0 c0 -5 -4 -10 -10 -10 -5
0 -10 5 -10 10 0 6 5 10 10 10 6 0 10 -4 10 -10z m-1386 -102 c-5 -7 -7 -21
-6 -30 5 -30 -39 -43 -93 -28 -39 11 -43 15 -33 28 21 25 79 46 88 31 10 -15
30 -3 30 19 0 12 3 13 11 5 7 -7 8 -17 3 -25z m287 -70 c-9 -3 -23 -15 -32
-26 -12 -14 -25 -18 -48 -14 -17 2 -31 8 -31 13 0 5 24 21 53 35 28 15 54 32
56 38 3 6 8 0 11 -14 4 -18 2 -27 -9 -32z m79 14 c0 -13 -50 -53 -71 -57 -29
-6 -22 7 19 37 39 29 52 34 52 20z m-2253 -117 c9 -24 -1 -27 -20 -5 -14 17
-15 20 -2 20 9 0 18 -7 22 -15z m2103 -33 c0 -10 -85 -52 -104 -52 -8 0 -16
-10 -19 -22 -4 -12 -9 -19 -13 -15 -11 11 18 58 33 53 7 -3 13 -1 13 4 0 12
50 39 73 40 9 0 17 -4 17 -8z m-2030 -11 c0 -5 -9 -11 -20 -14 -23 -6 -17 -37
6 -37 19 0 18 -19 -1 -26 -8 -4 -15 -13 -15 -21 0 -31 -25 -5 -32 33 -5 33 -3
42 15 56 24 19 47 23 47 9z m2116 -76 c-23 -17 -36 -19 -36 -6 0 5 8 12 18 14
32 9 37 6 18 -8z m-200 -30 c-3 -20 -20 -20 -24 -1 -2 9 3 16 11 16 9 0 14 -7
13 -15z m-1526 -134 c0 -12 -20 -25 -27 -18 -7 7 6 27 18 27 5 0 9 -4 9 -9z"/>
<path d="M8790 5169 c-24 -7 -10 -13 18 -10 8 1 19 -2 26 -8 8 -7 12 -5 12 9
0 19 -13 21 -56 9z"/>
<path d="M8330 4646 c0 -9 5 -16 10 -16 6 0 10 4 10 9 0 6 -4 13 -10 16 -5 3
-10 -1 -10 -9z"/>
<path d="M8890 4540 c-19 -11 -31 -19 -27 -20 11 0 67 29 67 35 0 7 -1 7 -40
-15z"/>
<path d="M8795 4501 c-3 -6 4 -8 16 -6 30 6 37 15 11 15 -11 0 -23 -4 -27 -9z"/>
<path d="M6025 4860 c-3 -6 1 -7 9 -4 18 7 21 14 7 14 -6 0 -13 -4 -16 -10z"/>
<path d="M5956 4556 c3 -9 11 -16 16 -16 13 0 5 23 -10 28 -7 2 -10 -2 -6 -12z"/>
<path d="M7918 4365 c3 -29 0 -45 -7 -45 -8 0 -9 -5 -1 -19 11 -22 47 -24 55
-3 4 10 -39 112 -48 112 -1 0 -1 -20 1 -45z"/>
<path d="M7877 4383 c-3 -5 -2 -15 2 -22 5 -7 11 -9 14 -4 3 5 2 15 -2 22 -5
7 -11 9 -14 4z"/>
<path d="M10545 4020 c3 -5 8 -10 11 -10 2 0 4 5 4 10 0 6 -5 10 -11 10 -5 0
-7 -4 -4 -10z"/>
<path d="M10335 3450 c-3 -5 -1 -10 4 -10 6 0 11 5 11 10 0 6 -2 10 -4 10 -3
0 -8 -4 -11 -10z"/>
<path d="M11156 2189 c-26 -30 -14 -44 12 -16 13 14 19 27 15 30 -5 3 -17 -3
-27 -14z"/>
<path d="M11195 2077 c-4 -10 -5 -21 -1 -24 10 -10 18 4 13 24 -4 17 -4 17
-12 0z"/>
<path d="M11214 2013 c3 -6 0 -13 -6 -16 -7 -2 -10 -8 -5 -12 4 -5 13 -3 19 3
9 9 9 15 -1 25 -9 8 -12 8 -7 0z"/>
<path d="M11275 1950 c-3 -6 1 -7 9 -4 18 7 21 14 7 14 -6 0 -13 -4 -16 -10z"/>
<path d="M11350 1900 c0 -5 7 -10 16 -10 8 0 12 5 9 10 -3 6 -10 10 -16 10 -5
0 -9 -4 -9 -10z"/>
<path d="M10703 1967 c-22 -28 -24 -37 -8 -37 9 0 14 4 10 9 -3 6 2 14 11 19
10 5 12 12 6 16 -5 3 -14 0 -19 -7z"/>
<path d="M9794 1212 c-10 -9 -27 -15 -39 -14 -17 2 -24 -3 -27 -22 -6 -30 -1
-32 30 -10 13 9 30 13 38 10 8 -3 24 2 34 12 19 17 19 18 0 30 -15 9 -22 8
-36 -6z"/>
<path d="M9625 1150 c3 -5 11 -10 16 -10 6 0 7 5 4 10 -3 6 -11 10 -16 10 -6
0 -7 -4 -4 -10z"/>
<path d="M7905 1330 c-3 -5 -1 -10 4 -10 6 0 11 5 11 10 0 6 -2 10 -4 10 -3 0
-8 -4 -11 -10z"/>
<path d="M7823 5573 c-29 -3 -43 -9 -43 -19 0 -8 -3 -14 -7 -15 -68 -7 -141
-27 -149 -40 -4 -8 1 -9 17 -4 13 4 53 9 89 11 36 1 72 4 80 7 8 2 35 9 59 16
39 11 92 9 144 -5 11 -4 17 0 17 10 0 9 8 16 19 16 25 0 48 26 23 28 -39 2
-73 -10 -68 -24 6 -16 -12 -18 -34 -4 -10 6 -11 10 -2 10 6 0 12 4 12 10 0 5
-14 8 -30 7 -19 -1 -28 -6 -25 -14 2 -8 -4 -13 -15 -13 -25 0 -35 17 -13 23
21 5 -12 5 -74 0z"/>
<path d="M8150 5560 c0 -5 5 -10 11 -10 5 0 7 5 4 10 -3 6 -8 10 -11 10 -2 0
-4 -4 -4 -10z"/>
<path d="M7622 5544 c-9 -7 -14 -15 -11 -19 7 -7 59 15 59 25 0 11 -30 8 -48
-6z"/>
<path d="M7558 5534 c-4 -3 -21 -8 -40 -11 -18 -3 -40 -9 -48 -14 -11 -7 -8
-8 10 -4 14 3 40 7 57 8 18 1 35 8 38 15 4 12 -7 17 -17 6z"/>
<path d="M6905 5489 c-11 -17 1 -21 15 -4 8 9 8 15 2 15 -6 0 -14 -5 -17 -11z"/>
<path d="M8042 5491 c2 -7 7 -12 11 -12 12 1 9 15 -3 20 -7 2 -11 -2 -8 -8z"/>
<path d="M6805 5442 c-5 -4 -17 -16 -25 -26 -15 -19 -14 -19 18 -2 18 9 30 21
27 26 -7 12 -7 12 -20 2z"/>
<path d="M7756 5433 c-6 -14 -5 -15 5 -6 7 7 10 15 7 18 -3 3 -9 -2 -12 -12z"/>
<path d="M7956 5435 c-3 -8 -1 -15 4 -15 6 0 10 7 10 15 0 8 -2 15 -4 15 -2 0
-6 -7 -10 -15z"/>
<path d="M7645 5420 c-11 -5 -41 -12 -67 -15 -27 -3 -48 -10 -48 -14 0 -4 -37
-16 -82 -26 -46 -10 -87 -22 -92 -27 -6 -4 -19 -8 -30 -8 -10 0 -47 -15 -80
-34 -53 -30 -126 -61 -161 -69 -5 -1 -13 -6 -17 -12 -4 -5 -9 -7 -13 -4 -3 3
4 18 16 33 24 31 20 43 -9 27 -12 -6 -30 -11 -41 -11 -14 0 -21 -7 -22 -20 -1
-11 -2 -29 -3 -40 0 -11 -5 -20 -9 -19 -4 0 -18 -6 -31 -14 -12 -8 -42 -22
-67 -30 -40 -14 -44 -18 -42 -46 2 -21 -3 -33 -16 -40 -10 -6 -21 -7 -25 -4
-3 3 -6 0 -7 -8 -1 -8 -4 -3 -8 10 -7 27 -46 36 -67 17 -7 -6 -37 -26 -68 -45
-54 -33 -64 -51 -26 -51 29 0 21 -37 -12 -51 -15 -6 -28 -18 -28 -26 0 -12 3
-13 13 -4 8 6 17 8 20 4 4 -3 7 -1 7 7 0 10 3 10 15 0 16 -13 19 -3 15 48 -1
12 4 22 10 22 6 0 8 -5 4 -12 -5 -8 -2 -9 9 -5 11 4 17 1 17 -8 0 -21 17 -19
38 5 20 24 22 42 7 52 -6 5 -4 8 5 8 9 0 21 -5 28 -12 8 -8 12 -8 12 -1 0 6
13 13 30 16 20 5 28 11 24 21 -4 11 4 14 33 13 52 0 105 22 153 67 22 20 48
39 58 41 37 9 147 50 153 58 9 12 106 47 113 40 3 -4 6 -1 6 5 0 11 53 38 93
48 33 8 52 13 82 22 17 5 35 7 41 5 6 -2 25 11 42 29 18 17 32 26 32 20 0 -7
4 -12 9 -12 8 0 11 8 20 45 3 13 -10 15 -34 5z m-905 -434 c0 -3 -4 -8 -10
-11 -5 -3 -10 -1 -10 4 0 6 5 11 10 11 6 0 10 -2 10 -4z"/>
<path d="M7710 5400 c0 -5 5 -10 11 -10 5 0 7 5 4 10 -3 6 -8 10 -11 10 -2 0
-4 -4 -4 -10z"/>
<path d="M9320 5399 c-13 -9 -12 -10 3 -5 11 3 20 0 23 -9 7 -17 69 -21 79 -6
3 6 -5 15 -17 22 -27 15 -28 15 -40 -3 -7 -10 -11 -10 -15 0 -6 15 -13 15 -33
1z"/>
<path d="M9504 5368 c-4 -7 -4 -10 1 -6 4 4 17 3 27 -3 14 -8 23 -8 31 0 8 8
7 11 -5 11 -9 0 -23 3 -31 6 -8 3 -18 -1 -23 -8z"/>
<path d="M7741 5362 c-1 -7 -5 -11 -10 -8 -5 4 -17 3 -27 -1 -15 -6 -14 -7 6
-15 26 -10 45 3 37 24 -4 10 -6 10 -6 0z"/>
<path d="M7800 5346 c0 -9 30 -14 35 -6 4 6 -3 10 -14 10 -12 0 -21 -2 -21 -4z"/>
<path d="M9570 5325 c0 -17 9 -19 28 -6 11 7 10 10 -3 15 -23 9 -25 8 -25 -9z"/>
<path d="M6978 5293 c7 -3 16 -2 19 1 4 3 -2 6 -13 5 -11 0 -14 -3 -6 -6z"/>
<path d="M6888 5283 c6 -2 18 -2 25 0 6 3 1 5 -13 5 -14 0 -19 -2 -12 -5z"/>
<path d="M3258 5270 c-38 -3 -70 -9 -73 -12 -3 -3 50 -6 117 -6 68 0 151 -3
186 -6 75 -6 75 10 -1 18 -103 12 -163 13 -229 6z"/>
<path d="M6640 5255 c-25 -13 -47 -22 -50 -21 -3 2 -13 -5 -22 -16 -15 -15
-15 -18 -3 -18 8 0 15 -5 15 -10 0 -15 72 24 97 54 30 35 17 39 -37 11z"/>
<path d="M6860 5260 c0 -5 4 -10 9 -10 6 0 13 5 16 10 3 6 -1 10 -9 10 -9 0
-16 -4 -16 -10z"/>
<path d="M3150 5251 c0 -7 -4 -9 -10 -6 -5 3 -10 -1 -10 -9 0 -9 5 -16 10 -16
13 0 25 28 16 37 -3 4 -6 1 -6 -6z"/>
<path d="M3560 5252 c0 -5 7 -15 15 -22 8 -7 15 -9 15 -6 0 4 -7 14 -15 22 -8
9 -15 11 -15 6z"/>
<path d="M3070 5230 c0 -13 11 -13 30 0 12 8 11 10 -7 10 -13 0 -23 -4 -23
-10z"/>
<path d="M9310 5230 c0 -5 5 -10 11 -10 5 0 7 5 4 10 -3 6 -8 10 -11 10 -2 0
-4 -4 -4 -10z"/>
<path d="M9610 5231 c0 -5 5 -13 10 -16 6 -3 10 -2 10 4 0 5 -4 13 -10 16 -5
3 -10 2 -10 -4z"/>
<path d="M9640 5210 c0 -5 5 -10 11 -10 5 0 7 5 4 10 -3 6 -8 10 -11 10 -2 0
-4 -4 -4 -10z"/>
<path d="M9443 5202 c-33 -5 -28 -21 12 -38 44 -18 55 -18 55 1 0 8 -4 15 -9
15 -5 0 -16 6 -23 13 -7 6 -23 11 -35 9z"/>
<path d="M3095 5180 c-3 -5 1 -10 10 -10 9 0 13 5 10 10 -3 6 -8 10 -10 10 -2
0 -7 -4 -10 -10z"/>
<path d="M7655 5070 c-18 -19 -18 -20 3 -20 24 0 38 18 25 31 -6 6 -16 2 -28
-11z"/>
<path d="M6180 5049 c0 -5 5 -7 10 -4 6 3 10 8 10 11 0 2 -4 4 -10 4 -5 0 -10
-5 -10 -11z"/>
<path d="M6070 4995 c-19 -23 -8 -26 20 -5 19 15 21 20 9 20 -9 0 -22 -7 -29
-15z"/>
<path d="M6600 4929 c0 -5 5 -7 10 -4 6 3 10 8 10 11 0 2 -4 4 -10 4 -5 0 -10
-5 -10 -11z"/>
<path d="M6516 4865 c-11 -14 -21 -23 -23 -21 -3 2 -30 -20 -60 -50 -30 -31
-53 -58 -49 -61 3 -3 -6 -20 -20 -38 -31 -42 -11 -54 26 -16 14 14 35 32 47
40 20 13 37 45 34 64 -1 5 3 6 9 2 16 -10 50 4 50 21 0 8 3 14 8 14 4 0 12 16
18 35 9 30 9 35 -5 35 -9 0 -25 -11 -35 -25z"/>
<path d="M13925 4860 c3 -5 8 -10 11 -10 2 0 4 5 4 10 0 6 -5 10 -11 10 -5 0
-7 -4 -4 -10z"/>
<path d="M10080 4812 c0 -24 16 -38 53 -47 15 -4 27 -10 28 -14 1 -3 2 -18 3
-32 3 -33 45 -89 67 -89 10 0 20 -4 23 -9 3 -5 39 -19 78 -32 81 -25 77 -24
168 -33 76 -8 127 -15 157 -21 46 -10 30 14 -40 61 -39 27 -79 54 -88 59 -9 6
-41 27 -72 47 -51 34 -57 36 -95 26 -34 -8 -52 -6 -109 12 -37 13 -72 25 -78
29 -5 3 -16 6 -24 8 -8 1 -18 9 -23 17 -5 9 -18 20 -28 26 -17 9 -20 7 -20 -8z"/>
<path d="M4820 4761 c0 -11 31 -24 39 -16 3 3 -1 10 -9 15 -19 12 -30 12 -30
1z"/>
<path d="M796 4726 c3 -9 13 -16 22 -16 8 0 13 1 11 3 -2 1 -12 9 -22 16 -15
12 -17 12 -11 -3z"/>
<path d="M4885 4730 c27 -12 43 -12 25 0 -8 5 -22 9 -30 9 -10 0 -8 -3 5 -9z"/>
<path d="M4720 4681 c0 -16 49 -26 63 -12 8 8 7 11 -3 11 -8 0 -25 3 -37 6
-14 4 -23 2 -23 -5z"/>
<path d="M7520 4670 c-8 -5 -11 -12 -8 -16 4 -3 14 1 23 10 18 17 9 21 -15 6z"/>
<path d="M733 4618 c-30 -48 -44 -88 -17 -53 12 16 16 17 23 6 6 -9 15 -11 27
-6 11 5 25 7 32 6 6 -1 12 5 12 13 0 18 -31 29 -55 19 -14 -5 -17 -3 -12 10 7
20 2 22 -10 5z"/>
<path d="M4597 4604 c-10 -10 35 -45 49 -40 8 3 11 -1 8 -8 -3 -8 5 -21 17
-30 27 -19 42 -10 16 9 -10 7 -14 16 -9 19 5 3 21 -4 36 -15 30 -24 33 -21 9
8 -18 20 -94 63 -111 63 -5 0 -12 -3 -15 -6z"/>
<path d="M10262 4571 c7 -11 18 -23 25 -25 22 -9 14 8 -13 28 -25 18 -25 18
-12 -3z"/>
<path d="M11390 4540 c-6 -12 -9 -24 -6 -27 3 -3 1 -14 -4 -24 -7 -11 -7 -27
0 -43 18 -50 80 -22 80 35 0 17 4 28 9 24 12 -7 43 24 36 35 -7 11 -35 2 -35
-11 0 -17 -33 -9 -51 12 l-18 20 -11 -21z"/>
<path d="M5647 4520 c-9 -11 -17 -22 -17 -25 0 -9 40 19 44 32 8 20 -7 15 -27
-7z"/>
<path d="M4800 4520 c0 -15 70 -24 83 -10 9 9 5 11 -20 5 -21 -4 -33 -3 -33 4
0 6 -7 11 -15 11 -8 0 -15 -4 -15 -10z"/>
<path d="M671 4503 c-7 -14 -18 -69 -21 -103 0 -3 -22 -3 -49 -2 -45 4 -106
-16 -121 -38 -3 -5 -22 -11 -43 -14 -28 -5 -41 -2 -56 13 -21 21 -71 25 -71 6
0 -7 -13 -18 -30 -25 -16 -7 -32 -21 -35 -31 -4 -10 -11 -19 -16 -19 -6 0 -8
-4 -4 -9 3 -5 17 -7 32 -5 15 3 30 0 34 -8 13 -20 11 -38 -5 -38 -7 0 -19 -6
-25 -14 -17 -20 22 -60 50 -51 10 4 19 3 19 -2 0 -17 -27 -84 -38 -95 -7 -7
-12 -16 -12 -21 0 -5 -15 -22 -32 -38 -30 -26 -28 -35 4 -30 5 0 8 -4 8 -9 0
-6 14 -9 31 -8 29 3 32 0 35 -33 3 -24 -4 -51 -20 -83 -26 -52 -24 -81 5 -73
12 3 21 -3 28 -22 19 -49 17 -86 -4 -77 -8 3 -15 1 -15 -3 0 -5 6 -11 13 -14
9 -3 9 -7 -1 -19 -7 -10 -12 -41 -11 -79 0 -35 -2 -75 -5 -89 -16 -63 -27
-137 -30 -198 -2 -57 1 -76 27 -127 16 -33 35 -67 42 -75 8 -8 15 -21 17 -29
2 -8 15 -27 31 -43 25 -25 31 -40 28 -60 0 -5 4 -8 9 -8 6 0 10 4 10 9 0 5 26
17 58 27 115 35 131 48 183 151 18 37 37 70 41 73 4 3 9 17 11 30 2 14 9 38
15 53 7 15 15 40 18 55 15 68 26 92 44 92 12 0 20 11 25 33 14 57 12 71 -12
117 l-24 44 23 17 c12 10 19 21 14 26 -5 4 -11 2 -13 -4 -19 -53 -26 71 -9
155 5 24 30 54 39 46 9 -9 19 53 16 99 -2 23 1 49 6 56 6 10 4 12 -6 6 -11 -7
-12 -6 -3 6 18 23 27 89 13 89 -8 0 -7 4 3 13 9 6 18 32 22 57 3 25 8 57 12
71 5 24 2 28 -33 39 -21 7 -45 21 -54 31 -9 10 -19 16 -22 12 -4 -3 -15 3 -24
14 -10 11 -42 26 -70 33 -52 14 -53 14 -53 51 0 21 4 49 10 63 11 30 5 35 -9
9z"/>
<path d="M10218 4493 c7 -3 16 -2 19 1 4 3 -2 6 -13 5 -11 0 -14 -3 -6 -6z"/>
<path d="M10246 4474 c-7 -18 0 -34 15 -34 6 0 8 4 5 9 -4 5 -1 11 5 13 7 2 6
8 -4 16 -12 10 -16 9 -21 -4z"/>
<path d="M10930 4470 c0 -19 11 -26 23 -14 8 8 -3 34 -14 34 -5 0 -9 -9 -9
-20z"/>
<path d="M9395 4450 c-3 -5 -1 -10 4 -10 6 0 11 5 11 10 0 6 -2 10 -4 10 -3 0
-8 -4 -11 -10z"/>
<path d="M9420 4449 c0 -5 5 -7 10 -4 6 3 10 8 10 11 0 2 -4 4 -10 4 -5 0 -10
-5 -10 -11z"/>
<path d="M5080 4440 c0 -5 4 -10 9 -10 6 0 13 5 16 10 3 6 -1 10 -9 10 -9 0
-16 -4 -16 -10z"/>
<path d="M10440 4410 c0 -5 5 -10 10 -10 6 0 10 5 10 10 0 6 -4 10 -10 10 -5
0 -10 -4 -10 -10z"/>
<path d="M260 4394 c0 -8 5 -12 10 -9 6 3 10 10 10 16 0 5 -4 9 -10 9 -5 0
-10 -7 -10 -16z"/>
<path d="M1130 4388 c0 -4 -7 -8 -16 -8 -9 0 -14 -6 -12 -12 6 -16 48 -23 48
-9 0 6 7 11 15 11 8 0 12 6 9 13 -5 14 -44 18 -44 5z"/>
<path d="M9255 4390 c-3 -5 -2 -10 4 -10 5 0 13 5 16 10 3 6 2 10 -4 10 -5 0
-13 -4 -16 -10z"/>
<path d="M8850 4374 c0 -3 7 -12 15 -20 8 -9 15 -24 15 -35 0 -25 16 -25 23 1
3 11 2 18 -2 15 -5 -2 -13 7 -19 20 -10 22 -32 35 -32 19z"/>
<path d="M920 4361 c0 -12 26 -32 33 -25 3 4 0 13 -8 20 -16 16 -25 18 -25 5z"/>
<path d="M9060 4360 c-8 -5 -17 -7 -21 -4 -4 2 -10 0 -13 -5 -4 -5 5 -8 19 -6
14 1 25 -2 25 -6 0 -5 7 -9 15 -9 18 0 19 14 2 28 -8 7 -18 7 -27 2z"/>
<path d="M10263 4354 c-16 -11 -13 -13 25 -12 27 0 42 4 39 12 -5 15 -43 16
-64 0z"/>
<path d="M10053 4347 c-2 -4 6 -11 18 -16 21 -7 20 -9 -14 -15 -21 -4 -41 -5
-45 -3 -4 3 -45 8 -92 12 -46 4 -95 11 -107 16 -32 12 -90 -17 -98 -48 -3 -15
-10 -21 -18 -17 -9 5 -9 4 0 -6 18 -19 155 -22 206 -5 23 7 65 15 93 18 28 2
60 9 71 15 11 6 23 8 27 5 3 -3 6 1 6 10 0 10 6 17 14 17 8 0 18 5 22 12 4 7
3 8 -4 4 -7 -4 -12 -4 -12 1 0 10 -60 11 -67 0z"/>
<path d="M11060 4331 c0 -12 28 -41 40 -41 22 0 16 18 -11 34 -16 9 -29 13
-29 7z"/>
<path d="M9177 4318 c-7 -5 -2 -8 15 -8 15 0 29 4 33 9 6 11 -30 10 -48 -1z"/>
<path d="M11350 4301 c0 -12 26 -32 33 -25 9 10 -4 34 -19 34 -8 0 -14 -4 -14
-9z"/>
<path d="M11120 4290 c-15 -10 -10 -20 12 -24 7 -1 19 -5 26 -10 7 -4 16 -6
19 -3 2 3 -5 10 -16 17 -12 6 -19 15 -16 21 8 12 -6 12 -25 -1z"/>
<path d="M11430 4280 c0 -5 5 -10 11 -10 5 0 7 5 4 10 -3 6 -8 10 -11 10 -2 0
-4 -4 -4 -10z"/>
<path d="M11845 4270 c-3 -5 -1 -10 4 -10 6 0 11 5 11 10 0 6 -2 10 -4 10 -3
0 -8 -4 -11 -10z"/>
<path d="M11435 4240 c3 -5 8 -10 11 -10 2 0 4 5 4 10 0 6 -5 10 -11 10 -5 0
-7 -4 -4 -10z"/>
<path d="M11796 4208 c-18 -25 -16 -31 7 -23 16 7 31 45 17 45 -5 0 -16 -10
-24 -22z"/>
<path d="M62 4093 c28 -7 31 -33 3 -33 -14 0 -25 -5 -25 -10 0 -10 47 -6 57 4
13 12 -10 46 -30 45 -16 -1 -17 -3 -5 -6z"/>
<path d="M11925 4040 c-3 -5 -1 -10 4 -10 6 0 11 5 11 10 0 6 -2 10 -4 10 -3
0 -8 -4 -11 -10z"/>
<path d="M12102 4028 c-7 -7 -12 -16 -12 -21 0 -5 7 -1 16 8 9 9 14 18 12 20
-2 3 -10 -1 -16 -7z"/>
<path d="M15677 4033 c-12 -11 -8 -23 8 -23 8 0 15 7 15 15 0 16 -12 20 -23 8z"/>
<path d="M52 4021 c-20 -12 12 -73 33 -64 16 6 11 45 -6 51 -5 2 -7 8 -3 13 7
11 -7 11 -24 0z"/>
<path d="M12060 4004 c0 -8 5 -12 10 -9 6 3 10 10 10 16 0 5 -4 9 -10 9 -5 0
-10 -7 -10 -16z"/>
<path d="M148 3973 c-9 -2 -16 -13 -15 -24 2 -26 10 -24 24 6 6 14 10 24 10
24 -1 -1 -10 -3 -19 -6z"/>
<path d="M9252 3939 c2 -7 10 -15 17 -17 8 -3 12 1 9 9 -2 7 -10 15 -17 17 -8
3 -12 -1 -9 -9z"/>
<path d="M940 3899 c0 -5 5 -7 10 -4 6 3 10 8 10 11 0 2 -4 4 -10 4 -5 0 -10
-5 -10 -11z"/>
<path d="M9251 3902 c-1 -7 -12 -25 -26 -39 -23 -26 -23 -28 -7 -46 9 -10 12
-18 7 -17 -6 2 -17 2 -25 0 -11 -1 -9 -4 5 -9 34 -14 59 10 32 30 -5 4 0 15
10 25 15 14 18 26 12 44 -4 14 -7 19 -8 12z"/>
<path d="M9280 3865 c0 -8 5 -15 12 -15 6 0 3 -9 -7 -20 -10 -11 -13 -20 -8
-20 19 0 35 29 28 50 -7 23 -25 27 -25 5z"/>
<path d="M135 3860 c3 -5 8 -10 11 -10 2 0 4 5 4 10 0 6 -5 10 -11 10 -5 0 -7
-4 -4 -10z"/>
<path d="M15735 3860 c-4 -6 -3 -16 3 -22 13 -13 23 4 13 21 -7 10 -10 10 -16
1z"/>
<path d="M12168 3843 c6 -2 10 -9 6 -14 -3 -5 -1 -9 4 -9 6 0 12 7 16 15 4 11
-1 15 -17 14 -12 0 -16 -3 -9 -6z"/>
<path d="M12238 3842 c11 -7 11 -10 -2 -15 -9 -4 -15 -12 -14 -18 2 -6 -3 -14
-11 -17 -9 -3 -11 0 -6 8 5 8 3 11 -5 8 -20 -6 -24 -28 -6 -28 8 0 27 5 41 12
28 13 32 48 5 55 -12 4 -12 3 -2 -5z"/>
<path d="M12095 3810 c-6 -10 1 -14 19 -11 4 1 14 -3 22 -10 17 -14 35 -3 27
17 -5 13 -8 13 -15 2 -7 -10 -11 -10 -15 0 -6 14 -29 16 -38 2z"/>
<path d="M15194 3789 c-3 -6 -3 -26 1 -45 7 -39 -19 -101 -58 -141 -12 -12
-27 -28 -33 -35 -6 -7 -25 -24 -43 -38 -18 -14 -40 -32 -49 -41 -60 -58 -173
-75 -372 -55 -223 21 -284 23 -385 12 -86 -10 -135 -25 -228 -73 -39 -21 -79
-38 -87 -39 -22 -2 -100 -43 -100 -53 0 -5 -14 -14 -31 -21 -17 -7 -36 -18
-42 -25 -7 -6 -47 -30 -89 -53 -43 -22 -90 -52 -105 -66 -15 -14 -40 -30 -55
-37 -15 -6 -28 -16 -28 -21 0 -15 221 109 260 146 32 30 100 58 125 52 24 -6
83 16 96 36 11 17 112 77 121 72 11 -7 5 -46 -17 -104 -9 -25 -18 -52 -19 -60
-1 -8 -8 -28 -15 -45 -7 -16 -15 -64 -18 -105 -5 -65 -10 -78 -37 -108 -17
-19 -53 -45 -81 -59 -27 -14 -52 -29 -55 -32 -3 -4 -32 -23 -65 -41 -33 -19
-61 -37 -63 -42 -2 -4 -12 -8 -23 -8 -10 0 -19 -4 -19 -10 0 -5 -9 -10 -19
-10 -11 0 -26 -6 -33 -13 -13 -14 -90 -36 -145 -42 -23 -2 -106 8 -163 20 -8
2 -32 4 -54 4 -30 1 -37 4 -32 16 6 17 -9 21 -19 5 -3 -5 -36 -26 -73 -47 -37
-20 -73 -43 -80 -50 -7 -7 -18 -13 -23 -13 -5 0 -31 -23 -57 -50 -49 -50 -83
-126 -87 -195 -1 -16 -3 -36 -4 -43 -2 -19 -50 -61 -96 -85 -22 -11 -41 -19
-42 -18 -18 10 -73 -41 -73 -69 0 -10 8 -26 17 -35 25 -25 146 -12 299 31 59
17 120 20 189 9 47 -7 57 -4 130 33 64 32 83 47 94 74 15 34 41 74 76 115 14
17 26 22 45 19 15 -3 42 4 70 19 25 13 41 24 36 25 -5 0 -3 7 4 15 10 12 9 15
-8 15 -11 0 -22 -5 -24 -11 -5 -14 -38 0 -38 17 0 8 16 22 35 31 19 9 35 24
35 32 -1 14 -2 14 -10 0 -10 -18 -67 -45 -76 -36 -10 10 21 46 49 58 28 12
139 17 202 10 17 -1 41 0 55 4 54 16 154 14 172 -2 10 -9 18 -12 18 -7 0 5 5
2 10 -6 6 -10 25 -15 57 -14 52 1 134 38 211 96 41 31 47 32 124 31 55 -1 83
-6 89 -15 13 -21 157 -14 277 12 28 6 58 10 65 7 6 -2 28 4 49 14 20 10 53 25
75 33 21 8 63 24 93 36 50 19 73 27 91 29 12 2 59 47 59 57 0 6 14 11 32 12
17 0 34 5 37 10 3 5 18 12 34 16 15 3 37 16 48 27 11 11 36 23 56 25 39 5 93
30 93 44 0 8 21 18 45 21 16 2 88 40 103 55 12 13 19 15 38 13 3 0 18 17 35
38 16 21 33 43 39 50 5 7 10 24 10 38 0 21 -5 25 -29 25 -18 0 -41 11 -60 30
-32 29 -32 29 -14 57 10 15 33 41 51 56 17 16 32 35 32 42 0 8 9 17 20 20 24
7 25 21 6 41 -20 20 -53 17 -76 -6 -27 -27 -37 -25 -44 6 -6 22 -9 24 -22 13
-9 -7 -37 -14 -62 -15 -26 -1 -83 -14 -127 -29 -44 -15 -87 -28 -95 -29 -8 -1
-25 -7 -36 -14 -12 -6 -24 -9 -27 -6 -3 3 -16 0 -29 -7 -12 -7 -27 -12 -31
-11 -4 1 -22 -6 -40 -15 -35 -19 -67 -25 -67 -13 0 12 -83 50 -108 50 -32 0
-27 14 24 67 64 66 125 149 158 216 25 52 26 58 12 84 -14 29 -50 41 -62 22z
m506 -317 c0 -5 -7 -9 -15 -9 -8 0 -12 4 -9 9 3 4 9 8 15 8 5 0 9 -4 9 -8z
m-591 -106 c43 -15 50 -33 19 -45 -75 -29 -108 -45 -108 -52 0 -5 -18 -18 -40
-29 -46 -23 -46 -22 -22 42 35 93 71 113 151 84z m-95 -375 c9 -14 -30 -52
-58 -57 -14 -2 -36 -6 -48 -9 -110 -23 -159 -31 -163 -25 -2 4 23 20 55 35 33
16 60 32 60 35 0 4 6 7 13 8 6 1 35 6 62 11 71 12 73 12 79 2z m-386 -166
c-27 -25 -48 -51 -48 -58 0 -20 -109 -67 -152 -66 -41 1 -50 14 -18 24 11 3
27 13 35 22 14 13 213 122 225 123 3 0 -16 -20 -42 -45z m-573 -1 c18 -33 18
-37 2 -67 -9 -18 -19 -44 -23 -59 -3 -16 -10 -28 -14 -28 -4 0 -10 -14 -14
-31 -5 -25 -10 -30 -23 -24 -15 6 -51 8 -205 15 -17 0 -6 24 27 55 19 19 37
30 40 24 7 -11 25 -3 25 12 0 20 -44 7 -71 -21 -16 -16 -29 -28 -29 -25 0 3
-9 -4 -19 -14 -18 -18 -90 -45 -98 -37 -8 7 71 77 133 118 109 71 159 98 182
98 12 0 22 5 22 10 0 6 10 10 23 10 16 0 28 -11 42 -36z"/>
<path d="M13920 2735 c-7 -9 -8 -15 -2 -15 5 0 12 7 16 15 3 8 4 15 2 15 -2 0
-9 -7 -16 -15z"/>
<path d="M13880 2709 c0 -5 5 -7 10 -4 6 3 10 8 10 11 0 2 -4 4 -10 4 -5 0
-10 -5 -10 -11z"/>
<path d="M13628 3770 c-27 -10 -48 -16 -48 -14 0 3 -12 -2 -27 -9 -16 -8 -53
-20 -83 -27 -81 -17 -90 -21 -90 -29 0 -10 43 -9 51 2 3 4 15 10 27 12 43 10
58 14 112 34 30 12 62 21 70 21 8 0 24 7 34 15 25 19 13 18 -46 -5z"/>
<path d="M12111 3773 c-2 -22 3 -28 16 -25 7 2 10 -3 7 -11 -3 -8 -11 -14 -17
-13 -13 1 -17 -6 -17 -30 0 -13 6 -11 25 10 13 14 29 26 35 26 5 0 10 5 10 10
0 6 -7 10 -15 10 -8 0 -15 5 -15 11 0 5 -4 8 -9 5 -5 -4 -12 0 -14 6 -4 10 -6
10 -6 1z"/>
<path d="M13199 3736 c-2 -2 -24 -7 -49 -10 -25 -3 -57 -7 -72 -10 -16 -4 -38
-8 -50 -10 -46 -10 -64 -14 -107 -30 -25 -8 -48 -13 -52 -10 -4 2 -10 0 -14
-6 -3 -5 -14 -10 -24 -10 -10 0 -47 -9 -82 -21 -35 -11 -77 -23 -94 -26 -16
-3 -38 -9 -47 -14 -10 -5 -18 -7 -18 -4 0 3 -13 -1 -30 -10 -16 -9 -30 -13
-30 -10 0 3 -19 -4 -42 -16 -23 -12 -52 -22 -65 -24 -27 -3 -39 -12 -30 -21 4
-4 13 -1 22 6 8 7 15 10 15 7 0 -3 25 1 56 9 30 8 64 12 75 9 13 -5 26 0 37
13 9 11 33 23 52 27 19 4 48 14 64 22 15 8 39 12 52 9 13 -4 24 -2 24 3 0 13
77 34 106 28 14 -2 25 2 29 11 3 8 11 12 19 9 8 -3 23 1 35 10 12 8 32 16 44
18 12 2 33 6 47 9 14 3 49 11 78 18 29 6 55 15 58 20 5 8 1 11 -7 4z"/>
<path d="M206 3722 c-2 -4 4 -13 14 -20 14 -9 21 -8 29 2 9 10 8 15 -5 20 -21
8 -32 8 -38 -2z"/>
<path d="M15851 3725 c4 -31 -5 -44 -43 -61 -24 -10 -46 -18 -50 -16 -5 1 -8
-3 -8 -9 0 -6 7 -8 16 -5 27 10 54 -12 55 -47 l1 -32 9 26 c5 15 20 31 32 37
18 9 19 11 4 11 -15 1 -16 4 -7 21 6 11 15 18 21 15 5 -4 9 -1 9 4 0 6 -5 11
-11 11 -5 0 -8 4 -5 9 3 4 -1 17 -9 27 -9 10 -15 15 -14 9z"/>
<path d="M14272 3689 c-23 -15 -48 -21 -80 -21 -40 1 -55 -4 -85 -29 -20 -17
-37 -35 -37 -40 0 -6 -7 -17 -16 -26 -25 -26 0 -42 34 -21 15 9 47 28 72 41
25 14 54 35 65 47 11 12 37 31 58 41 35 18 46 29 30 29 -5 0 -23 -10 -41 -21z"/>
<path d="M142 3689 c2 -7 10 -15 17 -17 8 -3 12 1 9 9 -2 7 -10 15 -17 17 -8
3 -12 -1 -9 -9z"/>
<path d="M13330 3684 c-19 -7 -43 -13 -52 -13 -9 -1 -19 -5 -22 -9 -6 -9 68 1
97 13 9 4 17 11 17 16 0 5 -1 8 -2 8 -2 -1 -19 -7 -38 -15z"/>
<path d="M63 3667 c-59 -29 -58 -51 2 -45 35 4 45 2 45 -9 0 -8 5 -11 10 -8 8
5 7 11 -1 21 -6 8 -8 25 -5 39 8 30 4 30 -51 2z"/>
<path d="M260 3670 c0 -6 -9 -10 -19 -10 -22 0 -69 -35 -59 -45 3 -4 20 1 37
10 17 8 31 13 31 10 0 -3 9 -1 20 5 24 13 26 26 5 34 -8 3 -15 1 -15 -4z"/>
<path d="M14580 3660 c0 -5 5 -10 10 -10 6 0 10 5 10 10 0 6 -4 10 -10 10 -5
0 -10 -4 -10 -10z"/>
<path d="M14539 3653 c-15 -2 -37 -15 -50 -29 -21 -22 -21 -24 -3 -24 10 1 35
14 54 30 19 17 32 29 30 29 -3 -1 -17 -4 -31 -6z"/>
<path d="M13130 3629 c0 -5 5 -7 10 -4 6 3 10 8 10 11 0 2 -4 4 -10 4 -5 0
-10 -5 -10 -11z"/>
<path d="M12032 3619 c2 -6 8 -10 13 -10 5 0 11 4 13 10 2 6 -4 11 -13 11 -9
0 -15 -5 -13 -11z"/>
<path d="M13070 3621 c0 -6 10 -8 21 -6 33 6 36 15 6 15 -15 0 -27 -4 -27 -9z"/>
<path d="M15660 3600 c-9 -6 -10 -10 -3 -10 6 0 15 5 18 10 8 12 4 12 -15 0z"/>
<path d="M12135 3490 c-3 -5 1 -10 10 -10 9 0 13 5 10 10 -3 6 -8 10 -10 10
-2 0 -7 -4 -10 -10z"/>
<path d="M12405 3479 c-22 -10 -34 -19 -27 -19 6 0 12 -10 12 -22 0 -23 0 -23
13 2 7 13 23 30 36 36 39 20 8 22 -34 3z"/>
<path d="M12170 3480 c0 -5 16 -17 35 -26 23 -11 41 -29 50 -51 8 -19 19 -32
24 -29 12 8 5 47 -10 57 -6 4 -8 12 -4 19 5 8 4 11 -3 6 -6 -3 -13 -2 -17 3
-3 5 2 14 11 19 12 7 3 10 -35 10 -28 1 -51 -3 -51 -8z"/>
<path d="M13855 3475 l-30 -13 27 -1 c15 -1 30 4 33 10 11 17 2 18 -30 4z"/>
<path d="M185 3470 c-3 -5 -1 -10 4 -10 6 0 11 5 11 10 0 6 -2 10 -4 10 -3 0
-8 -4 -11 -10z"/>
<path d="M14065 3470 c-3 -5 -2 -10 4 -10 5 0 13 5 16 10 3 6 2 10 -4 10 -5 0
-13 -4 -16 -10z"/>
<path d="M12448 3463 c7 -3 16 -2 19 1 4 3 -2 6 -13 5 -11 0 -14 -3 -6 -6z"/>
<path d="M13993 3462 c-33 -2 -44 -8 -49 -25 -4 -11 -13 -28 -21 -36 -13 -12
-13 -15 1 -23 12 -7 25 1 53 30 21 22 45 41 53 44 25 9 8 13 -37 10z"/>
<path d="M11837 3443 c-10 -9 -9 -43 1 -43 4 0 9 11 10 25 2 26 0 29 -11 18z"/>
<path d="M12105 3436 c23 -15 65 -30 65 -22 0 8 -56 36 -72 36 -7 0 -4 -6 7
-14z"/>
<path d="M12315 3440 c3 -5 14 -10 23 -10 15 0 15 2 2 10 -20 13 -33 13 -25 0z"/>
<path d="M226 3413 c-5 -12 -4 -13 7 -5 8 7 16 9 19 6 3 -3 8 -1 11 3 3 5 -3
9 -13 10 -10 1 -21 -5 -24 -14z"/>
<path d="M12570 3409 c0 -5 5 -7 10 -4 6 3 10 8 10 11 0 2 -4 4 -10 4 -5 0
-10 -5 -10 -11z"/>
<path d="M12675 3410 c-3 -5 -2 -10 4 -10 5 0 18 -3 28 -7 16 -6 16 -5 4 10
-15 19 -27 22 -36 7z"/>
<path d="M12743 3403 c-20 -7 -15 -23 7 -23 11 0 20 4 20 9 0 13 -12 19 -27
14z"/>
<path d="M12708 3363 c7 -3 16 -2 19 1 4 3 -2 6 -13 5 -11 0 -14 -3 -6 -6z"/>
<path d="M13730 3356 c-17 -10 -30 -11 -43 -4 -20 10 -40 -1 -67 -37 -18 -25
-16 -30 15 -31 15 -1 27 6 30 15 3 9 29 29 58 43 28 15 48 27 42 27 -5 0 -21
-6 -35 -13z"/>
<path d="M12724 3291 c9 -15 -26 -46 -91 -80 -39 -21 -67 -30 -75 -25 -35 22
-50 8 -22 -20 10 -10 11 -16 4 -16 -8 0 -10 -9 -6 -24 5 -19 1 -26 -14 -30
-11 -3 -30 -9 -41 -12 -15 -4 -19 -3 -14 6 5 9 1 10 -14 5 -13 -4 -36 -1 -54
7 -18 8 -50 13 -72 12 -22 -1 -49 -3 -60 -4 -18 -1 -18 -2 4 -14 12 -7 34 -11
48 -8 19 4 24 1 21 -9 -3 -8 -19 -14 -39 -14 -19 0 -35 -4 -37 -9 -4 -15 164
-19 190 -5 15 8 23 9 26 1 2 -6 11 -3 23 9 21 21 49 26 49 8 0 -8 4 -9 13 0 8
6 16 9 19 6 14 -14 111 -24 131 -14 65 36 102 110 86 174 -1 6 -3 16 -3 24 -1
15 -36 25 -36 10 0 -5 -4 -9 -10 -9 -5 0 -10 9 -10 20 0 11 -5 20 -11 20 -5 0
-8 -4 -5 -9z m-344 -215 c0 -11 -19 -15 -25 -6 -3 5 1 10 9 10 9 0 16 -2 16
-4z m65 -16 c-3 -5 -16 -10 -28 -10 -18 0 -19 2 -7 10 20 13 43 13 35 0z"/>
<path d="M12680 3280 c-13 -8 -13 -10 2 -10 9 0 20 5 23 10 8 13 -5 13 -25 0z"/>
<path d="M11930 3273 c0 -15 19 -37 26 -31 3 4 -1 14 -10 23 -9 9 -16 13 -16
8z"/>
<path d="M12070 3230 c0 -5 5 -10 11 -10 5 0 7 5 4 10 -3 6 -8 10 -11 10 -2 0
-4 -4 -4 -10z"/>
<path d="M12160 3210 c0 -5 5 -10 10 -10 6 0 10 5 10 10 0 6 -4 10 -10 10 -5
0 -10 -4 -10 -10z"/>
<path d="M13321 3170 c-83 -44 -104 -60 -78 -60 9 0 17 4 17 8 0 5 32 23 70
42 39 19 70 37 70 42 0 11 5 13 -79 -32z"/>
<path d="M12766 3071 c-4 -6 -4 -11 -1 -11 4 0 -1 -8 -11 -17 -15 -16 -15 -17
2 -24 11 -4 15 -8 10 -8 -5 -1 -3 -8 5 -17 8 -9 26 -15 48 -13 20 1 43 -1 51
-5 8 -3 35 -4 60 -2 25 3 50 5 56 5 7 1 14 10 17 21 4 15 0 20 -16 21 -12 1
-42 3 -67 5 -58 5 -63 5 -106 3 -38 -1 -55 8 -37 19 7 5 9 13 4 21 -6 9 -11
10 -15 2z"/>
<path d="M13445 3040 c-3 -5 -2 -10 4 -10 5 0 13 5 16 10 3 6 2 10 -4 10 -5 0
-13 -4 -16 -10z"/>
<path d="M12677 3009 c4 -15 8 -17 14 -8 8 14 3 29 -11 29 -4 0 -6 -9 -3 -21z"/>
<path d="M13038 3013 c6 -2 18 -2 25 0 6 3 1 5 -13 5 -14 0 -19 -2 -12 -5z"/>
<path d="M13084 3005 c-10 -8 -14 -15 -8 -15 6 0 17 7 24 15 16 19 9 19 -16 0z"/>
<path d="M13030 2990 c0 -5 5 -10 11 -10 5 0 7 5 4 10 -3 6 -8 10 -11 10 -2 0
-4 -4 -4 -10z"/>
<path d="M13400 2922 c-27 -4 -53 -22 -31 -22 7 0 10 -4 7 -9 -4 -5 12 -1 34
10 54 26 52 30 -10 21z"/>
<path d="M12505 2830 c-3 -5 -2 -10 4 -10 5 0 13 5 16 10 3 6 2 10 -4 10 -5 0
-13 -4 -16 -10z"/>
<path d="M12768 2823 c6 -2 18 -2 25 0 6 3 1 5 -13 5 -14 0 -19 -2 -12 -5z"/>
<path d="M14448 2430 c-9 -6 -29 -12 -45 -14 -90 -11 -143 -42 -57 -33 26 2
50 9 52 16 2 6 11 11 21 11 9 0 26 7 37 15 22 16 17 19 -8 5z"/>
<path d="M14208 2360 c-15 -5 -29 -5 -32 -2 -3 3 -6 0 -6 -6 0 -14 39 -16 60
-2 21 13 9 18 -22 10z"/>
<path d="M14170 2319 c0 -11 27 -12 34 -1 2 4 -4 9 -15 9 -10 1 -19 -2 -19 -8z"/>
<path d="M11945 2241 c-3 -5 -1 -12 5 -16 5 -3 10 1 10 9 0 18 -6 21 -15 7z"/>
<path d="M12277 2164 c-15 -8 -32 -12 -37 -9 -16 10 -12 -11 5 -25 12 -10 20
-6 46 19 33 34 29 38 -14 15z"/>
<path d="M11885 2140 c-4 -6 -3 -14 0 -20 9 -14 45 -12 45 3 0 7 7 4 15 -7 8
-11 15 -15 15 -9 0 15 53 3 66 -15 12 -17 49 -9 39 8 -3 5 0 10 7 11 22 2 -53
19 -107 25 -27 3 -55 7 -62 9 -7 2 -15 0 -18 -5z"/>
<path d="M12303 2059 c-18 -5 -33 -12 -33 -14 0 -9 53 4 64 15 11 11 12 11
-31 -1z"/>
<path d="M44 2041 c11 -11 23 -21 28 -21 14 0 -1 19 -25 31 -22 12 -22 12 -3
-10z"/>
<path d="M110 1973 c0 -13 5 -23 10 -23 13 0 13 11 0 30 -8 12 -10 11 -10 -7z"/>
<path d="M12170 1778 c0 -11 22 -10 40 2 11 8 9 9 -12 8 -16 -1 -28 -6 -28
-10z"/>
<path d="M11860 1651 c0 -8 -8 -11 -20 -8 -11 3 -18 1 -14 -4 3 -5 11 -9 19
-9 16 0 30 18 21 27 -3 4 -6 1 -6 -6z"/>
<path d="M12084 1615 c6 -19 14 -35 18 -35 11 0 10 15 -4 45 -17 37 -27 30
-14 -10z"/>
<path d="M12050 1545 c0 -8 2 -15 4 -15 2 0 6 7 10 15 3 8 1 15 -4 15 -6 0
-10 -7 -10 -15z"/>
<path d="M12310 1481 c0 -3 4 -12 8 -19 7 -10 12 -8 26 7 16 18 16 19 -9 19
-14 0 -25 -3 -25 -7z"/>
<path d="M12253 1432 c-17 -11 -31 -54 -24 -74 11 -31 63 29 54 63 -6 21 -12
23 -30 11z"/>
<path d="M293 1398 c-18 -5 -33 -14 -34 -21 0 -7 -2 -22 -5 -34 -2 -13 0 -23
6 -23 5 0 17 -14 26 -32 9 -18 23 -38 30 -46 8 -7 14 -17 14 -22 0 -5 20 -25
44 -44 57 -47 148 -69 174 -42 16 17 15 18 -15 11 -25 -5 -32 -3 -37 13 -4 11
-23 35 -44 54 -78 74 -90 93 -91 150 -1 35 -26 48 -68 36z"/>
<path d="M970 1165 l-25 -15 24 4 c14 1 27 8 29 14 5 15 3 15 -28 -3z"/>
<path d="M7625 1130 c-3 -5 3 -10 14 -10 11 0 23 5 26 10 3 6 -3 10 -14 10
-11 0 -23 -4 -26 -10z"/>
<path d="M1375 1057 c-4 -10 -5 -21 -1 -24 10 -10 18 4 13 24 -4 17 -4 17 -12
0z"/>
<path d="M7850 1040 c0 -5 5 -10 10 -10 6 0 10 5 10 10 0 6 -4 10 -10 10 -5 0
-10 -4 -10 -10z"/>
<path d="M11520 1031 c0 -5 -10 -11 -22 -13 -30 -4 -35 -26 -4 -24 13 0 22 4
20 7 -6 11 24 19 44 12 14 -5 13 -3 -3 10 -23 19 -35 21 -35 8z"/>
<path d="M8074 1005 c11 -8 29 -15 40 -15 19 1 19 2 -4 15 -35 20 -62 19 -36
0z"/>
<path d="M8155 999 c-15 -5 -16 -8 -4 -8 9 -1 21 -11 27 -23 6 -13 11 -17 11
-10 1 6 8 12 17 12 9 0 14 6 12 13 -3 6 -11 12 -19 12 -8 0 -16 3 -19 6 -3 4
-14 3 -25 -2z"/>
<path d="M8350 981 c0 -6 -25 -9 -62 -6 -35 2 -54 2 -43 -1 11 -3 27 -8 35
-11 8 -3 23 -5 34 -4 10 2 15 -2 12 -8 -4 -6 7 -8 31 -4 48 7 48 7 18 27 -14
9 -25 12 -25 7z"/>
<path d="M11649 977 c12 -15 9 -21 -11 -19 -14 2 -17 -29 -2 -35 8 -3 13 -12
10 -19 -4 -10 5 -14 32 -14 20 -1 48 -7 62 -15 49 -28 90 -8 90 45 0 22 -6 29
-26 34 -14 4 -31 3 -37 -2 -7 -5 -23 -8 -37 -7 -14 2 -36 -4 -49 -12 -35 -23
-49 -1 -15 26 15 11 22 21 16 21 -6 0 -19 3 -29 7 -16 6 -16 5 -4 -10z"/>
<path d="M5768 967 c6 -7 28 -14 49 -15 38 -2 38 -2 13 13 -33 19 -77 20 -62
2z"/>
<path d="M7290 950 c0 -5 5 -10 11 -10 5 0 7 5 4 10 -3 6 -8 10 -11 10 -2 0
-4 -4 -4 -10z"/>
<path d="M8215 950 c4 -6 11 -8 16 -5 14 9 11 15 -7 15 -8 0 -12 -5 -9 -10z"/>
<path d="M11571 948 c-1 -12 6 -18 20 -18 11 0 17 5 14 10 -4 6 -10 8 -15 5
-4 -3 -11 1 -13 7 -3 8 -6 6 -6 -4z"/>
<path d="M5886 925 c4 -8 15 -15 26 -15 17 0 18 3 8 15 -7 8 -19 15 -26 15 -8
0 -11 -6 -8 -15z"/>
<path d="M5765 910 c-3 -5 1 -10 9 -10 9 0 16 5 16 10 0 6 -4 10 -9 10 -6 0
-13 -4 -16 -10z"/>
<path d="M5848 892 c-8 -10 -24 -23 -34 -30 -16 -10 -15 -10 6 0 63 30 71 35
57 41 -8 3 -21 -2 -29 -11z"/>
<path d="M8438 833 c7 -3 16 -2 19 1 4 3 -2 6 -13 5 -11 0 -14 -3 -6 -6z"/>
<path d="M8870 755 c0 -8 -6 -15 -12 -15 -7 0 -26 -10 -43 -21 l-30 -21 28 5
c21 3 27 1 23 -10 -3 -8 -1 -11 4 -8 6 3 10 1 10 -5 0 -7 7 -5 16 4 8 9 19 16
24 16 12 0 21 31 15 51 -7 23 -35 25 -35 4z"/>
<path d="M2521 724 c0 -11 3 -14 6 -6 3 7 2 16 -1 19 -3 4 -6 -2 -5 -13z"/>
<path d="M2560 720 c-9 -6 -10 -10 -3 -10 6 0 15 5 18 10 8 12 4 12 -15 0z"/>
<path d="M8900 688 c0 -5 -4 -6 -10 -3 -5 3 -10 -3 -10 -13 0 -16 22 -36 33
-30 1 1 12 -4 23 -10 18 -9 24 -8 35 4 11 13 15 14 23 2 6 -7 23 -19 38 -25
23 -10 30 -10 43 3 21 21 19 44 -4 44 -11 0 -23 5 -26 11 -4 6 -13 8 -21 5 -8
-3 -14 0 -14 6 0 7 -4 7 -14 -1 -11 -10 -17 -8 -25 6 -8 14 -11 15 -12 3 -1
-8 -1 -21 0 -27 2 -15 -24 -16 -54 -3 l-20 9 20 1 c11 2 23 2 27 1 4 0 5 5 2
12 -5 15 -34 19 -34 5z"/>
<path d="M2292 641 c-11 -7 -11 -9 2 -14 10 -4 16 -1 16 8 0 17 -1 17 -18 6z"/>
<path d="M6068 643 c7 -3 16 -2 19 1 4 3 -2 6 -13 5 -11 0 -14 -3 -6 -6z"/>
<path d="M7270 632 c0 -5 7 -17 16 -28 15 -18 15 -18 5 2 -6 12 -7 24 -4 28 3
3 1 6 -5 6 -7 0 -12 -4 -12 -8z"/>
<path d="M8656 613 c-4 -8 3 -13 19 -13 15 0 25 6 25 14 0 18 -38 17 -44 -1z"/>
<path d="M5386 601 c-13 -21 6 -31 50 -28 55 5 70 17 21 17 -20 0 -40 0 -43
-1 -4 0 -10 5 -14 11 -5 9 -9 9 -14 1z"/>
<path d="M8624 568 c-18 -19 -11 -58 10 -58 17 0 42 29 50 57 6 20 4 23 -19
21 -14 -1 -33 -10 -41 -20z"/>
<path d="M2590 560 c0 -5 5 -10 11 -10 5 0 7 5 4 10 -3 6 -8 10 -11 10 -2 0
-4 -4 -4 -10z"/>
<path d="M6255 520 c-3 -5 -1 -10 4 -10 6 0 11 5 11 10 0 6 -2 10 -4 10 -3 0
-8 -4 -11 -10z"/>
<path d="M5570 475 c0 -8 -6 -15 -13 -15 -8 0 -14 -7 -14 -15 0 -17 13 -20 22
-5 10 16 28 12 21 -5 -3 -8 -3 -22 1 -31 5 -14 8 -12 19 7 10 19 10 29 -2 51
-16 30 -34 37 -34 13z"/>
<path d="M5036 455 c-22 -17 -21 -20 12 -29 23 -8 32 8 10 17 -10 4 -10 6 0 6
6 1 12 6 12 11 0 14 -11 12 -34 -5z"/>
<path d="M5435 440 c4 -6 11 -8 16 -5 14 9 11 15 -7 15 -8 0 -12 -5 -9 -10z"/>
<path d="M5494 430 c1 -8 10 -16 21 -17 15 -1 15 0 3 3 -9 3 -19 11 -21 17 -2
7 -3 5 -3 -3z"/>
<path d="M4775 430 c-3 -5 -2 -10 4 -10 5 0 13 5 16 10 3 6 2 10 -4 10 -5 0
-13 -4 -16 -10z"/>
<path d="M4946 423 c-3 -7 -2 -13 3 -13 5 0 14 6 20 13 8 10 7 14 -4 14 -8 0
-16 -6 -19 -14z"/>
<path d="M5160 410 c0 -5 5 -10 10 -10 6 0 10 5 10 10 0 6 -4 10 -10 10 -5 0
-10 -4 -10 -10z"/>
<path d="M5418 413 c-11 -3 -18 -14 -18 -30 0 -14 -9 -36 -20 -51 -15 -19 -18
-28 -9 -36 8 -8 13 -7 16 2 3 7 11 19 19 26 8 8 14 22 14 31 0 19 22 15 28 -5
3 -7 0 -10 -7 -6 -6 4 -11 1 -11 -8 0 -21 21 -31 31 -15 6 10 9 10 9 2 0 -7 9
-17 20 -23 16 -9 20 -8 20 5 0 9 -5 13 -10 10 -6 -4 -17 10 -25 29 -11 25 -22
36 -36 36 -11 0 -17 4 -14 10 4 6 16 8 28 4 19 -6 20 -5 8 10 -7 9 -16 15 -20
15 -3 -1 -14 -3 -23 -6z"/>
<path d="M7670 399 c0 -5 5 -7 10 -4 6 3 10 8 10 11 0 2 -4 4 -10 4 -5 0 -10
-5 -10 -11z"/>
<path d="M5100 390 c0 -5 5 -10 11 -10 5 0 7 5 4 10 -3 6 -8 10 -11 10 -2 0
-4 -4 -4 -10z"/>
<path d="M5040 381 c0 -6 4 -13 10 -16 6 -3 7 1 4 9 -7 18 -14 21 -14 7z"/>
<path d="M5715 370 c-3 -5 -1 -10 4 -10 6 0 11 5 11 10 0 6 -2 10 -4 10 -3 0
-8 -4 -11 -10z"/>
<path d="M5560 345 c0 -8 4 -15 10 -15 5 0 7 7 4 15 -4 8 -8 15 -10 15 -2 0
-4 -7 -4 -15z"/>
<path d="M3275 330 c-3 -6 1 -7 9 -4 18 7 21 14 7 14 -6 0 -13 -4 -16 -10z"/>
<path d="M4590 290 c0 -5 6 -11 13 -12 6 0 17 -2 22 -2 6 -1 16 -5 23 -9 6 -5
12 -4 12 2 0 12 -7 16 -42 25 -17 4 -28 2 -28 -4z"/>
<path d="M5357 273 c-4 -3 -7 -11 -7 -17 0 -6 5 -5 12 2 6 6 9 14 7 17 -3 3
-9 2 -12 -2z"/>
<path d="M3377 250 c-3 -11 -3 -20 -1 -20 2 0 8 9 14 20 6 11 7 20 2 20 -6 0
-12 -9 -15 -20z"/>
<path d="M3470 234 c0 -8 5 -12 10 -9 6 4 8 11 5 16 -9 14 -15 11 -15 -7z"/>
<path d="M5330 216 c0 -9 5 -16 10 -16 6 0 10 4 10 9 0 6 -4 13 -10 16 -5 3
-10 -1 -10 -9z"/>
<path d="M2496 172 c-7 -22 -8 -22 -22 -5 -11 14 -13 15 -14 3 0 -13 -1 -13
-10 0 -8 13 -10 12 -10 -2 0 -10 0 -19 1 -20 0 -2 -4 -14 -9 -28 -7 -19 -5
-29 9 -44 17 -17 19 -18 19 -3 0 9 5 17 10 17 6 0 10 7 10 15 0 9 7 27 16 40
9 13 14 30 12 37 -3 8 -8 3 -12 -10z"/>
<path d="M5315 180 c3 -5 8 -10 11 -10 2 0 4 5 4 10 0 6 -5 10 -11 10 -5 0 -7
-4 -4 -10z"/>
</g>
</svg>
